# Blender 4.4.1
# www.blender.org
mtllib sizukuSpecialRain.mtl
o 平面.001
v -0.866025 0.000000 -0.500000
v -1.685095 0.000000 0.000000
v -0.866025 0.000000 0.500000
v 0.866025 0.000000 0.500000
v 0.866025 0.000000 -0.500000
v -0.866025 -0.500000 0.000000
v 0.000000 -1.000000 0.000000
v 0.866025 -0.500000 0.000000
v 1.685095 0.000000 -0.000000
v 0.866025 0.500000 -0.000000
v -0.000000 1.000000 -0.000000
v -0.842548 1.459335 -0.000000
v -0.866025 0.500000 -0.000000
v -0.433013 0.750000 -0.500000
v 0.433013 -0.750000 -0.500000
v 0.842547 -1.459335 -0.000000
v 0.433013 -0.750000 0.500000
v -0.433013 0.750000 0.500000
v 0.000000 0.000000 0.000000
v -0.433013 -0.750000 -0.500000
v -0.842547 -1.459335 0.000000
v -0.433013 -0.750000 0.500000
v 0.433013 0.750000 0.500000
v 0.842547 1.459335 -0.000000
v 0.433013 0.750000 -0.500000
v -0.866025 -0.250000 -0.433013
v 0.000000 -0.500000 -0.866025
v 0.866025 -0.250000 -0.433013
v 0.866025 0.250000 0.433013
v -0.000000 0.500000 0.866025
v -0.842548 0.729667 1.263821
v -0.866025 0.250000 0.433013
v -0.433013 0.808013 0.399519
v 0.433013 0.058013 -0.899519
v 0.842547 -0.729667 -1.263821
v 0.433013 -0.808013 -0.399519
v -0.433013 -0.058013 0.899519
v 0.000000 0.000000 0.000000
v -0.433013 0.058013 -0.899519
v -0.842547 -0.729667 -1.263821
v -0.433013 -0.808013 -0.399519
v 0.433013 -0.058013 0.899519
v 0.842547 0.729667 1.263821
v 0.433013 0.808013 0.399519
v -0.866025 -0.250000 0.433013
v 0.000000 -0.500000 0.866025
v 0.866025 -0.250000 0.433013
v 0.866025 0.250000 -0.433013
v -0.000000 0.500000 -0.866025
v -0.842548 0.729667 -1.263821
v -0.866025 0.250000 -0.433013
v -0.433013 -0.058013 -0.899519
v 0.433013 -0.808013 0.399519
v 0.842547 -0.729667 1.263821
v 0.433013 0.058013 0.899519
v -0.433013 0.808013 -0.399519
v 0.000000 0.000000 0.000000
v -0.433013 -0.808013 0.399519
v -0.842547 -0.729667 1.263821
v -0.433013 0.058013 0.899519
v 0.433013 0.808013 -0.399519
v 0.842547 0.729667 -1.263821
v 0.433013 -0.058013 -0.899519
vn 0.3780 0.6547 -0.6547
vn 0.3963 0.6492 0.6492
vn 0.7604 -0.0186 0.6492
vn 0.7604 0.0186 0.6492
vn -0.3780 0.6547 -0.6547
vn -0.7604 0.0186 0.6492
vn -0.3641 -0.6678 0.6492
vn 0.7559 -0.0000 0.6547
vn 0.3641 -0.6678 -0.6492
vn 0.7604 0.0186 -0.6492
vn 0.3780 -0.6547 0.6547
vn 0.3963 0.6492 -0.6492
vn 0.3780 0.6547 0.6547
vn 0.3963 -0.6492 -0.6492
vn -0.3641 -0.6678 -0.6492
vn 0.7559 -0.0000 -0.6547
vn 0.7604 -0.0186 -0.6492
vn 0.3641 0.6678 0.6492
vn -0.3780 -0.6547 0.6547
vn -0.3780 -0.6547 -0.6547
vn -0.7604 0.0186 -0.6492
vn 0.3641 0.6678 -0.6492
vn -0.3963 0.6492 -0.6492
vn -0.3963 0.6492 0.6492
vn -0.3963 -0.6492 0.6492
vn -0.3963 -0.6492 -0.6492
vn 0.3780 -0.6547 -0.6547
vn 0.3963 -0.6492 0.6492
vn -0.3780 0.6547 0.6547
vn -0.7559 -0.0000 0.6547
vn -0.7559 -0.0000 -0.6547
vn -0.7604 -0.0186 -0.6492
vn -0.3641 0.6678 -0.6492
vn -0.3641 0.6678 0.6492
vn -0.7604 -0.0186 0.6492
vn 0.3641 -0.6678 0.6492
vn 0.7604 -0.5715 0.3085
vn 0.7604 -0.5529 0.3407
vn -0.3780 0.8943 0.2396
vn -0.7604 -0.5529 0.3407
vn -0.3641 -0.8961 -0.2537
vn 0.7559 -0.5669 0.3273
vn 0.3641 0.2283 -0.9029
vn 0.7604 0.5715 -0.3085
vn -0.3641 0.2283 -0.9029
vn 0.7559 0.5669 -0.3273
vn 0.7604 0.5529 -0.3407
vn 0.3641 -0.2283 0.9029
vn -0.3780 -0.8943 -0.2396
vn -0.3780 0.2396 -0.8943
vn -0.7604 0.5715 -0.3085
vn 0.3641 0.8961 0.2537
vn 0.3780 -0.2396 0.8943
vn -0.7559 -0.5669 0.3273
vn -0.7559 0.5669 -0.3273
vn 0.3780 0.8943 0.2396
vn -0.3780 -0.2396 0.8943
vn -0.7604 0.5529 -0.3407
vn -0.3641 0.8961 0.2537
vn 0.3780 0.2396 -0.8943
vn 0.3780 -0.8943 -0.2396
vn -0.3641 -0.2283 0.9029
vn -0.7604 -0.5715 0.3085
vn 0.3641 -0.8961 -0.2537
vn 0.7604 0.5529 0.3407
vn 0.7604 0.5715 0.3085
vn -0.3780 -0.2396 -0.8943
vn -0.7604 0.5715 0.3085
vn -0.3641 0.2283 0.9029
vn 0.7559 0.5669 0.3273
vn 0.3641 -0.8961 0.2537
vn 0.7604 -0.5529 -0.3407
vn -0.3641 -0.8961 0.2537
vn 0.7559 -0.5669 -0.3273
vn 0.7604 -0.5715 -0.3085
vn 0.3641 0.8961 -0.2537
vn -0.3780 0.2396 0.8943
vn -0.3780 -0.8943 0.2396
vn -0.7604 -0.5529 -0.3407
vn 0.3641 -0.2283 -0.9029
vn 0.3780 0.8943 -0.2396
vn -0.7559 0.5669 0.3273
vn -0.7559 -0.5669 -0.3273
vn 0.3780 -0.2396 -0.8943
vn -0.3780 0.8943 -0.2396
vn -0.7604 -0.5715 -0.3085
vn -0.3641 -0.2283 -0.9029
vn 0.3780 -0.8943 0.2396
vn 0.3780 0.2396 0.8943
vn -0.3641 0.8961 -0.2537
vn -0.7604 0.5529 0.3407
vn 0.3641 0.2283 0.9029
vt 0.835002 0.583897
vt 0.762785 0.685010
vt 0.733320 0.618769
vt 0.881610 0.925183
vt 0.833035 0.815846
vt 0.917595 0.815846
vt 0.733320 0.885581
vt 0.672422 0.976290
vt 0.648674 0.885581
vt 0.573057 0.578086
vt 0.654722 0.638774
vt 0.573057 0.669249
vt 0.572375 0.703813
vt 0.490710 0.673338
vt 0.570477 0.578937
vt 0.399226 0.000000
vt 0.410467 0.119367
vt 0.327858 0.094177
vt 0.573057 0.489334
vt 0.655080 0.516369
vt 0.573057 0.578086
vt 0.404390 0.882368
vt 0.489037 0.882368
vt 0.426699 0.976109
vt 0.569863 0.382733
vt 0.569863 0.293981
vt 0.651886 0.321016
vt 0.481834 0.000000
vt 0.493075 0.119367
vt 0.410467 0.094177
vt 0.408101 0.707455
vt 0.325456 0.676652
vt 0.408101 0.584761
vt 0.739549 -0.000000
vt 0.827749 -0.000000
vt 0.784898 0.114968
vt 0.762275 0.399883
vt 0.834296 0.391583
vt 0.834296 0.495255
vt 0.733320 0.771413
vt 0.698301 0.885581
vt 0.648760 0.771413
vt 0.734582 0.466884
vt 0.246243 0.878547
vt 0.205725 0.989996
vt 0.163579 0.878547
vt 0.575422 0.088752
vt 0.657445 0.061717
vt 0.650987 0.186503
vt 0.479469 0.572529
vt 0.408101 0.478352
vt 0.490710 0.453162
vt -0.000000 0.924526
vt 0.077690 0.834185
vt 0.077690 0.952770
vt 0.327858 0.188149
vt 0.078275 0.834185
vt 0.000000 0.737429
vt 0.078275 0.710849
vt 0.079266 0.887275
vt 0.161153 0.959603
vt 0.079266 0.981042
vt 0.575422 0.000000
vt 0.251778 0.768522
vt 0.208740 0.878547
vt 0.163579 0.768522
vt 0.833035 0.795064
vt 0.761013 0.699692
vt 0.833035 0.691392
vt 0.733320 0.766693
vt 0.325456 0.832321
vt 0.402733 0.917631
vt 0.325456 0.951963
vt 0.835002 0.691392
vt 0.833035 0.815846
vt 0.833035 0.691392
vt 0.910607 0.782185
vt 0.731388 0.268854
vt 0.760853 0.202613
vt 0.833070 0.303725
vt 0.079266 0.887275
vt 0.079266 0.768342
vt 0.160860 0.853784
vt 0.833070 0.196230
vt 0.910414 0.116787
vt 0.827749 0.116787
vt 0.870756 -0.000000
vt 0.648622 0.391583
vt 0.575356 0.974968
vt 0.490710 0.974968
vt 0.513018 0.881226
vt 0.408101 0.384380
vt 0.408101 0.290203
vt 0.408101 0.196230
vt 0.490710 0.265012
vt 0.490710 0.764501
vt 0.493075 0.090995
vt 0.568540 -0.000000
vt 0.575422 0.119578
vt 0.161289 0.456040
vt 0.154832 0.580826
vt 0.079266 0.483076
vt 0.493075 0.187354
vt 0.410467 0.188149
vt 0.652824 0.763649
vt 0.079266 0.394324
vt 0.479469 0.384380
vt 0.490710 0.487942
vt 0.573057 0.459359
vt 0.566175 0.578937
vt 0.645428 0.196230
vt 0.490710 0.391583
vt 0.163579 0.085383
vt 0.163579 0.198971
vt 0.081789 0.113792
vt 0.157506 0.580826
vt 0.157506 0.700318
vt 0.079266 0.669960
vt 0.733320 0.651921
vt 0.655080 0.682279
vt 0.690884 0.583897
vt 0.917595 0.846278
vt 0.999427 0.815846
vt 0.999427 0.902872
vt 0.328859 0.513233
vt 0.246219 0.489706
vt 0.316256 0.394022
vt 0.163579 0.073375
vt 0.245718 0.100753
vt 0.174447 0.196230
vt 0.879397 0.691392
vt 0.835002 0.580206
vt 0.918645 0.580206
vt 0.643937 0.869243
vt 0.574353 0.814182
vt 0.643937 0.764500
vt 0.327858 0.095477
vt 0.327858 0.196230
vt 0.245718 0.122855
vt 0.246219 0.461401
vt 0.163579 0.484927
vt 0.163579 0.394022
vt 0.251778 0.868017
vt 0.251778 0.768522
vt 0.323354 0.818023
vt 0.245718 -0.000000
vt 0.408101 0.787284
vt 0.489037 0.758432
vt 0.489037 0.882368
vt 0.018571 0.198971
vt -0.000000 0.085179
vt 0.081789 0.113587
vt 0.081789 -0.000000
vt 0.233616 0.580612
vt 0.100360 0.000000
vt 0.246219 0.580612
vt 0.256587 0.000000
vt 0.325456 0.737945
vt 0.405788 0.707455
vt 0.405788 0.832321
vt 0.000000 0.683812
vt 0.079153 0.587501
vt 0.079153 0.710849
vt 0.733320 0.771413
vt 0.163579 0.673414
vt 0.201447 0.580612
vt 0.242103 0.643799
vt 0.734582 0.583121
vt 0.757895 0.495255
vt 0.820082 0.583121
vt 0.242103 0.768522
vt 0.574353 0.764501
vt 0.534482 0.881226
vt 0.115070 0.768342
vt 0.733320 0.885133
vt 0.812194 0.795064
vt 0.812194 0.912974
vt 0.910607 0.776892
vt 0.910607 0.691392
vt 0.995851 0.716029
vt 0.242103 0.675720
vt 0.320627 0.705334
vt 0.279971 0.768522
vt 0.910414 0.000000
vt 0.995913 0.000000
vt 0.933726 0.087866
vt 0.320627 0.580612
vt 0.244772 0.278241
vt 0.244772 0.394022
vt 0.163579 0.306439
vt 0.734582 0.391583
vt 0.734582 0.510177
vt 0.655080 0.481029
vt 0.731388 0.269950
vt 0.651886 0.299098
vt 0.683429 0.196230
vt 0.118184 0.198971
vt 0.161289 0.270976
vt 0.082137 0.298013
vt 0.329228 0.494692
vt 0.408101 0.466851
vt 0.408101 0.584761
vt 0.000000 0.268553
vt 0.082137 0.293872
vt 0.011656 0.392598
vt 0.945967 0.502747
vt 0.909264 0.391583
vt 0.989585 0.391583
vt 0.917595 0.933303
vt 0.999427 0.902872
vt 0.999427 0.989897
vt 0.408101 0.294956
vt 0.408101 0.389857
vt 0.325965 0.320275
vt -0.000000 0.482666
vt 0.078873 0.510508
vt 0.033780 0.587501
vt 0.526757 0.391583
vt 0.490710 0.292541
vt 0.569863 0.319578
vt 0.082137 0.198971
vt 0.161289 0.394324
vt 0.268194 0.394022
vt 0.244772 0.283813
vt 0.325965 0.312011
vt 0.325965 0.196230
vt 0.078873 0.392598
vt 0.187001 0.196230
vt 0.363008 0.389857
vt 0.337621 0.196230
vt 0.569863 0.196230
vt 0.833070 0.292070
vt 0.908037 0.196230
vt 0.908037 0.320901
vt 0.731388 0.388544
vt 0.408101 0.634561
vt 0.490206 0.572529
vt 0.490206 0.655275
vt 0.815596 0.390751
vt 0.731388 0.361246
vt 0.815596 0.303725
vt 0.421470 0.758432
vt 0.834296 0.420415
vt 0.909264 0.391583
vt 0.909264 0.516254
vt 0.686623 0.583897
vt 0.908037 0.286307
vt 0.982808 0.196230
vt 0.982808 0.315645
vt 0.815152 0.912974
vt 0.815152 1.000000
vt 0.733320 0.969568
vt 0.657445 0.123871
vt 0.739549 0.103158
vt 0.739549 0.185903
vt 0.992544 0.177092
vt 0.910414 0.148315
vt 0.992544 0.087866
vt 0.670813 -0.000000
s 0
usemtl マテリアル
f 19/1/1 1/2/1 13/3/1
f 9/4/2 10/5/2 4/6/2
f 17/7/3 16/8/3 8/9/3
f 24/10/4 23/11/4 10/12/4
f 20/13/5 6/14/5 19/15/5
f 12/16/6 13/17/6 18/18/6
f 17/19/7 7/20/7 16/21/7
f 11/22/8 18/23/8 19/24/8
f 21/25/9 20/26/9 7/27/9
f 24/28/10 10/29/10 25/30/10
f 3/31/11 6/32/11 19/33/11
f 10/34/5 5/35/5 19/36/5
f 5/37/12 10/38/12 9/39/12
f 3/40/13 19/41/13 13/42/13
f 8/43/14 5/37/14 9/39/14
f 15/44/15 16/45/15 7/46/15
f 14/47/16 11/48/16 19/49/16
f 16/50/17 15/51/17 8/52/17
f 11/53/18 12/54/18 18/55/18
f 18/18/19 13/17/19 19/56/19
f 19/57/20 13/58/20 14/59/20
f 12/60/21 14/61/21 13/62/21
f 12/63/22 11/48/22 14/47/22
f 1/64/23 2/65/23 13/66/23
f 2/67/24 3/68/24 13/69/24
f 2/67/25 6/70/25 3/68/25
f 2/71/26 1/72/26 6/73/26
f 6/74/27 1/2/27 19/1/27
f 8/75/20 19/76/20 5/77/20
f 8/78/19 4/79/19 19/80/19
f 8/81/28 9/82/28 4/83/28
f 4/79/29 10/84/29 19/80/29
f 17/85/13 8/86/13 19/87/13
f 17/19/30 19/88/30 7/20/30
f 15/89/31 7/90/31 19/91/31
f 8/52/1 15/51/1 19/92/1
f 22/93/29 19/94/29 6/95/29
f 21/96/32 6/14/32 20/13/32
f 11/97/33 24/98/33 25/99/33
f 11/100/30 19/101/30 23/102/30
f 25/99/31 19/103/31 11/97/31
f 25/30/27 10/29/27 19/104/27
f 10/12/11 23/11/11 19/105/11
f 23/102/34 24/106/34 11/100/34
f 22/93/35 6/95/35 21/107/35
f 7/108/36 22/109/36 21/110/36
f 7/27/16 20/26/16 19/111/16
f 7/108/8 19/112/8 22/109/8
f 36/113/37 35/114/37 28/115/37
f 43/116/38 42/117/38 29/118/38
f 39/119/39 26/120/39 38/121/39
f 31/122/40 32/123/40 37/124/40
f 36/125/41 27/126/41 35/127/41
f 30/128/42 37/129/42 38/130/42
f 40/131/43 39/132/43 27/133/43
f 43/134/44 29/135/44 44/136/44
f 34/137/45 35/138/45 27/139/45
f 33/140/46 30/141/46 38/142/46
f 35/143/47 34/144/47 28/145/47
f 30/128/48 31/146/48 37/129/48
f 37/147/49 32/148/49 38/149/49
f 38/150/50 32/151/50 33/152/50
f 31/153/51 33/152/51 32/151/51
f 31/154/52 30/141/52 33/140/52
f 36/113/53 28/115/53 38/155/53
f 36/125/54 38/156/54 27/126/54
f 34/137/55 27/139/55 38/157/55
f 28/158/56 34/159/56 38/160/56
f 41/161/57 38/162/57 26/163/57
f 40/164/58 26/120/58 39/119/58
f 30/165/59 43/166/59 44/167/59
f 30/168/54 38/169/54 42/170/54
f 44/167/55 38/171/55 30/165/55
f 44/96/60 29/172/60 38/173/60
f 29/118/61 42/117/61 38/174/61
f 42/175/62 43/176/62 30/177/62
f 41/178/63 26/179/63 40/180/63
f 27/181/64 41/182/64 40/183/64
f 27/184/46 39/185/46 38/186/46
f 27/181/42 38/187/42 41/182/42
f 55/188/65 54/189/65 47/190/65
f 62/191/66 61/192/66 48/193/66
f 58/194/67 45/195/67 57/196/67
f 50/197/68 51/198/68 56/199/68
f 55/200/69 46/201/69 54/202/69
f 49/203/70 56/204/70 57/205/70
f 59/206/71 58/207/71 46/208/71
f 62/209/72 48/210/72 63/211/72
f 53/212/73 54/213/73 46/214/73
f 52/215/74 49/216/74 57/217/74
f 54/218/75 53/219/75 47/220/75
f 49/203/76 50/221/76 56/204/76
f 56/199/77 51/198/77 57/222/77
f 57/223/78 51/224/78 52/225/78
f 50/226/79 52/225/79 51/224/79
f 50/227/80 49/216/80 52/215/80
f 55/188/81 47/190/81 57/228/81
f 55/200/82 57/229/82 46/201/82
f 53/212/83 46/214/83 57/230/83
f 47/220/84 53/219/84 57/231/84
f 60/232/85 57/233/85 45/234/85
f 59/235/86 45/195/86 58/194/86
f 49/236/87 62/237/87 63/238/87
f 49/239/82 57/240/82 61/241/82
f 63/238/83 57/242/83 49/236/83
f 63/243/88 48/244/88 57/245/88
f 48/193/89 61/192/89 57/246/89
f 61/247/90 62/248/90 49/249/90
f 60/250/91 45/251/91 59/252/91
f 46/253/92 60/254/92 59/255/92
f 46/256/74 58/257/74 57/258/74
f 46/253/70 57/259/70 60/254/70
