# Blender 4.4.1
# www.blender.org
mtllib SizukuThunderDome.mtl
o 球
v 0.000000 0.831470 -0.555570
v 0.000000 0.555570 -0.831470
v 0.000000 0.195090 -0.980785
v 0.000000 0.000000 -1.000000
v 0.000000 -0.195090 -0.980785
v 0.000000 -0.555570 -0.831470
v 0.038060 0.980785 -0.191342
v 0.074658 0.923880 -0.375330
v 0.108386 0.831470 -0.544895
v 0.137950 0.707107 -0.693520
v 0.162212 0.555570 -0.815493
v 0.180240 0.382683 -0.906127
v 0.191342 0.195090 -0.961940
v 0.195090 0.000000 -0.980785
v 0.191342 -0.195090 -0.961940
v 0.180240 -0.382683 -0.906127
v 0.162212 -0.555570 -0.815493
v 0.137950 -0.707107 -0.693520
v 0.108386 -0.831470 -0.544895
v 0.074658 -0.923880 -0.375330
v 0.038060 -0.980785 -0.191342
v 0.074658 0.980785 -0.180240
v 0.146447 0.923880 -0.353553
v 0.212608 0.831470 -0.513280
v 0.270598 0.707107 -0.653281
v 0.318190 0.555570 -0.768178
v 0.353553 0.382683 -0.853553
v 0.375330 0.195090 -0.906127
v 0.382683 0.000000 -0.923879
v 0.375330 -0.195090 -0.906127
v 0.353553 -0.382683 -0.853553
v 0.318190 -0.555570 -0.768178
v 0.270598 -0.707107 -0.653281
v 0.212608 -0.831470 -0.513280
v 0.146447 -0.923880 -0.353553
v 0.074658 -0.980785 -0.180240
v 0.108386 0.980785 -0.162212
v 0.212608 0.923880 -0.318190
v 0.308658 0.831470 -0.461940
v 0.392847 0.707107 -0.587938
v 0.461940 0.555570 -0.691342
v 0.513280 0.382683 -0.768178
v 0.544895 0.195090 -0.815493
v 0.555570 0.000000 -0.831469
v 0.544895 -0.195090 -0.815493
v 0.513280 -0.382683 -0.768178
v 0.461940 -0.555570 -0.691342
v 0.392847 -0.707107 -0.587938
v 0.308658 -0.831470 -0.461940
v 0.212608 -0.923880 -0.318190
v 0.108386 -0.980785 -0.162212
v 0.137950 0.980785 -0.137950
v 0.270598 0.923880 -0.270598
v 0.392847 0.831470 -0.392847
v 0.500000 0.707107 -0.500000
v 0.587938 0.555570 -0.587938
v 0.653281 0.382683 -0.653281
v 0.693520 0.195090 -0.693520
v 0.707107 0.000000 -0.707107
v 0.693520 -0.195090 -0.693520
v 0.653281 -0.382683 -0.653281
v 0.587938 -0.555570 -0.587938
v 0.500000 -0.707107 -0.500000
v 0.392847 -0.831470 -0.392847
v 0.270598 -0.923880 -0.270598
v 0.137950 -0.980785 -0.137950
v 0.162212 0.980785 -0.108386
v 0.318190 0.923880 -0.212608
v 0.461940 0.831470 -0.308658
v 0.587938 0.707107 -0.392847
v 0.691342 0.555570 -0.461940
v 0.768178 0.382683 -0.513280
v 0.815493 0.195090 -0.544895
v 0.831470 0.000000 -0.555570
v 0.815493 -0.195090 -0.544895
v 0.768178 -0.382683 -0.513280
v 0.691342 -0.555570 -0.461940
v 0.587938 -0.707107 -0.392847
v 0.461940 -0.831470 -0.308658
v 0.318190 -0.923880 -0.212608
v 0.162212 -0.980785 -0.108386
v 0.000000 1.000000 0.000000
v 0.180240 0.980785 -0.074658
v 0.353553 0.923880 -0.146447
v 0.513280 0.831470 -0.212607
v 0.653281 0.707107 -0.270598
v 0.768178 0.555570 -0.318190
v 0.853553 0.382683 -0.353553
v 0.906127 0.195090 -0.375330
v 0.923879 0.000000 -0.382683
v 0.906127 -0.195090 -0.375330
v 0.853553 -0.382683 -0.353553
v 0.768178 -0.555570 -0.318190
v 0.653281 -0.707107 -0.270598
v 0.513280 -0.831470 -0.212607
v 0.353553 -0.923880 -0.146447
v 0.180240 -0.980785 -0.074658
v 0.191342 0.980785 -0.038060
v 0.375330 0.923880 -0.074658
v 0.544895 0.831470 -0.108386
v 0.693520 0.707107 -0.137950
v 0.815493 0.555570 -0.162212
v 0.906127 0.382683 -0.180240
v 0.961940 0.195090 -0.191342
v 0.980785 0.000000 -0.195090
v 0.961940 -0.195090 -0.191342
v 0.906127 -0.382683 -0.180240
v 0.815493 -0.555570 -0.162212
v 0.693520 -0.707107 -0.137950
v 0.544895 -0.831470 -0.108386
v 0.375330 -0.923880 -0.074658
v 0.191342 -0.980785 -0.038060
v 0.195090 0.980785 0.000000
v 0.382683 0.923880 0.000000
v 0.555570 0.831470 0.000000
v 0.707107 0.707107 -0.000000
v 0.831469 0.555570 0.000000
v 0.923879 0.382683 -0.000000
v 0.980785 0.195090 0.000000
v 1.000000 0.000000 0.000000
v 0.980785 -0.195090 0.000000
v 0.923879 -0.382683 -0.000000
v 0.831469 -0.555570 0.000000
v 0.707107 -0.707107 -0.000000
v 0.555570 -0.831470 0.000000
v 0.382683 -0.923880 0.000000
v 0.195090 -0.980785 0.000000
v 0.191342 0.980785 0.038060
v 0.375330 0.923880 0.074658
v 0.544895 0.831470 0.108386
v 0.693520 0.707107 0.137950
v 0.815493 0.555570 0.162212
v 0.906127 0.382683 0.180240
v 0.961940 0.195090 0.191342
v 0.980785 0.000000 0.195090
v 0.961940 -0.195090 0.191342
v 0.906127 -0.382683 0.180240
v 0.815493 -0.555570 0.162212
v 0.693520 -0.707107 0.137950
v 0.544895 -0.831470 0.108386
v 0.375330 -0.923880 0.074658
v 0.191342 -0.980785 0.038060
v 0.180240 0.980785 0.074658
v 0.353553 0.923880 0.146447
v 0.513280 0.831470 0.212608
v 0.653281 0.707107 0.270598
v 0.768178 0.555570 0.318190
v 0.853553 0.382683 0.353553
v 0.906127 0.195090 0.375330
v 0.923879 0.000000 0.382683
v 0.906127 -0.195090 0.375330
v 0.853553 -0.382683 0.353553
v 0.768178 -0.555570 0.318190
v 0.653281 -0.707107 0.270598
v 0.513280 -0.831470 0.212608
v 0.353553 -0.923880 0.146447
v 0.180240 -0.980785 0.074658
v 0.162212 0.980785 0.108386
v 0.318190 0.923880 0.212608
v 0.461940 0.831470 0.308658
v 0.587938 0.707107 0.392847
v 0.691341 0.555570 0.461940
v 0.768178 0.382683 0.513280
v 0.815493 0.195090 0.544895
v 0.831469 0.000000 0.555570
v 0.815493 -0.195090 0.544895
v 0.768178 -0.382683 0.513280
v 0.691341 -0.555570 0.461940
v 0.587938 -0.707107 0.392847
v 0.461940 -0.831470 0.308658
v 0.318190 -0.923880 0.212608
v 0.162212 -0.980785 0.108386
v 0.137950 0.980785 0.137950
v 0.270598 0.923880 0.270598
v 0.392847 0.831470 0.392847
v 0.500000 0.707107 0.500000
v 0.587938 0.555570 0.587938
v 0.653281 0.382683 0.653281
v 0.693520 0.195090 0.693520
v 0.707106 0.000000 0.707107
v 0.693520 -0.195090 0.693520
v 0.653281 -0.382683 0.653281
v 0.587938 -0.555570 0.587938
v 0.500000 -0.707107 0.500000
v 0.392847 -0.831470 0.392847
v 0.270598 -0.923880 0.270598
v 0.137950 -0.980785 0.137950
v 0.108386 0.980785 0.162212
v 0.212607 0.923880 0.318190
v 0.308658 0.831470 0.461940
v 0.392847 0.707107 0.587938
v 0.461940 0.555570 0.691342
v 0.513280 0.382683 0.768178
v 0.544895 0.195090 0.815493
v 0.555570 0.000000 0.831469
v 0.544895 -0.195090 0.815493
v 0.513280 -0.382683 0.768178
v 0.461940 -0.555570 0.691342
v 0.392847 -0.707107 0.587938
v 0.308658 -0.831470 0.461940
v 0.212607 -0.923880 0.318190
v 0.108386 -0.980785 0.162212
v 0.074658 0.980785 0.180240
v 0.146447 0.923880 0.353553
v 0.212607 0.831470 0.513280
v 0.270598 0.707107 0.653281
v 0.318189 0.555570 0.768178
v 0.353553 0.382683 0.853553
v 0.375330 0.195090 0.906127
v 0.382683 0.000000 0.923879
v 0.375330 -0.195090 0.906127
v 0.353553 -0.382683 0.853553
v 0.318189 -0.555570 0.768178
v 0.270598 -0.707107 0.653281
v 0.212607 -0.831470 0.513280
v 0.146447 -0.923880 0.353553
v 0.074658 -0.980785 0.180240
v 0.038060 0.980785 0.191342
v 0.074658 0.923880 0.375330
v 0.108386 0.831470 0.544895
v 0.137950 0.707107 0.693520
v 0.162212 0.555570 0.815493
v 0.180240 0.382683 0.906127
v 0.191342 0.195090 0.961939
v 0.195090 0.000000 0.980785
v 0.191342 -0.195090 0.961939
v 0.180240 -0.382683 0.906127
v 0.162212 -0.555570 0.815493
v 0.137950 -0.707107 0.693520
v 0.108386 -0.831470 0.544895
v 0.074658 -0.923880 0.375330
v 0.038060 -0.980785 0.191342
v -0.000000 0.980785 0.195090
v -0.000000 0.923880 0.382683
v -0.000000 0.831470 0.555570
v -0.000000 0.707107 0.707107
v -0.000000 0.555570 0.831469
v 0.000000 0.382683 0.923879
v -0.000000 0.195090 0.980785
v -0.000000 0.000000 0.999999
v -0.000000 -0.195090 0.980785
v 0.000000 -0.382683 0.923879
v -0.000000 -0.555570 0.831469
v -0.000000 -0.707107 0.707107
v -0.000000 -0.831470 0.555570
v -0.000000 -0.923880 0.382683
v -0.000000 -0.980785 0.195090
v -0.038060 0.980785 0.191342
v -0.074658 0.923880 0.375330
v -0.108386 0.831470 0.544895
v -0.137950 0.707107 0.693520
v -0.162212 0.555570 0.815493
v -0.180240 0.382683 0.906127
v -0.191342 0.195090 0.961939
v -0.195091 0.000000 0.980785
v -0.191342 -0.195090 0.961939
v -0.180240 -0.382683 0.906127
v -0.162212 -0.555570 0.815493
v -0.137950 -0.707107 0.693520
v -0.108386 -0.831470 0.544895
v -0.074658 -0.923880 0.375330
v -0.038060 -0.980785 0.191342
v -0.074658 0.980785 0.180240
v -0.146447 0.923880 0.353553
v -0.212608 0.831470 0.513280
v -0.270598 0.707107 0.653281
v -0.318190 0.555570 0.768177
v -0.353553 0.382683 0.853553
v -0.375330 0.195090 0.906127
v -0.382683 0.000000 0.923879
v -0.375330 -0.195090 0.906127
v -0.353553 -0.382683 0.853553
v -0.318190 -0.555570 0.768177
v -0.270598 -0.707107 0.653281
v -0.212608 -0.831470 0.513280
v -0.146447 -0.923880 0.353553
v -0.074658 -0.980785 0.180240
v -0.108386 0.980785 0.162212
v -0.212608 0.923880 0.318190
v -0.308658 0.831470 0.461939
v -0.392847 0.707107 0.587938
v -0.461940 0.555570 0.691341
v -0.513280 0.382683 0.768178
v -0.544895 0.195090 0.815493
v -0.555570 0.000000 0.831469
v -0.544895 -0.195090 0.815493
v -0.513280 -0.382683 0.768178
v -0.461940 -0.555570 0.691341
v -0.392847 -0.707107 0.587938
v -0.308658 -0.831470 0.461939
v -0.212608 -0.923880 0.318190
v -0.108386 -0.980785 0.162212
v -0.137950 0.980785 0.137950
v -0.270598 0.923880 0.270598
v -0.392847 0.831470 0.392847
v -0.500000 0.707107 0.500000
v -0.587938 0.555570 0.587937
v -0.653281 0.382683 0.653281
v -0.693520 0.195090 0.693520
v -0.707106 0.000000 0.707106
v -0.693520 -0.195090 0.693520
v -0.653281 -0.382683 0.653281
v -0.587938 -0.555570 0.587937
v -0.500000 -0.707107 0.500000
v -0.392847 -0.831470 0.392847
v -0.270598 -0.923880 0.270598
v -0.137950 -0.980785 0.137950
v 0.000000 -1.000000 0.000000
v -0.162212 0.980785 0.108386
v -0.318190 0.923880 0.212607
v -0.461940 0.831470 0.308658
v -0.587938 0.707107 0.392847
v -0.691341 0.555570 0.461939
v -0.768177 0.382683 0.513280
v -0.815493 0.195090 0.544895
v -0.831469 0.000000 0.555569
v -0.815493 -0.195090 0.544895
v -0.768177 -0.382683 0.513280
v -0.691341 -0.555570 0.461939
v -0.587938 -0.707107 0.392847
v -0.461940 -0.831470 0.308658
v -0.318190 -0.923880 0.212607
v -0.162212 -0.980785 0.108386
v -0.180240 0.980785 0.074658
v -0.353553 0.923880 0.146447
v -0.513280 0.831470 0.212607
v -0.653281 0.707107 0.270598
v -0.768177 0.555570 0.318189
v -0.853553 0.382683 0.353553
v -0.906127 0.195090 0.375330
v -0.923879 0.000000 0.382683
v -0.906127 -0.195090 0.375330
v -0.853553 -0.382683 0.353553
v -0.768177 -0.555570 0.318189
v -0.653281 -0.707107 0.270598
v -0.513280 -0.831470 0.212607
v -0.353553 -0.923880 0.146447
v -0.180240 -0.980785 0.074658
v -0.191342 0.980785 0.038060
v -0.375330 0.923880 0.074658
v -0.544895 0.831470 0.108386
v -0.693520 0.707107 0.137950
v -0.815493 0.555570 0.162211
v -0.906127 0.382683 0.180240
v -0.961939 0.195090 0.191341
v -0.980784 0.000000 0.195090
v -0.961939 -0.195090 0.191341
v -0.906127 -0.382683 0.180240
v -0.815493 -0.555570 0.162211
v -0.693520 -0.707107 0.137950
v -0.544895 -0.831470 0.108386
v -0.375330 -0.923880 0.074658
v -0.191342 -0.980785 0.038060
v -0.195090 0.980785 -0.000000
v -0.382683 0.923880 -0.000000
v -0.555570 0.831470 -0.000000
v -0.707107 0.707107 -0.000000
v -0.831469 0.555570 -0.000000
v -0.923879 0.382683 -0.000000
v -0.980785 0.195090 -0.000000
v -0.999999 0.000000 -0.000000
v -0.980785 -0.195090 -0.000000
v -0.923879 -0.382683 -0.000000
v -0.831469 -0.555570 -0.000000
v -0.707107 -0.707107 -0.000000
v -0.555570 -0.831470 -0.000000
v -0.382683 -0.923880 -0.000000
v -0.195090 -0.980785 -0.000000
v -0.191342 0.980785 -0.038060
v -0.375330 0.923880 -0.074658
v -0.544895 0.831470 -0.108386
v -0.693520 0.707107 -0.137950
v -0.815493 0.555570 -0.162212
v -0.906127 0.382683 -0.180240
v -0.961939 0.195090 -0.191342
v -0.980784 0.000000 -0.195091
v -0.961939 -0.195090 -0.191342
v -0.906127 -0.382683 -0.180240
v -0.815493 -0.555570 -0.162212
v -0.693520 -0.707107 -0.137950
v -0.544895 -0.831470 -0.108386
v -0.375330 -0.923880 -0.074658
v -0.191342 -0.980785 -0.038060
v -0.180240 0.980785 -0.074658
v -0.353553 0.923880 -0.146447
v -0.513279 0.831470 -0.212607
v -0.653281 0.707107 -0.270598
v -0.768177 0.555570 -0.318190
v -0.853553 0.382683 -0.353553
v -0.906127 0.195090 -0.375330
v -0.923878 0.000000 -0.382683
v -0.906127 -0.195090 -0.375330
v -0.853553 -0.382683 -0.353553
v -0.768177 -0.555570 -0.318190
v -0.653281 -0.707107 -0.270598
v -0.513279 -0.831470 -0.212607
v -0.353553 -0.923880 -0.146447
v -0.180240 -0.980785 -0.074658
v -0.162212 0.980785 -0.108386
v -0.318189 0.923880 -0.212607
v -0.461939 0.831470 -0.308658
v -0.587938 0.707107 -0.392847
v -0.691341 0.555570 -0.461940
v -0.768177 0.382683 -0.513280
v -0.815493 0.195090 -0.544895
v -0.831468 0.000000 -0.555570
v -0.815493 -0.195090 -0.544895
v -0.768177 -0.382683 -0.513280
v -0.691341 -0.555570 -0.461940
v -0.587938 -0.707107 -0.392847
v -0.461939 -0.831470 -0.308658
v -0.318189 -0.923880 -0.212607
v -0.162212 -0.980785 -0.108386
v -0.137950 0.980785 -0.137950
v -0.270598 0.923880 -0.270598
v -0.392847 0.831470 -0.392847
v -0.500000 0.707107 -0.500000
v -0.587937 0.555570 -0.587938
v -0.653281 0.382683 -0.653281
v -0.693519 0.195090 -0.693520
v -0.707106 0.000000 -0.707106
v -0.693519 -0.195090 -0.693520
v -0.653281 -0.382683 -0.653281
v -0.587937 -0.555570 -0.587938
v -0.500000 -0.707107 -0.500000
v -0.392847 -0.831470 -0.392847
v -0.270598 -0.923880 -0.270598
v -0.137950 -0.980785 -0.137950
v -0.108386 0.980785 -0.162212
v -0.212607 0.923880 -0.318190
v -0.308658 0.831470 -0.461939
v -0.392847 0.707107 -0.587938
v -0.461939 0.555570 -0.691341
v -0.513280 0.382683 -0.768177
v -0.544895 0.195090 -0.815493
v -0.555569 0.000000 -0.831469
v -0.544895 -0.195090 -0.815493
v -0.513280 -0.382683 -0.768177
v -0.461939 -0.555570 -0.691341
v -0.392847 -0.707107 -0.587938
v -0.308658 -0.831470 -0.461939
v -0.212607 -0.923880 -0.318190
v -0.108386 -0.980785 -0.162212
v -0.074658 0.980785 -0.180240
v -0.146446 0.923880 -0.353553
v -0.212607 0.831470 -0.513279
v -0.270598 0.707107 -0.653281
v -0.318189 0.555570 -0.768177
v -0.353553 0.382683 -0.853553
v -0.375330 0.195090 -0.906127
v -0.382683 0.000000 -0.923879
v -0.375330 -0.195090 -0.906127
v -0.353553 -0.382683 -0.853553
v -0.318189 -0.555570 -0.768177
v -0.270598 -0.707107 -0.653281
v -0.212607 -0.831470 -0.513279
v -0.146446 -0.923880 -0.353553
v -0.074658 -0.980785 -0.180240
v -0.038060 0.980785 -0.191342
v -0.074658 0.923880 -0.375330
v -0.108386 0.831470 -0.544895
v -0.137950 0.707107 -0.693520
v -0.162211 0.555570 -0.815493
v -0.180240 0.382683 -0.906127
v -0.191341 0.195090 -0.961939
v -0.195090 0.000000 -0.980784
v -0.191341 -0.195090 -0.961939
v -0.180240 -0.382683 -0.906127
v -0.162211 -0.555570 -0.815493
v -0.137950 -0.707107 -0.693520
v -0.108386 -0.831470 -0.544895
v -0.074658 -0.923880 -0.375330
v -0.038060 -0.980785 -0.191342
v 0.000000 0.980785 -0.195090
v 0.000000 0.923880 -0.382683
v 0.000000 0.707107 -0.707107
v 0.000000 0.382683 -0.923879
v 0.000000 -0.382683 -0.923879
v 0.000000 -0.707107 -0.707107
v 0.000000 -0.831470 -0.555570
v 0.000000 -0.923880 -0.382683
v 0.000000 -0.980785 -0.195090
vn -0.0000 -0.8286 0.5598
vn -0.0000 -0.5528 0.8333
vn -0.0000 -0.1939 0.9810
vn -0.0000 -0.0000 1.0000
vn -0.0000 0.1939 0.9810
vn -0.0000 0.5528 0.8333
vn -0.0392 -0.9796 0.1971
vn -0.0757 -0.9217 0.3804
vn -0.1092 -0.8286 0.5490
vn -0.1385 -0.7041 0.6965
vn -0.1626 -0.5528 0.8173
vn -0.1804 -0.3805 0.9070
vn -0.1914 -0.1939 0.9622
vn -0.1951 -0.0000 0.9808
vn -0.1914 0.1939 0.9622
vn -0.1804 0.3805 0.9070
vn -0.1626 0.5528 0.8173
vn -0.1385 0.7041 0.6965
vn -0.1092 0.8286 0.5490
vn -0.0757 0.9217 0.3804
vn -0.0392 0.9796 0.1971
vn -0.0769 -0.9796 0.1857
vn -0.1484 -0.9217 0.3584
vn -0.2142 -0.8286 0.5172
vn -0.2718 -0.7041 0.6561
vn -0.3189 -0.5528 0.7699
vn -0.3539 -0.3805 0.8544
vn -0.3754 -0.1939 0.9063
vn -0.3827 -0.0000 0.9239
vn -0.3754 0.1939 0.9063
vn -0.3539 0.3805 0.8544
vn -0.3189 0.5528 0.7699
vn -0.2718 0.7041 0.6561
vn -0.2142 0.8286 0.5172
vn -0.1484 0.9217 0.3584
vn -0.0769 0.9796 0.1857
vn -0.1117 -0.9796 0.1671
vn -0.2155 -0.9217 0.3225
vn -0.3110 -0.8286 0.4654
vn -0.3945 -0.7041 0.5905
vn -0.4630 -0.5528 0.6929
vn -0.5138 -0.3805 0.7689
vn -0.5450 -0.1939 0.8157
vn -0.5556 -0.0000 0.8315
vn -0.5450 0.1939 0.8157
vn -0.5138 0.3805 0.7689
vn -0.4630 0.5528 0.6929
vn -0.3945 0.7041 0.5905
vn -0.3110 0.8286 0.4654
vn -0.2155 0.9217 0.3225
vn -0.1117 0.9796 0.1671
vn -0.1421 -0.9796 0.1421
vn -0.2743 -0.9217 0.2743
vn -0.3958 -0.8286 0.3958
vn -0.5021 -0.7041 0.5021
vn -0.5893 -0.5528 0.5893
vn -0.6539 -0.3805 0.6539
vn -0.6937 -0.1939 0.6937
vn -0.7071 -0.0000 0.7071
vn -0.6937 0.1939 0.6937
vn -0.6539 0.3805 0.6539
vn -0.5893 0.5528 0.5893
vn -0.5021 0.7041 0.5021
vn -0.3958 0.8286 0.3958
vn -0.2743 0.9217 0.2743
vn -0.1421 0.9796 0.1421
vn -0.1671 -0.9796 0.1117
vn -0.3225 -0.9217 0.2155
vn -0.4654 -0.8286 0.3110
vn -0.5905 -0.7041 0.3945
vn -0.6929 -0.5528 0.4630
vn -0.7689 -0.3805 0.5138
vn -0.8157 -0.1939 0.5450
vn -0.8315 -0.0000 0.5556
vn -0.8157 0.1939 0.5450
vn -0.7689 0.3805 0.5138
vn -0.6929 0.5528 0.4630
vn -0.5905 0.7041 0.3945
vn -0.4654 0.8286 0.3110
vn -0.3225 0.9217 0.2155
vn -0.1671 0.9796 0.1117
vn -0.0000 -1.0000 -0.0000
vn -0.1857 -0.9796 0.0769
vn -0.3584 -0.9217 0.1484
vn -0.5172 -0.8286 0.2142
vn -0.6561 -0.7041 0.2718
vn -0.7699 -0.5528 0.3189
vn -0.8544 -0.3805 0.3539
vn -0.9063 -0.1939 0.3754
vn -0.9239 -0.0000 0.3827
vn -0.9063 0.1939 0.3754
vn -0.8544 0.3805 0.3539
vn -0.7699 0.5528 0.3189
vn -0.6561 0.7041 0.2718
vn -0.5172 0.8286 0.2142
vn -0.3584 0.9217 0.1484
vn -0.1857 0.9796 0.0769
vn -0.1971 -0.9796 0.0392
vn -0.3804 -0.9217 0.0757
vn -0.5490 -0.8286 0.1092
vn -0.6965 -0.7041 0.1385
vn -0.8173 -0.5528 0.1626
vn -0.9070 -0.3805 0.1804
vn -0.9622 -0.1939 0.1914
vn -0.9808 -0.0000 0.1951
vn -0.9622 0.1939 0.1914
vn -0.9070 0.3805 0.1804
vn -0.8173 0.5528 0.1626
vn -0.6965 0.7041 0.1385
vn -0.5490 0.8286 0.1092
vn -0.3804 0.9217 0.0757
vn -0.1971 0.9796 0.0392
vn -0.2010 -0.9796 -0.0000
vn -0.3879 -0.9217 -0.0000
vn -0.5598 -0.8286 -0.0000
vn -0.7101 -0.7041 -0.0000
vn -0.8333 -0.5528 -0.0000
vn -0.9248 -0.3805 -0.0000
vn -0.9810 -0.1939 -0.0000
vn -1.0000 -0.0000 -0.0000
vn -0.9810 0.1939 -0.0000
vn -0.9248 0.3805 -0.0000
vn -0.8333 0.5528 -0.0000
vn -0.7101 0.7041 -0.0000
vn -0.5598 0.8286 -0.0000
vn -0.3879 0.9217 -0.0000
vn -0.2010 0.9796 -0.0000
vn -0.1971 -0.9796 -0.0392
vn -0.3804 -0.9217 -0.0757
vn -0.5490 -0.8286 -0.1092
vn -0.6965 -0.7041 -0.1385
vn -0.8173 -0.5528 -0.1626
vn -0.9070 -0.3805 -0.1804
vn -0.9622 -0.1939 -0.1914
vn -0.9808 -0.0000 -0.1951
vn -0.9622 0.1939 -0.1914
vn -0.9070 0.3805 -0.1804
vn -0.8173 0.5528 -0.1626
vn -0.6965 0.7041 -0.1385
vn -0.5490 0.8286 -0.1092
vn -0.3804 0.9217 -0.0757
vn -0.1971 0.9796 -0.0392
vn -0.1857 -0.9796 -0.0769
vn -0.3584 -0.9217 -0.1484
vn -0.5172 -0.8286 -0.2142
vn -0.6561 -0.7041 -0.2718
vn -0.7699 -0.5528 -0.3189
vn -0.8544 -0.3805 -0.3539
vn -0.9063 -0.1939 -0.3754
vn -0.9239 -0.0000 -0.3827
vn -0.9063 0.1939 -0.3754
vn -0.8544 0.3805 -0.3539
vn -0.7699 0.5528 -0.3189
vn -0.6561 0.7041 -0.2718
vn -0.5172 0.8286 -0.2142
vn -0.3584 0.9217 -0.1484
vn -0.1857 0.9796 -0.0769
vn -0.1671 -0.9796 -0.1117
vn -0.3225 -0.9217 -0.2155
vn -0.4654 -0.8286 -0.3110
vn -0.5905 -0.7041 -0.3945
vn -0.6929 -0.5528 -0.4630
vn -0.7689 -0.3805 -0.5138
vn -0.8157 -0.1939 -0.5450
vn -0.8315 -0.0000 -0.5556
vn -0.8157 0.1939 -0.5450
vn -0.7689 0.3805 -0.5138
vn -0.6929 0.5528 -0.4630
vn -0.5905 0.7041 -0.3945
vn -0.4654 0.8286 -0.3110
vn -0.3225 0.9217 -0.2155
vn -0.1671 0.9796 -0.1117
vn -0.1421 -0.9796 -0.1421
vn -0.2743 -0.9217 -0.2743
vn -0.3958 -0.8286 -0.3958
vn -0.5021 -0.7041 -0.5021
vn -0.5893 -0.5528 -0.5893
vn -0.6539 -0.3805 -0.6539
vn -0.6937 -0.1939 -0.6937
vn -0.7071 -0.0000 -0.7071
vn -0.6937 0.1939 -0.6937
vn -0.6539 0.3805 -0.6539
vn -0.5893 0.5528 -0.5893
vn -0.5021 0.7041 -0.5021
vn -0.3958 0.8286 -0.3958
vn -0.2743 0.9217 -0.2743
vn -0.1421 0.9796 -0.1421
vn -0.1117 -0.9796 -0.1671
vn -0.2155 -0.9217 -0.3225
vn -0.3110 -0.8286 -0.4654
vn -0.3945 -0.7041 -0.5905
vn -0.4630 -0.5528 -0.6929
vn -0.5138 -0.3805 -0.7689
vn -0.5450 -0.1939 -0.8157
vn -0.5556 -0.0000 -0.8315
vn -0.5450 0.1939 -0.8157
vn -0.5138 0.3805 -0.7689
vn -0.4630 0.5528 -0.6929
vn -0.3945 0.7041 -0.5905
vn -0.3110 0.8286 -0.4654
vn -0.2155 0.9217 -0.3225
vn -0.1117 0.9796 -0.1671
vn -0.0769 -0.9796 -0.1857
vn -0.1484 -0.9217 -0.3584
vn -0.2142 -0.8286 -0.5172
vn -0.2718 -0.7041 -0.6561
vn -0.3189 -0.5528 -0.7699
vn -0.3539 -0.3805 -0.8544
vn -0.3754 -0.1939 -0.9063
vn -0.3827 -0.0000 -0.9239
vn -0.3754 0.1939 -0.9063
vn -0.3539 0.3805 -0.8544
vn -0.3189 0.5528 -0.7699
vn -0.2718 0.7041 -0.6561
vn -0.2142 0.8286 -0.5172
vn -0.1484 0.9217 -0.3584
vn -0.0769 0.9796 -0.1857
vn -0.0392 -0.9796 -0.1971
vn -0.0757 -0.9217 -0.3804
vn -0.1092 -0.8286 -0.5490
vn -0.1385 -0.7041 -0.6965
vn -0.1626 -0.5528 -0.8173
vn -0.1804 -0.3805 -0.9070
vn -0.1914 -0.1939 -0.9622
vn -0.1951 -0.0000 -0.9808
vn -0.1914 0.1939 -0.9622
vn -0.1804 0.3805 -0.9070
vn -0.1626 0.5528 -0.8173
vn -0.1385 0.7041 -0.6965
vn -0.1092 0.8286 -0.5490
vn -0.0757 0.9217 -0.3804
vn -0.0392 0.9796 -0.1971
vn -0.0000 -0.9796 -0.2010
vn -0.0000 -0.9217 -0.3879
vn -0.0000 -0.8286 -0.5598
vn -0.0000 -0.7041 -0.7101
vn -0.0000 -0.5528 -0.8333
vn -0.0000 -0.3805 -0.9248
vn -0.0000 -0.1939 -0.9810
vn -0.0000 -0.0000 -1.0000
vn -0.0000 0.1939 -0.9810
vn -0.0000 0.3805 -0.9248
vn -0.0000 0.5528 -0.8333
vn -0.0000 0.7041 -0.7101
vn -0.0000 0.8286 -0.5598
vn -0.0000 0.9217 -0.3879
vn -0.0000 0.9796 -0.2010
vn 0.0392 -0.9796 -0.1971
vn 0.0757 -0.9217 -0.3804
vn 0.1092 -0.8286 -0.5490
vn 0.1385 -0.7041 -0.6965
vn 0.1626 -0.5528 -0.8173
vn 0.1804 -0.3805 -0.9070
vn 0.1914 -0.1939 -0.9622
vn 0.1951 -0.0000 -0.9808
vn 0.1914 0.1939 -0.9622
vn 0.1804 0.3805 -0.9070
vn 0.1626 0.5528 -0.8173
vn 0.1385 0.7041 -0.6965
vn 0.1092 0.8286 -0.5490
vn 0.0757 0.9217 -0.3804
vn 0.0392 0.9796 -0.1971
vn 0.0769 -0.9796 -0.1857
vn 0.1484 -0.9217 -0.3584
vn 0.2142 -0.8286 -0.5172
vn 0.2718 -0.7041 -0.6561
vn 0.3189 -0.5528 -0.7699
vn 0.3539 -0.3805 -0.8544
vn 0.3754 -0.1939 -0.9063
vn 0.3827 -0.0000 -0.9239
vn 0.3754 0.1939 -0.9063
vn 0.3539 0.3805 -0.8544
vn 0.3189 0.5528 -0.7699
vn 0.2718 0.7041 -0.6561
vn 0.2142 0.8286 -0.5172
vn 0.1484 0.9217 -0.3584
vn 0.0769 0.9796 -0.1857
vn 0.1117 -0.9796 -0.1671
vn 0.2155 -0.9217 -0.3225
vn 0.3110 -0.8286 -0.4654
vn 0.3945 -0.7041 -0.5905
vn 0.4630 -0.5528 -0.6929
vn 0.5138 -0.3805 -0.7689
vn 0.5450 -0.1939 -0.8157
vn 0.5556 -0.0000 -0.8315
vn 0.5450 0.1939 -0.8157
vn 0.5138 0.3805 -0.7689
vn 0.4630 0.5528 -0.6929
vn 0.3945 0.7041 -0.5905
vn 0.3110 0.8286 -0.4654
vn 0.2155 0.9217 -0.3225
vn 0.1117 0.9796 -0.1671
vn 0.1421 -0.9796 -0.1421
vn 0.2743 -0.9217 -0.2743
vn 0.3958 -0.8286 -0.3958
vn 0.5021 -0.7041 -0.5021
vn 0.5893 -0.5528 -0.5893
vn 0.6539 -0.3805 -0.6539
vn 0.6937 -0.1939 -0.6937
vn 0.7071 -0.0000 -0.7071
vn 0.6937 0.1939 -0.6937
vn 0.6539 0.3805 -0.6539
vn 0.5893 0.5528 -0.5893
vn 0.5021 0.7041 -0.5021
vn 0.3958 0.8286 -0.3958
vn 0.2743 0.9217 -0.2743
vn 0.1421 0.9796 -0.1421
vn -0.0000 1.0000 -0.0000
vn 0.1671 -0.9796 -0.1117
vn 0.3225 -0.9217 -0.2155
vn 0.4654 -0.8286 -0.3110
vn 0.5905 -0.7041 -0.3945
vn 0.6929 -0.5528 -0.4630
vn 0.7689 -0.3805 -0.5138
vn 0.8157 -0.1939 -0.5450
vn 0.8315 -0.0000 -0.5556
vn 0.8157 0.1939 -0.5450
vn 0.7689 0.3805 -0.5138
vn 0.6929 0.5528 -0.4630
vn 0.5905 0.7041 -0.3945
vn 0.4654 0.8286 -0.3110
vn 0.3225 0.9217 -0.2155
vn 0.1671 0.9796 -0.1117
vn 0.1857 -0.9796 -0.0769
vn 0.3584 -0.9217 -0.1484
vn 0.5172 -0.8286 -0.2142
vn 0.6561 -0.7041 -0.2718
vn 0.7699 -0.5528 -0.3189
vn 0.8544 -0.3805 -0.3539
vn 0.9063 -0.1939 -0.3754
vn 0.9239 -0.0000 -0.3827
vn 0.9063 0.1939 -0.3754
vn 0.8544 0.3805 -0.3539
vn 0.7699 0.5528 -0.3189
vn 0.6561 0.7041 -0.2718
vn 0.5172 0.8286 -0.2142
vn 0.3584 0.9217 -0.1484
vn 0.1857 0.9796 -0.0769
vn 0.1971 -0.9796 -0.0392
vn 0.3804 -0.9217 -0.0757
vn 0.5490 -0.8286 -0.1092
vn 0.6965 -0.7041 -0.1385
vn 0.8173 -0.5528 -0.1626
vn 0.9070 -0.3805 -0.1804
vn 0.9622 -0.1939 -0.1914
vn 0.9808 -0.0000 -0.1951
vn 0.9622 0.1939 -0.1914
vn 0.9070 0.3805 -0.1804
vn 0.8173 0.5528 -0.1626
vn 0.6965 0.7041 -0.1385
vn 0.5490 0.8286 -0.1092
vn 0.3804 0.9217 -0.0757
vn 0.1971 0.9796 -0.0392
vn 0.2010 -0.9796 -0.0000
vn 0.3879 -0.9217 -0.0000
vn 0.5598 -0.8286 -0.0000
vn 0.7101 -0.7041 -0.0000
vn 0.8333 -0.5528 -0.0000
vn 0.9248 -0.3805 -0.0000
vn 0.9810 -0.1939 -0.0000
vn 1.0000 -0.0000 -0.0000
vn 0.9810 0.1939 -0.0000
vn 0.9248 0.3805 -0.0000
vn 0.8333 0.5528 -0.0000
vn 0.7101 0.7041 -0.0000
vn 0.5598 0.8286 -0.0000
vn 0.3879 0.9217 -0.0000
vn 0.2010 0.9796 -0.0000
vn 0.1971 -0.9796 0.0392
vn 0.3804 -0.9217 0.0757
vn 0.5490 -0.8286 0.1092
vn 0.6965 -0.7041 0.1385
vn 0.8173 -0.5528 0.1626
vn 0.9070 -0.3805 0.1804
vn 0.9622 -0.1939 0.1914
vn 0.9808 -0.0000 0.1951
vn 0.9622 0.1939 0.1914
vn 0.9070 0.3805 0.1804
vn 0.8173 0.5528 0.1626
vn 0.6965 0.7041 0.1385
vn 0.5490 0.8286 0.1092
vn 0.3804 0.9217 0.0757
vn 0.1971 0.9796 0.0392
vn 0.1857 -0.9796 0.0769
vn 0.3584 -0.9217 0.1484
vn 0.5172 -0.8286 0.2142
vn 0.6561 -0.7041 0.2718
vn 0.7699 -0.5528 0.3189
vn 0.8544 -0.3805 0.3539
vn 0.9063 -0.1939 0.3754
vn 0.9239 -0.0000 0.3827
vn 0.9063 0.1939 0.3754
vn 0.8544 0.3805 0.3539
vn 0.7699 0.5528 0.3189
vn 0.6561 0.7041 0.2718
vn 0.5172 0.8286 0.2142
vn 0.3584 0.9217 0.1484
vn 0.1857 0.9796 0.0769
vn 0.1671 -0.9796 0.1117
vn 0.3225 -0.9217 0.2155
vn 0.4654 -0.8286 0.3110
vn 0.5905 -0.7041 0.3945
vn 0.6929 -0.5528 0.4630
vn 0.7689 -0.3805 0.5138
vn 0.8157 -0.1939 0.5450
vn 0.8315 -0.0000 0.5556
vn 0.8157 0.1939 0.5450
vn 0.7689 0.3805 0.5138
vn 0.6929 0.5528 0.4630
vn 0.5905 0.7041 0.3945
vn 0.4654 0.8286 0.3110
vn 0.3225 0.9217 0.2155
vn 0.1671 0.9796 0.1117
vn 0.1421 -0.9796 0.1421
vn 0.2743 -0.9217 0.2743
vn 0.3958 -0.8286 0.3958
vn 0.5021 -0.7041 0.5021
vn 0.5893 -0.5528 0.5893
vn 0.6539 -0.3805 0.6539
vn 0.6937 -0.1939 0.6937
vn 0.7071 -0.0000 0.7071
vn 0.6937 0.1939 0.6937
vn 0.6539 0.3805 0.6539
vn 0.5893 0.5528 0.5893
vn 0.5021 0.7041 0.5021
vn 0.3958 0.8286 0.3958
vn 0.2743 0.9217 0.2743
vn 0.1421 0.9796 0.1421
vn 0.1117 -0.9796 0.1671
vn 0.2155 -0.9217 0.3225
vn 0.3110 -0.8286 0.4654
vn 0.3945 -0.7041 0.5905
vn 0.4630 -0.5528 0.6929
vn 0.5138 -0.3805 0.7689
vn 0.5450 -0.1939 0.8157
vn 0.5556 -0.0000 0.8315
vn 0.5450 0.1939 0.8157
vn 0.5138 0.3805 0.7689
vn 0.4630 0.5528 0.6929
vn 0.3945 0.7041 0.5905
vn 0.3110 0.8286 0.4654
vn 0.2155 0.9217 0.3225
vn 0.1117 0.9796 0.1671
vn 0.0769 -0.9796 0.1857
vn 0.1484 -0.9217 0.3584
vn 0.2142 -0.8286 0.5172
vn 0.2718 -0.7041 0.6561
vn 0.3189 -0.5528 0.7699
vn 0.3539 -0.3805 0.8544
vn 0.3754 -0.1939 0.9063
vn 0.3827 -0.0000 0.9239
vn 0.3754 0.1939 0.9063
vn 0.3539 0.3805 0.8544
vn 0.3189 0.5528 0.7699
vn 0.2718 0.7041 0.6561
vn 0.2142 0.8286 0.5172
vn 0.1484 0.9217 0.3584
vn 0.0769 0.9796 0.1857
vn 0.0392 -0.9796 0.1971
vn 0.0757 -0.9217 0.3804
vn 0.1092 -0.8286 0.5490
vn 0.1385 -0.7041 0.6965
vn 0.1626 -0.5528 0.8173
vn 0.1804 -0.3805 0.9070
vn 0.1914 -0.1939 0.9622
vn 0.1951 -0.0000 0.9808
vn 0.1914 0.1939 0.9622
vn 0.1804 0.3805 0.9070
vn 0.1626 0.5528 0.8173
vn 0.1385 0.7041 0.6965
vn 0.1092 0.8286 0.5490
vn 0.0757 0.9217 0.3804
vn 0.0392 0.9796 0.1971
vn -0.0000 -0.9796 0.2010
vn -0.0000 -0.9217 0.3879
vn -0.0000 -0.7041 0.7101
vn -0.0000 -0.3805 0.9248
vn -0.0000 0.3805 0.9248
vn -0.0000 0.7041 0.7101
vn -0.0000 0.8286 0.5598
vn -0.0000 0.9217 0.3879
vn -0.0000 0.9796 0.2010
vt 0.750000 0.812500
vt 0.718750 0.875000
vt 0.750000 0.875000
vt 0.718750 0.312500
vt 0.750000 0.375000
vt 0.750000 0.312500
vt 0.750000 0.750000
vt 0.718750 0.812500
vt 0.750000 0.250000
vt 0.718750 0.687500
vt 0.750000 0.687500
vt 0.718750 0.187500
vt 0.750000 0.187500
vt 0.750000 0.625000
vt 0.718750 0.125000
vt 0.750000 0.125000
vt 0.750000 0.562500
vt 0.718750 0.625000
vt 0.718750 0.062500
vt 0.750000 0.062500
vt 0.718750 0.500000
vt 0.750000 0.500000
vt 0.750000 0.937500
vt 0.718750 0.937500
vt 0.734375 1.000000
vt 0.734375 0.000000
vt 0.718750 0.437500
vt 0.750000 0.437500
vt 0.718750 0.375000
vt 0.687500 0.875000
vt 0.687500 0.375000
vt 0.687500 0.812500
vt 0.687500 0.750000
vt 0.718750 0.750000
vt 0.718750 0.250000
vt 0.687500 0.312500
vt 0.687500 0.687500
vt 0.687500 0.250000
vt 0.687500 0.625000
vt 0.687500 0.187500
vt 0.718750 0.562500
vt 0.687500 0.062500
vt 0.687500 0.500000
vt 0.687500 0.937500
vt 0.703125 1.000000
vt 0.703125 0.000000
vt 0.687500 0.437500
vt 0.656250 0.625000
vt 0.687500 0.125000
vt 0.656250 0.187500
vt 0.687500 0.562500
vt 0.656250 0.125000
vt 0.656250 0.562500
vt 0.656250 0.937500
vt 0.671875 1.000000
vt 0.671875 0.000000
vt 0.656250 0.062500
vt 0.656250 0.437500
vt 0.656250 0.875000
vt 0.656250 0.375000
vt 0.656250 0.812500
vt 0.656250 0.750000
vt 0.656250 0.312500
vt 0.656250 0.687500
vt 0.656250 0.250000
vt 0.625000 0.375000
vt 0.625000 0.812500
vt 0.625000 0.750000
vt 0.625000 0.250000
vt 0.625000 0.625000
vt 0.625000 0.187500
vt 0.625000 0.125000
vt 0.656250 0.500000
vt 0.625000 0.562500
vt 0.625000 0.937500
vt 0.640625 1.000000
vt 0.640625 0.000000
vt 0.625000 0.062500
vt 0.625000 0.437500
vt 0.625000 0.875000
vt 0.593750 0.125000
vt 0.593750 0.625000
vt 0.593750 0.062500
vt 0.625000 0.500000
vt 0.593750 0.562500
vt 0.593750 0.937500
vt 0.609375 1.000000
vt 0.609375 0.000000
vt 0.593750 0.437500
vt 0.593750 0.375000
vt 0.593750 0.875000
vt 0.625000 0.312500
vt 0.593750 0.750000
vt 0.593750 0.250000
vt 0.625000 0.687500
vt 0.562500 0.812500
vt 0.593750 0.812500
vt 0.593750 0.312500
vt 0.562500 0.375000
vt 0.562500 0.750000
vt 0.562500 0.250000
vt 0.593750 0.687500
vt 0.593750 0.187500
vt 0.562500 0.625000
vt 0.562500 0.187500
vt 0.562500 0.125000
vt 0.593750 0.500000
vt 0.562500 0.562500
vt 0.562500 0.937500
vt 0.578125 1.000000
vt 0.578125 0.000000
vt 0.562500 0.062500
vt 0.562500 0.437500
vt 0.562500 0.875000
vt 0.531250 0.625000
vt 0.531250 0.062500
vt 0.562500 0.500000
vt 0.531250 0.562500
vt 0.531250 0.937500
vt 0.546875 1.000000
vt 0.546875 0.000000
vt 0.531250 0.437500
vt 0.531250 0.875000
vt 0.531250 0.375000
vt 0.562500 0.312500
vt 0.531250 0.750000
vt 0.531250 0.250000
vt 0.562500 0.687500
vt 0.531250 0.125000
vt 0.531250 0.312500
vt 0.500000 0.375000
vt 0.500000 0.750000
vt 0.531250 0.812500
vt 0.500000 0.250000
vt 0.531250 0.687500
vt 0.531250 0.187500
vt 0.500000 0.625000
vt 0.500000 0.187500
vt 0.500000 0.062500
vt 0.531250 0.500000
vt 0.500000 0.562500
vt 0.500000 0.937500
vt 0.515625 1.000000
vt 0.515625 0.000000
vt 0.500000 0.437500
vt 0.500000 0.875000
vt 0.500000 0.812500
vt 0.468750 0.062500
vt 0.500000 0.125000
vt 0.500000 0.500000
vt 0.468750 0.562500
vt 0.468750 0.937500
vt 0.484375 1.000000
vt 0.484375 0.000000
vt 0.468750 0.437500
vt 0.468750 0.375000
vt 0.468750 0.875000
vt 0.500000 0.312500
vt 0.468750 0.750000
vt 0.468750 0.250000
vt 0.500000 0.687500
vt 0.468750 0.625000
vt 0.468750 0.125000
vt 0.437500 0.250000
vt 0.468750 0.312500
vt 0.468750 0.687500
vt 0.437500 0.750000
vt 0.468750 0.187500
vt 0.437500 0.625000
vt 0.437500 0.187500
vt 0.437500 0.062500
vt 0.468750 0.500000
vt 0.437500 0.562500
vt 0.437500 0.937500
vt 0.453125 1.000000
vt 0.453125 0.000000
vt 0.437500 0.437500
vt 0.437500 0.875000
vt 0.437500 0.375000
vt 0.437500 0.812500
vt 0.468750 0.812500
vt 0.406250 0.937500
vt 0.421875 1.000000
vt 0.421875 0.000000
vt 0.406250 0.062500
vt 0.406250 0.437500
vt 0.437500 0.500000
vt 0.406250 0.875000
vt 0.406250 0.375000
vt 0.406250 0.812500
vt 0.437500 0.312500
vt 0.406250 0.750000
vt 0.406250 0.250000
vt 0.437500 0.687500
vt 0.406250 0.625000
vt 0.437500 0.125000
vt 0.406250 0.187500
vt 0.406250 0.125000
vt 0.406250 0.562500
vt 0.406250 0.687500
vt 0.375000 0.750000
vt 0.375000 0.250000
vt 0.375000 0.625000
vt 0.375000 0.187500
vt 0.375000 0.125000
vt 0.406250 0.500000
vt 0.375000 0.562500
vt 0.375000 0.937500
vt 0.390625 1.000000
vt 0.390625 0.000000
vt 0.375000 0.062500
vt 0.375000 0.437500
vt 0.375000 0.875000
vt 0.375000 0.375000
vt 0.375000 0.812500
vt 0.406250 0.312500
vt 0.343750 0.437500
vt 0.375000 0.500000
vt 0.343750 0.937500
vt 0.343750 0.375000
vt 0.343750 0.875000
vt 0.375000 0.312500
vt 0.343750 0.750000
vt 0.343750 0.250000
vt 0.375000 0.687500
vt 0.343750 0.625000
vt 0.343750 0.125000
vt 0.343750 0.062500
vt 0.343750 0.562500
vt 0.359375 1.000000
vt 0.359375 0.000000
vt 0.343750 0.187500
vt 0.312500 0.250000
vt 0.312500 0.625000
vt 0.343750 0.687500
vt 0.312500 0.187500
vt 0.312500 0.125000
vt 0.343750 0.500000
vt 0.312500 0.562500
vt 0.312500 0.937500
vt 0.328125 1.000000
vt 0.328125 0.000000
vt 0.312500 0.062500
vt 0.312500 0.437500
vt 0.312500 0.875000
vt 0.312500 0.375000
vt 0.312500 0.812500
vt 0.343750 0.812500
vt 0.343750 0.312500
vt 0.312500 0.750000
vt 0.281250 0.875000
vt 0.281250 0.375000
vt 0.281250 0.812500
vt 0.312500 0.312500
vt 0.281250 0.750000
vt 0.281250 0.250000
vt 0.312500 0.687500
vt 0.281250 0.625000
vt 0.281250 0.187500
vt 0.281250 0.125000
vt 0.312500 0.500000
vt 0.281250 0.562500
vt 0.281250 0.937500
vt 0.296875 1.000000
vt 0.296875 0.000000
vt 0.281250 0.062500
vt 0.281250 0.437500
vt 0.250000 0.625000
vt 0.281250 0.687500
vt 0.250000 0.187500
vt 0.250000 0.062500
vt 0.281250 0.500000
vt 0.250000 0.562500
vt 0.250000 0.937500
vt 0.265625 1.000000
vt 0.265625 0.000000
vt 0.250000 0.437500
vt 0.250000 0.375000
vt 0.250000 0.812500
vt 0.281250 0.312500
vt 0.250000 0.750000
vt 0.250000 0.250000
vt 0.218750 0.375000
vt 0.218750 0.875000
vt 0.250000 0.875000
vt 0.250000 0.312500
vt 0.218750 0.750000
vt 0.218750 0.250000
vt 0.250000 0.687500
vt 0.218750 0.625000
vt 0.218750 0.125000
vt 0.250000 0.125000
vt 0.218750 0.062500
vt 0.250000 0.500000
vt 0.218750 0.562500
vt 0.218750 0.937500
vt 0.234375 1.000000
vt 0.234375 0.000000
vt 0.218750 0.437500
vt 0.187500 0.187500
vt 0.218750 0.187500
vt 0.187500 0.625000
vt 0.187500 0.062500
vt 0.218750 0.500000
vt 0.187500 0.562500
vt 0.187500 0.937500
vt 0.203125 1.000000
vt 0.203125 0.000000
vt 0.187500 0.437500
vt 0.187500 0.375000
vt 0.187500 0.812500
vt 0.218750 0.812500
vt 0.218750 0.312500
vt 0.187500 0.750000
vt 0.187500 0.250000
vt 0.218750 0.687500
vt 0.187500 0.312500
vt 0.156250 0.375000
vt 0.156250 0.750000
vt 0.156250 0.250000
vt 0.187500 0.687500
vt 0.156250 0.625000
vt 0.156250 0.125000
vt 0.187500 0.125000
vt 0.156250 0.062500
vt 0.187500 0.500000
vt 0.156250 0.562500
vt 0.156250 0.937500
vt 0.171875 1.000000
vt 0.171875 0.000000
vt 0.156250 0.437500
vt 0.156250 0.875000
vt 0.187500 0.875000
vt 0.156250 0.812500
vt 0.125000 0.125000
vt 0.156250 0.500000
vt 0.125000 0.562500
vt 0.125000 0.937500
vt 0.140625 1.000000
vt 0.140625 0.000000
vt 0.125000 0.062500
vt 0.125000 0.437500
vt 0.125000 0.875000
vt 0.125000 0.375000
vt 0.156250 0.312500
vt 0.125000 0.750000
vt 0.125000 0.250000
vt 0.156250 0.687500
vt 0.156250 0.187500
vt 0.125000 0.625000
vt 0.093750 0.750000
vt 0.125000 0.812500
vt 0.093750 0.250000
vt 0.125000 0.312500
vt 0.125000 0.687500
vt 0.125000 0.187500
vt 0.093750 0.625000
vt 0.093750 0.125000
vt 0.093750 0.062500
vt 0.125000 0.500000
vt 0.093750 0.562500
vt 0.093750 0.937500
vt 0.109375 1.000000
vt 0.109375 0.000000
vt 0.093750 0.437500
vt 0.093750 0.375000
vt 0.093750 0.875000
vt 0.093750 0.500000
vt 0.062500 0.562500
vt 0.062500 0.937500
vt 0.078125 1.000000
vt 0.078125 0.000000
vt 0.062500 0.062500
vt 0.062500 0.437500
vt 0.062500 0.875000
vt 0.062500 0.375000
vt 0.062500 0.812500
vt 0.093750 0.812500
vt 0.093750 0.312500
vt 0.062500 0.750000
vt 0.062500 0.250000
vt 0.093750 0.687500
vt 0.093750 0.187500
vt 0.062500 0.625000
vt 0.062500 0.125000
vt 0.031250 0.250000
vt 0.062500 0.312500
vt 0.062500 0.687500
vt 0.031250 0.750000
vt 0.062500 0.187500
vt 0.031250 0.625000
vt 0.031250 0.125000
vt 0.062500 0.500000
vt 0.031250 0.562500
vt 0.031250 0.937500
vt 0.046875 1.000000
vt 0.046875 0.000000
vt 0.031250 0.062500
vt 0.031250 0.437500
vt 0.031250 0.875000
vt 0.031250 0.375000
vt 0.000000 0.937500
vt 0.015625 1.000000
vt 0.015625 0.000000
vt 0.000000 0.062500
vt 0.000000 0.437500
vt 0.031250 0.500000
vt 0.000000 0.875000
vt 0.000000 0.375000
vt 0.031250 0.812500
vt 0.031250 0.312500
vt 0.000000 0.750000
vt 0.000000 0.250000
vt 0.031250 0.687500
vt 0.031250 0.187500
vt 0.000000 0.625000
vt 0.000000 0.125000
vt 0.000000 0.562500
vt 1.000000 0.687500
vt 0.968750 0.750000
vt 1.000000 0.750000
vt 1.000000 0.187500
vt 0.968750 0.250000
vt 1.000000 0.250000
vt 0.968750 0.625000
vt 1.000000 0.625000
vt 0.968750 0.125000
vt 1.000000 0.125000
vt 1.000000 0.562500
vt 0.968750 0.062500
vt 1.000000 0.062500
vt 1.000000 0.500000
vt 0.968750 0.562500
vt 1.000000 0.937500
vt 0.968750 0.937500
vt 0.984375 1.000000
vt 0.984375 0.000000
vt 0.968750 0.437500
vt 1.000000 0.437500
vt 1.000000 0.875000
vt 0.968750 0.375000
vt 1.000000 0.375000
vt 1.000000 0.812500
vt 0.968750 0.875000
vt 1.000000 0.312500
vt 0.937500 0.437500
vt 0.968750 0.500000
vt 0.937500 0.937500
vt 0.937500 0.375000
vt 0.968750 0.812500
vt 0.937500 0.875000
vt 0.968750 0.312500
vt 0.937500 0.750000
vt 0.937500 0.250000
vt 0.968750 0.687500
vt 0.968750 0.187500
vt 0.937500 0.625000
vt 0.937500 0.125000
vt 0.937500 0.062500
vt 0.937500 0.562500
vt 0.953125 1.000000
vt 0.953125 0.000000
vt 0.937500 0.187500
vt 0.906250 0.250000
vt 0.906250 0.625000
vt 0.937500 0.687500
vt 0.906250 0.125000
vt 0.937500 0.500000
vt 0.906250 0.562500
vt 0.906250 0.937500
vt 0.921875 1.000000
vt 0.921875 0.000000
vt 0.906250 0.062500
vt 0.906250 0.437500
vt 0.906250 0.875000
vt 0.906250 0.375000
vt 0.937500 0.812500
vt 0.937500 0.312500
vt 0.906250 0.750000
vt 0.875000 0.375000
vt 0.906250 0.812500
vt 0.875000 0.875000
vt 0.906250 0.312500
vt 0.875000 0.750000
vt 0.875000 0.250000
vt 0.906250 0.687500
vt 0.906250 0.187500
vt 0.875000 0.625000
vt 0.875000 0.125000
vt 0.875000 0.062500
vt 0.906250 0.500000
vt 0.875000 0.562500
vt 0.875000 0.937500
vt 0.890625 1.000000
vt 0.890625 0.000000
vt 0.875000 0.437500
vt 0.843750 0.125000
vt 0.875000 0.187500
vt 0.843750 0.625000
vt 0.875000 0.500000
vt 0.843750 0.562500
vt 0.843750 0.937500
vt 0.859375 1.000000
vt 0.859375 0.000000
vt 0.843750 0.062500
vt 0.843750 0.437500
vt 0.843750 0.875000
vt 0.843750 0.375000
vt 0.875000 0.812500
vt 0.875000 0.312500
vt 0.843750 0.750000
vt 0.843750 0.250000
vt 0.875000 0.687500
vt 0.843750 0.812500
vt 0.812500 0.875000
vt 0.843750 0.312500
vt 0.812500 0.375000
vt 0.812500 0.750000
vt 0.812500 0.250000
vt 0.843750 0.687500
vt 0.843750 0.187500
vt 0.812500 0.625000
vt 0.812500 0.125000
vt 0.812500 0.062500
vt 0.843750 0.500000
vt 0.812500 0.562500
vt 0.812500 0.937500
vt 0.828125 1.000000
vt 0.828125 0.000000
vt 0.812500 0.437500
vt 0.781250 0.625000
vt 0.781250 0.125000
vt 0.812500 0.500000
vt 0.781250 0.562500
vt 0.781250 0.937500
vt 0.796875 1.000000
vt 0.796875 0.000000
vt 0.781250 0.062500
vt 0.781250 0.437500
vt 0.781250 0.875000
vt 0.781250 0.375000
vt 0.812500 0.812500
vt 0.812500 0.312500
vt 0.781250 0.750000
vt 0.781250 0.250000
vt 0.812500 0.687500
vt 0.812500 0.187500
vt 0.781250 0.312500
vt 0.781250 0.812500
vt 0.781250 0.687500
vt 0.781250 0.187500
vt 0.781250 0.500000
vt 0.765625 1.000000
vt 0.765625 0.000000
vt 0.000000 0.500000
vt 0.000000 0.812500
vt 0.000000 0.312500
vt 0.000000 0.687500
vt 0.000000 0.187500
s 1
usemtl マテリアル
f 1/1/1 8/2/8 475/3/475
f 17/4/17 478/5/478 6/6/6
f 476/7/476 9/8/9 1/1/1
f 479/9/479 17/4/17 6/6/6
f 11/10/11 476/7/476 2/11/2
f 19/12/19 479/9/479 480/13/480
f 477/14/477 11/10/11 2/11/2
f 20/15/20 480/13/480 481/16/481
f 3/17/3 12/18/12 477/14/477
f 21/19/21 481/16/481 482/20/482
f 14/21/14 3/17/3 4/22/4
f 474/23/474 7/24/7 82/25/82
f 308/26/308 21/19/21 482/20/482
f 15/27/15 4/22/4 5/28/5
f 475/3/475 7/24/7 474/23/474
f 16/29/16 5/28/5 478/5/478
f 23/30/23 7/24/7 8/2/8
f 31/31/31 15/27/15 16/29/16
f 24/32/24 8/2/8 9/8/9
f 17/4/17 31/31/31 16/29/16
f 25/33/25 9/8/9 10/34/10
f 18/35/18 32/36/32 17/4/17
f 26/37/26 10/34/10 11/10/11
f 19/12/19 33/38/33 18/35/18
f 27/39/27 11/10/11 12/18/12
f 20/15/20 34/40/34 19/12/19
f 13/41/13 27/39/27 12/18/12
f 36/42/36 20/15/20 21/19/21
f 29/43/29 13/41/13 14/21/14
f 7/24/7 22/44/22 82/45/82
f 308/46/308 36/42/36 21/19/21
f 30/47/30 14/21/14 15/27/15
f 42/48/42 26/37/26 27/39/27
f 35/49/35 49/50/49 34/40/34
f 28/51/28 42/48/42 27/39/27
f 36/42/36 50/52/50 35/49/35
f 29/43/29 43/53/43 28/51/28
f 22/44/22 37/54/37 82/55/82
f 308/56/308 51/57/51 36/42/36
f 45/58/45 29/43/29 30/47/30
f 38/59/38 22/44/22 23/30/23
f 46/60/46 30/47/30 31/31/31
f 39/61/39 23/30/23 24/32/24
f 32/36/32 46/60/46 31/31/31
f 40/62/40 24/32/24 25/33/25
f 33/38/33 47/63/47 32/36/32
f 41/64/41 25/33/25 26/37/26
f 34/40/34 48/65/48 33/38/33
f 61/66/61 45/58/45 46/60/46
f 54/67/54 38/59/38 39/61/39
f 47/63/47 61/66/61 46/60/46
f 55/68/55 39/61/39 40/62/40
f 63/69/63 47/63/47 48/65/48
f 41/64/41 55/68/55 40/62/40
f 49/50/49 63/69/63 48/65/48
f 57/70/57 41/64/41 42/48/42
f 50/52/50 64/71/64 49/50/49
f 43/53/43 57/70/57 42/48/42
f 51/57/51 65/72/65 50/52/50
f 44/73/44 58/74/58 43/53/43
f 37/54/37 52/75/52 82/76/82
f 308/77/308 66/78/66 51/57/51
f 60/79/60 44/73/44 45/58/45
f 53/80/53 37/54/37 38/59/38
f 80/81/80 64/71/64 65/72/65
f 58/74/58 72/82/72 57/70/57
f 81/83/81 65/72/65 66/78/66
f 59/84/59 73/85/73 58/74/58
f 52/75/52 67/86/67 82/87/82
f 308/88/308 81/83/81 66/78/66
f 75/89/75 59/84/59 60/79/60
f 53/80/53 67/86/67 52/75/52
f 76/90/76 60/79/60 61/66/61
f 54/67/54 68/91/68 53/80/53
f 62/92/62 76/90/76 61/66/61
f 70/93/70 54/67/54 55/68/55
f 78/94/78 62/92/62 63/69/63
f 56/95/56 70/93/70 55/68/55
f 64/71/64 78/94/78 63/69/63
f 72/82/72 56/95/56 57/70/57
f 85/96/85 68/91/68 69/97/69
f 77/98/77 92/99/92 76/90/76
f 86/100/86 69/97/69 70/93/70
f 94/101/94 77/98/77 78/94/78
f 71/102/71 86/100/86 70/93/70
f 79/103/79 94/101/94 78/94/78
f 88/104/88 71/102/71 72/82/72
f 80/81/80 95/105/95 79/103/79
f 73/85/73 88/104/88 72/82/72
f 81/83/81 96/106/96 80/81/80
f 74/107/74 89/108/89 73/85/73
f 67/86/67 83/109/83 82/110/82
f 308/111/308 97/112/97 81/83/81
f 91/113/91 74/107/74 75/89/75
f 84/114/84 67/86/67 68/91/68
f 92/99/92 75/89/75 76/90/76
f 89/108/89 103/115/103 88/104/88
f 112/116/112 96/106/96 97/112/97
f 90/117/90 104/118/104 89/108/89
f 83/109/83 98/119/98 82/120/82
f 308/121/308 112/116/112 97/112/97
f 106/122/106 90/117/90 91/113/91
f 99/123/99 83/109/83 84/114/84
f 107/124/107 91/113/91 92/99/92
f 85/96/85 99/123/99 84/114/84
f 93/125/93 107/124/107 92/99/92
f 101/126/101 85/96/85 86/100/86
f 109/127/109 93/125/93 94/101/94
f 87/128/87 101/126/101 86/100/86
f 95/105/95 109/127/109 94/101/94
f 103/115/103 87/128/87 88/104/88
f 111/129/111 95/105/95 96/106/96
f 108/130/108 122/131/122 107/124/107
f 116/132/116 100/133/100 101/126/101
f 124/134/124 108/130/108 109/127/109
f 102/135/102 116/132/116 101/126/101
f 110/136/110 124/134/124 109/127/109
f 118/137/118 102/135/102 103/115/103
f 111/129/111 125/138/125 110/136/110
f 104/118/104 118/137/118 103/115/103
f 127/139/127 111/129/111 112/116/112
f 105/140/105 119/141/119 104/118/104
f 98/119/98 113/142/113 82/143/82
f 308/144/308 127/139/127 112/116/112
f 121/145/121 105/140/105 106/122/106
f 114/146/114 98/119/98 99/123/99
f 122/131/122 106/122/106 107/124/107
f 115/147/115 99/123/99 100/133/100
f 142/148/142 126/149/126 127/139/127
f 120/150/120 134/151/134 119/141/119
f 113/142/113 128/152/128 82/153/82
f 308/154/308 142/148/142 127/139/127
f 136/155/136 120/150/120 121/145/121
f 114/146/114 128/152/128 113/142/113
f 137/156/137 121/145/121 122/131/122
f 115/147/115 129/157/129 114/146/114
f 123/158/123 137/156/137 122/131/122
f 131/159/131 115/147/115 116/132/116
f 139/160/139 123/158/123 124/134/124
f 117/161/117 131/159/131 116/132/116
f 125/138/125 139/160/139 124/134/124
f 133/162/133 117/161/117 118/137/118
f 141/163/141 125/138/125 126/149/126
f 119/141/119 133/162/133 118/137/118
f 154/164/154 138/165/138 139/160/139
f 132/166/132 146/167/146 131/159/131
f 140/168/140 154/164/154 139/160/139
f 148/169/148 132/166/132 133/162/133
f 141/163/141 155/170/155 140/168/140
f 134/151/134 148/169/148 133/162/133
f 157/171/157 141/163/141 142/148/142
f 135/172/135 149/173/149 134/151/134
f 128/152/128 143/174/143 82/175/82
f 308/176/308 157/171/157 142/148/142
f 151/177/151 135/172/135 136/155/136
f 144/178/144 128/152/128 129/157/129
f 152/179/152 136/155/136 137/156/137
f 145/180/145 129/157/129 130/181/130
f 138/165/138 152/179/152 137/156/137
f 146/167/146 130/181/130 131/159/131
f 143/174/143 158/182/158 82/183/82
f 308/184/308 172/185/172 157/171/157
f 166/186/166 150/187/150 151/177/151
f 159/188/159 143/174/143 144/178/144
f 167/189/167 151/177/151 152/179/152
f 160/190/160 144/178/144 145/180/145
f 153/191/153 167/189/167 152/179/152
f 161/192/161 145/180/145 146/167/146
f 169/193/169 153/191/153 154/164/154
f 147/194/147 161/192/161 146/167/146
f 155/170/155 169/193/169 154/164/154
f 163/195/163 147/194/147 148/169/148
f 156/196/156 170/197/170 155/170/155
f 149/173/149 163/195/163 148/169/148
f 157/171/157 171/198/171 156/196/156
f 150/187/150 164/199/164 149/173/149
f 162/200/162 176/201/176 161/192/161
f 170/197/170 184/202/184 169/193/169
f 178/203/178 162/200/162 163/195/163
f 171/198/171 185/204/185 170/197/170
f 164/199/164 178/203/178 163/195/163
f 172/185/172 186/205/186 171/198/171
f 165/206/165 179/207/179 164/199/164
f 158/182/158 173/208/173 82/209/82
f 308/210/308 187/211/187 172/185/172
f 181/212/181 165/206/165 166/186/166
f 174/213/174 158/182/158 159/188/159
f 182/214/182 166/186/166 167/189/167
f 175/215/175 159/188/159 160/190/160
f 168/216/168 182/214/182 167/189/167
f 176/201/176 160/190/160 161/192/161
f 184/202/184 168/216/168 169/193/169
f 196/217/196 180/218/180 181/212/181
f 174/213/174 188/219/188 173/208/173
f 197/220/197 181/212/181 182/214/182
f 175/215/175 189/221/189 174/213/174
f 183/222/183 197/220/197 182/214/182
f 191/223/191 175/215/175 176/201/176
f 199/224/199 183/222/183 184/202/184
f 177/225/177 191/223/191 176/201/176
f 185/204/185 199/224/199 184/202/184
f 193/226/193 177/225/177 178/203/178
f 201/227/201 185/204/185 186/205/186
f 179/207/179 193/226/193 178/203/178
f 202/228/202 186/205/186 187/211/187
f 180/218/180 194/229/194 179/207/179
f 173/208/173 188/219/188 82/230/82
f 308/231/308 202/228/202 187/211/187
f 200/232/200 214/233/214 199/224/199
f 208/234/208 192/235/192 193/226/193
f 201/227/201 215/236/215 200/232/200
f 194/229/194 208/234/208 193/226/193
f 202/228/202 216/237/216 201/227/201
f 195/238/195 209/239/209 194/229/194
f 188/219/188 203/240/203 82/241/82
f 308/242/308 217/243/217 202/228/202
f 211/244/211 195/238/195 196/217/196
f 204/245/204 188/219/188 189/221/189
f 212/246/212 196/217/196 197/220/197
f 205/247/205 189/221/189 190/248/190
f 198/249/198 212/246/212 197/220/197
f 206/250/206 190/248/190 191/223/191
f 214/233/214 198/249/198 199/224/199
f 192/235/192 206/250/206 191/223/191
f 219/251/219 203/240/203 204/245/204
f 227/252/227 211/244/211 212/246/212
f 220/253/220 204/245/204 205/247/205
f 213/254/213 227/252/227 212/246/212
f 221/255/221 205/247/205 206/250/206
f 229/256/229 213/254/213 214/233/214
f 207/257/207 221/255/221 206/250/206
f 215/236/215 229/256/229 214/233/214
f 223/258/223 207/257/207 208/234/208
f 216/237/216 230/259/230 215/236/215
f 209/239/209 223/258/223 208/234/208
f 217/243/217 231/260/231 216/237/216
f 210/261/210 224/262/224 209/239/209
f 203/240/203 218/263/218 82/264/82
f 308/265/308 232/266/232 217/243/217
f 226/267/226 210/261/210 211/244/211
f 238/268/238 222/269/222 223/258/223
f 231/260/231 245/270/245 230/259/230
f 224/262/224 238/268/238 223/258/223
f 247/271/247 231/260/231 232/266/232
f 225/272/225 239/273/239 224/262/224
f 218/263/218 233/274/233 82/275/82
f 308/276/308 247/271/247 232/266/232
f 241/277/241 225/272/225 226/267/226
f 219/251/219 233/274/233 218/263/218
f 242/278/242 226/267/226 227/252/227
f 235/279/235 219/251/219 220/253/220
f 228/280/228 242/278/242 227/252/227
f 236/281/236 220/253/220 221/255/221
f 244/282/244 228/280/228 229/256/229
f 222/269/222 236/281/236 221/255/221
f 230/259/230 244/282/244 229/256/229
f 257/283/257 241/277/241 242/278/242
f 235/279/235 249/284/249 234/285/234
f 243/286/243 257/283/257 242/278/242
f 251/287/251 235/279/235 236/281/236
f 259/288/259 243/286/243 244/282/244
f 237/289/237 251/287/251 236/281/236
f 245/270/245 259/288/259 244/282/244
f 253/290/253 237/289/237 238/268/238
f 261/291/261 245/270/245 246/292/246
f 239/273/239 253/290/253 238/268/238
f 262/293/262 246/292/246 247/271/247
f 240/294/240 254/295/254 239/273/239
f 233/274/233 248/296/248 82/297/82
f 308/298/308 262/293/262 247/271/247
f 256/299/256 240/294/240 241/277/241
f 234/285/234 248/296/248 233/274/233
f 261/291/261 275/300/275 260/301/260
f 254/295/254 268/302/268 253/290/253
f 277/303/277 261/291/261 262/293/262
f 255/304/255 269/305/269 254/295/254
f 248/296/248 263/306/263 82/307/82
f 308/308/308 277/303/277 262/293/262
f 271/309/271 255/304/255 256/299/256
f 249/284/249 263/306/263 248/296/248
f 272/310/272 256/299/256 257/283/257
f 265/311/265 249/284/249 250/312/250
f 258/313/258 272/310/272 257/283/257
f 266/314/266 250/312/250 251/287/251
f 274/315/274 258/313/258 259/288/259
f 252/316/252 266/314/266 251/287/251
f 260/301/260 274/315/274 259/288/259
f 268/302/268 252/316/252 253/290/253
f 273/317/273 287/318/287 272/310/272
f 281/319/281 265/311/265 266/314/266
f 289/320/289 273/317/273 274/315/274
f 267/321/267 281/319/281 266/314/266
f 275/300/275 289/320/289 274/315/274
f 283/322/283 267/321/267 268/302/268
f 291/323/291 275/300/275 276/324/276
f 269/305/269 283/322/283 268/302/268
f 292/325/292 276/324/276 277/303/277
f 270/326/270 284/327/284 269/305/269
f 263/306/263 278/328/278 82/329/82
f 308/330/308 292/325/292 277/303/277
f 286/331/286 270/326/270 271/309/271
f 279/332/279 263/306/263 264/333/264
f 287/318/287 271/309/271 272/310/272
f 280/334/280 264/333/264 265/311/265
f 292/325/292 306/335/306 291/323/291
f 285/336/285 299/337/299 284/327/284
f 278/328/278 293/338/293 82/339/82
f 308/340/308 307/341/307 292/325/292
f 301/342/301 285/336/285 286/331/286
f 294/343/294 278/328/278 279/332/279
f 302/344/302 286/331/286 287/318/287
f 280/334/280 294/343/294 279/332/279
f 288/345/288 302/344/302 287/318/287
f 296/346/296 280/334/280 281/319/281
f 304/347/304 288/345/288 289/320/289
f 282/348/282 296/346/296 281/319/281
f 290/349/290 304/347/304 289/320/289
f 298/350/298 282/348/282 283/322/283
f 306/335/306 290/349/290 291/323/291
f 284/327/284 298/350/298 283/322/283
f 312/351/312 295/352/295 296/346/296
f 320/353/320 303/354/303 304/347/304
f 297/355/297 312/351/312 296/346/296
f 305/356/305 320/353/320 304/347/304
f 314/357/314 297/355/297 298/350/298
f 322/358/322 305/356/305 306/335/306
f 299/337/299 314/357/314 298/350/298
f 323/359/323 306/335/306 307/341/307
f 300/360/300 315/361/315 299/337/299
f 293/338/293 309/362/309 82/363/82
f 308/364/308 323/359/323 307/341/307
f 317/365/317 300/360/300 301/342/301
f 294/343/294 309/362/309 293/338/293
f 318/366/318 301/342/301 302/344/302
f 295/352/295 310/367/310 294/343/294
f 303/354/303 318/366/318 302/344/302
f 316/368/316 330/369/330 315/361/315
f 309/362/309 324/370/324 82/371/82
f 308/372/308 338/373/338 323/359/323
f 332/374/332 316/368/316 317/365/317
f 325/375/325 309/362/309 310/367/310
f 333/376/333 317/365/317 318/366/318
f 326/377/326 310/367/310 311/378/311
f 319/379/319 333/376/333 318/366/318
f 327/380/327 311/378/311 312/351/312
f 335/381/335 319/379/319 320/353/320
f 313/382/313 327/380/327 312/351/312
f 321/383/321 335/381/335 320/353/320
f 329/384/329 313/382/313 314/357/314
f 337/385/337 321/383/321 322/358/322
f 315/361/315 329/384/329 314/357/314
f 323/359/323 337/385/337 322/358/322
f 350/386/350 334/387/334 335/381/335
f 328/388/328 342/389/342 327/380/327
f 336/390/336 350/386/350 335/381/335
f 344/391/344 328/388/328 329/384/329
f 352/392/352 336/390/336 337/385/337
f 330/369/330 344/391/344 329/384/329
f 338/373/338 352/392/352 337/385/337
f 331/393/331 345/394/345 330/369/330
f 324/370/324 339/395/339 82/396/82
f 308/397/308 353/398/353 338/373/338
f 347/399/347 331/393/331 332/374/332
f 340/400/340 324/370/324 325/375/325
f 348/401/348 332/374/332 333/376/333
f 326/377/326 340/400/340 325/375/325
f 334/387/334 348/401/348 333/376/333
f 342/389/342 326/377/326 327/380/327
f 339/395/339 354/402/354 82/403/82
f 308/404/308 368/405/368 353/398/353
f 362/406/362 346/407/346 347/399/347
f 355/408/355 339/395/339 340/400/340
f 363/409/363 347/399/347 348/401/348
f 341/410/341 355/408/355 340/400/340
f 349/411/349 363/409/363 348/401/348
f 357/412/357 341/410/341 342/389/342
f 365/413/365 349/411/349 350/386/350
f 343/414/343 357/412/357 342/389/342
f 351/415/351 365/413/365 350/386/350
f 359/416/359 343/414/343 344/391/344
f 367/417/367 351/415/351 352/392/352
f 345/394/345 359/416/359 344/391/344
f 353/398/353 367/417/367 352/392/352
f 346/407/346 360/418/360 345/394/345
f 358/419/358 372/420/372 357/421/357
f 366/422/366 380/423/380 365/424/365
f 374/425/374 358/419/358 359/426/359
f 382/427/382 366/422/366 367/428/367
f 360/429/360 374/425/374 359/426/359
f 383/430/383 367/428/367 368/431/368
f 361/432/361 375/433/375 360/429/360
f 354/434/354 369/435/369 82/436/82
f 308/437/308 383/430/383 368/431/368
f 377/438/377 361/432/361 362/439/362
f 355/440/355 369/435/369 354/434/354
f 378/441/378 362/439/362 363/442/363
f 356/443/356 370/444/370 355/440/355
f 364/445/364 378/441/378 363/442/363
f 372/420/372 356/443/356 357/421/357
f 380/423/380 364/445/364 365/424/365
f 392/446/392 376/447/376 377/438/377
f 370/444/370 384/448/384 369/435/369
f 393/449/393 377/438/377 378/441/378
f 371/450/371 385/451/385 370/444/370
f 379/452/379 393/449/393 378/441/378
f 387/453/387 371/450/371 372/420/372
f 395/454/395 379/452/379 380/423/380
f 373/455/373 387/453/387 372/420/372
f 381/456/381 395/454/395 380/423/380
f 389/457/389 373/455/373 374/425/374
f 397/458/397 381/456/381 382/427/382
f 375/433/375 389/457/389 374/425/374
f 398/459/398 382/427/382 383/430/383
f 376/447/376 390/460/390 375/433/375
f 369/435/369 384/448/384 82/461/82
f 308/462/308 398/459/398 383/430/383
f 396/463/396 410/464/410 395/454/395
f 404/465/404 388/466/388 389/457/389
f 412/467/412 396/463/396 397/458/397
f 390/460/390 404/465/404 389/457/389
f 398/459/398 412/467/412 397/458/397
f 391/468/391 405/469/405 390/460/390
f 384/448/384 399/470/399 82/471/82
f 308/472/308 413/473/413 398/459/398
f 407/474/407 391/468/391 392/446/392
f 400/475/400 384/448/384 385/451/385
f 408/476/408 392/446/392 393/449/393
f 386/477/386 400/475/400 385/451/385
f 394/478/394 408/476/408 393/449/393
f 402/479/402 386/477/386 387/453/387
f 410/464/410 394/478/394 395/454/395
f 388/466/388 402/479/402 387/453/387
f 423/480/423 407/474/407 408/476/408
f 401/481/401 415/482/415 400/475/400
f 409/483/409 423/480/423 408/476/408
f 417/484/417 401/481/401 402/479/402
f 425/485/425 409/483/409 410/464/410
f 403/486/403 417/484/417 402/479/402
f 411/487/411 425/485/425 410/464/410
f 419/488/419 403/486/403 404/465/404
f 427/489/427 411/487/411 412/467/412
f 405/469/405 419/488/419 404/465/404
f 428/490/428 412/467/412 413/473/413
f 406/491/406 420/492/420 405/469/405
f 399/470/399 414/493/414 82/494/82
f 308/495/308 428/490/428 413/473/413
f 422/496/422 406/491/406 407/474/407
f 415/482/415 399/470/399 400/475/400
f 442/497/442 426/498/426 427/489/427
f 420/492/420 434/499/434 419/488/419
f 428/490/428 442/497/442 427/489/427
f 421/500/421 435/501/435 420/492/420
f 414/493/414 429/502/429 82/503/82
f 308/504/308 443/505/443 428/490/428
f 437/506/437 421/500/421 422/496/422
f 430/507/430 414/493/414 415/482/415
f 438/508/438 422/496/422 423/480/423
f 416/509/416 430/507/430 415/482/415
f 424/510/424 438/508/438 423/480/423
f 432/511/432 416/509/416 417/484/417
f 440/512/440 424/510/424 425/485/425
f 418/513/418 432/511/432 417/484/417
f 426/498/426 440/512/440 425/485/425
f 434/499/434 418/513/418 419/488/419
f 431/514/431 445/515/445 430/507/430
f 439/516/439 453/517/453 438/508/438
f 447/518/447 431/514/431 432/511/432
f 455/519/455 439/516/439 440/512/440
f 433/520/433 447/518/447 432/511/432
f 441/521/441 455/519/455 440/512/440
f 449/522/449 433/520/433 434/499/434
f 457/523/457 441/521/441 442/497/442
f 435/501/435 449/522/449 434/499/434
f 458/524/458 442/497/442 443/505/443
f 436/525/436 450/526/450 435/501/435
f 429/502/429 444/527/444 82/528/82
f 308/529/308 458/524/458 443/505/443
f 452/530/452 436/525/436 437/506/437
f 430/507/430 444/527/444 429/502/429
f 453/517/453 437/506/437 438/508/438
f 450/526/450 464/531/464 449/522/449
f 458/524/458 472/532/472 457/523/457
f 451/533/451 465/534/465 450/526/450
f 444/527/444 459/535/459 82/536/82
f 308/537/308 473/538/473 458/524/458
f 467/539/467 451/533/451 452/530/452
f 460/540/460 444/527/444 445/515/445
f 468/541/468 452/530/452 453/517/453
f 446/542/446 460/540/460 445/515/445
f 454/543/454 468/541/468 453/517/453
f 462/544/462 446/542/446 447/518/447
f 470/545/470 454/543/454 455/519/455
f 448/546/448 462/544/462 447/518/447
f 456/547/456 470/545/470 455/519/455
f 464/531/464 448/546/448 449/522/449
f 472/532/472 456/547/456 457/523/457
f 6/6/6 468/541/468 469/548/469
f 462/544/462 1/1/1 461/549/461
f 479/9/479 469/548/469 470/545/470
f 463/550/463 476/7/476 462/544/462
f 471/551/471 479/9/479 470/545/470
f 464/531/464 2/11/2 463/550/463
f 481/16/481 471/551/471 472/532/472
f 465/534/465 477/14/477 464/531/464
f 482/20/482 472/532/472 473/538/473
f 466/552/466 3/17/3 465/534/465
f 459/535/459 474/23/474 82/553/82
f 308/554/308 482/20/482 473/538/473
f 5/28/5 466/552/466 467/539/467
f 475/3/475 459/535/459 460/540/460
f 478/5/478 467/539/467 468/541/468
f 461/549/461 475/3/475 460/540/460
f 1/1/1 9/8/9 8/2/8
f 17/4/17 16/29/16 478/5/478
f 476/7/476 10/34/10 9/8/9
f 479/9/479 18/35/18 17/4/17
f 11/10/11 10/34/10 476/7/476
f 19/12/19 18/35/18 479/9/479
f 477/14/477 12/18/12 11/10/11
f 20/15/20 19/12/19 480/13/480
f 3/17/3 13/41/13 12/18/12
f 21/19/21 20/15/20 481/16/481
f 14/21/14 13/41/13 3/17/3
f 15/27/15 14/21/14 4/22/4
f 475/3/475 8/2/8 7/24/7
f 16/29/16 15/27/15 5/28/5
f 23/30/23 22/44/22 7/24/7
f 31/31/31 30/47/30 15/27/15
f 24/32/24 23/30/23 8/2/8
f 17/4/17 32/36/32 31/31/31
f 25/33/25 24/32/24 9/8/9
f 18/35/18 33/38/33 32/36/32
f 26/37/26 25/33/25 10/34/10
f 19/12/19 34/40/34 33/38/33
f 27/39/27 26/37/26 11/10/11
f 20/15/20 35/49/35 34/40/34
f 13/41/13 28/51/28 27/39/27
f 36/42/36 35/49/35 20/15/20
f 29/43/29 28/51/28 13/41/13
f 30/47/30 29/43/29 14/21/14
f 42/48/42 41/64/41 26/37/26
f 35/49/35 50/52/50 49/50/49
f 28/51/28 43/53/43 42/48/42
f 36/42/36 51/57/51 50/52/50
f 29/43/29 44/73/44 43/53/43
f 45/58/45 44/73/44 29/43/29
f 38/59/38 37/54/37 22/44/22
f 46/60/46 45/58/45 30/47/30
f 39/61/39 38/59/38 23/30/23
f 32/36/32 47/63/47 46/60/46
f 40/62/40 39/61/39 24/32/24
f 33/38/33 48/65/48 47/63/47
f 41/64/41 40/62/40 25/33/25
f 34/40/34 49/50/49 48/65/48
f 61/66/61 60/79/60 45/58/45
f 54/67/54 53/80/53 38/59/38
f 47/63/47 62/92/62 61/66/61
f 55/68/55 54/67/54 39/61/39
f 63/69/63 62/92/62 47/63/47
f 41/64/41 56/95/56 55/68/55
f 49/50/49 64/71/64 63/69/63
f 57/70/57 56/95/56 41/64/41
f 50/52/50 65/72/65 64/71/64
f 43/53/43 58/74/58 57/70/57
f 51/57/51 66/78/66 65/72/65
f 44/73/44 59/84/59 58/74/58
f 60/79/60 59/84/59 44/73/44
f 53/80/53 52/75/52 37/54/37
f 80/81/80 79/103/79 64/71/64
f 58/74/58 73/85/73 72/82/72
f 81/83/81 80/81/80 65/72/65
f 59/84/59 74/107/74 73/85/73
f 75/89/75 74/107/74 59/84/59
f 53/80/53 68/91/68 67/86/67
f 76/90/76 75/89/75 60/79/60
f 54/67/54 69/97/69 68/91/68
f 62/92/62 77/98/77 76/90/76
f 70/93/70 69/97/69 54/67/54
f 78/94/78 77/98/77 62/92/62
f 56/95/56 71/102/71 70/93/70
f 64/71/64 79/103/79 78/94/78
f 72/82/72 71/102/71 56/95/56
f 85/96/85 84/114/84 68/91/68
f 77/98/77 93/125/93 92/99/92
f 86/100/86 85/96/85 69/97/69
f 94/101/94 93/125/93 77/98/77
f 71/102/71 87/128/87 86/100/86
f 79/103/79 95/105/95 94/101/94
f 88/104/88 87/128/87 71/102/71
f 80/81/80 96/106/96 95/105/95
f 73/85/73 89/108/89 88/104/88
f 81/83/81 97/112/97 96/106/96
f 74/107/74 90/117/90 89/108/89
f 91/113/91 90/117/90 74/107/74
f 84/114/84 83/109/83 67/86/67
f 92/99/92 91/113/91 75/89/75
f 89/108/89 104/118/104 103/115/103
f 112/116/112 111/129/111 96/106/96
f 90/117/90 105/140/105 104/118/104
f 106/122/106 105/140/105 90/117/90
f 99/123/99 98/119/98 83/109/83
f 107/124/107 106/122/106 91/113/91
f 85/96/85 100/133/100 99/123/99
f 93/125/93 108/130/108 107/124/107
f 101/126/101 100/133/100 85/96/85
f 109/127/109 108/130/108 93/125/93
f 87/128/87 102/135/102 101/126/101
f 95/105/95 110/136/110 109/127/109
f 103/115/103 102/135/102 87/128/87
f 111/129/111 110/136/110 95/105/95
f 108/130/108 123/158/123 122/131/122
f 116/132/116 115/147/115 100/133/100
f 124/134/124 123/158/123 108/130/108
f 102/135/102 117/161/117 116/132/116
f 110/136/110 125/138/125 124/134/124
f 118/137/118 117/161/117 102/135/102
f 111/129/111 126/149/126 125/138/125
f 104/118/104 119/141/119 118/137/118
f 127/139/127 126/149/126 111/129/111
f 105/140/105 120/150/120 119/141/119
f 121/145/121 120/150/120 105/140/105
f 114/146/114 113/142/113 98/119/98
f 122/131/122 121/145/121 106/122/106
f 115/147/115 114/146/114 99/123/99
f 142/148/142 141/163/141 126/149/126
f 120/150/120 135/172/135 134/151/134
f 136/155/136 135/172/135 120/150/120
f 114/146/114 129/157/129 128/152/128
f 137/156/137 136/155/136 121/145/121
f 115/147/115 130/181/130 129/157/129
f 123/158/123 138/165/138 137/156/137
f 131/159/131 130/181/130 115/147/115
f 139/160/139 138/165/138 123/158/123
f 117/161/117 132/166/132 131/159/131
f 125/138/125 140/168/140 139/160/139
f 133/162/133 132/166/132 117/161/117
f 141/163/141 140/168/140 125/138/125
f 119/141/119 134/151/134 133/162/133
f 154/164/154 153/191/153 138/165/138
f 132/166/132 147/194/147 146/167/146
f 140/168/140 155/170/155 154/164/154
f 148/169/148 147/194/147 132/166/132
f 141/163/141 156/196/156 155/170/155
f 134/151/134 149/173/149 148/169/148
f 157/171/157 156/196/156 141/163/141
f 135/172/135 150/187/150 149/173/149
f 151/177/151 150/187/150 135/172/135
f 144/178/144 143/174/143 128/152/128
f 152/179/152 151/177/151 136/155/136
f 145/180/145 144/178/144 129/157/129
f 138/165/138 153/191/153 152/179/152
f 146/167/146 145/180/145 130/181/130
f 166/186/166 165/206/165 150/187/150
f 159/188/159 158/182/158 143/174/143
f 167/189/167 166/186/166 151/177/151
f 160/190/160 159/188/159 144/178/144
f 153/191/153 168/216/168 167/189/167
f 161/192/161 160/190/160 145/180/145
f 169/193/169 168/216/168 153/191/153
f 147/194/147 162/200/162 161/192/161
f 155/170/155 170/197/170 169/193/169
f 163/195/163 162/200/162 147/194/147
f 156/196/156 171/198/171 170/197/170
f 149/173/149 164/199/164 163/195/163
f 157/171/157 172/185/172 171/198/171
f 150/187/150 165/206/165 164/199/164
f 162/200/162 177/225/177 176/201/176
f 170/197/170 185/204/185 184/202/184
f 178/203/178 177/225/177 162/200/162
f 171/198/171 186/205/186 185/204/185
f 164/199/164 179/207/179 178/203/178
f 172/185/172 187/211/187 186/205/186
f 165/206/165 180/218/180 179/207/179
f 181/212/181 180/218/180 165/206/165
f 174/213/174 173/208/173 158/182/158
f 182/214/182 181/212/181 166/186/166
f 175/215/175 174/213/174 159/188/159
f 168/216/168 183/222/183 182/214/182
f 176/201/176 175/215/175 160/190/160
f 184/202/184 183/222/183 168/216/168
f 196/217/196 195/238/195 180/218/180
f 174/213/174 189/221/189 188/219/188
f 197/220/197 196/217/196 181/212/181
f 175/215/175 190/248/190 189/221/189
f 183/222/183 198/249/198 197/220/197
f 191/223/191 190/248/190 175/215/175
f 199/224/199 198/249/198 183/222/183
f 177/225/177 192/235/192 191/223/191
f 185/204/185 200/232/200 199/224/199
f 193/226/193 192/235/192 177/225/177
f 201/227/201 200/232/200 185/204/185
f 179/207/179 194/229/194 193/226/193
f 202/228/202 201/227/201 186/205/186
f 180/218/180 195/238/195 194/229/194
f 200/232/200 215/236/215 214/233/214
f 208/234/208 207/257/207 192/235/192
f 201/227/201 216/237/216 215/236/215
f 194/229/194 209/239/209 208/234/208
f 202/228/202 217/243/217 216/237/216
f 195/238/195 210/261/210 209/239/209
f 211/244/211 210/261/210 195/238/195
f 204/245/204 203/240/203 188/219/188
f 212/246/212 211/244/211 196/217/196
f 205/247/205 204/245/204 189/221/189
f 198/249/198 213/254/213 212/246/212
f 206/250/206 205/247/205 190/248/190
f 214/233/214 213/254/213 198/249/198
f 192/235/192 207/257/207 206/250/206
f 219/251/219 218/263/218 203/240/203
f 227/252/227 226/267/226 211/244/211
f 220/253/220 219/251/219 204/245/204
f 213/254/213 228/280/228 227/252/227
f 221/255/221 220/253/220 205/247/205
f 229/256/229 228/280/228 213/254/213
f 207/257/207 222/269/222 221/255/221
f 215/236/215 230/259/230 229/256/229
f 223/258/223 222/269/222 207/257/207
f 216/237/216 231/260/231 230/259/230
f 209/239/209 224/262/224 223/258/223
f 217/243/217 232/266/232 231/260/231
f 210/261/210 225/272/225 224/262/224
f 226/267/226 225/272/225 210/261/210
f 238/268/238 237/289/237 222/269/222
f 231/260/231 246/292/246 245/270/245
f 224/262/224 239/273/239 238/268/238
f 247/271/247 246/292/246 231/260/231
f 225/272/225 240/294/240 239/273/239
f 241/277/241 240/294/240 225/272/225
f 219/251/219 234/285/234 233/274/233
f 242/278/242 241/277/241 226/267/226
f 235/279/235 234/285/234 219/251/219
f 228/280/228 243/286/243 242/278/242
f 236/281/236 235/279/235 220/253/220
f 244/282/244 243/286/243 228/280/228
f 222/269/222 237/289/237 236/281/236
f 230/259/230 245/270/245 244/282/244
f 257/283/257 256/299/256 241/277/241
f 235/279/235 250/312/250 249/284/249
f 243/286/243 258/313/258 257/283/257
f 251/287/251 250/312/250 235/279/235
f 259/288/259 258/313/258 243/286/243
f 237/289/237 252/316/252 251/287/251
f 245/270/245 260/301/260 259/288/259
f 253/290/253 252/316/252 237/289/237
f 261/291/261 260/301/260 245/270/245
f 239/273/239 254/295/254 253/290/253
f 262/293/262 261/291/261 246/292/246
f 240/294/240 255/304/255 254/295/254
f 256/299/256 255/304/255 240/294/240
f 234/285/234 249/284/249 248/296/248
f 261/291/261 276/324/276 275/300/275
f 254/295/254 269/305/269 268/302/268
f 277/303/277 276/324/276 261/291/261
f 255/304/255 270/326/270 269/305/269
f 271/309/271 270/326/270 255/304/255
f 249/284/249 264/333/264 263/306/263
f 272/310/272 271/309/271 256/299/256
f 265/311/265 264/333/264 249/284/249
f 258/313/258 273/317/273 272/310/272
f 266/314/266 265/311/265 250/312/250
f 274/315/274 273/317/273 258/313/258
f 252/316/252 267/321/267 266/314/266
f 260/301/260 275/300/275 274/315/274
f 268/302/268 267/321/267 252/316/252
f 273/317/273 288/345/288 287/318/287
f 281/319/281 280/334/280 265/311/265
f 289/320/289 288/345/288 273/317/273
f 267/321/267 282/348/282 281/319/281
f 275/300/275 290/349/290 289/320/289
f 283/322/283 282/348/282 267/321/267
f 291/323/291 290/349/290 275/300/275
f 269/305/269 284/327/284 283/322/283
f 292/325/292 291/323/291 276/324/276
f 270/326/270 285/336/285 284/327/284
f 286/331/286 285/336/285 270/326/270
f 279/332/279 278/328/278 263/306/263
f 287/318/287 286/331/286 271/309/271
f 280/334/280 279/332/279 264/333/264
f 292/325/292 307/341/307 306/335/306
f 285/336/285 300/360/300 299/337/299
f 301/342/301 300/360/300 285/336/285
f 294/343/294 293/338/293 278/328/278
f 302/344/302 301/342/301 286/331/286
f 280/334/280 295/352/295 294/343/294
f 288/345/288 303/354/303 302/344/302
f 296/346/296 295/352/295 280/334/280
f 304/347/304 303/354/303 288/345/288
f 282/348/282 297/355/297 296/346/296
f 290/349/290 305/356/305 304/347/304
f 298/350/298 297/355/297 282/348/282
f 306/335/306 305/356/305 290/349/290
f 284/327/284 299/337/299 298/350/298
f 312/351/312 311/378/311 295/352/295
f 320/353/320 319/379/319 303/354/303
f 297/355/297 313/382/313 312/351/312
f 305/356/305 321/383/321 320/353/320
f 314/357/314 313/382/313 297/355/297
f 322/358/322 321/383/321 305/356/305
f 299/337/299 315/361/315 314/357/314
f 323/359/323 322/358/322 306/335/306
f 300/360/300 316/368/316 315/361/315
f 317/365/317 316/368/316 300/360/300
f 294/343/294 310/367/310 309/362/309
f 318/366/318 317/365/317 301/342/301
f 295/352/295 311/378/311 310/367/310
f 303/354/303 319/379/319 318/366/318
f 316/368/316 331/393/331 330/369/330
f 332/374/332 331/393/331 316/368/316
f 325/375/325 324/370/324 309/362/309
f 333/376/333 332/374/332 317/365/317
f 326/377/326 325/375/325 310/367/310
f 319/379/319 334/387/334 333/376/333
f 327/380/327 326/377/326 311/378/311
f 335/381/335 334/387/334 319/379/319
f 313/382/313 328/388/328 327/380/327
f 321/383/321 336/390/336 335/381/335
f 329/384/329 328/388/328 313/382/313
f 337/385/337 336/390/336 321/383/321
f 315/361/315 330/369/330 329/384/329
f 323/359/323 338/373/338 337/385/337
f 350/386/350 349/411/349 334/387/334
f 328/388/328 343/414/343 342/389/342
f 336/390/336 351/415/351 350/386/350
f 344/391/344 343/414/343 328/388/328
f 352/392/352 351/415/351 336/390/336
f 330/369/330 345/394/345 344/391/344
f 338/373/338 353/398/353 352/392/352
f 331/393/331 346/407/346 345/394/345
f 347/399/347 346/407/346 331/393/331
f 340/400/340 339/395/339 324/370/324
f 348/401/348 347/399/347 332/374/332
f 326/377/326 341/410/341 340/400/340
f 334/387/334 349/411/349 348/401/348
f 342/389/342 341/410/341 326/377/326
f 362/406/362 361/555/361 346/407/346
f 355/408/355 354/402/354 339/395/339
f 363/409/363 362/406/362 347/399/347
f 341/410/341 356/556/356 355/408/355
f 349/411/349 364/557/364 363/409/363
f 357/412/357 356/556/356 341/410/341
f 365/413/365 364/557/364 349/411/349
f 343/414/343 358/558/358 357/412/357
f 351/415/351 366/559/366 365/413/365
f 359/416/359 358/558/358 343/414/343
f 367/417/367 366/559/366 351/415/351
f 345/394/345 360/418/360 359/416/359
f 353/398/353 368/405/368 367/417/367
f 346/407/346 361/555/361 360/418/360
f 358/419/358 373/455/373 372/420/372
f 366/422/366 381/456/381 380/423/380
f 374/425/374 373/455/373 358/419/358
f 382/427/382 381/456/381 366/422/366
f 360/429/360 375/433/375 374/425/374
f 383/430/383 382/427/382 367/428/367
f 361/432/361 376/447/376 375/433/375
f 377/438/377 376/447/376 361/432/361
f 355/440/355 370/444/370 369/435/369
f 378/441/378 377/438/377 362/439/362
f 356/443/356 371/450/371 370/444/370
f 364/445/364 379/452/379 378/441/378
f 372/420/372 371/450/371 356/443/356
f 380/423/380 379/452/379 364/445/364
f 392/446/392 391/468/391 376/447/376
f 370/444/370 385/451/385 384/448/384
f 393/449/393 392/446/392 377/438/377
f 371/450/371 386/477/386 385/451/385
f 379/452/379 394/478/394 393/449/393
f 387/453/387 386/477/386 371/450/371
f 395/454/395 394/478/394 379/452/379
f 373/455/373 388/466/388 387/453/387
f 381/456/381 396/463/396 395/454/395
f 389/457/389 388/466/388 373/455/373
f 397/458/397 396/463/396 381/456/381
f 375/433/375 390/460/390 389/457/389
f 398/459/398 397/458/397 382/427/382
f 376/447/376 391/468/391 390/460/390
f 396/463/396 411/487/411 410/464/410
f 404/465/404 403/486/403 388/466/388
f 412/467/412 411/487/411 396/463/396
f 390/460/390 405/469/405 404/465/404
f 398/459/398 413/473/413 412/467/412
f 391/468/391 406/491/406 405/469/405
f 407/474/407 406/491/406 391/468/391
f 400/475/400 399/470/399 384/448/384
f 408/476/408 407/474/407 392/446/392
f 386/477/386 401/481/401 400/475/400
f 394/478/394 409/483/409 408/476/408
f 402/479/402 401/481/401 386/477/386
f 410/464/410 409/483/409 394/478/394
f 388/466/388 403/486/403 402/479/402
f 423/480/423 422/496/422 407/474/407
f 401/481/401 416/509/416 415/482/415
f 409/483/409 424/510/424 423/480/423
f 417/484/417 416/509/416 401/481/401
f 425/485/425 424/510/424 409/483/409
f 403/486/403 418/513/418 417/484/417
f 411/487/411 426/498/426 425/485/425
f 419/488/419 418/513/418 403/486/403
f 427/489/427 426/498/426 411/487/411
f 405/469/405 420/492/420 419/488/419
f 428/490/428 427/489/427 412/467/412
f 406/491/406 421/500/421 420/492/420
f 422/496/422 421/500/421 406/491/406
f 415/482/415 414/493/414 399/470/399
f 442/497/442 441/521/441 426/498/426
f 420/492/420 435/501/435 434/499/434
f 428/490/428 443/505/443 442/497/442
f 421/500/421 436/525/436 435/501/435
f 437/506/437 436/525/436 421/500/421
f 430/507/430 429/502/429 414/493/414
f 438/508/438 437/506/437 422/496/422
f 416/509/416 431/514/431 430/507/430
f 424/510/424 439/516/439 438/508/438
f 432/511/432 431/514/431 416/509/416
f 440/512/440 439/516/439 424/510/424
f 418/513/418 433/520/433 432/511/432
f 426/498/426 441/521/441 440/512/440
f 434/499/434 433/520/433 418/513/418
f 431/514/431 446/542/446 445/515/445
f 439/516/439 454/543/454 453/517/453
f 447/518/447 446/542/446 431/514/431
f 455/519/455 454/543/454 439/516/439
f 433/520/433 448/546/448 447/518/447
f 441/521/441 456/547/456 455/519/455
f 449/522/449 448/546/448 433/520/433
f 457/523/457 456/547/456 441/521/441
f 435/501/435 450/526/450 449/522/449
f 458/524/458 457/523/457 442/497/442
f 436/525/436 451/533/451 450/526/450
f 452/530/452 451/533/451 436/525/436
f 430/507/430 445/515/445 444/527/444
f 453/517/453 452/530/452 437/506/437
f 450/526/450 465/534/465 464/531/464
f 458/524/458 473/538/473 472/532/472
f 451/533/451 466/552/466 465/534/465
f 467/539/467 466/552/466 451/533/451
f 460/540/460 459/535/459 444/527/444
f 468/541/468 467/539/467 452/530/452
f 446/542/446 461/549/461 460/540/460
f 454/543/454 469/548/469 468/541/468
f 462/544/462 461/549/461 446/542/446
f 470/545/470 469/548/469 454/543/454
f 448/546/448 463/550/463 462/544/462
f 456/547/456 471/551/471 470/545/470
f 464/531/464 463/550/463 448/546/448
f 472/532/472 471/551/471 456/547/456
f 6/6/6 478/5/478 468/541/468
f 462/544/462 476/7/476 1/1/1
f 479/9/479 6/6/6 469/548/469
f 463/550/463 2/11/2 476/7/476
f 471/551/471 480/13/480 479/9/479
f 464/531/464 477/14/477 2/11/2
f 481/16/481 480/13/480 471/551/471
f 465/534/465 3/17/3 477/14/477
f 482/20/482 481/16/481 472/532/472
f 466/552/466 4/22/4 3/17/3
f 5/28/5 4/22/4 466/552/466
f 475/3/475 474/23/474 459/535/459
f 478/5/478 5/28/5 467/539/467
f 461/549/461 1/1/1 475/3/475
