# Blender 4.4.1
# www.blender.org
mtllib enemyStun.mtl
o 円柱
v 0.000000 -0.302142 -1.000000
v 0.000000 0.302142 -1.000000
v 0.195090 -0.302142 -0.980785
v 0.195090 0.302142 -0.980785
v 0.382683 -0.302142 -0.923880
v 0.382683 0.302142 -0.923880
v 0.555570 -0.302142 -0.831470
v 0.555570 0.302142 -0.831470
v 0.707107 -0.302142 -0.707107
v 0.707107 0.302142 -0.707107
v 0.831470 -0.302142 -0.555570
v 0.831470 0.302142 -0.555570
v 0.923880 -0.302142 -0.382683
v 0.923880 0.302142 -0.382683
v 0.980785 -0.302142 -0.195090
v 0.980785 0.302142 -0.195090
v 1.000000 -0.302142 0.000000
v 1.000000 0.302142 0.000000
v 0.980785 -0.302142 0.195090
v 0.980785 0.302142 0.195090
v 0.923880 -0.302142 0.382683
v 0.923880 0.302142 0.382683
v 0.831470 -0.302142 0.555570
v 0.831470 0.302142 0.555570
v 0.707107 -0.302142 0.707107
v 0.707107 0.302142 0.707107
v 0.555570 -0.302142 0.831470
v 0.555570 0.302142 0.831470
v 0.382683 -0.302142 0.923880
v 0.382683 0.302142 0.923880
v 0.195090 -0.302142 0.980785
v 0.195090 0.302142 0.980785
v 0.000000 -0.302142 1.000000
v 0.000000 0.302142 1.000000
v -0.195090 -0.302142 0.980785
v -0.195090 0.302142 0.980785
v -0.382683 -0.302142 0.923880
v -0.382683 0.302142 0.923880
v -0.555570 -0.302142 0.831470
v -0.555570 0.302142 0.831470
v -0.707107 -0.302142 0.707107
v -0.707107 0.302142 0.707107
v -0.831470 -0.302142 0.555570
v -0.831470 0.302142 0.555570
v -0.923880 -0.302142 0.382683
v -0.923880 0.302142 0.382683
v -0.980785 -0.302142 0.195090
v -0.980785 0.302142 0.195090
v -1.000000 -0.302142 0.000000
v -1.000000 0.302142 0.000000
v -0.980785 -0.302142 -0.195090
v -0.980785 0.302142 -0.195090
v -0.923880 -0.302142 -0.382683
v -0.923880 0.302142 -0.382683
v -0.831470 -0.302142 -0.555570
v -0.831470 0.302142 -0.555570
v -0.707107 -0.302142 -0.707107
v -0.707107 0.302142 -0.707107
v -0.555570 -0.302142 -0.831470
v -0.555570 0.302142 -0.831470
v -0.382683 -0.302142 -0.923880
v -0.382683 0.302142 -0.923880
v -0.195090 -0.302142 -0.980785
v -0.195090 0.302142 -0.980785
v 0.191440 0.302142 -0.962436
v -0.191440 0.302142 -0.962436
v -0.545176 0.302142 -0.815914
v -0.815914 0.302142 -0.545176
v -0.962436 0.302142 -0.191440
v -0.962436 0.302142 0.191440
v -0.815914 0.302142 0.545176
v -0.545176 0.302142 0.815914
v -0.191440 0.302142 0.962436
v 0.191440 0.302142 0.962436
v 0.545176 0.302142 0.815914
v 0.815914 0.302142 0.545176
v 0.962436 0.302142 0.191440
v 0.962436 0.302142 -0.191440
v 0.815914 0.302142 -0.545176
v 0.545176 0.302142 -0.815914
v 0.000000 0.302142 -0.981291
v -0.693877 0.302142 -0.693877
v -0.981291 0.302142 -0.000000
v -0.693877 0.302142 0.693877
v 0.000000 0.302142 0.981291
v 0.693877 0.302142 0.693877
v 0.981291 0.302142 -0.000000
v 0.693877 0.302142 -0.693877
v -0.375524 0.302142 -0.906595
v -0.906595 0.302142 0.375524
v 0.375524 0.302142 0.906595
v 0.906595 0.302142 -0.375524
v -0.906595 0.302142 -0.375524
v -0.375524 0.302142 0.906595
v 0.906595 0.302142 0.375524
v 0.375524 0.302142 -0.906595
v 0.000000 -0.302142 -0.981291
v 0.375524 -0.302142 -0.906595
v 0.693877 -0.302142 -0.693877
v 0.906595 -0.302142 -0.375524
v 0.981291 -0.302142 -0.000000
v 0.906595 -0.302142 0.375524
v 0.693877 -0.302142 0.693877
v 0.375524 -0.302142 0.906595
v 0.000000 -0.302142 0.981291
v -0.375524 -0.302142 0.906595
v -0.693877 -0.302142 0.693877
v -0.906595 -0.302142 0.375524
v -0.981291 -0.302142 -0.000000
v -0.906595 -0.302142 -0.375524
v -0.693877 -0.302142 -0.693877
v -0.375524 -0.302142 -0.906595
v 0.191440 -0.302142 -0.962436
v 0.815914 -0.302142 -0.545176
v 0.962436 -0.302142 0.191440
v 0.545176 -0.302142 0.815914
v -0.191440 -0.302142 0.962436
v -0.815914 -0.302142 0.545176
v -0.962436 -0.302142 -0.191440
v -0.545176 -0.302142 -0.815914
v 0.545176 -0.302142 -0.815914
v 0.815914 -0.302142 0.545176
v -0.545176 -0.302142 0.815914
v -0.815914 -0.302142 -0.545176
v 0.962436 -0.302142 -0.191440
v 0.191440 -0.302142 0.962436
v -0.962436 -0.302142 0.191440
v -0.191440 -0.302142 -0.962436
vn 0.0980 -0.0000 -0.9952
vn 0.2903 -0.0000 -0.9569
vn 0.4714 -0.0000 -0.8819
vn 0.6344 -0.0000 -0.7730
vn 0.7730 -0.0000 -0.6344
vn 0.8819 -0.0000 -0.4714
vn 0.9569 -0.0000 -0.2903
vn 0.9952 -0.0000 -0.0980
vn 0.9952 -0.0000 0.0980
vn 0.9569 -0.0000 0.2903
vn 0.8819 -0.0000 0.4714
vn 0.7730 -0.0000 0.6344
vn 0.6344 -0.0000 0.7730
vn 0.4714 -0.0000 0.8819
vn 0.2903 -0.0000 0.9569
vn 0.0980 -0.0000 0.9952
vn -0.0980 -0.0000 0.9952
vn -0.2903 -0.0000 0.9569
vn -0.4714 -0.0000 0.8819
vn -0.6344 -0.0000 0.7730
vn -0.7730 -0.0000 0.6344
vn -0.8819 -0.0000 0.4714
vn -0.9569 -0.0000 0.2903
vn -0.9952 -0.0000 0.0980
vn -0.9952 -0.0000 -0.0980
vn -0.9569 -0.0000 -0.2903
vn -0.8819 -0.0000 -0.4714
vn -0.7730 -0.0000 -0.6344
vn -0.6344 -0.0000 -0.7730
vn -0.4714 -0.0000 -0.8819
vn -0.0000 1.0000 -0.0000
vn -0.2903 -0.0000 -0.9569
vn -0.0980 -0.0000 -0.9952
vn -0.0000 -1.0000 -0.0000
vt 0.747792 -0.001978
vt 0.376685 0.029332
vt 0.376685 -0.001978
vt 0.747792 0.029332
vt 0.376685 0.060642
vt 0.747792 0.060642
vt 0.376685 0.091952
vt 0.747792 0.091952
vt 0.376685 0.123263
vt 0.747792 0.123263
vt 0.376685 0.154573
vt 0.747792 0.154573
vt 0.376685 0.185883
vt 0.747792 0.185883
vt 0.376685 0.217193
vt 0.747792 0.217193
vt 0.376685 0.248504
vt 0.747792 0.248504
vt 0.376685 0.279814
vt 0.747792 0.279814
vt 0.376685 0.311124
vt 0.747792 0.311124
vt 0.376685 0.342434
vt 0.747792 0.342434
vt 0.376685 0.373745
vt 0.747792 0.373745
vt 0.376685 0.405055
vt 0.747792 0.405055
vt 0.376685 0.436365
vt 0.747792 0.436365
vt 0.376685 0.467675
vt 0.747792 0.467675
vt 0.376685 0.498986
vt 0.747792 0.498986
vt 0.376685 0.530296
vt 0.747792 0.530296
vt 0.376685 0.561606
vt 0.747792 0.561606
vt 0.376685 0.592916
vt 0.747792 0.592916
vt 0.376685 0.624227
vt 0.747792 0.624227
vt 0.376685 0.655537
vt 0.747792 0.655537
vt 0.376685 0.686847
vt 0.747792 0.686847
vt 0.376685 0.718157
vt 0.747792 0.718157
vt 0.376685 0.749468
vt 0.747792 0.749468
vt 0.376685 0.780778
vt 0.747792 0.780778
vt 0.376685 0.812088
vt 0.747792 0.812088
vt 0.376685 0.843398
vt 0.747792 0.843398
vt 0.376685 0.874709
vt 0.747792 0.874709
vt 0.376685 0.906019
vt 0.747792 0.906019
vt 0.376685 0.937329
vt 0.961326 0.947538
vt 0.962396 0.949138
vt 0.962234 0.949225
vt 0.946148 0.959995
vt 0.945079 0.958394
vt 0.945240 0.958308
vt 0.747792 0.937329
vt 0.376685 0.968640
vt 0.747792 0.968640
vt 0.376685 0.999950
vt 0.958365 0.981981
vt 0.959966 0.980912
vt 0.959849 0.980770
vt 0.949109 0.964664
vt 0.947509 0.965734
vt 0.947625 0.965876
vt 0.375960 0.031398
vt 0.000158 0.000158
vt 0.000158 0.031398
vt 0.375960 0.062638
vt 0.000158 0.062638
vt 0.375960 0.093879
vt 0.000158 0.093879
vt 0.375960 0.125119
vt 0.000158 0.125119
vt 0.000158 0.156359
vt 0.375960 0.156359
vt 0.000158 0.187599
vt 0.375960 0.187599
vt 0.375960 0.218839
vt 0.000158 0.250079
vt 0.375960 0.250079
vt 0.000158 0.281319
vt 0.375960 0.281319
vt 0.375960 0.312559
vt 0.000158 0.312559
vt 0.000158 0.343799
vt 0.375960 0.343799
vt 0.000158 0.375040
vt 0.375960 0.375040
vt 0.000158 0.406280
vt 0.375960 0.406280
vt 0.000158 0.437520
vt 0.375960 0.437520
vt 0.375960 0.468760
vt 0.000158 0.500000
vt 0.375960 0.500000
vt 0.000158 0.531240
vt 0.375960 0.531240
vt 0.375960 0.562480
vt 0.000158 0.593720
vt 0.375960 0.593720
vt 0.000158 0.624960
vt 0.375960 0.624960
vt 0.375960 0.656201
vt 0.000158 0.656201
vt 0.375960 0.687441
vt 0.000158 0.687441
vt 0.375960 0.718681
vt 0.000158 0.718681
vt 0.375960 0.749921
vt 0.000158 0.749921
vt 0.375960 0.781161
vt 0.000158 0.781161
vt 0.375960 0.812401
vt 0.000158 0.812401
vt 0.375960 0.843641
vt 0.000158 0.843641
vt 0.375960 0.874881
vt 0.000158 0.874881
vt 0.375960 0.906121
vt 0.000158 0.906121
vt 0.375960 0.937362
vt 0.000158 0.937362
vt 0.375960 0.968602
vt 0.000158 0.968602
vt 0.375960 0.999842
vt 0.000158 0.999842
vt 0.950940 0.944547
vt 0.949196 0.945270
vt 0.949109 0.945108
vt 0.959966 0.961356
vt 0.958365 0.962425
vt 0.958279 0.962263
vt 0.959849 0.961213
vt 0.950887 0.944371
vt 0.952793 0.944178
vt 0.961326 0.959995
vt 0.961185 0.959878
vt 0.952775 0.943995
vt 0.954681 0.944178
vt 0.962396 0.958394
vt 0.962234 0.958308
vt 0.954699 0.943995
vt 0.956534 0.944547
vt 0.956587 0.944371
vt 0.963132 0.956616
vt 0.962957 0.956563
vt 0.958279 0.945270
vt 0.963508 0.954728
vt 0.963325 0.954710
vt 0.958365 0.945108
vt 0.959849 0.946319
vt 0.963508 0.952804
vt 0.963325 0.952822
vt 0.959966 0.946177
vt 0.961185 0.947654
vt 0.963132 0.950916
vt 0.962957 0.950969
vt 0.956534 0.962986
vt 0.947509 0.946177
vt 0.947625 0.946319
vt 0.956587 0.963161
vt 0.954681 0.963354
vt 0.946148 0.947538
vt 0.946290 0.947654
vt 0.954699 0.963537
vt 0.952793 0.963354
vt 0.945079 0.949138
vt 0.945240 0.949225
vt 0.952775 0.963537
vt 0.950940 0.962986
vt 0.950887 0.963161
vt 0.944342 0.950916
vt 0.944518 0.950969
vt 0.949196 0.962263
vt 0.943967 0.952804
vt 0.944149 0.952822
vt 0.949109 0.962425
vt 0.947625 0.961214
vt 0.943967 0.954728
vt 0.944149 0.954710
vt 0.947509 0.961356
vt 0.946290 0.959878
vt 0.944342 0.956616
vt 0.944518 0.956563
vt 0.747792 0.999950
vt 0.946290 0.979435
vt 0.946148 0.979551
vt 0.947509 0.980912
vt 0.962396 0.968695
vt 0.961326 0.967094
vt 0.961185 0.967211
vt 0.962234 0.968781
vt 0.947625 0.980770
vt 0.949196 0.981819
vt 0.963132 0.970473
vt 0.962956 0.970526
vt 0.949109 0.981981
vt 0.950940 0.982542
vt 0.963508 0.972361
vt 0.963325 0.972379
vt 0.950887 0.982718
vt 0.952793 0.982911
vt 0.952775 0.983094
vt 0.963508 0.974285
vt 0.963325 0.974267
vt 0.954681 0.982911
vt 0.963132 0.976173
vt 0.962956 0.976120
vt 0.954699 0.983094
vt 0.956534 0.982542
vt 0.962396 0.977951
vt 0.962234 0.977864
vt 0.956587 0.982718
vt 0.958279 0.981819
vt 0.961326 0.979551
vt 0.961185 0.979435
vt 0.959966 0.965734
vt 0.945078 0.977951
vt 0.945240 0.977864
vt 0.959849 0.965876
vt 0.958279 0.964826
vt 0.944342 0.976173
vt 0.944518 0.976120
vt 0.958365 0.964664
vt 0.956534 0.964103
vt 0.943967 0.974285
vt 0.944149 0.974267
vt 0.956587 0.963928
vt 0.954681 0.963735
vt 0.954699 0.963552
vt 0.943967 0.972360
vt 0.944149 0.972379
vt 0.952793 0.963735
vt 0.944342 0.970473
vt 0.944518 0.970526
vt 0.952775 0.963552
vt 0.950940 0.964103
vt 0.945078 0.968695
vt 0.945240 0.968781
vt 0.950887 0.963928
vt 0.949196 0.964826
vt 0.946148 0.967094
vt 0.946290 0.967211
vt 0.375960 0.000158
vt 0.000158 0.218839
vt 0.000158 0.468760
vt 0.000158 0.562480
s 0
usemtl マテリアル
f 2/1/1 3/2/1 1/3/1
f 4/4/2 5/5/2 3/2/2
f 6/6/3 7/7/3 5/5/3
f 8/8/4 9/9/4 7/7/4
f 10/10/5 11/11/5 9/9/5
f 12/12/6 13/13/6 11/11/6
f 14/14/7 15/15/7 13/13/7
f 16/16/8 17/17/8 15/15/8
f 18/18/9 19/19/9 17/17/9
f 20/20/10 21/21/10 19/19/10
f 22/22/11 23/23/11 21/21/11
f 24/24/12 25/25/12 23/23/12
f 26/26/13 27/27/13 25/25/13
f 28/28/14 29/29/14 27/27/14
f 30/30/15 31/31/15 29/29/15
f 32/32/16 33/33/16 31/31/16
f 34/34/17 35/35/17 33/33/17
f 36/36/18 37/37/18 35/35/18
f 38/38/19 39/39/19 37/37/19
f 40/40/20 41/41/20 39/39/20
f 42/42/21 43/43/21 41/41/21
f 44/44/22 45/45/22 43/43/22
f 46/46/23 47/47/23 45/45/23
f 48/48/24 49/49/24 47/47/24
f 50/50/25 51/51/25 49/49/25
f 52/52/26 53/53/26 51/51/26
f 54/54/27 55/55/27 53/53/27
f 56/56/28 57/57/28 55/55/28
f 58/58/29 59/59/29 57/57/29
f 60/60/30 61/61/30 59/59/30
f 36/62/31 34/63/31 85/64/31
f 4/65/31 2/66/31 81/67/31
f 62/68/32 63/69/32 61/61/32
f 64/70/33 1/71/33 63/69/33
f 31/72/34 33/73/34 105/74/34
f 63/75/34 1/76/34 97/77/34
f 65/78/17 97/79/17 113/80/17
f 96/81/18 113/80/18 98/82/18
f 80/83/19 98/82/19 121/84/19
f 88/85/20 121/84/20 99/86/20
f 88/85/21 114/87/21 79/88/21
f 79/88/22 100/89/22 92/90/22
f 100/89/23 78/91/23 92/90/23
f 78/91/24 101/92/24 87/93/24
f 87/93/25 115/94/25 77/95/25
f 95/96/26 115/94/26 102/97/26
f 95/96/27 122/98/27 76/99/27
f 76/99/28 103/100/28 86/101/28
f 86/101/29 116/102/29 75/103/29
f 75/103/30 104/104/30 91/105/30
f 104/104/32 74/106/32 91/105/32
f 74/106/33 105/107/33 85/108/33
f 85/108/1 117/109/1 73/110/1
f 117/109/2 94/111/2 73/110/2
f 94/111/3 123/112/3 72/113/3
f 72/113/4 107/114/4 84/115/4
f 71/116/5 107/114/5 118/117/5
f 90/118/6 118/117/6 108/119/6
f 70/120/7 108/119/7 127/121/7
f 83/122/8 127/121/8 109/123/8
f 69/124/9 109/123/9 119/125/9
f 93/126/10 119/125/10 110/127/10
f 68/128/11 110/127/11 124/129/11
f 82/130/12 124/129/12 111/131/12
f 67/132/13 111/131/13 120/133/13
f 89/134/14 120/133/14 112/135/14
f 66/136/15 112/135/15 128/137/15
f 81/138/16 128/137/16 97/139/16
f 2/1/1 4/4/1 3/2/1
f 4/4/2 6/6/2 5/5/2
f 6/6/3 8/8/3 7/7/3
f 8/8/4 10/10/4 9/9/4
f 10/10/5 12/12/5 11/11/5
f 12/12/6 14/14/6 13/13/6
f 14/14/7 16/16/7 15/15/7
f 16/16/8 18/18/8 17/17/8
f 18/18/9 20/20/9 19/19/9
f 20/20/10 22/22/10 21/21/10
f 22/22/11 24/24/11 23/23/11
f 24/24/12 26/26/12 25/25/12
f 26/26/13 28/28/13 27/27/13
f 28/28/14 30/30/14 29/29/14
f 30/30/15 32/32/15 31/31/15
f 32/32/16 34/34/16 33/33/16
f 34/34/17 36/36/17 35/35/17
f 36/36/18 38/38/18 37/37/18
f 38/38/19 40/40/19 39/39/19
f 40/40/20 42/42/20 41/41/20
f 42/42/21 44/44/21 43/43/21
f 44/44/22 46/46/22 45/45/22
f 46/46/23 48/48/23 47/47/23
f 48/48/24 50/50/24 49/49/24
f 50/50/25 52/52/25 51/51/25
f 52/52/26 54/54/26 53/53/26
f 54/54/27 56/56/27 55/55/27
f 56/56/28 58/58/28 57/57/28
f 58/58/29 60/60/29 59/59/29
f 60/60/30 62/68/30 61/61/30
f 70/140/31 83/141/31 50/142/31
f 20/143/31 18/144/31 87/145/31
f 20/143/31 87/145/31 77/146/31
f 70/140/31 50/142/31 48/147/31
f 90/148/31 70/140/31 48/147/31
f 22/149/31 20/143/31 77/146/31
f 22/149/31 77/146/31 95/150/31
f 90/148/31 48/147/31 46/151/31
f 71/152/31 90/148/31 46/151/31
f 24/153/31 22/149/31 95/150/31
f 24/153/31 95/150/31 76/154/31
f 71/152/31 46/151/31 44/155/31
f 84/156/31 71/152/31 42/157/31
f 71/152/31 44/155/31 42/157/31
f 26/158/31 24/153/31 76/154/31
f 26/158/31 76/154/31 86/159/31
f 72/160/31 84/156/31 42/157/31
f 28/161/31 26/158/31 75/162/31
f 26/158/31 86/159/31 75/162/31
f 72/160/31 42/157/31 40/163/31
f 94/164/31 72/160/31 40/163/31
f 30/165/31 28/161/31 91/166/31
f 28/161/31 75/162/31 91/166/31
f 94/164/31 40/163/31 38/167/31
f 73/168/31 94/164/31 38/167/31
f 32/169/31 30/165/31 91/166/31
f 32/169/31 91/166/31 74/170/31
f 73/168/31 38/167/31 36/62/31
f 32/169/31 74/170/31 85/64/31
f 85/64/31 73/168/31 36/62/31
f 34/63/31 32/169/31 85/64/31
f 78/171/31 87/145/31 18/144/31
f 52/172/31 50/142/31 83/141/31
f 52/172/31 83/141/31 69/173/31
f 78/171/31 18/144/31 16/174/31
f 92/175/31 78/171/31 16/174/31
f 54/176/31 52/172/31 69/173/31
f 54/176/31 69/173/31 93/177/31
f 92/175/31 16/174/31 14/178/31
f 79/179/31 92/175/31 14/178/31
f 56/180/31 54/176/31 93/177/31
f 56/180/31 93/177/31 68/181/31
f 79/179/31 14/178/31 12/182/31
f 88/183/31 79/179/31 10/184/31
f 79/179/31 12/182/31 10/184/31
f 58/185/31 56/180/31 68/181/31
f 58/185/31 68/181/31 82/186/31
f 80/187/31 88/183/31 10/184/31
f 60/188/31 58/185/31 67/189/31
f 58/185/31 82/186/31 67/189/31
f 80/187/31 10/184/31 8/190/31
f 96/191/31 80/187/31 8/190/31
f 62/192/31 60/188/31 89/193/31
f 60/188/31 67/189/31 89/193/31
f 96/191/31 8/190/31 6/194/31
f 65/195/31 96/191/31 6/194/31
f 64/196/31 62/192/31 89/193/31
f 64/196/31 89/193/31 66/197/31
f 65/195/31 6/194/31 4/65/31
f 64/196/31 66/197/31 81/67/31
f 81/67/31 65/195/31 4/65/31
f 2/66/31 64/196/31 81/67/31
f 62/68/32 64/70/32 63/69/32
f 64/70/33 2/198/33 1/71/33
f 101/199/34 17/200/34 19/201/34
f 47/202/34 49/203/34 109/204/34
f 47/202/34 109/204/34 127/205/34
f 115/206/34 101/199/34 19/201/34
f 102/207/34 115/206/34 19/201/34
f 45/208/34 47/202/34 127/205/34
f 45/208/34 127/205/34 108/209/34
f 102/207/34 19/201/34 21/210/34
f 122/211/34 102/207/34 21/210/34
f 43/212/34 45/208/34 108/209/34
f 43/212/34 108/209/34 118/213/34
f 122/211/34 21/210/34 23/214/34
f 103/215/34 122/211/34 25/216/34
f 122/211/34 23/214/34 25/216/34
f 41/217/34 43/212/34 118/213/34
f 41/217/34 118/213/34 107/218/34
f 116/219/34 103/215/34 25/216/34
f 39/220/34 41/217/34 123/221/34
f 41/217/34 107/218/34 123/221/34
f 116/219/34 25/216/34 27/222/34
f 104/223/34 116/219/34 27/222/34
f 37/224/34 39/220/34 106/225/34
f 39/220/34 123/221/34 106/225/34
f 104/223/34 27/222/34 29/226/34
f 126/227/34 104/223/34 29/226/34
f 35/228/34 37/224/34 106/225/34
f 35/228/34 106/225/34 117/229/34
f 126/227/34 29/226/34 31/72/34
f 35/228/34 117/229/34 105/74/34
f 105/74/34 126/227/34 31/72/34
f 33/73/34 35/228/34 105/74/34
f 109/204/34 49/203/34 51/230/34
f 15/231/34 17/200/34 101/199/34
f 15/231/34 101/199/34 125/232/34
f 119/233/34 109/204/34 51/230/34
f 110/234/34 119/233/34 51/230/34
f 13/235/34 15/231/34 125/232/34
f 13/235/34 125/232/34 100/236/34
f 110/234/34 51/230/34 53/237/34
f 124/238/34 110/234/34 53/237/34
f 11/239/34 13/235/34 100/236/34
f 11/239/34 100/236/34 114/240/34
f 124/238/34 53/237/34 55/241/34
f 111/242/34 124/238/34 57/243/34
f 124/238/34 55/241/34 57/243/34
f 9/244/34 11/239/34 114/240/34
f 9/244/34 114/240/34 99/245/34
f 120/246/34 111/242/34 57/243/34
f 7/247/34 9/244/34 121/248/34
f 9/244/34 99/245/34 121/248/34
f 120/246/34 57/243/34 59/249/34
f 112/250/34 120/246/34 59/249/34
f 5/251/34 7/247/34 98/252/34
f 7/247/34 121/248/34 98/252/34
f 112/250/34 59/249/34 61/253/34
f 128/254/34 112/250/34 61/253/34
f 3/255/34 5/251/34 98/252/34
f 3/255/34 98/252/34 113/256/34
f 128/254/34 61/253/34 63/75/34
f 3/255/34 113/256/34 97/77/34
f 97/77/34 128/254/34 63/75/34
f 1/76/34 3/255/34 97/77/34
f 65/78/17 81/257/17 97/79/17
f 96/81/18 65/78/18 113/80/18
f 80/83/19 96/81/19 98/82/19
f 88/85/20 80/83/20 121/84/20
f 88/85/21 99/86/21 114/87/21
f 79/88/22 114/87/22 100/89/22
f 100/89/23 125/258/23 78/91/23
f 78/91/24 125/258/24 101/92/24
f 87/93/25 101/92/25 115/94/25
f 95/96/26 77/95/26 115/94/26
f 95/96/27 102/97/27 122/98/27
f 76/99/28 122/98/28 103/100/28
f 86/101/29 103/100/29 116/102/29
f 75/103/30 116/102/30 104/104/30
f 104/104/32 126/259/32 74/106/32
f 74/106/33 126/259/33 105/107/33
f 85/108/1 105/107/1 117/109/1
f 117/109/2 106/260/2 94/111/2
f 94/111/3 106/260/3 123/112/3
f 72/113/4 123/112/4 107/114/4
f 71/116/5 84/115/5 107/114/5
f 90/118/6 71/116/6 118/117/6
f 70/120/7 90/118/7 108/119/7
f 83/122/8 70/120/8 127/121/8
f 69/124/9 83/122/9 109/123/9
f 93/126/10 69/124/10 119/125/10
f 68/128/11 93/126/11 110/127/11
f 82/130/12 68/128/12 124/129/12
f 67/132/13 82/130/13 111/131/13
f 89/134/14 67/132/14 120/133/14
f 66/136/15 89/134/15 112/135/15
f 81/138/16 66/136/16 128/137/16
