# Blender 4.4.1
# www.blender.org
mtllib EnemyAttack.mtl
o 立方体
v 0.075202 0.367855 0.031372
v 0.044070 0.724694 -0.061603
v 1.660242 0.483086 -0.012385
v 0.075777 0.368906 0.047763
v 0.044070 0.724694 0.061603
v 0.777790 0.722909 -0.014787
v 0.792709 0.963221 -0.061603
v 0.778364 0.723960 0.001604
v 0.792709 0.963221 0.061603
v 1.556846 0.717813 -0.052831
v 1.541446 0.585490 -0.018198
v 1.540977 0.584632 -0.031588
v 1.556846 0.717813 0.047814
v 0.416648 0.595502 0.004809
v 0.418390 0.899134 0.061603
v 0.418390 0.899134 -0.061603
v 0.417222 0.596553 0.021200
v 0.245925 0.514862 0.018090
v 0.231230 0.843023 0.061603
v 0.231230 0.843023 -0.061603
v 0.246500 0.515913 0.034481
v 0.605550 0.940326 -0.061603
v 0.597793 0.661069 0.011402
v 0.597219 0.660018 -0.004989
v 0.605550 0.940326 0.061603
v 1.016342 0.759671 -0.025192
v 1.033514 0.973291 0.061603
v 1.033514 0.973291 -0.061603
v 1.016916 0.760722 -0.008801
v 1.185011 0.939809 -0.061603
v 1.167287 0.758505 -0.014004
v 1.166712 0.757454 -0.030395
v 1.185011 0.939809 0.061603
v 1.355381 0.878538 -0.057217
v 1.338819 0.721724 -0.016101
v 1.338297 0.720769 -0.030991
v 1.355381 0.878538 0.054708
v 0.897066 0.754730 -0.019990
v 0.913112 0.975723 0.061603
v 0.913112 0.975723 -0.061603
v 0.897640 0.755781 -0.003599
v 0.106649 -1.000000 -0.000000
v 0.106649 1.000000 -0.000000
v 0.104970 -1.000000 0.017042
v 0.104970 1.000000 0.017042
v 0.099999 -1.000000 0.033429
v 0.099999 1.000000 0.033429
v 0.091926 -1.000000 0.048532
v 0.091926 1.000000 0.048532
v 0.081063 -1.000000 0.061770
v 0.081063 1.000000 0.061770
v 0.067825 -1.000000 0.072633
v 0.067825 1.000000 0.072633
v 0.052723 -1.000000 0.080706
v 0.052723 1.000000 0.080706
v 0.036335 -1.000000 0.085677
v 0.036335 1.000000 0.085677
v 0.019293 -1.000000 0.087355
v 0.019293 1.000000 0.087355
v 0.002251 -1.000000 0.085677
v 0.002251 1.000000 0.085677
v -0.014136 -1.000000 0.080706
v -0.014136 1.000000 0.080706
v -0.029239 -1.000000 0.072633
v -0.029239 1.000000 0.072633
v -0.042476 -1.000000 0.061769
v -0.042476 1.000000 0.061769
v -0.053340 -1.000000 0.048532
v -0.053340 1.000000 0.048532
v -0.061413 -1.000000 0.033429
v -0.061413 1.000000 0.033429
v -0.066384 -1.000000 0.017042
v -0.066384 1.000000 0.017042
v -0.068062 -1.000000 -0.000000
v -0.068062 1.000000 -0.000000
v -0.066384 -1.000000 -0.017042
v -0.066384 1.000000 -0.017042
v -0.061413 -1.000000 -0.033429
v -0.061413 1.000000 -0.033429
v -0.053340 -1.000000 -0.048532
v -0.053340 1.000000 -0.048532
v -0.042476 -1.000000 -0.061770
v -0.042476 1.000000 -0.061770
v -0.029239 -1.000000 -0.072633
v -0.029239 1.000000 -0.072633
v -0.014136 -1.000000 -0.080706
v -0.014136 1.000000 -0.080706
v 0.002251 -1.000000 -0.085677
v 0.002251 1.000000 -0.085677
v 0.019293 -1.000000 -0.087355
v 0.019293 1.000000 -0.087355
v 0.036335 -1.000000 -0.085677
v 0.036335 1.000000 -0.085677
v 0.052723 -1.000000 -0.080706
v 0.052723 1.000000 -0.080706
v 0.067825 -1.000000 -0.072633
v 0.067825 1.000000 -0.072633
v 0.081063 -1.000000 -0.061770
v 0.081063 1.000000 -0.061770
v 0.091926 -1.000000 -0.048532
v 0.091926 1.000000 -0.048532
v 0.099999 -1.000000 -0.033429
v 0.099999 1.000000 -0.033429
v 0.104970 -1.000000 -0.017042
v 0.104970 1.000000 -0.017042
vn -0.0189 -0.1553 -0.9877
vn -0.0760 -0.1501 -0.9857
vn 0.0226 -0.1601 -0.9868
vn 0.0955 -0.0567 0.9938
vn 0.0681 -0.0633 0.9957
vn 0.1028 -0.0295 0.9943
vn -0.9951 -0.0903 0.0407
vn 0.6534 -0.7565 0.0256
vn -0.5344 0.8452 -0.0000
vn -0.1033 0.9947 -0.0000
vn 0.2596 -0.9643 0.0527
vn 0.0721 -0.2713 0.9598
vn 0.0427 -0.2616 0.9642
vn 0.0936 -0.2211 0.9708
vn 0.0307 -0.1967 -0.9800
vn 0.0147 -0.1945 -0.9808
vn 0.0248 -0.2048 -0.9785
vn -0.3692 -0.3801 0.8481
vn -0.2870 -0.3919 0.8741
vn -0.3322 -0.3898 0.8589
vn -0.6533 -0.7538 0.0712
vn 0.9151 0.4031 -0.0000
vn -0.0741 -0.1545 -0.9852
vn 0.0879 -0.2232 -0.9708
vn 0.0364 -0.2226 -0.9742
vn 0.1008 -0.2354 -0.9667
vn -0.2149 0.9766 -0.0000
vn 0.3384 -0.9398 0.0484
vn 0.0935 -0.1600 0.9827
vn 0.0523 -0.1494 0.9874
vn 0.0939 -0.1090 0.9896
vn 0.1397 -0.2313 -0.9628
vn 0.1311 -0.2392 -0.9621
vn -0.2872 0.9579 -0.0000
vn 0.4294 -0.9021 0.0428
vn 0.0591 -0.1017 0.9931
vn 0.0533 -0.2010 0.9782
vn 0.3309 -0.9424 0.0488
vn -0.1214 0.9926 -0.0000
vn 0.0480 -0.2082 -0.9769
vn 0.0017 -0.1789 -0.9839
vn -0.0307 -0.1719 -0.9846
vn -0.0088 -0.1869 -0.9823
vn -0.0616 -0.3549 0.9329
vn 0.0120 -0.3239 0.9460
vn -0.0311 -0.3887 0.9208
vn -0.0125 -0.9978 0.0644
vn 0.2158 0.9764 -0.0000
vn 0.3384 0.9410 -0.0000
vn -0.2083 -0.9756 0.0699
vn -0.1538 -0.3843 0.9103
vn -0.1866 -0.3938 0.9001
vn -0.0354 -0.1651 -0.9856
vn -0.0361 -0.1639 -0.9858
vn -0.5560 -0.8280 0.0726
vn 0.6236 0.7817 -0.0000
vn -0.0590 -0.1591 -0.9855
vn 0.0194 -0.1900 -0.9816
vn 0.0203 -0.2967 0.9548
vn 0.0440 -0.9971 0.0624
vn 0.0202 0.9998 -0.0000
vn 0.7279 0.6857 -0.0000
vn 0.7139 -0.6857 0.1420
vn 0.7279 -0.6857 -0.0000
vn 0.7139 0.6857 0.1420
vn 0.6725 -0.6857 0.2786
vn 0.6725 0.6857 0.2786
vn 0.6052 -0.6857 0.4044
vn 0.6052 0.6857 0.4044
vn 0.5147 -0.6857 0.5147
vn 0.5147 0.6857 0.5147
vn 0.4044 -0.6857 0.6052
vn 0.4044 0.6857 0.6052
vn 0.2786 -0.6857 0.6725
vn 0.2786 0.6857 0.6725
vn 0.1420 -0.6857 0.7139
vn 0.1420 0.6857 0.7139
vn -0.0000 -0.6857 0.7279
vn -0.0000 0.6857 0.7279
vn -0.1420 -0.6857 0.7139
vn -0.1420 0.6857 0.7139
vn -0.2786 -0.6857 0.6725
vn -0.2786 0.6857 0.6725
vn -0.4044 -0.6857 0.6052
vn -0.4044 0.6857 0.6052
vn -0.5147 -0.6857 0.5147
vn -0.5147 0.6857 0.5147
vn -0.6052 -0.6857 0.4044
vn -0.6052 0.6857 0.4044
vn -0.6725 -0.6857 0.2785
vn -0.6725 0.6857 0.2786
vn -0.7139 -0.6857 0.1420
vn -0.7139 0.6857 0.1420
vn -0.7279 -0.6857 -0.0000
vn -0.7279 0.6857 -0.0000
vn -0.7139 -0.6857 -0.1420
vn -0.7139 0.6857 -0.1420
vn -0.6725 -0.6857 -0.2786
vn -0.6725 0.6857 -0.2786
vn -0.6052 -0.6857 -0.4044
vn -0.6052 0.6857 -0.4044
vn -0.5147 -0.6857 -0.5147
vn -0.5147 0.6857 -0.5147
vn -0.4044 -0.6857 -0.6052
vn -0.4044 0.6857 -0.6052
vn -0.2785 -0.6857 -0.6725
vn -0.2786 0.6857 -0.6725
vn -0.1420 -0.6857 -0.7139
vn -0.1420 0.6857 -0.7139
vn -0.0000 -0.6857 -0.7279
vn -0.0000 0.6857 -0.7279
vn 0.1420 -0.6857 -0.7139
vn 0.1420 0.6857 -0.7139
vn 0.2785 -0.6857 -0.6725
vn 0.2786 0.6857 -0.6725
vn 0.4044 -0.6857 -0.6052
vn 0.4044 0.6857 -0.6052
vn 0.5147 -0.6857 -0.5147
vn 0.5147 0.6857 -0.5147
vn 0.6052 -0.6857 -0.4044
vn 0.6052 0.6857 -0.4044
vn 0.6725 -0.6857 -0.2785
vn 0.6725 0.6857 -0.2786
vn 0.7139 -0.6857 -0.1420
vn 0.7139 0.6857 -0.1420
vn -0.9962 -0.0869 -0.0000
vn -0.0195 -0.1665 -0.9859
vn -0.0365 -0.3116 0.9495
vt 0.123494 0.858511
vt 0.123494 0.686912
vt 0.171771 0.858511
vt 0.496553 0.343370
vt 0.515314 0.171771
vt 0.515314 0.343370
vt 0.686912 0.343370
vt 0.496553 0.514968
vt 0.515314 0.514968
vt 0.496553 0.000173
vt 0.496553 0.171772
vt 0.428201 0.171771
vt 0.440270 0.000173
vt 0.440270 0.171771
vt 0.428201 0.514968
vt 0.440270 0.343370
vt 0.440270 0.514968
vt 0.428201 0.343370
vt 0.056456 0.686912
vt 0.075217 0.858511
vt 0.056456 0.858511
vt 0.343716 0.171772
vt 0.391993 0.171772
vt 0.391993 0.343370
vt 0.343716 0.343370
vt 0.391993 0.514968
vt 0.343716 0.000173
vt 0.391993 0.000173
vt 0.117460 0.858511
vt 0.018934 0.686912
vt 0.037695 0.858511
vt 0.018934 0.858511
vt 0.459031 0.000173
vt 0.477792 0.171771
vt 0.459031 0.171772
vt 0.459031 0.514968
vt 0.477792 0.343370
vt 0.477792 0.514968
vt 0.459031 0.343370
vt 0.000173 0.686912
vt 0.000173 0.858511
vt 0.477792 0.000173
vt 0.037695 0.686912
vt 0.087287 0.686912
vt 0.099356 0.858511
vt 0.087287 0.858511
vt 0.404062 0.171772
vt 0.416132 0.343370
vt 0.404062 0.343370
vt 0.416132 0.514968
vt 0.404062 0.514968
vt 0.416132 0.000173
vt 0.416132 0.171772
vt 0.398028 0.171772
vt 0.404062 0.000173
vt 0.398028 0.514968
vt 0.398028 0.343370
vt 0.111425 0.686912
vt 0.111425 0.858511
vt 0.398028 0.000173
vt 0.117460 0.686912
vt 0.075217 0.686912
vt 0.428201 0.000173
vt 0.343370 0.000173
vt 0.000173 0.021623
vt 0.000173 0.000173
vt 0.343370 0.021623
vt 0.000173 0.043073
vt 0.343370 0.043073
vt 0.000173 0.064523
vt 0.343370 0.064523
vt 0.000173 0.085972
vt 0.343370 0.085972
vt 0.000173 0.107422
vt 0.343370 0.107422
vt 0.000173 0.128872
vt 0.343370 0.128872
vt 0.000173 0.150322
vt 0.343370 0.150322
vt 0.000173 0.171771
vt 0.343370 0.171771
vt 0.000173 0.193221
vt 0.343370 0.193221
vt 0.000173 0.214671
vt 0.343370 0.214671
vt 0.000173 0.236121
vt 0.343370 0.236121
vt 0.000173 0.257571
vt 0.343370 0.257571
vt 0.000173 0.279020
vt 0.343370 0.279020
vt 0.000173 0.300470
vt 0.343370 0.300470
vt 0.000173 0.321920
vt 0.343370 0.321920
vt 0.000173 0.343370
vt 0.343370 0.343370
vt 0.000173 0.364819
vt 0.343370 0.364819
vt 0.000173 0.386269
vt 0.343370 0.386269
vt 0.000173 0.407719
vt 0.343370 0.407719
vt 0.000173 0.429169
vt 0.343370 0.429169
vt 0.000173 0.450618
vt 0.343370 0.450618
vt 0.000173 0.472068
vt 0.343370 0.472068
vt 0.000173 0.493518
vt 0.343370 0.493518
vt 0.000173 0.514968
vt 0.343370 0.514968
vt 0.000173 0.536417
vt 0.343370 0.536417
vt 0.000173 0.557867
vt 0.343370 0.557867
vt 0.000173 0.579317
vt 0.343370 0.579317
vt 0.000173 0.600767
vt 0.343370 0.600767
vt 0.000173 0.622217
vt 0.343370 0.622217
vt 0.000173 0.643666
vt 0.788066 0.521614
vt 0.993526 0.631436
vt 0.883705 0.836896
vt 0.343370 0.643666
vt 0.000173 0.665116
vt 0.343370 0.665116
vt 0.000173 0.686566
vt 0.612163 0.551914
vt 0.491510 0.515314
vt 0.343716 0.695402
vt 0.686912 0.171771
vt 0.515314 0.000173
vt 0.099356 0.686912
vt 0.852032 0.843196
vt 0.758230 0.824538
vt 0.819739 0.843196
vt 0.788066 0.836896
vt 0.731379 0.806597
vt 0.678245 0.727075
vt 0.708544 0.783762
vt 0.690603 0.756910
vt 0.671945 0.695402
vt 0.690603 0.601600
vt 0.671945 0.663108
vt 0.678245 0.631435
vt 0.708544 0.574749
vt 0.731379 0.551914
vt 0.758231 0.533973
vt 0.819739 0.515314
vt 0.852032 0.515314
vt 0.883705 0.521615
vt 0.913541 0.533973
vt 0.940392 0.551914
vt 0.963227 0.574749
vt 0.981168 0.601600
vt 0.999827 0.663109
vt 0.999827 0.695402
vt 0.993526 0.727075
vt 0.981168 0.756911
vt 0.963227 0.783762
vt 0.940392 0.806597
vt 0.913541 0.824538
vt 0.343370 0.686566
vt 0.350016 0.727075
vt 0.362375 0.756911
vt 0.380316 0.783762
vt 0.403151 0.806597
vt 0.430002 0.824538
vt 0.459837 0.836896
vt 0.491510 0.843196
vt 0.523804 0.843196
vt 0.555477 0.836896
vt 0.585312 0.824538
vt 0.612163 0.806597
vt 0.634998 0.783762
vt 0.652940 0.756911
vt 0.665298 0.727075
vt 0.671598 0.695402
vt 0.671598 0.663109
vt 0.665298 0.631435
vt 0.652940 0.601600
vt 0.634998 0.574749
vt 0.585312 0.533973
vt 0.555477 0.521614
vt 0.523804 0.515314
vt 0.459837 0.521614
vt 0.430002 0.533973
vt 0.403151 0.551914
vt 0.380316 0.574749
vt 0.362375 0.601600
vt 0.350016 0.631436
vt 0.343716 0.663109
s 1
usemtl マテリアル
f 12/1/1 10/2/2 3/3/3
f 21/4/4 5/5/5 4/6/6
s 0
f 5/5/7 1/7/7 4/6/7
f 18/8/8 4/6/8 1/9/8
f 20/10/9 5/5/9 19/11/9
f 39/12/10 7/13/10 9/14/10
f 38/15/11 8/16/11 6/17/11
s 1
f 41/18/12 9/14/13 8/16/14
f 22/19/15 6/20/16 24/21/17
f 3/22/18 13/23/19 11/24/20
s 0
f 3/25/21 11/24/21 12/26/21
f 3/27/22 10/28/22 13/23/22
s 1
f 36/29/23 10/2/2 12/1/1
f 20/30/24 14/31/25 18/32/26
s 0
f 22/33/27 15/34/27 25/35/27
f 24/36/28 17/37/28 14/38/28
s 1
f 23/39/29 15/34/30 17/37/31
f 2/40/32 18/32/26 1/41/33
s 0
f 16/42/34 19/11/34 15/34/34
f 17/37/35 18/8/35 14/38/35
s 1
f 17/37/31 19/11/36 21/4/4
f 8/16/14 25/35/37 23/39/29
s 0
f 6/17/38 23/39/38 24/36/38
f 7/13/39 25/35/39 9/14/39
s 1
f 16/43/40 24/21/17 14/31/25
f 40/44/41 26/45/42 38/46/43
f 33/47/44 29/48/45 31/49/46
s 0
f 31/49/47 26/50/47 32/51/47
f 33/47/48 28/52/48 27/53/48
f 37/54/49 30/55/49 33/47/49
f 36/56/50 31/49/50 32/51/50
s 1
f 37/54/51 31/49/46 35/57/52
f 26/45/42 30/58/53 32/59/54
f 13/23/19 35/57/52 11/24/20
s 0
f 11/24/55 36/56/55 12/26/55
f 13/23/56 34/60/56 37/54/56
s 1
f 32/59/54 34/61/57 36/29/23
f 7/62/58 38/46/43 6/20/16
f 29/48/45 39/12/59 41/18/12
s 0
f 29/48/60 38/15/60 26/50/60
f 27/53/61 40/63/61 39/12/61
s 1
f 43/64/62 44/65/63 42/66/64
f 45/67/65 46/68/66 44/65/63
f 47/69/67 48/70/68 46/68/66
f 49/71/69 50/72/70 48/70/68
f 51/73/71 52/74/72 50/72/70
f 53/75/73 54/76/74 52/74/72
f 55/77/75 56/78/76 54/76/74
f 57/79/77 58/80/78 56/78/76
f 59/81/79 60/82/80 58/80/78
f 61/83/81 62/84/82 60/82/80
f 63/85/83 64/86/84 62/84/82
f 65/87/85 66/88/86 64/86/84
f 67/89/87 68/90/88 66/88/86
f 69/91/89 70/92/90 68/90/88
f 71/93/91 72/94/92 70/92/90
f 73/95/93 74/96/94 72/94/92
f 75/97/95 76/98/96 74/96/94
f 77/99/97 78/100/98 76/98/96
f 79/101/99 80/102/100 78/100/98
f 81/103/101 82/104/102 80/102/100
f 83/105/103 84/106/104 82/104/102
f 85/107/105 86/108/106 84/106/104
f 87/109/107 88/110/108 86/108/106
f 89/111/109 90/112/110 88/110/108
f 91/113/111 92/114/112 90/112/110
f 93/115/113 94/116/114 92/114/112
f 95/117/115 96/118/116 94/116/114
f 97/119/117 98/120/118 96/118/116
f 99/121/119 100/122/120 98/120/118
f 101/123/121 102/124/122 100/122/120
f 79/125/99 63/126/83 47/127/67
f 103/128/123 104/129/124 102/124/122
f 105/130/125 42/131/64 104/129/124
f 80/132/100 88/133/108 104/134/124
f 21/4/4 19/11/36 5/5/5
s 0
f 5/5/126 2/135/126 1/7/126
f 18/8/8 21/4/8 4/6/8
f 20/10/9 2/136/9 5/5/9
f 39/12/10 40/63/10 7/13/10
f 38/15/11 41/18/11 8/16/11
s 1
f 41/18/12 39/12/59 9/14/13
f 22/19/15 7/62/58 6/20/16
f 36/29/23 34/61/57 10/2/2
f 20/30/24 16/43/40 14/31/25
s 0
f 22/33/27 16/42/27 15/34/27
f 24/36/28 23/39/28 17/37/28
s 1
f 23/39/29 25/35/37 15/34/30
f 2/40/32 20/30/24 18/32/26
s 0
f 16/42/34 20/10/34 19/11/34
f 17/37/35 21/4/35 18/8/35
s 1
f 17/37/31 15/34/30 19/11/36
f 8/16/14 9/14/13 25/35/37
s 0
f 6/17/38 8/16/38 23/39/38
f 7/13/39 22/33/39 25/35/39
s 1
f 16/43/40 22/19/15 24/21/17
f 40/44/41 28/137/127 26/45/42
f 33/47/44 27/53/128 29/48/45
s 0
f 31/49/47 29/48/47 26/50/47
f 33/47/48 30/55/48 28/52/48
f 37/54/49 34/60/49 30/55/49
f 36/56/50 35/57/50 31/49/50
s 1
f 37/54/51 33/47/44 31/49/46
f 26/45/42 28/137/127 30/58/53
f 13/23/19 37/54/51 35/57/52
s 0
f 11/24/55 35/57/55 36/56/55
f 13/23/56 10/28/56 34/60/56
s 1
f 32/59/54 30/58/53 34/61/57
f 7/62/58 40/44/41 38/46/43
f 29/48/45 27/53/128 39/12/59
s 0
f 29/48/60 41/18/60 38/15/60
f 27/53/61 28/52/61 40/63/61
s 1
f 43/64/62 45/67/65 44/65/63
f 45/67/65 47/69/67 46/68/66
f 47/69/67 49/71/69 48/70/68
f 49/71/69 51/73/71 50/72/70
f 51/73/71 53/75/73 52/74/72
f 53/75/73 55/77/75 54/76/74
f 55/77/75 57/79/77 56/78/76
f 57/79/77 59/81/79 58/80/78
f 59/81/79 61/83/81 60/82/80
f 61/83/81 63/85/83 62/84/82
f 63/85/83 65/87/85 64/86/84
f 65/87/85 67/89/87 66/88/86
f 67/89/87 69/91/89 68/90/88
f 69/91/89 71/93/91 70/92/90
f 71/93/91 73/95/93 72/94/92
f 73/95/93 75/97/95 74/96/94
f 75/97/95 77/99/97 76/98/96
f 77/99/97 79/101/99 78/100/98
f 79/101/99 81/103/101 80/102/100
f 81/103/101 83/105/103 82/104/102
f 83/105/103 85/107/105 84/106/104
f 85/107/105 87/109/107 86/108/106
f 87/109/107 89/111/109 88/110/108
f 89/111/109 91/113/111 90/112/110
f 91/113/111 93/115/113 92/114/112
f 93/115/113 95/117/115 94/116/114
f 95/117/115 97/119/117 96/118/116
f 97/119/117 99/121/119 98/120/118
f 99/121/119 101/123/121 100/122/120
f 101/123/121 103/128/123 102/124/122
f 47/127/67 45/138/65 103/139/123
f 45/138/65 43/140/62 103/139/123
f 43/140/62 105/141/125 103/139/123
f 103/139/123 101/142/121 95/143/115
f 101/142/121 99/144/119 95/143/115
f 99/144/119 97/145/117 95/143/115
f 95/143/115 93/146/113 87/147/107
f 93/146/113 91/148/111 87/147/107
f 91/148/111 89/149/109 87/147/107
f 87/147/107 85/150/105 83/151/103
f 83/151/103 81/152/101 87/147/107
f 81/152/101 79/125/99 87/147/107
f 79/125/99 77/153/97 75/154/95
f 75/154/95 73/155/93 79/125/99
f 73/155/93 71/156/91 79/125/99
f 71/156/91 69/157/89 67/158/87
f 67/158/87 65/159/85 71/156/91
f 65/159/85 63/126/83 71/156/91
f 63/126/83 61/160/81 59/161/79
f 59/161/79 57/162/77 63/126/83
f 57/162/77 55/163/75 63/126/83
f 55/163/75 53/164/73 51/165/71
f 51/165/71 49/166/69 55/163/75
f 49/166/69 47/127/67 55/163/75
f 47/127/67 103/139/123 79/125/99
f 103/139/123 95/143/115 79/125/99
f 95/143/115 87/147/107 79/125/99
f 79/125/99 71/156/91 63/126/83
f 63/126/83 55/163/75 47/127/67
f 103/128/123 105/130/125 104/129/124
f 105/130/125 43/167/62 42/131/64
f 104/134/124 42/168/64 44/169/63
f 44/169/63 46/170/66 104/134/124
f 46/170/66 48/171/68 104/134/124
f 48/171/68 50/172/70 52/173/72
f 52/173/72 54/174/74 48/171/68
f 54/174/74 56/175/76 48/171/68
f 56/175/76 58/176/78 60/177/80
f 60/177/80 62/178/82 56/175/76
f 62/178/82 64/179/84 56/175/76
f 64/179/84 66/180/86 68/181/88
f 68/181/88 70/182/90 72/183/92
f 72/183/92 74/184/94 76/185/96
f 76/185/96 78/186/98 72/183/92
f 78/186/98 80/132/100 72/183/92
f 80/132/100 82/187/102 84/188/104
f 84/188/104 86/189/106 88/133/108
f 88/133/108 90/190/110 92/191/112
f 92/191/112 94/192/114 96/193/116
f 96/193/116 98/194/118 100/195/120
f 100/195/120 102/196/122 104/134/124
f 64/179/84 68/181/88 56/175/76
f 68/181/88 72/183/92 56/175/76
f 80/132/100 84/188/104 88/133/108
f 88/133/108 92/191/112 96/193/116
f 96/193/116 100/195/120 88/133/108
f 100/195/120 104/134/124 88/133/108
f 104/134/124 48/171/68 72/183/92
f 48/171/68 56/175/76 72/183/92
f 72/183/92 80/132/100 104/134/124
