# Blender 4.4.1
# www.blender.org
mtllib goal.mtl
o 円柱
v 0.000000 -1.000000 -1.000000
v 0.000000 -0.087301 -1.000000
v 0.195090 -1.000000 -0.980785
v 0.195090 -0.087301 -0.980785
v 0.382683 -1.000000 -0.923880
v 0.382683 -0.087301 -0.923880
v 0.555570 -1.000000 -0.831470
v 0.555570 -0.087301 -0.831470
v 0.707107 -1.000000 -0.707107
v 0.707107 -0.087301 -0.707107
v 0.831470 -1.000000 -0.555570
v 0.831470 -0.087301 -0.555570
v 0.923880 -1.000000 -0.382683
v 0.923880 -0.087301 -0.382683
v 0.980785 -1.000000 -0.195090
v 0.980785 -0.087301 -0.195090
v 1.000000 -1.000000 0.000000
v 1.000000 -0.087301 0.000000
v 0.980785 -1.000000 0.195090
v 0.980785 -0.087301 0.195090
v 0.923880 -1.000000 0.382683
v 0.923880 -0.087301 0.382683
v 0.831470 -1.000000 0.555570
v 0.831470 -0.087301 0.555570
v 0.707107 -1.000000 0.707107
v 0.707107 -0.087301 0.707107
v 0.555570 -1.000000 0.831470
v 0.555570 -0.087301 0.831470
v 0.382683 -1.000000 0.923880
v 0.382683 -0.087301 0.923880
v 0.195090 -1.000000 0.980785
v 0.195090 -0.087301 0.980785
v 0.000000 -1.000000 1.000000
v 0.000000 -0.087301 1.000000
v -0.195090 -1.000000 0.980785
v -0.195090 -0.087301 0.980785
v -0.382683 -1.000000 0.923880
v -0.382683 -0.087301 0.923880
v -0.555570 -1.000000 0.831470
v -0.555570 -0.087301 0.831470
v -0.707107 -1.000000 0.707107
v -0.707107 -0.087301 0.707107
v -0.831470 -1.000000 0.555570
v -0.831470 -0.087301 0.555570
v -0.923880 -1.000000 0.382683
v -0.923880 -0.087301 0.382683
v -0.980785 -1.000000 0.195090
v -0.980785 -0.087301 0.195090
v -1.000000 -1.000000 0.000000
v -1.000000 -0.087301 0.000000
v -0.980785 -1.000000 -0.195090
v -0.980785 -0.087301 -0.195090
v -0.923880 -1.000000 -0.382683
v -0.923880 -0.087301 -0.382683
v -0.831470 -1.000000 -0.555570
v -0.831470 -0.087301 -0.555570
v -0.707107 -1.000000 -0.707107
v -0.707107 -0.087301 -0.707107
v -0.555570 -1.000000 -0.831470
v -0.555570 -0.087301 -0.831470
v -0.382683 -1.000000 -0.923880
v -0.382683 -0.087301 -0.923880
v -0.195090 -1.000000 -0.980785
v -0.195090 -0.087301 -0.980785
v 0.735452 0.594868 -0.000000
v -0.735452 0.594868 -0.000000
v 0.735452 1.000000 0.000000
v -0.735452 1.000000 0.000000
vn 0.0980 -0.0000 -0.9952
vn 0.2903 -0.0000 -0.9569
vn 0.4714 -0.0000 -0.8819
vn 0.6344 -0.0000 -0.7730
vn 0.7730 -0.0000 -0.6344
vn 0.8819 -0.0000 -0.4714
vn 0.9569 -0.0000 -0.2903
vn 0.9952 -0.0000 -0.0980
vn 0.9952 -0.0000 0.0980
vn 0.9569 -0.0000 0.2903
vn 0.8819 -0.0000 0.4714
vn 0.7730 -0.0000 0.6344
vn 0.6344 -0.0000 0.7730
vn 0.4714 -0.0000 0.8819
vn 0.2903 -0.0000 0.9569
vn 0.0980 -0.0000 0.9952
vn -0.0980 -0.0000 0.9952
vn -0.2903 -0.0000 0.9569
vn -0.4714 -0.0000 0.8819
vn -0.6344 -0.0000 0.7730
vn -0.7730 -0.0000 0.6344
vn -0.8819 -0.0000 0.4714
vn -0.9569 -0.0000 0.2903
vn -0.9952 -0.0000 0.0980
vn -0.9952 -0.0000 -0.0980
vn -0.9569 -0.0000 -0.2903
vn -0.8819 -0.0000 -0.4714
vn -0.7730 -0.0000 -0.6344
vn -0.6344 -0.0000 -0.7730
vn -0.4714 -0.0000 -0.8819
vn -0.0000 1.0000 -0.0000
vn -0.2903 -0.0000 -0.9569
vn -0.0980 -0.0000 -0.9952
vn -0.0000 -1.0000 -0.0000
vn -0.0000 -0.0000 -1.0000
vt 0.506668 0.007193
vt 0.115288 0.031654
vt 0.115288 0.007193
vt 0.506668 0.031654
vt 0.115288 0.056115
vt 0.506668 0.056115
vt 0.115288 0.080577
vt 0.506668 0.080577
vt 0.115288 0.105038
vt 0.506668 0.105038
vt 0.115288 0.129499
vt 0.506668 0.129499
vt 0.115288 0.153961
vt 0.506668 0.153961
vt 0.115288 0.178422
vt 0.506668 0.178422
vt 0.115288 0.202883
vt 0.506668 0.202883
vt 0.115288 0.227345
vt 0.506668 0.227345
vt 0.115288 0.251806
vt 0.506668 0.251806
vt 0.115288 0.276267
vt 0.506668 0.276267
vt 0.115288 0.300729
vt 0.506668 0.300729
vt 0.115288 0.325190
vt 0.506668 0.325190
vt 0.115288 0.349651
vt 0.506668 0.349651
vt 0.115288 0.374113
vt 0.506668 0.374113
vt 0.115288 0.398574
vt 0.506668 0.398574
vt 0.115288 0.423035
vt 0.506668 0.423035
vt 0.115288 0.447496
vt 0.506668 0.447496
vt 0.115288 0.471958
vt 0.506668 0.471958
vt 0.115288 0.496419
vt 0.506668 0.496419
vt 0.115288 0.520880
vt 0.506668 0.520880
vt 0.115288 0.545342
vt 0.506668 0.545342
vt 0.115288 0.569803
vt 0.506668 0.569803
vt 0.115288 0.594264
vt 0.506668 0.594264
vt 0.115288 0.618726
vt 0.506668 0.618726
vt 0.115288 0.643187
vt 0.506668 0.643187
vt 0.115288 0.667648
vt 0.506668 0.667648
vt 0.115288 0.692110
vt 0.506668 0.692110
vt 0.115288 0.716571
vt 0.506668 0.716571
vt 0.115288 0.741032
vt 0.691628 0.520021
vt 0.980134 0.674231
vt 0.825924 0.962737
vt 0.506668 0.741032
vt 0.115288 0.765494
vt 0.506668 0.765494
vt 0.115288 0.789955
vt 0.985075 0.223802
vt 0.732197 0.016271
vt 0.524666 0.269149
vt 0.096802 0.005658
vt 0.003088 0.345905
vt 0.003087 0.005658
vt 0.781449 0.971584
vt 0.736103 0.971584
vt 0.691628 0.962737
vt 0.649733 0.945384
vt 0.612029 0.920191
vt 0.579965 0.888126
vt 0.554772 0.850422
vt 0.537418 0.808527
vt 0.528572 0.764052
vt 0.528572 0.718706
vt 0.537418 0.674231
vt 0.554772 0.632336
vt 0.579965 0.594632
vt 0.612029 0.562568
vt 0.649734 0.537375
vt 0.736103 0.511175
vt 0.867819 0.537375
vt 0.781450 0.511175
vt 0.825925 0.520021
vt 0.905523 0.562568
vt 0.937588 0.594633
vt 0.962781 0.632337
vt 0.988981 0.718706
vt 0.962781 0.850422
vt 0.988981 0.764053
vt 0.980134 0.808528
vt 0.937588 0.888126
vt 0.905523 0.920191
vt 0.867819 0.945384
vt 0.506668 0.789955
vt 0.533512 0.313624
vt 0.550865 0.355518
vt 0.576058 0.393222
vt 0.608123 0.425287
vt 0.645827 0.450480
vt 0.687722 0.467833
vt 0.732197 0.476680
vt 0.777543 0.476680
vt 0.822018 0.467833
vt 0.863913 0.450480
vt 0.901617 0.425287
vt 0.933682 0.393222
vt 0.958875 0.355518
vt 0.976228 0.313624
vt 0.985075 0.269148
vt 0.976228 0.179327
vt 0.958875 0.137433
vt 0.933682 0.099728
vt 0.901617 0.067664
vt 0.863913 0.042471
vt 0.822018 0.025117
vt 0.777543 0.016271
vt 0.687722 0.025117
vt 0.645827 0.042471
vt 0.608123 0.067664
vt 0.576058 0.099729
vt 0.550865 0.137433
vt 0.533512 0.179327
vt 0.524665 0.223802
vt 0.096802 0.345905
s 0
usemtl マテリアル
f 2/1/1 3/2/1 1/3/1
f 4/4/2 5/5/2 3/2/2
f 6/6/3 7/7/3 5/5/3
f 8/8/4 9/9/4 7/7/4
f 10/10/5 11/11/5 9/9/5
f 12/12/6 13/13/6 11/11/6
f 14/14/7 15/15/7 13/13/7
f 16/16/8 17/17/8 15/15/8
f 18/18/9 19/19/9 17/17/9
f 20/20/10 21/21/10 19/19/10
f 22/22/11 23/23/11 21/21/11
f 24/24/12 25/25/12 23/23/12
f 26/26/13 27/27/13 25/25/13
f 28/28/14 29/29/14 27/27/14
f 30/30/15 31/31/15 29/29/15
f 32/32/16 33/33/16 31/31/16
f 34/34/17 35/35/17 33/33/17
f 36/36/18 37/37/18 35/35/18
f 38/38/19 39/39/19 37/37/19
f 40/40/20 41/41/20 39/39/20
f 42/42/21 43/43/21 41/41/21
f 44/44/22 45/45/22 43/43/22
f 46/46/23 47/47/23 45/45/23
f 48/48/24 49/49/24 47/47/24
f 50/50/25 51/51/25 49/49/25
f 52/52/26 53/53/26 51/51/26
f 54/54/27 55/55/27 53/53/27
f 56/56/28 57/57/28 55/55/28
f 58/58/29 59/59/29 57/57/29
f 60/60/30 61/61/30 59/59/30
f 38/62/31 22/63/31 6/64/31
f 62/65/32 63/66/32 61/61/32
f 64/67/33 1/68/33 63/66/33
f 31/69/34 47/70/34 63/71/34
f 65/72/35 68/73/35 67/74/35
f 2/1/1 4/4/1 3/2/1
f 4/4/2 6/6/2 5/5/2
f 6/6/3 8/8/3 7/7/3
f 8/8/4 10/10/4 9/9/4
f 10/10/5 12/12/5 11/11/5
f 12/12/6 14/14/6 13/13/6
f 14/14/7 16/16/7 15/15/7
f 16/16/8 18/18/8 17/17/8
f 18/18/9 20/20/9 19/19/9
f 20/20/10 22/22/10 21/21/10
f 22/22/11 24/24/11 23/23/11
f 24/24/12 26/26/12 25/25/12
f 26/26/13 28/28/13 27/27/13
f 28/28/14 30/30/14 29/29/14
f 30/30/15 32/32/15 31/31/15
f 32/32/16 34/34/16 33/33/16
f 34/34/17 36/36/17 35/35/17
f 36/36/18 38/38/18 37/37/18
f 38/38/19 40/40/19 39/39/19
f 40/40/20 42/42/20 41/41/20
f 42/42/21 44/44/21 43/43/21
f 44/44/22 46/46/22 45/45/22
f 46/46/23 48/48/23 47/47/23
f 48/48/24 50/50/24 49/49/24
f 50/50/25 52/52/25 51/51/25
f 52/52/26 54/54/26 53/53/26
f 54/54/27 56/56/27 55/55/27
f 56/56/28 58/58/28 57/57/28
f 58/58/29 60/60/29 59/59/29
f 60/60/30 62/65/30 61/61/30
f 6/64/31 4/75/31 2/76/31
f 2/76/31 64/77/31 6/64/31
f 64/77/31 62/78/31 6/64/31
f 62/78/31 60/79/31 58/80/31
f 58/80/31 56/81/31 54/82/31
f 54/82/31 52/83/31 50/84/31
f 50/84/31 48/85/31 54/82/31
f 48/85/31 46/86/31 54/82/31
f 46/86/31 44/87/31 42/88/31
f 42/88/31 40/89/31 38/62/31
f 38/62/31 36/90/31 30/91/31
f 36/90/31 34/92/31 30/91/31
f 34/92/31 32/93/31 30/91/31
f 30/91/31 28/94/31 26/95/31
f 26/95/31 24/96/31 22/63/31
f 22/63/31 20/97/31 14/98/31
f 20/97/31 18/99/31 14/98/31
f 18/99/31 16/100/31 14/98/31
f 14/98/31 12/101/31 10/102/31
f 10/102/31 8/103/31 6/64/31
f 62/78/31 58/80/31 6/64/31
f 58/80/31 54/82/31 6/64/31
f 46/86/31 42/88/31 54/82/31
f 42/88/31 38/62/31 54/82/31
f 30/91/31 26/95/31 38/62/31
f 26/95/31 22/63/31 38/62/31
f 14/98/31 10/102/31 22/63/31
f 10/102/31 6/64/31 22/63/31
f 6/64/31 54/82/31 38/62/31
f 62/65/32 64/67/32 63/66/32
f 64/67/33 2/104/33 1/68/33
f 63/71/34 1/105/34 3/106/34
f 3/106/34 5/107/34 7/108/34
f 7/108/34 9/109/34 11/110/34
f 11/110/34 13/111/34 15/112/34
f 15/112/34 17/113/34 19/114/34
f 19/114/34 21/115/34 23/116/34
f 23/116/34 25/117/34 27/118/34
f 27/118/34 29/119/34 31/69/34
f 31/69/34 33/120/34 35/121/34
f 35/121/34 37/122/34 39/123/34
f 39/123/34 41/124/34 43/125/34
f 43/125/34 45/126/34 47/70/34
f 47/70/34 49/127/34 51/128/34
f 51/128/34 53/129/34 55/130/34
f 55/130/34 57/131/34 59/132/34
f 59/132/34 61/133/34 63/71/34
f 63/71/34 3/106/34 15/112/34
f 3/106/34 7/108/34 15/112/34
f 7/108/34 11/110/34 15/112/34
f 15/112/34 19/114/34 31/69/34
f 19/114/34 23/116/34 31/69/34
f 23/116/34 27/118/34 31/69/34
f 31/69/34 35/121/34 47/70/34
f 35/121/34 39/123/34 47/70/34
f 39/123/34 43/125/34 47/70/34
f 47/70/34 51/128/34 63/71/34
f 51/128/34 55/130/34 63/71/34
f 55/130/34 59/132/34 63/71/34
f 63/71/34 15/112/34 31/69/34
f 65/72/35 66/134/35 68/73/35
