# Blender 4.4.1
# www.blender.org
mtllib playerRleg.mtl
o 立方体.003
v 0.081303 -0.087596 -0.029741
v 0.051376 -0.087596 -0.083986
v -0.023084 -0.087596 0.115004
v 0.005859 -0.087596 0.115004
v -0.093880 -0.098982 -0.083986
v 0.075588 -0.087596 0.062981
v 0.081303 -0.087596 0.019102
v -0.093880 -0.098982 0.019102
v 0.060007 -0.087596 0.088992
v -0.093880 -0.098982 0.062981
v -0.093880 -0.098982 -0.029741
v -0.092694 -0.098982 0.115004
v -0.068835 -0.087596 0.115004
v -0.014268 -0.087596 -0.093423
v -0.026580 -0.087596 -0.093423
v -0.045960 -0.087596 0.115004
v -0.001956 -0.087596 -0.093423
v -0.092745 -0.098982 0.088992
v 0.136159 -1.046615 -0.015633
v 0.115164 -1.046615 -0.045620
v 0.083956 -1.046615 0.101462
v 0.105218 -1.046615 0.095556
v 0.137451 -1.046615 0.061082
v 0.141820 -1.046615 0.032004
v 0.134931 -1.046615 0.078319
v 0.012846 -1.046615 0.095556
v 0.048974 -1.046615 0.101462
v 0.066353 -1.046615 -0.072458
v 0.050146 -1.046615 -0.070270
v 0.066644 -1.046615 0.032004
v 0.049446 -1.046615 0.032004
v 0.066644 -1.046615 0.061082
v 0.049446 -1.046615 0.061082
v 0.066644 -1.046615 -0.000364
v 0.049446 -1.046615 -0.000364
v 0.049637 -1.046615 0.078319
v 0.066465 -1.046615 0.103571
v 0.081994 -1.046615 -0.070270
v 0.083842 -1.046615 0.032004
v 0.083842 -1.046615 0.061082
v 0.083842 -1.046615 -0.000364
v 0.084326 -1.046615 0.078319
v 0.021333 -1.046615 -0.045620
v -0.006502 -1.046615 0.032004
v 0.005435 -1.046615 0.061082
v 0.000103 -1.046615 -0.015633
v 0.009935 -1.046615 0.078319
v 0.066981 -1.046615 0.078319
v -0.030076 -0.452556 -0.057045
v -0.039191 -0.452556 0.034406
v 0.035433 -0.446864 -0.062750
v -0.042026 -0.452556 -0.002073
v -0.039191 -0.452556 -0.042677
v 0.072570 -0.446864 -0.057045
v 0.094432 -0.446864 -0.042677
v 0.027204 -0.446864 0.080608
v 0.009874 -0.446864 0.081662
v 0.011188 -0.446864 -0.062750
v 0.023432 -0.446864 -0.063843
v -0.034482 -0.452556 0.056030
v -0.007457 -0.446864 0.080608
v -0.029177 -0.452556 0.077655
v 0.080730 -0.446864 0.056030
v 0.048758 -0.446864 0.077655
v 0.096863 -0.446864 -0.002073
v 0.092533 -0.446864 0.034406
v 0.012080 -0.931944 -0.044397
v 0.125001 -0.929100 -0.033440
v 0.065963 -0.930432 -0.057366
v 0.018009 -0.929376 0.016662
v 0.025165 -0.928814 0.036085
v 0.092429 -0.925968 0.036002
v 0.124645 -0.927094 -0.002843
v 0.024408 -0.932983 -0.047090
v 0.012080 -0.929938 -0.002761
v 0.077430 -0.930386 -0.055726
v 0.008244 -0.930888 -0.035525
v 0.107015 -0.930138 -0.047172
v 0.074479 -0.925839 0.040430
v 0.059894 -0.925794 0.042011
v 0.054168 -0.930386 -0.055726
v 0.045308 -0.925839 0.040430
v 0.114710 -0.926530 0.016580
v 0.128288 -0.928042 -0.020672
v -0.025677 -0.551023 -0.067854
v -0.038638 -0.549501 0.030395
v 0.045031 -0.546878 -0.075024
v -0.042671 -0.549976 -0.004227
v 0.084817 -0.546754 -0.067895
v 0.038489 -0.545994 0.075091
v 0.019431 -0.547350 0.076408
v 0.016567 -0.546878 -0.075024
v 0.000373 -0.548077 0.075091
v 0.094313 -0.544951 0.050877
v 0.112054 -0.545707 -0.004268
v -0.038638 -0.550505 -0.042765
v 0.108598 -0.546236 -0.042806
v 0.030972 -0.546902 -0.076391
v -0.032220 -0.549221 0.050918
v -0.024689 -0.548939 0.071442
v 0.062072 -0.546772 0.071401
v 0.107293 -0.545232 0.030353
v 0.010589 -1.026577 0.281839
v -0.000096 -1.051137 0.281016
v 0.093286 -1.023731 0.264476
v 0.098096 -1.051137 0.263614
v 0.080587 -1.051137 0.277046
v 0.048146 -1.051137 0.290133
v 0.065155 -1.051137 0.285544
v 0.116791 -1.051137 0.240027
v 0.073444 -1.023603 0.277255
v 0.056566 -1.023557 0.285767
v 0.038506 -1.023603 0.291349
v 0.112708 -1.024294 0.235698
v 0.008062 -0.977695 0.203445
v -0.005269 -1.048877 0.232769
v 0.063619 -1.048877 0.239040
v 0.082699 -1.048877 0.233737
v 0.043625 -1.048877 0.240280
v 0.094969 -0.974850 0.194722
v 0.119137 -0.975412 0.170622
v 0.105167 -1.048877 0.224068
v 0.133221 -1.048877 0.203656
v 0.035914 -0.974721 0.210372
v 0.054833 -0.974675 0.208372
v 0.073067 -0.974721 0.203325
vn 0.2097 0.0467 -0.9767
vn 0.0021 -0.6293 -0.7772
vn 0.0057 0.0405 -0.9992
vn 0.9959 0.0736 -0.0522
vn 0.7200 -0.6448 -0.2568
vn 0.8325 0.0310 -0.5532
vn -0.6331 -0.0622 -0.7716
vn -0.5243 -0.6897 -0.4994
vn -0.7097 -0.6571 -0.2541
vn -0.2686 -0.0099 -0.9632
vn -0.2949 -0.6177 -0.7291
vn -0.9491 0.0331 0.3132
vn -0.7310 -0.6425 0.2297
vn -0.7463 -0.6469 0.1568
vn -0.0154 -0.9992 -0.0379
vn 0.5517 -0.6594 0.5107
vn 0.4016 -0.6704 0.6239
vn -0.9796 0.0275 0.1990
vn -0.7991 -0.5820 0.1507
vn 0.4691 0.0301 -0.8827
vn 0.2755 -0.6210 -0.7338
vn 0.8395 0.2531 0.4808
vn 0.7706 -0.6247 0.1258
vn 0.9451 0.1316 0.2991
vn -0.9841 -0.0342 -0.1740
vn 0.5269 -0.6681 -0.5254
vn 0.3360 0.8332 0.4392
vn 0.7973 0.3830 0.4665
vn 0.7418 0.6197 0.2562
vn 0.0014 -0.9995 -0.0328
vn 0.2928 -0.6598 0.6920
vn 0.0502 -0.6693 0.7413
vn -0.2072 0.0277 -0.9779
vn -0.8137 0.2605 0.5197
vn -0.7154 -0.6987 -0.0088
vn -0.8075 -0.5892 0.0287
vn -0.5879 0.4429 0.6769
vn -0.7191 0.6596 0.2185
vn -0.0068 -0.9994 -0.0345
vn 0.7790 -0.6257 0.0404
vn -0.0000 -1.0000 -0.0000
vn -0.0046 -0.9999 -0.0097
vn -0.0020 -1.0000 -0.0091
vn -0.0001 -1.0000 -0.0091
vn 0.0011 -1.0000 -0.0083
vn 0.7617 -0.6462 0.0471
vn 0.6920 0.7203 0.0479
vn 0.9494 0.0715 0.3057
vn 0.9951 0.0937 0.0303
vn 0.5102 0.6394 0.5753
vn 0.3544 -0.0383 0.9343
vn 0.7368 0.0200 0.6758
vn -0.7016 0.3401 0.6261
vn -0.0821 -0.0882 0.9927
vn -0.0901 0.8155 0.5717
vn -0.8434 0.5373 -0.0056
vn -0.6464 -0.1293 0.7520
vn -0.0107 0.7156 -0.6984
vn -0.1125 0.0058 -0.9936
vn -0.0773 0.7252 -0.6841
vn -0.0217 0.7520 0.6588
vn 0.0004 -0.0735 0.9973
vn -0.0114 0.7186 0.6954
vn 0.0971 -0.0652 0.9931
vn 0.7201 0.6667 -0.1923
vn 0.3714 0.0715 -0.9257
vn 0.4443 0.6102 -0.6559
vn -0.8033 0.5956 0.0015
vn -0.9972 -0.0749 0.0067
vn -0.7880 0.6156 -0.0004
vn 0.6977 0.6709 0.2511
vn 0.1223 0.0316 -0.9920
vn 0.0424 0.6790 -0.7329
vn -0.9852 -0.0898 0.1461
vn -0.8169 0.5767 0.0107
vn 0.1400 0.6554 0.7422
vn -0.9679 -0.1097 0.2261
vn -0.6913 0.4598 -0.5573
vn -0.5434 -0.0465 -0.8382
vn -0.9478 -0.0887 -0.3063
vn 0.8598 0.1084 -0.4990
vn 0.0011 0.0206 -0.9998
vn 0.9954 0.0929 0.0254
vn 0.7127 0.0259 0.7010
vn 0.4049 0.5918 0.6970
vn -0.1031 -0.0843 0.9911
vn -0.1723 0.5424 0.8223
vn -0.9436 -0.0912 0.3183
vn -0.6336 -0.1085 0.7660
vn 0.0003 0.0368 -0.9993
vn -0.1316 0.0243 -0.9910
vn 0.0030 -0.0721 0.9974
vn 0.0059 0.5815 0.8135
vn 0.1128 -0.0610 0.9917
vn 0.1500 0.5744 0.8047
vn 0.9078 0.0774 -0.4122
vn 0.4650 0.0535 -0.8837
vn -0.9563 -0.0595 -0.2864
vn -0.9977 -0.0663 0.0109
vn 0.9375 0.0717 0.3406
vn 0.1351 0.0460 -0.9898
vn -0.9754 -0.0775 0.2066
vn 0.3570 -0.0314 0.9336
vn -0.5843 -0.0241 -0.8112
vn 0.6078 0.4471 0.6563
vn 0.4227 0.5052 0.7524
vn 0.3030 0.5075 0.8066
vn -0.0666 0.4353 0.8978
vn 0.6549 -0.6494 0.3866
vn 0.8024 -0.5693 0.1791
vn -0.0793 0.9059 0.4160
vn 0.0840 0.9038 0.4196
vn -0.6969 -0.4940 0.5199
vn 0.1531 0.8907 0.4280
vn -0.0370 -0.9981 -0.0502
vt 0.675232 0.767792
vt 0.670793 0.797567
vt 0.672312 0.767638
vt 0.343822 0.584635
vt 0.343892 0.554061
vt 0.347077 0.584524
vt 0.353040 0.585793
vt 0.351365 0.556451
vt 0.358335 0.555817
vt 0.661480 0.767591
vt 0.666608 0.797305
vt 0.658895 0.796710
vt 0.368829 0.585551
vt 0.378059 0.554668
vt 0.382596 0.554436
vt 0.534519 0.812687
vt 0.530605 0.804969
vt 0.535131 0.801541
vt 0.363682 0.585662
vt 0.370268 0.555026
vt 0.682711 0.768128
vt 0.674776 0.797794
vt 0.334091 0.584695
vt 0.324204 0.553205
vt 0.339193 0.584704
vt 0.355195 0.585896
vt 0.687160 0.768052
vt 0.682959 0.798149
vt 0.498234 0.827211
vt 0.503970 0.813946
vt 0.503970 0.833607
vt 0.544582 0.811065
vt 0.539114 0.799380
vt 0.543498 0.798226
vt 0.669266 0.767435
vt 0.374016 0.585450
vt 0.387082 0.554191
vt 0.421450 0.551337
vt 0.434784 0.556424
vt 0.415427 0.570169
vt 0.539436 0.811353
vt 0.331719 0.553499
vt 0.533855 0.852673
vt 0.528507 0.848206
vt 0.533987 0.846720
vt 0.533855 0.872916
vt 0.518990 0.864497
vt 0.533906 0.864589
vt 0.520160 0.857024
vt 0.533952 0.857108
vt 0.525725 0.884509
vt 0.534220 0.890902
vt 0.549865 0.884657
vt 0.542704 0.872970
vt 0.555375 0.876976
vt 0.542755 0.864643
vt 0.554124 0.857232
vt 0.557149 0.864732
vt 0.542779 0.852728
vt 0.552272 0.848352
vt 0.552994 0.852791
vt 0.538280 0.872943
vt 0.538241 0.891490
vt 0.538377 0.857135
vt 0.538331 0.864616
vt 0.538317 0.852701
vt 0.538490 0.846205
vt 0.542987 0.846775
vt 0.542801 0.857163
vt 0.542414 0.890953
vt 0.520836 0.852593
vt 0.324032 0.800453
vt 0.324098 0.707894
vt 0.333514 0.708271
vt 0.689063 0.552965
vt 0.699101 0.644919
vt 0.690616 0.645876
vt 0.728759 0.552498
vt 0.713539 0.643776
vt 0.722417 0.550048
vt 0.395747 0.796708
vt 0.389767 0.706626
vt 0.402379 0.796304
vt 0.665388 0.550237
vt 0.665896 0.642677
vt 0.662230 0.550048
vt 0.716559 0.550495
vt 0.709115 0.644098
vt 0.710700 0.550941
vt 0.704662 0.644452
vt 0.448412 0.798751
vt 0.442932 0.891184
vt 0.434784 0.798751
vt 0.365445 0.798543
vt 0.369036 0.707763
vt 0.377896 0.797784
vt 0.312701 0.800003
vt 0.318417 0.707728
vt 0.682099 0.551185
vt 0.672114 0.643049
vt 0.668545 0.550426
vt 0.378425 0.707219
vt 0.389081 0.797103
vt 0.703288 0.551506
vt 0.384086 0.706920
vt 0.644668 0.551880
vt 0.655149 0.643470
vt 0.351618 0.799385
vt 0.358776 0.708416
vt 0.336576 0.800992
vt 0.343916 0.708734
vt 0.669051 0.642871
vt 0.335309 0.682801
vt 0.689063 0.671339
vt 0.697097 0.769100
vt 0.691135 0.769978
vt 0.713518 0.669932
vt 0.714383 0.768514
vt 0.709223 0.768078
vt 0.381459 0.682205
vt 0.386933 0.682018
vt 0.669585 0.668750
vt 0.665873 0.668514
vt 0.708640 0.670097
vt 0.705508 0.768327
vt 0.703714 0.670142
vt 0.701752 0.768648
vt 0.345175 0.683113
vt 0.350419 0.584521
vt 0.351365 0.683404
vt 0.357356 0.683279
vt 0.367059 0.682785
vt 0.326361 0.682570
vt 0.683285 0.669485
vt 0.673173 0.668951
vt 0.376019 0.682401
vt 0.697639 0.670859
vt 0.654880 0.668886
vt 0.351365 0.683638
vt 0.355403 0.708711
vt 0.681564 0.643583
vt 0.320946 0.682496
vt 0.686982 0.643829
vt 0.719176 0.644855
vt 0.504247 0.822937
vt 0.511140 0.819533
vt 0.511287 0.824232
vt 0.504083 0.817649
vt 0.511059 0.815442
vt 0.503992 0.813186
vt 0.511036 0.811005
vt 0.504939 0.801442
vt 0.503970 0.808464
vt 0.278849 0.557164
vt 0.271810 0.550048
vt 0.278071 0.550193
vt 0.287566 0.551074
vt 0.483392 0.822139
vt 0.490535 0.800504
vt 0.488204 0.823028
vt 0.555895 0.800648
vt 0.557149 0.813075
vt 0.492783 0.824647
vt 0.499542 0.806497
vt 0.478694 0.800299
vt 0.486013 0.798751
vt 0.494699 0.802948
vt 0.528723 0.815139
vt 0.525758 0.811007
vt 0.521474 0.820345
vt 0.485897 0.867598
vt 0.489607 0.868287
vt 0.482127 0.867681
vt 0.476140 0.823053
vt 0.494125 0.869741
vt 0.319750 0.553030
vt 0.295105 0.570404
vt 0.499468 0.874946
vt 0.658299 0.767119
vt 0.351365 0.554522
vt 0.433880 0.550048
vt 0.520371 0.876761
vt 0.689063 0.551306
vt 0.305851 0.799812
vt 0.719904 0.669719
vt 0.689063 0.669560
vt 0.511287 0.798751
vt 0.271240 0.557111
vt 0.476901 0.868119
vt 0.351365 0.812233
vt 0.351657 0.805809
vt 0.363666 0.800237
vt 0.371820 0.851734
vt 0.368652 0.851725
vt 0.351365 0.835132
vt 0.351365 0.848529
vt 0.388708 0.849447
vt 0.374987 0.851742
vt 0.396407 0.836070
vt 0.351365 0.823069
vt 0.396407 0.824007
vt 0.390928 0.806732
vt 0.394937 0.813166
vt 0.376998 0.800271
vt 0.369552 0.800252
vt 0.351670 0.799385
vt 0.357781 0.800222
s 1
usemtl マテリアル
f 76/1/1 28/2/2 69/3/3
f 84/4/4 19/5/5 68/6/6
f 67/7/7 43/8/8 46/9/9
f 74/10/10 29/11/11 43/12/8
f 70/13/12 45/14/13 47/15/14
f 118/16/15 106/17/16 107/18/17
f 75/19/18 44/20/19 45/14/13
f 78/21/20 38/22/21 76/1/1
f 83/23/22 23/24/23 73/25/24
f 77/26/25 46/9/9 44/20/19
f 68/27/6 20/28/26 78/21/20
f 120/29/27 114/30/28 121/31/29
f 119/32/30 109/33/31 108/34/32
f 69/3/3 29/11/11 81/35/33
f 71/36/34 47/15/14 26/37/35
f 116/38/36 103/39/37 115/40/38
f 117/41/39 107/18/17 109/33/31
f 73/25/24 24/42/40 84/4/4
f 42/43/41 22/44/42 21/45/43
f 41/46/41 24/47/40 39/48/41
f 39/48/41 23/49/23 40/50/41
f 20/51/26 41/46/41 38/52/21
f 43/53/8 35/54/41 46/55/9
f 31/56/41 45/57/13 44/58/19
f 35/54/41 44/58/19 46/55/9
f 36/59/41 26/60/35 47/61/14
f 38/52/21 34/62/41 28/63/2
f 39/48/41 32/64/41 30/65/41
f 41/46/41 30/65/41 34/62/41
f 48/66/41 21/45/43 37/67/44
f 48/66/41 27/68/45 36/59/41
f 34/62/41 31/56/41 35/54/41
f 30/65/41 33/69/41 31/56/41
f 29/70/11 34/62/41 35/54/41
f 32/64/41 36/59/41 33/69/41
f 40/50/41 48/66/41 32/64/41
f 33/69/41 47/61/14 45/57/13
f 40/50/41 25/71/46 42/43/41
f 7/72/47 66/73/48 65/74/49
f 9/75/50 64/76/51 63/77/52
f 12/78/53 61/79/54 13/80/55
f 18/81/56 62/82/57 12/83/53
f 14/84/58 58/85/59 15/86/60
f 16/87/61 61/79/54 57/88/62
f 3/89/63 57/88/62 56/90/64
f 1/91/65 54/92/66 2/93/67
f 11/94/68 52/95/69 8/96/70
f 6/97/71 63/98/52 66/73/48
f 2/99/67 51/100/72 17/101/73
f 8/96/70 50/102/74 10/103/75
f 4/104/76 56/90/64 64/76/51
f 10/103/75 60/105/77 18/81/56
f 5/106/78 58/85/59 49/107/79
f 5/108/78 53/109/80 11/94/68
f 1/110/65 65/74/49 55/111/81
f 17/101/73 59/112/82 14/84/58
f 95/113/83 73/25/24 84/4/4
f 94/114/84 72/115/85 83/116/22
f 93/117/86 71/118/34 82/119/87
f 99/120/88 71/36/34 100/121/89
f 98/122/90 81/35/33 92/123/91
f 91/124/92 82/119/87 80/125/93
f 90/126/94 80/125/93 79/127/95
f 97/128/96 78/129/20 89/130/97
f 96/131/98 77/26/25 88/132/99
f 102/133/100 83/23/22 73/25/24
f 89/134/97 76/1/1 87/135/101
f 88/132/99 75/19/18 86/136/102
f 101/137/103 79/127/95 72/115/85
f 86/136/102 70/13/12 99/120/88
f 92/123/91 74/10/10 85/138/104
f 85/139/104 67/7/7 96/131/98
f 97/128/96 84/4/4 68/6/6
f 87/135/101 69/3/3 98/122/90
f 51/100/72 98/122/90 59/112/82
f 55/111/81 95/113/83 97/128/96
f 49/140/79 96/131/98 53/109/80
f 49/107/79 92/123/91 85/138/104
f 50/102/74 99/120/88 60/105/77
f 64/76/51 90/126/94 101/137/103
f 52/95/69 86/136/102 50/102/74
f 54/141/66 87/135/101 51/100/72
f 66/73/48 94/142/84 102/133/100
f 53/109/80 88/132/99 52/95/69
f 55/143/81 89/134/97 54/141/66
f 56/90/64 91/124/92 90/126/94
f 57/88/62 93/117/86 91/124/92
f 59/112/82 92/123/91 58/85/59
f 60/105/77 100/121/89 62/82/57
f 62/144/57 93/117/86 61/79/54
f 63/77/52 101/137/103 94/114/84
f 65/74/49 102/133/100 95/113/83
f 105/145/105 107/146/17 106/147/16
f 111/148/106 109/149/31 107/146/17
f 112/150/107 108/151/32 109/149/31
f 103/152/37 108/151/32 113/153/108
f 114/154/28 106/155/16 110/156/109
f 123/157/110 114/154/28 110/156/109
f 124/158/111 112/159/107 125/160/112
f 119/32/30 104/161/113 116/162/36
f 126/163/114 105/164/105 120/29/27
f 124/158/111 103/165/37 113/166/108
f 125/160/112 111/167/106 126/163/114
f 122/168/115 110/169/109 106/17/16
f 22/44/42 123/170/110 122/168/115
f 80/171/93 126/163/114 79/172/95
f 82/173/87 115/174/38 124/158/111
f 79/172/95 120/29/27 72/175/85
f 27/68/45 116/162/36 26/60/35
f 82/173/87 125/160/112 80/171/93
f 25/176/46 121/177/29 123/157/110
f 37/67/44 118/16/15 117/41/39
f 26/37/35 115/40/38 71/36/34
f 27/68/45 117/41/39 119/32/30
f 72/175/85 121/31/29 83/178/22
f 21/45/43 122/168/115 118/16/15
f 76/1/1 38/22/21 28/2/2
f 84/4/4 24/42/40 19/5/5
f 67/179/7 74/10/10 43/12/8
f 74/10/10 81/35/33 29/11/11
f 70/13/12 75/19/18 45/14/13
f 118/16/15 122/168/115 106/17/16
f 75/19/18 77/26/25 44/20/19
f 78/21/20 20/28/26 38/22/21
f 83/23/22 25/176/46 23/24/23
f 77/26/25 67/7/7 46/9/9
f 68/6/6 19/5/5 20/180/26
f 120/29/27 105/164/105 114/30/28
f 119/32/30 117/41/39 109/33/31
f 69/3/3 28/2/2 29/11/11
f 71/36/34 70/13/12 47/15/14
f 116/38/36 104/181/113 103/39/37
f 117/41/39 118/16/15 107/18/17
f 73/25/24 23/24/23 24/42/40
f 42/43/41 25/71/46 22/44/42
f 41/46/41 19/182/5 24/47/40
f 39/48/41 24/47/40 23/49/23
f 20/51/26 19/182/5 41/46/41
f 43/53/8 29/70/11 35/54/41
f 31/56/41 33/69/41 45/57/13
f 35/54/41 31/56/41 44/58/19
f 36/59/41 27/68/45 26/60/35
f 38/52/21 41/46/41 34/62/41
f 39/48/41 40/50/41 32/64/41
f 41/46/41 39/48/41 30/65/41
f 48/66/41 42/43/41 21/45/43
f 48/66/41 37/67/44 27/68/45
f 34/62/41 30/65/41 31/56/41
f 30/65/41 32/64/41 33/69/41
f 29/70/11 28/63/2 34/62/41
f 32/64/41 48/66/41 36/59/41
f 40/50/41 42/43/41 48/66/41
f 33/69/41 36/59/41 47/61/14
f 40/50/41 23/49/23 25/71/46
f 7/72/47 6/97/71 66/73/48
f 9/75/50 4/104/76 64/76/51
f 12/78/53 62/144/57 61/79/54
f 18/81/56 60/105/77 62/82/57
f 14/84/58 59/112/82 58/85/59
f 16/87/61 13/80/55 61/79/54
f 3/89/63 16/87/61 57/88/62
f 1/183/65 55/143/81 54/141/66
f 11/94/68 53/109/80 52/95/69
f 6/97/71 9/184/50 63/98/52
f 2/99/67 54/141/66 51/100/72
f 8/96/70 52/95/69 50/102/74
f 4/104/76 3/89/63 56/90/64
f 10/103/75 50/102/74 60/105/77
f 5/106/78 15/86/60 58/85/59
f 5/108/78 49/140/79 53/109/80
f 1/110/65 7/72/47 65/74/49
f 17/101/73 51/100/72 59/112/82
f 95/113/83 102/133/100 73/25/24
f 94/114/84 101/137/103 72/115/85
f 93/117/86 100/185/89 71/118/34
f 99/120/88 70/13/12 71/36/34
f 98/122/90 69/3/3 81/35/33
f 91/124/92 93/117/86 82/119/87
f 90/126/94 91/124/92 80/125/93
f 97/186/96 68/27/6 78/21/20
f 96/131/98 67/7/7 77/26/25
f 102/133/100 94/142/84 83/23/22
f 89/134/97 78/21/20 76/1/1
f 88/132/99 77/26/25 75/19/18
f 101/137/103 90/126/94 79/127/95
f 86/136/102 75/19/18 70/13/12
f 92/123/91 81/35/33 74/10/10
f 85/138/104 74/10/10 67/179/7
f 97/128/96 95/113/83 84/4/4
f 87/135/101 76/1/1 69/3/3
f 51/100/72 87/135/101 98/122/90
f 55/111/81 65/74/49 95/113/83
f 49/140/79 85/139/104 96/131/98
f 49/107/79 58/85/59 92/123/91
f 50/102/74 86/136/102 99/120/88
f 64/76/51 56/90/64 90/126/94
f 52/95/69 88/132/99 86/136/102
f 54/141/66 89/134/97 87/135/101
f 66/73/48 63/98/52 94/142/84
f 53/109/80 96/131/98 88/132/99
f 55/111/81 97/128/96 89/130/97
f 56/90/64 57/88/62 91/124/92
f 57/88/62 61/79/54 93/117/86
f 59/112/82 98/122/90 92/123/91
f 60/105/77 99/120/88 100/121/89
f 62/144/57 100/185/89 93/117/86
f 63/77/52 64/76/51 101/137/103
f 65/74/49 66/73/48 102/133/100
f 105/145/105 111/148/106 107/146/17
f 111/148/106 112/150/107 109/149/31
f 112/150/107 113/153/108 108/151/32
f 103/152/37 104/187/113 108/151/32
f 114/154/28 105/188/105 106/155/16
f 123/157/110 121/177/29 114/154/28
f 124/158/111 113/166/108 112/159/107
f 119/32/30 108/34/32 104/161/113
f 126/163/114 111/167/106 105/164/105
f 124/158/111 115/174/38 103/165/37
f 125/160/112 112/159/107 111/167/106
f 122/168/115 123/170/110 110/169/109
f 22/44/42 25/71/46 123/170/110
f 80/171/93 125/160/112 126/163/114
f 82/173/87 71/189/34 115/174/38
f 79/172/95 126/163/114 120/29/27
f 27/68/45 119/32/30 116/162/36
f 82/173/87 124/158/111 125/160/112
f 25/176/46 83/23/22 121/177/29
f 37/67/44 21/45/43 118/16/15
f 26/37/35 116/38/36 115/40/38
f 27/68/45 37/67/44 117/41/39
f 72/175/85 120/29/27 121/31/29
f 21/45/43 22/44/42 122/168/115
f 10/190/75 18/191/56 16/192/61
f 14/193/58 15/194/60 11/195/68
f 15/194/60 5/196/78 11/195/68
f 2/197/67 17/198/73 1/199/65
f 17/198/73 14/193/58 8/200/70
f 1/199/65 17/198/73 7/201/47
f 17/198/73 8/200/70 7/201/47
f 9/202/50 6/203/71 4/204/76
f 6/203/71 7/201/47 4/204/76
f 3/205/63 4/204/76 8/200/70
f 12/206/53 13/207/55 18/191/56
f 13/207/55 16/192/61 18/191/56
f 16/192/61 3/205/63 10/190/75
f 4/204/76 7/201/47 8/200/70
f 14/193/58 11/195/68 8/200/70
f 8/200/70 10/190/75 3/205/63
