# Blender 4.4.1
# www.blender.org
mtllib playerSword.mtl
o Cube
v -0.083691 0.004892 0.005666
v -0.051157 0.996567 0.002731
v -0.000000 0.004892 -0.000000
v -0.000000 1.202966 -0.000000
v -0.060389 0.996567 -0.000000
v -0.096371 0.004892 -0.000000
v -0.000000 0.004892 0.022395
v -0.000000 1.182763 0.001855
v -0.048382 0.500729 0.004629
v -0.059338 0.500729 -0.000000
v -0.000000 0.498681 0.012125
v -0.062755 0.138414 0.005147
v -0.074454 0.138414 -0.000000
v -0.000000 0.137390 0.017260
v -0.046313 0.849849 0.003680
v -0.056406 0.849849 -0.000000
v -0.000000 0.847486 0.006990
v 0.083691 0.004892 0.005666
v 0.051157 0.996567 0.002731
v 0.060388 0.996567 -0.000000
v 0.096371 0.004892 -0.000000
v 0.048382 0.500729 0.004629
v 0.059338 0.500729 -0.000000
v 0.062755 0.138414 0.005147
v 0.074454 0.138414 -0.000000
v 0.046313 0.849849 0.003680
v 0.056406 0.849849 -0.000000
v -0.083691 0.004892 -0.005666
v -0.051157 0.996567 -0.002731
v -0.000000 0.004892 -0.022395
v -0.000000 1.182763 -0.001855
v -0.048382 0.500729 -0.004629
v -0.000000 0.498681 -0.012125
v -0.062755 0.138414 -0.005147
v -0.000000 0.137390 -0.017260
v -0.046313 0.849849 -0.003680
v -0.000000 0.847486 -0.006990
v 0.083691 0.004892 -0.005666
v 0.051157 0.996567 -0.002731
v 0.048382 0.500729 -0.004629
v 0.062755 0.138414 -0.005147
v 0.046313 0.849849 -0.003680
v 0.138138 0.037251 0.030632
v 0.138138 -0.019153 0.030632
v 0.138138 0.037251 -0.030632
v 0.138138 -0.019153 -0.030632
v -0.138139 0.037251 0.030632
v -0.138139 -0.019153 0.030632
v -0.138139 0.037251 -0.030632
v -0.138139 -0.019153 -0.030632
v 0.040921 -0.006966 0.025831
v 0.040921 -0.310031 0.025831
v 0.040921 -0.006966 -0.025831
v 0.040921 -0.310031 -0.025831
v -0.040921 -0.006966 0.025831
v -0.040921 -0.310031 0.025831
v -0.040921 -0.006966 -0.025831
v -0.040921 -0.310031 -0.025831
v 0.038255 -0.107988 0.024149
v 0.040921 -0.209010 0.025831
v 0.040921 -0.209010 -0.025831
v 0.038255 -0.107988 -0.024149
v -0.040921 -0.209010 -0.025831
v -0.038256 -0.107988 -0.024149
v -0.040921 -0.209010 0.025831
v -0.038256 -0.107988 0.024149
v 0.043981 -0.258864 0.027763
v 0.043981 -0.258864 -0.027763
v -0.043981 -0.258864 -0.027763
v -0.043981 -0.258864 0.027763
v 0.040921 -0.094726 -0.025831
v -0.040921 -0.094726 -0.025831
v -0.040921 -0.094726 0.025831
v 0.040921 -0.094726 0.025831
vn -0.2983 0.0873 0.9505
vn -0.4018 0.0666 0.9133
vn -0.1888 0.0380 0.9813
vn -0.0000 -1.0000 -0.0000
vn -0.0711 0.0031 0.9975
vn -0.3425 0.0046 0.9395
vn -0.1528 0.0075 0.9882
vn -0.3891 0.0168 0.9210
vn -0.2837 -0.0077 0.9589
vn -0.0386 0.0153 0.9991
vn 0.2983 0.0873 0.9505
vn 0.4070 0.0668 0.9110
vn 0.1959 0.0345 0.9800
vn 0.0711 0.0031 0.9975
vn 0.3892 0.0033 0.9212
vn 0.1528 0.0075 0.9882
vn 0.4027 0.0168 0.9152
vn 0.2837 -0.0077 0.9589
vn 0.0711 0.0041 0.9975
vn -0.2983 0.0873 -0.9505
vn -0.4070 0.0668 -0.9110
vn -0.1959 0.0345 -0.9800
vn -0.0711 0.0031 -0.9975
vn -0.3892 0.0033 -0.9212
vn -0.1528 0.0075 -0.9882
vn -0.4027 0.0168 -0.9152
vn -0.2837 -0.0077 -0.9589
vn -0.0711 0.0041 -0.9975
vn 0.2983 0.0873 -0.9505
vn 0.4018 0.0666 -0.9133
vn 0.1888 0.0380 -0.9813
vn 0.0711 0.0031 -0.9975
vn 0.3425 0.0046 -0.9395
vn 0.1528 0.0075 -0.9882
vn 0.3891 0.0168 -0.9210
vn 0.2837 -0.0077 -0.9589
vn 0.0386 0.0153 -0.9991
vn 1.0000 -0.0000 -0.0000
vn -0.0000 -0.0000 -1.0000
vn -1.0000 -0.0000 -0.0000
vn -0.0000 -0.0000 1.0000
vn -0.0000 1.0000 -0.0000
vn 0.9982 -0.0597 -0.0000
vn -0.0000 -0.0377 -0.9993
vn -0.9982 -0.0597 -0.0000
vn -0.0000 -0.0377 0.9993
vn -0.0000 -0.1259 0.9920
vn -0.0000 0.0167 0.9999
vn -0.9804 -0.1971 -0.0000
vn -0.9997 0.0264 -0.0000
vn -0.0000 -0.1259 -0.9920
vn -0.0000 0.0167 -0.9999
vn 0.9804 -0.1971 -0.0000
vn 0.9997 0.0264 -0.0000
vn -0.0000 0.0387 0.9993
vn -0.9981 0.0613 -0.0000
vn -0.0000 0.0387 -0.9993
vn 0.9981 0.0613 -0.0000
vn -0.2827 0.0822 0.9557
vn -0.4070 0.0668 0.9110
vn -0.1959 0.0345 0.9800
vn -0.1525 0.0145 0.9882
vn -0.3892 0.0033 0.9212
vn -0.1893 0.0140 0.9818
vn -0.4027 0.0168 0.9152
vn -0.3425 -0.0052 0.9395
vn -0.0711 0.0041 0.9975
vn 0.2827 0.0822 0.9557
vn 0.4018 0.0666 0.9133
vn 0.1888 0.0380 0.9813
vn 0.1525 0.0145 0.9882
vn 0.3425 0.0046 0.9395
vn 0.1893 0.0140 0.9818
vn 0.3891 0.0168 0.9210
vn 0.3425 -0.0052 0.9395
vn 0.0386 0.0153 0.9991
vn -0.2827 0.0822 -0.9557
vn -0.4018 0.0666 -0.9133
vn -0.1888 0.0380 -0.9813
vn -0.1525 0.0145 -0.9882
vn -0.3425 0.0046 -0.9395
vn -0.1893 0.0140 -0.9818
vn -0.3891 0.0168 -0.9210
vn -0.3425 -0.0052 -0.9395
vn -0.0386 0.0153 -0.9991
vn 0.2827 0.0822 -0.9557
vn 0.4070 0.0668 -0.9110
vn 0.1959 0.0345 -0.9800
vn 0.1525 0.0145 -0.9882
vn 0.3892 0.0033 -0.9212
vn 0.1893 0.0140 -0.9818
vn 0.4027 0.0168 -0.9152
vn 0.3425 -0.0052 -0.9395
vn 0.0711 0.0041 -0.9975
vt 0.128155 0.166311
vt 0.078307 0.016820
vt 0.078307 0.000140
vt 0.141347 0.871613
vt 0.145393 0.976901
vt 0.130838 0.871615
vt 0.078307 0.981943
vt 0.078307 0.872750
vt 0.083470 0.999860
vt 0.156474 0.978226
vt 0.118553 0.573559
vt 0.078307 0.288576
vt 0.116472 0.286569
vt 0.125295 0.286550
vt 0.078307 0.575333
vt 0.128328 0.573520
vt 0.120300 0.166390
vt 0.028459 0.166311
vt 0.015266 0.871613
vt 0.011220 0.976901
vt 0.000140 0.978226
vt 0.025775 0.871615
vt 0.073144 0.999860
vt 0.038060 0.573559
vt 0.040141 0.286569
vt 0.031318 0.286550
vt 0.028285 0.573520
vt 0.036314 0.166390
vt 0.246373 0.016976
vt 0.197470 0.166779
vt 0.246267 0.000296
vt 0.188736 0.872150
vt 0.185356 0.977462
vt 0.174284 0.978857
vt 0.199245 0.872086
vt 0.252473 0.982080
vt 0.247423 1.000030
vt 0.248090 0.288727
vt 0.209645 0.573959
vt 0.209913 0.286961
vt 0.201090 0.286998
vt 0.199871 0.573981
vt 0.249903 0.575479
vt 0.205326 0.166808
vt 0.297165 0.166149
vt 0.314815 0.871353
vt 0.319526 0.976614
vt 0.304306 0.871422
vt 0.251782 0.872889
vt 0.257749 0.999964
vt 0.330615 0.977869
vt 0.290137 0.573450
vt 0.286242 0.286479
vt 0.295065 0.286404
vt 0.299912 0.573349
vt 0.289310 0.166278
vt 0.915401 0.304462
vt 0.869277 0.354561
vt 0.869277 0.304462
vt 0.773054 0.304462
vt 0.819178 0.078537
vt 0.819178 0.304462
vt 0.915401 0.028438
vt 0.869277 0.078537
vt 0.869277 0.028438
vt 0.915401 0.078537
vt 0.965500 0.304462
vt 0.965500 0.078537
vt 0.537432 0.974141
vt 0.496899 0.932585
vt 0.539834 0.932672
vt 0.495790 0.972724
vt 0.430407 0.932881
vt 0.431036 0.972495
vt 0.386916 0.933567
vt 0.621395 0.366661
vt 0.551967 0.324789
vt 0.623897 0.324789
vt 0.621395 0.076424
vt 0.554469 0.118671
vt 0.554469 0.076424
vt 0.554469 0.408908
vt 0.621395 0.408908
vt 0.619215 0.201368
vt 0.554469 0.190437
vt 0.621395 0.190437
vt 0.621395 0.283990
vt 0.556649 0.201368
vt 0.430610 0.807444
vt 0.388372 0.799306
vt 0.429939 0.796501
vt 0.431117 0.893268
vt 0.390459 0.809729
vt 0.496338 0.808661
vt 0.497239 0.797039
vt 0.496756 0.893901
vt 0.537812 0.812216
vt 0.540236 0.800469
vt 0.537643 0.893620
vt 0.554469 0.283990
vt 0.388630 0.892576
vt 0.500683 0.724644
vt 0.544011 0.726867
vt 0.430302 0.723391
vt 0.385480 0.724509
vt 0.621395 0.118671
vt 0.915401 0.354561
vt 0.773054 0.078537
vt 0.390080 0.974141
vt 0.554469 0.366661
s 0
usemtl Material
f 5/1/1 8/2/1 4/3/1
f 13/4/2 1/5/2 12/6/2
f 12/6/3 7/7/3 14/8/3
f 3/9/4 1/5/4 6/10/4
f 9/11/5 17/12/5 15/13/5
f 16/14/6 9/11/6 15/13/6
f 12/6/7 11/15/7 9/11/7
f 10/16/8 12/6/8 9/11/8
f 16/14/9 2/17/9 5/1/9
f 2/17/10 17/12/10 8/2/10
f 8/2/11 20/18/11 4/3/11
f 25/19/12 18/20/12 21/21/12
f 24/22/13 7/7/13 18/20/13
f 18/20/4 3/23/4 21/21/4
f 17/12/14 22/24/14 26/25/14
f 27/26/15 22/24/15 23/27/15
f 11/15/16 24/22/16 22/24/16
f 23/27/17 24/22/17 25/19/17
f 19/28/18 27/26/18 20/18/18
f 19/28/19 17/12/19 26/25/19
f 31/29/20 5/30/20 4/31/20
f 13/32/21 28/33/21 6/34/21
f 34/35/22 30/36/22 28/33/22
f 28/33/4 3/37/4 6/34/4
f 37/38/23 32/39/23 36/40/23
f 16/41/24 32/39/24 10/42/24
f 33/43/25 34/35/25 32/39/25
f 10/42/26 34/35/26 13/32/26
f 29/44/27 16/41/27 5/30/27
f 29/44/28 37/38/28 36/40/28
f 20/45/29 31/29/29 4/31/29
f 25/46/30 38/47/30 41/48/30
f 41/48/31 30/36/31 35/49/31
f 3/50/4 38/47/4 21/51/4
f 40/52/32 37/38/32 42/53/32
f 27/54/33 40/52/33 42/53/33
f 41/48/34 33/43/34 40/52/34
f 23/55/35 41/48/35 40/52/35
f 27/54/36 39/56/36 20/45/36
f 39/56/37 37/38/37 31/29/37
f 44/57/38 45/58/38 43/59/38
f 46/60/39 49/61/39 45/62/39
f 50/63/40 47/64/40 49/65/40
f 48/66/41 43/59/41 47/64/41
f 49/61/42 43/59/42 45/62/42
f 46/67/4 48/66/4 50/68/4
f 52/69/43 68/70/43 67/71/43
f 54/72/44 69/73/44 68/70/44
f 58/74/45 70/75/45 69/73/45
f 56/76/46 67/77/46 70/78/46
f 57/79/42 51/80/42 53/81/42
f 54/82/4 56/76/4 58/83/4
f 66/84/47 74/85/47 73/86/47
f 65/87/48 59/88/48 66/84/48
f 64/89/49 73/90/49 72/91/49
f 63/92/50 66/93/50 64/89/50
f 62/94/51 72/91/51 71/95/51
f 61/96/52 64/89/52 62/94/52
f 59/97/53 71/95/53 74/98/53
f 60/99/54 62/94/54 59/97/54
f 70/78/55 60/100/55 65/87/55
f 69/73/56 65/101/56 63/92/56
f 68/70/57 63/92/57 61/96/57
f 67/71/58 61/96/58 60/99/58
f 74/98/38 53/102/38 51/103/38
f 71/95/39 57/104/39 53/102/39
f 72/91/40 55/105/40 57/104/40
f 73/86/41 51/80/41 55/106/41
f 5/1/59 2/17/59 8/2/59
f 13/4/60 6/10/60 1/5/60
f 12/6/61 1/5/61 7/7/61
f 3/9/4 7/7/4 1/5/4
f 9/11/62 11/15/62 17/12/62
f 16/14/63 10/16/63 9/11/63
f 12/6/64 14/8/64 11/15/64
f 10/16/65 13/4/65 12/6/65
f 16/14/66 15/13/66 2/17/66
f 2/17/67 15/13/67 17/12/67
f 8/2/68 19/28/68 20/18/68
f 25/19/69 24/22/69 18/20/69
f 24/22/70 14/8/70 7/7/70
f 18/20/4 7/7/4 3/23/4
f 17/12/71 11/15/71 22/24/71
f 27/26/72 26/25/72 22/24/72
f 11/15/73 14/8/73 24/22/73
f 23/27/74 22/24/74 24/22/74
f 19/28/75 26/25/75 27/26/75
f 19/28/76 8/2/76 17/12/76
f 31/29/77 29/44/77 5/30/77
f 13/32/78 34/35/78 28/33/78
f 34/35/79 35/49/79 30/36/79
f 28/33/4 30/36/4 3/37/4
f 37/38/80 33/43/80 32/39/80
f 16/41/81 36/40/81 32/39/81
f 33/43/82 35/49/82 34/35/82
f 10/42/83 32/39/83 34/35/83
f 29/44/84 36/40/84 16/41/84
f 29/44/85 31/29/85 37/38/85
f 20/45/86 39/56/86 31/29/86
f 25/46/87 21/51/87 38/47/87
f 41/48/88 38/47/88 30/36/88
f 3/50/4 30/36/4 38/47/4
f 40/52/89 33/43/89 37/38/89
f 27/54/90 23/55/90 40/52/90
f 41/48/91 35/49/91 33/43/91
f 23/55/92 25/46/92 41/48/92
f 27/54/93 42/53/93 39/56/93
f 39/56/94 42/53/94 37/38/94
f 44/57/38 46/107/38 45/58/38
f 46/60/39 50/108/39 49/61/39
f 50/63/40 48/66/40 47/64/40
f 48/66/41 44/57/41 43/59/41
f 49/61/42 47/64/42 43/59/42
f 46/67/4 44/57/4 48/66/4
f 52/69/43 54/72/43 68/70/43
f 54/72/44 58/74/44 69/73/44
f 58/74/45 56/109/45 70/75/45
f 56/76/46 52/110/46 67/77/46
f 57/79/42 55/106/42 51/80/42
f 54/82/4 52/110/4 56/76/4
f 66/84/47 59/88/47 74/85/47
f 65/87/48 60/100/48 59/88/48
f 64/89/49 66/93/49 73/90/49
f 63/92/50 65/101/50 66/93/50
f 62/94/51 64/89/51 72/91/51
f 61/96/52 63/92/52 64/89/52
f 59/97/53 62/94/53 71/95/53
f 60/99/54 61/96/54 62/94/54
f 70/78/55 67/77/55 60/100/55
f 69/73/56 70/75/56 65/101/56
f 68/70/57 69/73/57 63/92/57
f 67/71/58 68/70/58 61/96/58
f 74/98/38 71/95/38 53/102/38
f 71/95/39 72/91/39 57/104/39
f 72/91/40 73/90/40 55/105/40
f 73/86/41 74/85/41 51/80/41
