# Blender 4.4.1
# www.blender.org
mtllib playerBullet.mtl
o 円錐.001
v -0.699766 0.000000 -0.148629
v -0.699766 -0.028996 -0.145773
v -0.699766 -0.056878 -0.137315
v -0.699766 -0.082574 -0.123580
v -0.699766 -0.105096 -0.105096
v -0.699766 -0.123580 -0.082574
v -0.699766 -0.137315 -0.056878
v -0.699766 -0.145773 -0.028996
v -0.699766 -0.148629 -0.000000
v -0.699766 -0.145773 0.028996
v -0.699766 -0.137315 0.056878
v -0.699766 -0.123580 0.082574
v -0.699766 -0.105096 0.105096
v -0.699766 -0.082574 0.123580
v -0.699766 -0.056878 0.137315
v -0.699766 -0.028996 0.145773
v -0.699766 0.000000 0.148629
v -0.699766 0.028996 0.145773
v -0.699766 0.056878 0.137315
v -0.699766 0.082574 0.123580
v -0.699766 0.105096 0.105096
v -0.699766 0.123580 0.082574
v -0.699766 0.137315 0.056878
v -0.699766 0.145773 0.028996
v -0.699766 0.148629 -0.000000
v -0.699766 0.145773 -0.028996
v -0.699766 0.137315 -0.056878
v -0.699766 0.123580 -0.082574
v -0.699766 0.105096 -0.105096
v -0.699766 0.082574 -0.123580
v -0.699766 0.056878 -0.137315
v -0.699766 0.028996 -0.145773
v -0.402508 -0.000000 -0.000000
v -0.699594 0.000000 -0.148629
v -0.699594 0.028996 -0.145773
v -0.699594 0.056878 -0.137315
v -0.699594 0.082574 -0.123580
v -0.699594 0.105096 -0.105096
v -0.699594 0.123580 -0.082574
v -0.699594 0.137315 -0.056878
v -0.699594 0.145773 -0.028996
v -0.699594 0.148629 -0.000000
v -0.699594 0.145773 0.028996
v -0.699594 0.137315 0.056878
v -0.699594 0.123580 0.082574
v -0.699594 0.105096 0.105096
v -0.699594 0.082574 0.123580
v -0.699594 0.056878 0.137315
v -0.699594 0.028996 0.145773
v -0.699594 0.000000 0.148629
v -0.699594 -0.028996 0.145773
v -0.699594 -0.056878 0.137315
v -0.699594 -0.082574 0.123580
v -0.699594 -0.105096 0.105096
v -0.699594 -0.123580 0.082574
v -0.699594 -0.137315 0.056878
v -0.699594 -0.145773 0.028996
v -0.699594 -0.148629 -0.000000
v -0.699594 -0.145773 -0.028996
v -0.699594 -0.137315 -0.056878
v -0.699594 -0.123580 -0.082574
v -0.699594 -0.105096 -0.105096
v -0.699594 -0.082574 -0.123580
v -0.699594 -0.056878 -0.137315
v -0.699594 -0.028996 -0.145773
v -0.996851 -0.000000 -0.000000
v 1.055960 0.001686 -0.092143
v -0.496776 0.001686 -0.042147
v 1.055960 0.020733 -0.090372
v -0.496776 0.010398 -0.041337
v 1.055960 0.039048 -0.085129
v -0.496776 0.018776 -0.038939
v 1.055960 0.055927 -0.076614
v -0.496776 0.026497 -0.035044
v 1.055960 0.070722 -0.065155
v -0.496776 0.033264 -0.029802
v 1.055960 0.082864 -0.051192
v -0.496776 0.038818 -0.023416
v 1.055960 0.091886 -0.035261
v -0.496776 0.042945 -0.016129
v 1.055960 0.097442 -0.017976
v -0.496776 0.045486 -0.008222
v 1.055960 0.099318 -0.000000
v -0.496776 0.046344 0.000000
v 1.055960 0.097442 0.017976
v -0.496776 0.045486 0.008222
v 1.055960 0.091886 0.035261
v -0.496776 0.042945 0.016129
v 1.055960 0.082864 0.051192
v -0.496776 0.038818 0.023416
v 1.055960 0.070722 0.065155
v -0.496776 0.033264 0.029803
v 1.055960 0.055927 0.076614
v -0.496776 0.026497 0.035044
v 1.055960 0.039048 0.085129
v -0.496776 0.018776 0.038939
v 1.055960 0.020733 0.090372
v -0.496776 0.010398 0.041337
v 1.055960 0.001686 0.092143
v -0.496776 0.001686 0.042147
v 1.055960 -0.017361 0.090372
v -0.496776 -0.007026 0.041337
v 1.055960 -0.035676 0.085129
v -0.496776 -0.015404 0.038939
v 1.055960 -0.052555 0.076614
v -0.496776 -0.023125 0.035044
v 1.055960 -0.067350 0.065155
v -0.496776 -0.029892 0.029803
v 1.055960 -0.079492 0.051192
v -0.496776 -0.035446 0.023416
v 1.055960 -0.088514 0.035261
v -0.496776 -0.039573 0.016129
v 1.055960 -0.094070 0.017976
v -0.496776 -0.042114 0.008222
v 1.055960 -0.095946 -0.000000
v -0.496776 -0.042972 0.000000
v 1.055960 -0.094070 -0.017976
v -0.496776 -0.042114 -0.008222
v 1.055960 -0.088514 -0.035261
v -0.496776 -0.039573 -0.016129
v 1.055960 -0.079492 -0.051192
v -0.496776 -0.035446 -0.023416
v 1.055960 -0.067350 -0.065155
v -0.496776 -0.029892 -0.029802
v 1.055960 -0.052555 -0.076614
v -0.496776 -0.023125 -0.035044
v 1.055960 -0.035676 -0.085129
v -0.496776 -0.015404 -0.038939
v 1.055960 -0.017361 -0.090372
v -0.496776 -0.007026 -0.041337
vn 0.4455 -0.0878 -0.8910
vn 0.4455 -0.2599 -0.8567
vn 0.4455 -0.4220 -0.7896
vn 0.4455 -0.5680 -0.6921
vn 0.4455 -0.6921 -0.5680
vn 0.4455 -0.7896 -0.4220
vn 0.4455 -0.8567 -0.2599
vn 0.4455 -0.8910 -0.0878
vn 0.4455 -0.8910 0.0878
vn 0.4455 -0.8567 0.2599
vn 0.4455 -0.7896 0.4220
vn 0.4455 -0.6921 0.5680
vn 0.4455 -0.5680 0.6921
vn 0.4455 -0.4220 0.7896
vn 0.4455 -0.2599 0.8567
vn 0.4455 -0.0878 0.8910
vn 0.4455 0.0878 0.8910
vn 0.4455 0.2599 0.8567
vn 0.4455 0.4220 0.7896
vn 0.4455 0.5680 0.6921
vn 0.4455 0.6921 0.5680
vn 0.4455 0.7896 0.4220
vn 0.4455 0.8567 0.2599
vn 0.4455 0.8910 0.0878
vn 0.4455 0.8910 -0.0878
vn 0.4455 0.8567 -0.2599
vn 0.4455 0.7896 -0.4220
vn 0.4455 0.6921 -0.5680
vn 0.4455 0.5680 -0.6921
vn 0.4455 0.4220 -0.7896
vn -1.0000 -0.0000 -0.0000
vn 0.4455 0.2599 -0.8567
vn 0.4455 0.0878 -0.8910
vn -0.4455 0.0878 -0.8910
vn -0.4455 0.2599 -0.8567
vn -0.4455 0.4220 -0.7896
vn -0.4455 0.5680 -0.6921
vn -0.4455 0.6921 -0.5680
vn -0.4455 0.7896 -0.4220
vn -0.4455 0.8567 -0.2599
vn -0.4455 0.8910 -0.0878
vn -0.4455 0.8910 0.0878
vn -0.4455 0.8567 0.2599
vn -0.4455 0.7896 0.4220
vn -0.4455 0.6921 0.5680
vn -0.4455 0.5680 0.6921
vn -0.4455 0.4220 0.7896
vn -0.4455 0.2599 0.8567
vn -0.4455 0.0878 0.8910
vn -0.4455 -0.0878 0.8910
vn -0.4455 -0.2599 0.8567
vn -0.4455 -0.4220 0.7896
vn -0.4455 -0.5680 0.6921
vn -0.4455 -0.6921 0.5680
vn -0.4455 -0.7896 0.4220
vn -0.4455 -0.8567 0.2599
vn -0.4455 -0.8910 0.0878
vn -0.4455 -0.8910 -0.0878
vn -0.4455 -0.8567 -0.2599
vn -0.4455 -0.7896 -0.4220
vn -0.4455 -0.6921 -0.5680
vn -0.4455 -0.5680 -0.6921
vn -0.4455 -0.4220 -0.7896
vn 1.0000 -0.0000 -0.0000
vn -0.4455 -0.2599 -0.8567
vn -0.4455 -0.0878 -0.8910
vn -0.0320 0.0925 -0.9952
vn -0.0322 0.2751 -0.9609
vn -0.0324 0.4502 -0.8924
vn -0.0328 0.6120 -0.7902
vn -0.0331 0.7542 -0.6558
vn -0.0335 0.8697 -0.4925
vn -0.0338 0.9515 -0.3058
vn -0.0339 0.9940 -0.1037
vn -0.0339 0.9940 0.1037
vn -0.0338 0.9515 0.3058
vn -0.0335 0.8697 0.4925
vn -0.0331 0.7542 0.6558
vn -0.0328 0.6120 0.7902
vn -0.0324 0.4502 0.8924
vn -0.0322 0.2751 0.9609
vn -0.0320 0.0925 0.9952
vn -0.0320 -0.0925 0.9952
vn -0.0322 -0.2751 0.9609
vn -0.0324 -0.4502 0.8924
vn -0.0328 -0.6120 0.7902
vn -0.0331 -0.7542 0.6558
vn -0.0335 -0.8697 0.4925
vn -0.0338 -0.9515 0.3058
vn -0.0339 -0.9940 0.1037
vn -0.0339 -0.9940 -0.1037
vn -0.0338 -0.9515 -0.3058
vn -0.0335 -0.8697 -0.4925
vn -0.0331 -0.7542 -0.6558
vn -0.0328 -0.6120 -0.7902
vn -0.0324 -0.4502 -0.8924
vn -0.0322 -0.2751 -0.9609
vn -0.0320 -0.0925 -0.9952
vn -0.0335 -0.8696 0.4925
vn -0.0335 -0.8696 -0.4925
vn -1.0000 0.0001 -0.0000
vn -1.0000 -0.0001 -0.0000
vn 1.0000 -0.0001 -0.0000
vn 1.0000 0.0001 -0.0000
vt 0.819745 0.327986
vt 0.835885 0.164115
vt 0.852024 0.327986
vt 0.883684 0.321688
vt 0.913506 0.309335
vt 0.940346 0.291402
vt 0.963171 0.268577
vt 0.981104 0.241737
vt 0.993457 0.211915
vt 0.999755 0.180255
vt 0.999755 0.147976
vt 0.993457 0.116316
vt 0.981105 0.086494
vt 0.963171 0.059654
vt 0.940346 0.036829
vt 0.913506 0.018896
vt 0.883684 0.006543
vt 0.852024 0.000245
vt 0.819745 0.000245
vt 0.788085 0.006543
vt 0.758263 0.018895
vt 0.731423 0.036829
vt 0.708598 0.059654
vt 0.690665 0.086494
vt 0.678312 0.116316
vt 0.672014 0.147976
vt 0.672014 0.180255
vt 0.678312 0.211914
vt 0.690665 0.241737
vt 0.708598 0.268577
vt 0.731423 0.291402
vt 0.758263 0.309335
vt 0.671524 0.147976
vt 0.491514 0.000245
vt 0.343784 0.180255
vt 0.788085 0.321688
vt 0.819745 0.656216
vt 0.835885 0.492346
vt 0.852024 0.656216
vt 0.883684 0.649919
vt 0.913506 0.637566
vt 0.940346 0.619632
vt 0.963171 0.596807
vt 0.981104 0.569968
vt 0.993457 0.540145
vt 0.999755 0.508486
vt 0.999755 0.476206
vt 0.993457 0.444547
vt 0.981105 0.414725
vt 0.963171 0.387885
vt 0.940346 0.365060
vt 0.913506 0.347126
vt 0.883684 0.334773
vt 0.852024 0.328476
vt 0.819745 0.328476
vt 0.788085 0.334773
vt 0.758263 0.347126
vt 0.731423 0.365060
vt 0.708598 0.387885
vt 0.690665 0.414724
vt 0.678312 0.444547
vt 0.672014 0.476206
vt 0.672014 0.508486
vt 0.678312 0.540145
vt 0.690665 0.569968
vt 0.708598 0.596807
vt 0.731423 0.619632
vt 0.758263 0.637566
vt 0.523794 0.656216
vt 0.671524 0.476206
vt 0.491514 0.328476
vt 0.788085 0.649919
vt 0.000245 0.000245
vt 0.343293 0.021686
vt 0.000245 0.021686
vt 0.343293 0.043126
vt 0.000245 0.043126
vt 0.343293 0.064567
vt 0.000245 0.064567
vt 0.343293 0.086007
vt 0.000245 0.086007
vt 0.343293 0.107448
vt 0.000245 0.107448
vt 0.343293 0.128888
vt 0.000245 0.128888
vt 0.343293 0.150329
vt 0.000245 0.150329
vt 0.343293 0.171769
vt 0.000245 0.171769
vt 0.000245 0.193210
vt 0.343293 0.193210
vt 0.000245 0.214650
vt 0.343293 0.214650
vt 0.000245 0.236091
vt 0.343293 0.236091
vt 0.000245 0.257531
vt 0.343293 0.257531
vt 0.000245 0.278972
vt 0.343293 0.278972
vt 0.000245 0.300412
vt 0.343293 0.300412
vt 0.000245 0.321853
vt 0.343293 0.321853
vt 0.000245 0.343293
vt 0.343293 0.364734
vt 0.000245 0.364734
vt 0.343293 0.386174
vt 0.000245 0.386174
vt 0.343293 0.407615
vt 0.000245 0.407615
vt 0.343293 0.429055
vt 0.000245 0.429055
vt 0.343293 0.450496
vt 0.000245 0.450496
vt 0.343293 0.471936
vt 0.000245 0.471936
vt 0.343293 0.493377
vt 0.000245 0.493377
vt 0.343293 0.514817
vt 0.000245 0.514817
vt 0.000245 0.536258
vt 0.343293 0.536258
vt 0.000245 0.557698
vt 0.343293 0.557698
vt 0.000245 0.579139
vt 0.343293 0.579139
vt 0.000245 0.600580
vt 0.343293 0.600579
vt 0.000245 0.622020
vt 0.343293 0.622020
vt 0.000245 0.643461
vt 0.940346 0.947863
vt 0.913506 0.965797
vt 0.963171 0.716116
vt 0.343293 0.643460
vt 0.000245 0.664901
vt 0.343293 0.664901
vt 0.000245 0.686342
vt 0.350081 0.772778
vt 0.343784 0.804437
vt 0.612115 0.693291
vt 0.350081 0.211915
vt 0.362434 0.241737
vt 0.380368 0.268577
vt 0.403193 0.291402
vt 0.430032 0.309335
vt 0.459855 0.321688
vt 0.491514 0.327986
vt 0.523794 0.327986
vt 0.555453 0.321688
vt 0.585276 0.309335
vt 0.612115 0.291402
vt 0.634940 0.268577
vt 0.652874 0.241737
vt 0.665227 0.211915
vt 0.671524 0.180255
vt 0.665227 0.116316
vt 0.652874 0.086494
vt 0.634940 0.059654
vt 0.612115 0.036829
vt 0.585275 0.018895
vt 0.555453 0.006543
vt 0.523794 0.000245
vt 0.459855 0.006543
vt 0.430032 0.018895
vt 0.403193 0.036829
vt 0.380368 0.059654
vt 0.362434 0.086494
vt 0.350081 0.116316
vt 0.343784 0.147976
vt 0.343784 0.508486
vt 0.350081 0.540145
vt 0.362434 0.569968
vt 0.380368 0.596807
vt 0.403193 0.619632
vt 0.430032 0.637566
vt 0.459855 0.649919
vt 0.491514 0.656216
vt 0.555453 0.649919
vt 0.585276 0.637566
vt 0.612115 0.619632
vt 0.634940 0.596807
vt 0.652874 0.569968
vt 0.665227 0.540145
vt 0.671524 0.508486
vt 0.665227 0.444547
vt 0.652874 0.414724
vt 0.634940 0.387885
vt 0.612115 0.365060
vt 0.585276 0.347126
vt 0.555453 0.334773
vt 0.523794 0.328476
vt 0.459855 0.334773
vt 0.430032 0.347126
vt 0.403193 0.365060
vt 0.380368 0.387885
vt 0.362434 0.414724
vt 0.350081 0.444547
vt 0.343784 0.476206
vt 0.343293 0.000245
vt 0.343293 0.343293
vt 0.883684 0.978150
vt 0.852024 0.984447
vt 0.883684 0.663004
vt 0.819745 0.984447
vt 0.852024 0.656707
vt 0.788085 0.978150
vt 0.819745 0.656707
vt 0.758263 0.965797
vt 0.788086 0.663004
vt 0.731423 0.947863
vt 0.708598 0.925038
vt 0.758263 0.675357
vt 0.690665 0.898198
vt 0.731423 0.693291
vt 0.678312 0.868376
vt 0.708598 0.716116
vt 0.672014 0.836717
vt 0.678312 0.772778
vt 0.672014 0.804437
vt 0.690665 0.742955
vt 0.913506 0.675357
vt 0.940346 0.693291
vt 0.981105 0.742955
vt 0.993457 0.772778
vt 0.963171 0.925038
vt 0.999755 0.804437
vt 0.981104 0.898199
vt 0.999755 0.836717
vt 0.993457 0.868376
vt 0.343293 0.686342
vt 0.343784 0.836717
vt 0.350081 0.868376
vt 0.665227 0.772778
vt 0.362434 0.898199
vt 0.671524 0.804437
vt 0.380368 0.925038
vt 0.403193 0.947863
vt 0.671524 0.836717
vt 0.430032 0.965797
vt 0.652874 0.898199
vt 0.459855 0.978150
vt 0.634940 0.925038
vt 0.491514 0.984447
vt 0.523794 0.984447
vt 0.612115 0.947863
vt 0.555453 0.978150
vt 0.585276 0.965797
vt 0.665227 0.868376
vt 0.652874 0.742955
vt 0.634940 0.716116
vt 0.585275 0.675357
vt 0.362434 0.742955
vt 0.555453 0.663004
vt 0.380368 0.716116
vt 0.523794 0.656707
vt 0.491514 0.656707
vt 0.403193 0.693291
vt 0.459855 0.663004
vt 0.430032 0.675357
s 0
usemtl マテリアル
f 1/1/1 33/2/1 2/3/1
f 2/3/2 33/2/2 3/4/2
f 3/4/3 33/2/3 4/5/3
f 4/5/4 33/2/4 5/6/4
f 5/6/5 33/2/5 6/7/5
f 6/7/6 33/2/6 7/8/6
f 7/8/7 33/2/7 8/9/7
f 8/9/8 33/2/8 9/10/8
f 9/10/9 33/2/9 10/11/9
f 10/11/10 33/2/10 11/12/10
f 11/12/11 33/2/11 12/13/11
f 12/13/12 33/2/12 13/14/12
f 13/14/13 33/2/13 14/15/13
f 14/15/14 33/2/14 15/16/14
f 15/16/15 33/2/15 16/17/15
f 16/17/16 33/2/16 17/18/16
f 17/18/17 33/2/17 18/19/17
f 18/19/18 33/2/18 19/20/18
f 19/20/19 33/2/19 20/21/19
f 20/21/20 33/2/20 21/22/20
f 21/22/21 33/2/21 22/23/21
f 22/23/22 33/2/22 23/24/22
f 23/24/23 33/2/23 24/25/23
f 24/25/24 33/2/24 25/26/24
f 25/26/25 33/2/25 26/27/25
f 26/27/26 33/2/26 27/28/26
f 27/28/27 33/2/27 28/29/27
f 28/29/28 33/2/28 29/30/28
f 29/30/29 33/2/29 30/31/29
f 30/31/30 33/2/30 31/32/30
f 16/33/31 24/34/31 32/35/31
f 31/32/32 33/2/32 32/36/32
f 32/36/33 33/2/33 1/1/33
f 34/37/34 66/38/34 35/39/34
f 35/39/35 66/38/35 36/40/35
f 36/40/36 66/38/36 37/41/36
f 37/41/37 66/38/37 38/42/37
f 38/42/38 66/38/38 39/43/38
f 39/43/39 66/38/39 40/44/39
f 40/44/40 66/38/40 41/45/40
f 41/45/41 66/38/41 42/46/41
f 42/46/42 66/38/42 43/47/42
f 43/47/43 66/38/43 44/48/43
f 44/48/44 66/38/44 45/49/44
f 45/49/45 66/38/45 46/50/45
f 46/50/46 66/38/46 47/51/46
f 47/51/47 66/38/47 48/52/47
f 48/52/48 66/38/48 49/53/48
f 49/53/49 66/38/49 50/54/49
f 50/54/50 66/38/50 51/55/50
f 51/55/51 66/38/51 52/56/51
f 52/56/52 66/38/52 53/57/52
f 53/57/53 66/38/53 54/58/53
f 54/58/54 66/38/54 55/59/54
f 55/59/55 66/38/55 56/60/55
f 56/60/56 66/38/56 57/61/56
f 57/61/57 66/38/57 58/62/57
f 58/62/58 66/38/58 59/63/58
f 59/63/59 66/38/59 60/64/59
f 60/64/60 66/38/60 61/65/60
f 61/65/61 66/38/61 62/66/61
f 62/66/62 66/38/62 63/67/62
f 63/67/63 66/38/63 64/68/63
f 41/69/64 49/70/64 57/71/64
f 64/68/65 66/38/65 65/72/65
f 65/72/66 66/38/66 34/37/66
f 67/73/67 70/74/67 69/75/67
f 69/75/68 72/76/68 71/77/68
f 71/77/69 74/78/69 73/79/69
f 73/79/70 76/80/70 75/81/70
f 75/81/71 78/82/71 77/83/71
f 77/83/72 80/84/72 79/85/72
f 79/85/73 82/86/73 81/87/73
f 81/87/74 84/88/74 83/89/74
f 84/88/75 85/90/75 83/89/75
f 86/91/76 87/92/76 85/90/76
f 88/93/77 89/94/77 87/92/77
f 90/95/78 91/96/78 89/94/78
f 92/97/79 93/98/79 91/96/79
f 94/99/80 95/100/80 93/98/80
f 96/101/81 97/102/81 95/100/81
f 98/103/82 99/104/82 97/102/82
f 99/104/83 102/105/83 101/106/83
f 101/106/84 104/107/84 103/108/84
f 103/108/85 106/109/85 105/110/85
f 105/110/86 108/111/86 107/112/86
f 107/112/87 110/113/87 109/114/87
f 109/114/88 112/115/88 111/116/88
f 111/116/89 114/117/89 113/118/89
f 113/118/90 116/119/90 115/120/90
f 116/119/91 117/121/91 115/120/91
f 118/122/92 119/123/92 117/121/92
f 120/124/93 121/125/93 119/123/93
f 122/126/94 123/127/94 121/125/94
f 124/128/95 125/129/95 123/127/95
f 126/130/96 127/131/96 125/129/96
f 76/132/31 74/133/31 92/134/31
f 128/135/97 129/136/97 127/131/97
f 130/137/98 67/138/98 129/136/98
f 125/139/64 127/140/64 105/141/64
f 32/35/31 1/142/31 2/143/31
f 2/143/31 3/144/31 4/145/31
f 4/145/31 5/146/31 6/147/31
f 6/147/31 7/148/31 8/149/31
f 8/149/31 9/150/31 10/151/31
f 10/151/31 11/152/31 8/149/31
f 11/152/31 12/153/31 8/149/31
f 12/153/31 13/154/31 14/155/31
f 14/155/31 15/156/31 16/33/31
f 16/33/31 17/157/31 18/158/31
f 18/158/31 19/159/31 20/160/31
f 20/160/31 21/161/31 22/162/31
f 22/162/31 23/163/31 24/34/31
f 24/34/31 25/164/31 26/165/31
f 26/165/31 27/166/31 24/34/31
f 27/166/31 28/167/31 24/34/31
f 28/167/31 29/168/31 30/169/31
f 30/169/31 31/170/31 28/167/31
f 31/170/31 32/35/31 28/167/31
f 32/35/31 2/143/31 8/149/31
f 2/143/31 4/145/31 8/149/31
f 4/145/31 6/147/31 8/149/31
f 12/153/31 14/155/31 16/33/31
f 16/33/31 18/158/31 24/34/31
f 18/158/31 20/160/31 24/34/31
f 20/160/31 22/162/31 24/34/31
f 8/149/31 12/153/31 16/33/31
f 24/34/31 28/167/31 32/35/31
f 32/35/31 8/149/31 16/33/31
f 65/171/64 34/172/64 35/173/64
f 35/173/64 36/174/64 37/175/64
f 37/175/64 38/176/64 39/177/64
f 39/177/64 40/178/64 41/69/64
f 41/69/64 42/179/64 43/180/64
f 43/180/64 44/181/64 45/182/64
f 45/182/64 46/183/64 49/70/64
f 46/183/64 47/184/64 49/70/64
f 47/184/64 48/185/64 49/70/64
f 49/70/64 50/186/64 51/187/64
f 51/187/64 52/188/64 53/189/64
f 53/189/64 54/190/64 55/191/64
f 55/191/64 56/192/64 57/71/64
f 57/71/64 58/193/64 59/194/64
f 59/194/64 60/195/64 61/196/64
f 61/196/64 62/197/64 63/198/64
f 63/198/64 64/199/64 65/171/64
f 65/171/64 35/173/64 37/175/64
f 37/175/64 39/177/64 65/171/64
f 39/177/64 41/69/64 65/171/64
f 41/69/64 43/180/64 45/182/64
f 49/70/64 51/187/64 53/189/64
f 53/189/64 55/191/64 57/71/64
f 57/71/64 59/194/64 61/196/64
f 61/196/64 63/198/64 65/171/64
f 41/69/64 45/182/64 49/70/64
f 49/70/64 53/189/64 57/71/64
f 57/71/64 61/196/64 65/171/64
f 65/171/64 41/69/64 57/71/64
f 67/73/67 68/200/67 70/74/67
f 69/75/68 70/74/68 72/76/68
f 71/77/69 72/76/69 74/78/69
f 73/79/70 74/78/70 76/80/70
f 75/81/71 76/80/71 78/82/71
f 77/83/72 78/82/72 80/84/72
f 79/85/73 80/84/73 82/86/73
f 81/87/74 82/86/74 84/88/74
f 84/88/75 86/91/75 85/90/75
f 86/91/76 88/93/76 87/92/76
f 88/93/77 90/95/77 89/94/77
f 90/95/78 92/97/78 91/96/78
f 92/97/79 94/99/79 93/98/79
f 94/99/80 96/101/80 95/100/80
f 96/101/81 98/103/81 97/102/81
f 98/103/82 100/201/82 99/104/82
f 99/104/83 100/201/83 102/105/83
f 101/106/84 102/105/84 104/107/84
f 103/108/85 104/107/85 106/109/85
f 105/110/86 106/109/86 108/111/86
f 107/112/87 108/111/87 110/113/87
f 109/114/99 110/113/99 112/115/99
f 111/116/89 112/115/89 114/117/89
f 113/118/90 114/117/90 116/119/90
f 116/119/91 118/122/91 117/121/91
f 118/122/92 120/124/92 119/123/92
f 120/124/100 122/126/100 121/125/100
f 122/126/94 124/128/94 123/127/94
f 124/128/95 126/130/95 125/129/95
f 126/130/96 128/135/96 127/131/96
f 72/202/31 70/203/31 98/204/31
f 70/203/31 68/205/31 100/206/31
f 68/205/31 130/207/31 102/208/31
f 130/207/31 128/209/31 104/210/31
f 128/209/31 126/211/31 104/210/31
f 126/211/31 124/212/31 106/213/31
f 104/210/31 126/211/31 106/213/31
f 124/212/31 122/214/31 108/215/31
f 122/214/31 120/216/31 110/217/31
f 108/215/31 122/214/31 110/217/31
f 120/216/101 118/218/101 114/219/101
f 118/218/31 116/220/31 114/219/31
f 114/219/31 112/221/31 120/216/31
f 112/221/31 110/217/31 120/216/31
f 108/215/31 106/213/31 124/212/31
f 104/210/31 102/208/31 130/207/31
f 102/208/31 100/206/31 68/205/31
f 100/206/31 98/204/31 70/203/31
f 98/204/31 96/222/31 72/202/31
f 96/222/31 94/223/31 72/202/31
f 94/223/31 92/134/31 74/133/31
f 72/202/31 94/223/31 74/133/31
f 92/134/31 90/224/31 76/132/31
f 90/224/31 88/225/31 78/226/31
f 76/132/31 90/224/31 78/226/31
f 88/225/31 86/227/31 80/228/31
f 86/227/31 84/229/31 82/230/31
f 80/228/102 86/227/102 82/230/102
f 80/228/31 78/226/31 88/225/31
f 128/135/97 130/137/97 129/136/97
f 130/137/98 68/231/98 67/138/98
f 129/232/64 67/233/64 99/234/64
f 67/233/64 69/235/64 97/236/64
f 69/235/64 71/237/64 97/236/64
f 71/237/64 73/238/64 95/239/64
f 97/236/64 71/237/64 95/239/64
f 73/238/64 75/240/64 91/241/64
f 75/240/64 77/242/64 89/243/64
f 77/242/64 79/244/64 89/243/64
f 79/244/64 81/245/64 87/246/64
f 89/243/64 79/244/64 87/246/64
f 81/245/64 83/247/64 85/248/64
f 85/248/103 87/246/103 81/245/103
f 89/243/64 91/241/64 75/240/64
f 91/241/64 93/249/64 73/238/64
f 93/249/64 95/239/64 73/238/64
f 97/236/64 99/234/64 67/233/64
f 99/234/64 101/250/64 129/232/64
f 101/250/64 103/251/64 129/232/64
f 103/251/64 105/141/64 127/140/64
f 129/232/64 103/251/64 127/140/64
f 105/141/64 107/252/64 123/253/64
f 107/252/64 109/254/64 121/255/64
f 109/254/64 111/256/64 121/255/64
f 111/256/64 113/257/64 119/258/64
f 121/255/64 111/256/64 119/258/64
f 113/257/64 115/259/64 117/260/64
f 117/260/104 119/258/104 113/257/104
f 121/255/64 123/253/64 107/252/64
f 123/253/64 125/139/64 105/141/64
