# Blender 4.4.1
# www.blender.org
mtllib playerSkillUp.mtl
o 立方体.001
v -0.251678 -0.524074 0.251678
v -0.171376 0.884729 0.171376
v -0.251678 -0.524074 -0.251678
v -0.171376 0.884729 -0.171376
v 0.251678 -0.524074 0.251678
v 0.171376 0.884729 0.171376
v 0.251678 -0.524074 -0.251678
v 0.171376 0.884729 -0.171376
v -0.412792 0.831154 0.412792
v -0.412792 0.831154 -0.412792
v 0.412792 0.831154 -0.412792
v 0.412792 0.831154 0.412792
v -0.171376 1.072272 0.171376
v -0.171376 1.072272 -0.171376
v 0.171376 1.072272 -0.171376
v 0.171376 1.072272 0.171376
v -0.189764 0.681774 0.189764
v -0.189764 0.681774 -0.189764
v 0.189764 0.681774 -0.189764
v 0.189764 0.681774 0.189764
v -0.422313 -0.524074 0.000000
v -0.412792 0.831154 0.000000
v 0.422313 -0.524074 0.000000
v 0.412792 0.831154 -0.000000
v -0.171376 0.884729 0.000000
v 0.171376 0.884729 0.000000
v -0.171376 1.072272 0.000000
v 0.171376 1.072272 0.000000
v 0.189764 0.681774 0.000000
v -0.189764 0.681774 0.000000
v 0.000000 -0.524074 -0.422313
v -0.000000 0.831154 -0.412792
v 0.000000 -0.524074 0.422313
v 0.000000 0.831154 0.412792
v 0.000000 0.884729 -0.171376
v 0.000000 0.884729 0.171376
v 0.000000 1.072272 -0.171376
v 0.000000 1.072272 0.171376
v 0.000000 0.681774 0.189764
v 0.000000 0.681774 -0.189764
v 0.000000 1.334308 0.000000
v 0.000000 -1.021317 0.000000
vn -0.5565 -0.8309 -0.0000
vn -0.0000 -0.8309 -0.5565
vn 0.6771 -0.5751 0.4591
vn 0.5565 -0.8309 -0.0000
vn -0.0000 -0.0000 -1.0000
vn -0.0000 -0.8309 0.5565
vn -0.2166 0.9762 -0.0000
vn 0.2166 0.9762 -0.0000
vn -0.0000 0.9762 -0.2166
vn -0.0000 0.9762 0.2166
vn -0.8369 0.5473 -0.0000
vn -1.0000 -0.0000 -0.0000
vn -0.0000 -0.0000 1.0000
vn 1.0000 -0.0000 -0.0000
vn -0.5542 0.1576 0.8174
vn 0.8174 0.1576 0.5542
vn 0.5542 0.1576 -0.8174
vn -0.8174 0.1576 -0.5542
vn -0.8174 0.1576 0.5542
vn 0.8174 0.1576 -0.5542
vn 0.6771 -0.5751 -0.4591
vn -0.4591 -0.5751 -0.6771
vn -0.0000 0.5473 -0.8369
vn -0.5542 0.1576 -0.8174
vn 0.5542 0.1576 0.8174
vn -0.0000 0.5473 0.8369
vn -0.4591 -0.5751 0.6771
vn 0.4591 -0.5751 -0.6771
vn -0.6771 -0.5751 -0.4591
vn -0.6771 -0.5751 0.4591
vn 0.4591 -0.5751 0.6771
vn 0.8369 0.5473 -0.0000
vn -0.0000 0.0513 0.9987
vn 0.9987 0.0513 -0.0000
vn -0.0000 0.0513 -0.9987
vn -0.9987 0.0513 -0.0000
vt 0.625000 0.125000
vt 0.500000 0.250000
vt 0.500000 0.125000
vt 0.625000 0.375000
vt 0.500000 0.500000
vt 0.500000 0.375000
vt 0.250000 0.625000
vt 0.375000 0.625000
vt 0.375000 0.750000
vt 0.625000 0.625000
vt 0.500000 0.750000
vt 0.500000 0.625000
vt 0.834827 0.540173
vt 0.750000 0.540173
vt 0.625000 0.875000
vt 0.500000 1.000000
vt 0.500000 0.875000
vt 0.875000 0.625000
vt 0.834827 0.625000
vt 0.665173 0.709827
vt 0.665173 0.625000
vt 0.665173 0.540173
vt 0.750000 0.500000
vt 0.834827 0.709827
vt 0.750000 0.750000
vt 0.750000 0.709827
vt 0.750000 0.625000
vt 0.375000 1.000000
vt 0.375000 0.875000
vt 0.375000 0.500000
vt 0.375000 0.375000
vt 0.375000 0.250000
vt 0.375000 0.125000
vt 0.375000 0.000000
vt 0.625000 0.500000
vt 0.875000 0.750000
vt 0.500000 0.000000
vt 0.125000 0.500000
vt 0.250000 0.500000
vt 0.625000 0.750000
vt 0.875000 0.500000
vt 0.250000 0.750000
vt 0.125000 0.750000
vt 0.125000 0.625000
vt 0.625000 0.250000
vt 0.625000 1.000000
vt 0.625000 0.000000
s 0
usemtl マテリアル
f 22/1/1 18/2/1 30/3/1
f 32/4/2 19/5/2 40/6/2
f 42/7/3 23/8/3 5/9/3
f 24/10/4 20/11/4 29/12/4
f 4/13/5 37/14/5 35/14/5
f 34/15/6 17/16/6 39/17/6
f 4/13/7 22/18/7 25/19/7
f 6/20/8 24/10/8 26/21/8
f 8/22/9 32/23/9 35/14/9
f 2/24/10 34/25/10 36/26/10
f 41/27/11 27/19/11 13/24/11
f 2/24/12 27/19/12 25/19/12
f 6/20/13 38/26/13 36/26/13
f 8/22/14 28/21/14 26/21/14
f 39/17/15 1/28/15 33/29/15
f 29/12/16 5/9/16 23/8/16
f 40/6/17 7/30/17 31/31/17
f 30/3/18 3/32/18 21/33/18
f 1/34/19 30/3/19 21/33/19
f 7/30/20 29/12/20 23/8/20
f 26/21/14 16/20/14 6/20/14
f 25/19/12 14/13/12 4/13/12
f 14/13/11 27/19/11 41/27/11
f 8/22/8 24/10/8 11/35/8
f 2/24/7 22/18/7 9/36/7
f 19/5/4 24/10/4 29/12/4
f 7/30/21 23/8/21 42/7/21
f 17/37/1 22/1/1 30/3/1
f 3/38/22 31/39/22 42/7/22
f 15/22/23 37/14/23 41/27/23
f 3/32/24 40/6/24 31/31/24
f 5/9/25 39/17/25 33/29/25
f 36/26/13 13/24/13 2/24/13
f 41/27/26 38/26/26 16/20/26
f 6/20/10 34/25/10 12/40/10
f 4/13/9 32/23/9 10/41/9
f 20/11/6 34/15/6 39/17/6
f 35/14/5 15/22/5 8/22/5
f 42/7/27 33/42/27 1/43/27
f 18/2/2 32/4/2 40/6/2
f 31/39/28 7/30/28 42/7/28
f 21/44/29 3/38/29 42/7/29
f 21/44/30 42/7/30 1/43/30
f 33/42/31 42/7/31 5/9/31
f 28/21/32 41/27/32 16/20/32
f 37/14/23 14/13/23 41/27/23
f 28/21/32 15/22/32 41/27/32
f 38/26/26 41/27/26 13/24/26
f 22/1/1 10/45/1 18/2/1
f 32/4/2 11/35/2 19/5/2
f 24/10/4 12/40/4 20/11/4
f 4/13/5 14/13/5 37/14/5
f 34/15/6 9/46/6 17/16/6
f 4/13/7 10/41/7 22/18/7
f 6/20/8 12/40/8 24/10/8
f 8/22/9 11/35/9 32/23/9
f 2/24/10 9/36/10 34/25/10
f 2/24/12 13/24/12 27/19/12
f 6/20/13 16/20/13 38/26/13
f 8/22/14 15/22/14 28/21/14
f 39/17/33 17/16/33 1/28/33
f 29/12/34 20/11/34 5/9/34
f 40/6/35 19/5/35 7/30/35
f 30/3/36 18/2/36 3/32/36
f 1/34/36 17/37/36 30/3/36
f 7/30/34 19/5/34 29/12/34
f 26/21/14 28/21/14 16/20/14
f 25/19/12 27/19/12 14/13/12
f 8/22/8 26/21/8 24/10/8
f 2/24/7 25/19/7 22/18/7
f 19/5/4 11/35/4 24/10/4
f 17/37/1 9/47/1 22/1/1
f 3/32/35 18/2/35 40/6/35
f 5/9/33 20/11/33 39/17/33
f 36/26/13 38/26/13 13/24/13
f 6/20/10 36/26/10 34/25/10
f 4/13/9 35/14/9 32/23/9
f 20/11/6 12/40/6 34/15/6
f 35/14/5 37/14/5 15/22/5
f 18/2/2 10/45/2 32/4/2
