# Blender 4.4.1
# www.blender.org
mtllib sizukuSpecial.mtl
o Cube.007
v 0.821982 0.378292 -0.205247
v 0.426602 0.137587 0.121734
v 0.170861 0.369799 -0.799712
v -0.113993 0.130213 -0.372351
v 0.836963 0.331979 -0.221225
v 0.441583 0.091274 0.105755
v 0.185842 0.323486 -0.815691
v -0.099013 0.083900 -0.388330
v 0.034217 -0.123614 -0.012965
v 0.600398 0.302846 -0.641124
v 0.615379 0.256533 -0.657103
v 0.021233 -0.076006 0.000800
v -0.056583 -0.025242 -0.204527
v 0.469124 0.399042 -0.838004
v 0.484105 0.352729 -0.853983
v -0.069567 0.022366 -0.190762
v 0.822863 0.356159 -0.546319
v 0.242796 0.027429 0.096040
v 0.255780 -0.020180 0.082275
v 0.807883 0.402472 -0.530341
v 0.573887 0.315957 -0.782255
v -0.035785 -0.028848 -0.106319
v -0.022063 -0.075477 -0.122508
v 0.558906 0.362270 -0.766276
v 0.146947 -0.074252 0.032535
v 0.728286 0.363985 -0.612445
v 0.743266 0.317672 -0.628423
v 0.133963 -0.026643 0.046301
v -0.108994 0.034025 -0.317653
v 0.333941 0.414966 -0.859511
v 0.348922 0.368653 -0.875489
v -0.121978 0.081634 -0.303888
v 0.855747 0.375352 -0.419732
v 0.353880 0.087001 0.136073
v 0.366863 0.039392 0.122308
v 0.840766 0.421666 -0.403754
v 0.661118 0.273525 0.022372
v -0.023987 0.218224 -0.632541
v -0.038968 0.264537 -0.616563
v 0.676099 0.227212 0.006394
v 0.306993 0.088587 -0.315543
v 0.321973 0.042274 -0.331521
v 0.185210 0.136825 -0.579347
v 0.170229 0.183138 -0.563368
v 0.565730 0.187143 -0.204171
v 0.580711 0.140830 -0.220150
v 0.260185 0.136617 -0.463219
v 0.275166 0.090304 -0.479198
v 0.472917 0.092306 -0.299599
v 0.457936 0.138619 -0.283621
v 0.093086 0.201061 -0.627400
v 0.059163 0.225963 -0.640233
v 0.648250 0.231927 -0.105219
v 0.663231 0.185614 -0.121198
v -0.213003 0.602024 -0.323863
v -0.042385 0.242919 -0.271031
v -0.213003 0.602024 0.323863
v -0.042385 0.242919 0.271031
v -0.245751 0.586464 -0.323863
v -0.075133 0.227360 -0.271030
v -0.245751 0.586464 0.323863
v -0.075133 0.227360 0.271030
v -0.068239 0.027879 -0.000000
v -0.340419 0.640392 -0.000000
v -0.373167 0.624833 0.000000
v -0.036544 0.045483 -0.000000
v -0.065643 0.118755 0.161932
v -0.328041 0.719786 0.161932
v -0.360789 0.704226 0.161932
v -0.033947 0.136359 0.161932
v -0.360789 0.704226 -0.161932
v -0.033947 0.136359 -0.161932
v -0.065643 0.118755 -0.161932
v -0.328041 0.719786 -0.161932
v -0.381629 0.686867 0.080966
v -0.037472 0.090138 0.080585
v -0.069979 0.074101 0.081346
v -0.348881 0.702426 0.080966
v -0.069573 0.073317 -0.080966
v -0.348881 0.702426 -0.080966
v -0.381629 0.686867 -0.080966
v -0.037878 0.090921 -0.080966
v -0.065276 0.173426 0.242898
v -0.279456 0.695392 0.242898
v -0.312204 0.679833 0.242898
v -0.033580 0.191030 0.242898
v -0.313334 0.682212 -0.239488
v -0.032302 0.188728 -0.239488
v -0.063997 0.171123 -0.239488
v -0.280586 0.697771 -0.239488
v -0.108505 0.420543 -0.347333
v -0.141252 0.404984 0.347206
v -0.108505 0.420543 0.347206
v -0.141252 0.404984 -0.347333
v -0.196327 0.326649 -0.000063
v -0.229075 0.311090 -0.000063
v -0.235943 0.404984 0.188992
v -0.203195 0.420543 0.188992
v -0.203195 0.420543 -0.189119
v -0.235943 0.404984 -0.189119
v -0.217006 0.388390 0.094464
v -0.249754 0.372831 0.094464
v -0.249754 0.372831 -0.094591
v -0.217006 0.388390 -0.094591
v -0.190278 0.428772 0.283519
v -0.173824 0.436589 0.283519
v -0.173824 0.436589 -0.279666
v -0.206572 0.421030 -0.279666
v 0.342331 0.602024 -0.009407
v 0.212665 0.242919 0.113429
v -0.200557 0.602024 -0.317028
v -0.238115 0.242919 -0.142410
v 0.358380 0.586464 -0.037953
v 0.228713 0.227360 0.084883
v -0.184509 0.586464 -0.345574
v -0.222067 0.227360 -0.170956
v -0.010920 0.027879 -0.041928
v 0.122463 0.640392 -0.279185
v 0.138511 0.624833 -0.307731
v -0.026452 0.045483 -0.014299
v -0.131617 0.118755 -0.109219
v -0.024758 0.719786 -0.347750
v -0.008710 0.704226 -0.376296
v -0.147149 0.136359 -0.081591
v 0.273600 0.704226 -0.217586
v 0.113430 0.136359 0.067319
v 0.128962 0.118755 0.039691
v 0.257551 0.719786 -0.189040
v 0.072080 0.686867 -0.354784
v -0.096243 0.090138 -0.054599
v -0.080976 0.074101 -0.083309
v 0.056032 0.702426 -0.326238
v 0.060311 0.073317 -0.003413
v 0.197187 0.702426 -0.246883
v 0.213235 0.686867 -0.275429
v 0.044779 0.090921 0.024215
v -0.202374 0.173426 -0.148577
v -0.119145 0.695392 -0.345077
v -0.103096 0.679833 -0.373623
v -0.217906 0.191030 -0.120948
v 0.317949 0.682212 -0.138213
v 0.180228 0.188728 0.106761
v 0.195761 0.171123 0.079132
v 0.301901 0.697771 -0.109667
v 0.311580 0.420543 0.093185
v -0.256066 0.404984 -0.265922
v -0.272114 0.420543 -0.237376
v 0.327628 0.404984 0.064639
v 0.051905 0.326649 -0.153550
v 0.067953 0.311090 -0.182096
v -0.093479 0.404984 -0.280730
v -0.109527 0.420543 -0.252184
v 0.220069 0.420543 -0.066890
v 0.236117 0.404984 -0.095436
v -0.020360 0.388390 -0.217899
v -0.004312 0.372831 -0.246445
v 0.160486 0.372831 -0.153798
v 0.144438 0.388390 -0.125252
v -0.176526 0.428772 -0.277447
v -0.206320 0.436590 -0.272905
v 0.284605 0.436589 0.003086
v 0.300653 0.421030 -0.025460
v -0.119455 0.602024 0.348793
v -0.185816 0.242919 0.182967
v 0.366686 0.602024 -0.042391
v 0.218225 0.242919 -0.141696
v -0.098839 0.586464 0.374237
v -0.165200 0.227360 0.208411
v 0.387302 0.586464 -0.016947
v 0.238841 0.227360 -0.116252
v 0.041042 0.027879 0.032431
v 0.212390 0.640392 0.243907
v 0.233006 0.624833 0.269350
v 0.021089 0.045483 0.007805
v 0.148100 0.118755 -0.054944
v 0.330414 0.719786 0.132347
v 0.351030 0.704226 0.157791
v 0.128147 0.136359 -0.079570
v 0.099398 0.704226 0.361676
v -0.106362 0.136359 0.107730
v -0.086408 0.118755 0.132356
v 0.078782 0.719786 0.336232
v 0.301241 0.686867 0.224954
v 0.084285 0.090138 -0.042206
v 0.105342 0.074101 -0.017428
v 0.280625 0.702426 0.199510
v -0.021026 0.073317 0.084439
v 0.154809 0.702426 0.301452
v 0.175425 0.686867 0.326896
v -0.040979 0.090921 0.059813
v 0.210777 0.173426 -0.106200
v 0.362735 0.695392 0.043627
v 0.383352 0.679833 0.069071
v 0.190824 0.191030 -0.130826
v 0.009264 0.682212 0.373629
v -0.167657 0.188728 0.155276
v -0.147703 0.171123 0.179902
v -0.011352 0.697771 0.348185
v -0.203476 0.420543 0.282376
v 0.339652 0.404984 -0.112835
v 0.319036 0.420543 -0.138279
v -0.182860 0.404984 0.307820
v 0.121629 0.326649 0.131991
v 0.142245 0.311090 0.157436
v 0.293459 0.404984 0.043754
v 0.272843 0.420543 0.018310
v -0.020937 0.420543 0.256345
v -0.000321 0.404984 0.281789
v 0.208092 0.388390 0.088549
v 0.228708 0.372831 0.113993
v 0.081818 0.372831 0.233011
v 0.061202 0.388390 0.207567
v 0.321033 0.428772 -0.034650
v 0.327798 0.436589 -0.064019
v -0.109779 0.436589 0.290528
v -0.089163 0.421030 0.315972
v 0.414486 0.549475 -0.368712
v 0.330887 0.183493 -0.045700
v -0.352768 0.529147 -0.436397
v -0.306400 0.166482 -0.102343
v 0.418059 0.519489 -0.401763
v 0.334460 0.153507 -0.078750
v -0.349195 0.499161 -0.469448
v -0.302827 0.136495 -0.135394
v 0.000347 -0.088471 -0.028101
v 0.030043 0.539609 -0.566278
v 0.033616 0.509622 -0.599329
v -0.003111 -0.056438 0.002983
v -0.169674 0.014838 -0.074240
v -0.170480 0.632799 -0.596817
v -0.166907 0.602812 -0.629867
v -0.173132 0.046871 -0.043156
v 0.231438 0.612976 -0.596025
v 0.195778 0.057035 -0.009313
v 0.199236 0.025002 -0.040398
v 0.227865 0.642962 -0.562974
v -0.065047 0.577451 -0.639790
v -0.102128 -0.006486 -0.022390
v -0.099518 -0.036976 -0.055068
v -0.068620 0.607437 -0.606739
v 0.100078 -0.032665 -0.037350
v 0.130553 0.612519 -0.589818
v 0.134126 0.582533 -0.622869
v 0.096620 -0.000633 -0.006266
v -0.269300 0.077082 -0.101686
v -0.275367 0.618598 -0.539380
v -0.271794 0.588612 -0.572431
v -0.272758 0.109115 -0.070602
v 0.321653 0.606164 -0.524200
v 0.290991 0.121983 -0.017870
v 0.294449 0.089951 -0.048955
v 0.318080 0.636150 -0.491149
v 0.431952 0.372559 -0.178703
v -0.389307 0.320776 -0.284330
v -0.392880 0.350762 -0.251280
v 0.435525 0.342572 -0.211754
v 0.014400 0.219549 -0.285098
v 0.017973 0.189562 -0.318148
v -0.213812 0.292241 -0.379343
v -0.217385 0.322227 -0.346292
v 0.247683 0.334093 -0.306781
v 0.251256 0.304107 -0.339832
v -0.099611 0.282282 -0.341264
v -0.096038 0.252296 -0.374314
v 0.136496 0.258229 -0.354559
v 0.132923 0.288215 -0.321508
v -0.305625 0.333562 -0.343876
v -0.336856 0.348628 -0.327270
v 0.355849 0.366303 -0.268420
v 0.359422 0.336316 -0.301470
v 0.458539 0.549475 0.381092
v 0.127572 0.183493 0.338827
v 0.429086 0.529147 -0.388578
v 0.103528 0.166482 -0.300521
v 0.491777 0.519489 0.380476
v 0.160809 0.153507 0.338210
v 0.462324 0.499161 -0.389195
v 0.136766 0.136495 -0.301138
v 0.068497 -0.088471 0.013132
v 0.606131 0.539609 -0.025165
v 0.639368 0.509622 -0.025782
v 0.037225 -0.056438 0.013615
v 0.092863 0.014838 -0.161344
v 0.611180 0.632799 -0.227938
v 0.644417 0.602812 -0.228554
v 0.061591 0.046871 -0.160862
v 0.660997 0.612976 0.170882
v 0.074464 0.057035 0.209373
v 0.105736 0.025002 0.208890
v 0.627759 0.642963 0.171498
v 0.667085 0.577451 -0.128754
v 0.049930 -0.006486 -0.087809
v 0.082676 -0.036976 -0.089333
v 0.633848 0.607437 -0.128137
v 0.090229 -0.032665 0.110906
v 0.642138 0.612519 0.071581
v 0.675375 0.582533 0.070964
v 0.058957 -0.000633 0.111388
v 0.107547 0.077082 -0.263633
v 0.540995 0.618598 -0.324759
v 0.574232 0.588612 -0.325375
v 0.076275 0.109115 -0.263151
v 0.601101 0.606164 0.269422
v 0.094941 0.121983 0.302751
v 0.126213 0.089951 0.302268
v 0.567864 0.636150 0.270038
v 0.272241 0.372559 0.422341
v 0.273629 0.320776 -0.405681
v 0.240392 0.350762 -0.405065
v 0.305478 0.342572 0.421725
v 0.325218 0.219549 -0.005283
v 0.358455 0.189562 -0.005900
v 0.389981 0.292241 -0.243544
v 0.356744 0.322227 -0.242928
v 0.376100 0.334093 0.223414
v 0.409338 0.304107 0.222797
v 0.366583 0.282282 -0.125458
v 0.399820 0.252296 -0.126075
v 0.409498 0.258229 0.107096
v 0.376261 0.288215 0.107713
v 0.343237 0.333562 -0.330162
v 0.322831 0.348628 -0.359054
v 0.351662 0.366303 0.335549
v 0.384899 0.336316 0.334932
v -0.362084 0.549475 0.476833
v -0.331974 0.183493 0.144539
v 0.405990 0.529147 0.419196
v 0.306063 0.166482 0.097083
v -0.360250 0.519489 0.510026
v -0.330140 0.153507 0.177731
v 0.407825 0.499161 0.452389
v 0.307897 0.136495 0.130276
v -0.008663 -0.088471 0.073569
v 0.049309 0.539609 0.609438
v 0.051143 0.509622 0.642631
v -0.010292 -0.056438 0.042335
v 0.166589 0.014838 0.091525
v 0.252130 0.632799 0.607054
v 0.253965 0.602812 0.640247
v 0.164960 0.046871 0.060292
v -0.144596 0.612976 0.671452
v -0.204554 0.057035 0.086723
v -0.202925 0.025002 0.117957
v -0.146430 0.642963 0.638259
v 0.155062 0.577451 0.666556
v 0.091529 -0.006486 0.051316
v 0.094253 -0.036976 0.083984
v 0.153228 0.607437 0.633364
v -0.105575 -0.032665 0.098870
v -0.046052 0.612519 0.648966
v -0.044218 0.582533 0.682159
v -0.107203 -0.000633 0.067636
v 0.269347 0.077082 0.102452
v 0.346315 0.618598 0.533368
v 0.348149 0.588612 0.566561
v 0.267719 0.109115 0.071218
v -0.245264 0.606164 0.615207
v -0.297119 0.121983 0.110608
v -0.295490 0.089951 0.141842
v -0.247098 0.636150 0.582015
v -0.410132 0.372559 0.292171
v 0.417385 0.320776 0.263217
v 0.415551 0.350762 0.230024
v -0.408298 0.342572 0.325364
v 0.019147 0.219549 0.329443
v 0.020981 0.189562 0.362636
v 0.259621 0.292241 0.385432
v 0.257787 0.322227 0.352239
v -0.207532 0.334093 0.388671
v -0.205698 0.304107 0.421864
v 0.140757 0.282282 0.366376
v 0.142591 0.252296 0.399569
v -0.090069 0.258229 0.417785
v -0.091903 0.288215 0.384592
v 0.344468 0.333562 0.335545
v 0.372592 0.348628 0.314094
v -0.320488 0.366303 0.368359
v -0.318653 0.336316 0.401551
v -0.498757 0.549475 -0.367569
v -0.167227 0.183493 -0.329971
v -0.458461 0.529147 0.401610
v -0.134176 0.166482 0.308975
v -0.531983 0.519489 -0.366484
v -0.200452 0.153507 -0.328886
v -0.491687 0.499161 0.402695
v -0.167401 0.136496 0.310059
v -0.103568 -0.088471 -0.005141
v -0.640609 0.539609 0.040729
v -0.673834 0.509622 0.041813
v -0.072306 -0.056438 -0.006065
v -0.125473 0.014839 0.169661
v -0.642800 0.632799 0.243552
v -0.676026 0.602812 0.244637
v -0.094211 0.046871 0.168738
v -0.698232 0.612976 -0.154526
v -0.112300 0.057035 -0.201279
v -0.143563 0.025002 -0.200355
v -0.665007 0.642962 -0.155611
v -0.700098 0.577451 0.145166
v -0.083581 -0.006486 0.095528
v -0.116302 -0.036976 0.097513
v -0.666872 0.607437 0.144081
v -0.126676 -0.032665 -0.102599
v -0.677976 0.612519 -0.055500
v -0.711201 0.582533 -0.054415
v -0.095414 -0.000633 -0.103523
v -0.138715 0.077082 0.272147
v -0.571258 0.618598 0.339374
v -0.604483 0.588612 0.340459
v -0.107452 0.109115 0.271223
v -0.639732 0.606164 -0.253900
v -0.134091 0.121983 -0.294359
v -0.165353 0.089951 -0.293435
v -0.606506 0.636150 -0.254985
v -0.313059 0.372559 -0.411439
v -0.302778 0.320776 0.416521
v -0.269553 0.350762 0.415436
v -0.346284 0.342572 -0.410354
v -0.360004 0.219549 0.016890
v -0.393230 0.189562 0.017974
v -0.421404 0.292241 0.256040
v -0.388178 0.322227 0.254955
v -0.414104 0.334093 -0.211067
v -0.447330 0.304107 -0.209983
v -0.399671 0.282282 0.137636
v -0.432897 0.252296 0.138720
v -0.445860 0.258229 -0.094291
v -0.412635 0.288215 -0.095376
v -0.373443 0.333562 0.341990
v -0.352632 0.348628 0.370591
v -0.391249 0.366303 -0.323536
v -0.424474 0.336316 -0.322451
v 0.161368 0.378292 -0.831710
v 0.290618 0.137587 -0.335186
v -0.652576 0.369799 -0.492826
v -0.385641 0.130213 -0.054049
v 0.153217 0.331979 -0.852040
v 0.282467 0.091274 -0.355516
v -0.660727 0.323486 -0.513156
v -0.393791 0.083900 -0.074379
v 0.002710 -0.123614 -0.036491
v -0.327317 0.302846 -0.815096
v -0.335467 0.256533 -0.835426
v 0.009699 -0.076006 -0.018906
v -0.209277 -0.025242 -0.035155
v -0.561229 0.399042 -0.779326
v -0.569380 0.352729 -0.799656
v -0.202289 0.022366 -0.017571
v -0.147377 0.356159 -0.976652
v 0.189652 0.027429 -0.179459
v 0.182663 -0.020180 -0.197044
v -0.139226 0.402472 -0.956322
v -0.466429 0.315957 -0.850713
v -0.111481 -0.028848 -0.012500
v -0.120354 -0.075477 -0.031778
v -0.458278 0.362270 -0.830383
v 0.091589 -0.074252 -0.119429
v -0.247277 0.363985 -0.918881
v -0.255427 0.317672 -0.939211
v 0.098578 -0.026643 -0.101845
v -0.333955 0.034025 -0.035464
v -0.637852 0.414966 -0.665899
v -0.646002 0.368653 -0.686229
v -0.326966 0.081634 -0.017879
v -0.018752 0.375352 -0.952957
v 0.272880 0.087001 -0.263217
v 0.265892 0.039392 -0.280802
v -0.010602 0.421666 -0.932627
v 0.299677 0.273525 -0.589721
v -0.583415 0.218224 -0.245584
v -0.575264 0.264537 -0.225254
v 0.291526 0.227212 -0.610051
v -0.156238 0.088587 -0.411584
v -0.164388 0.042274 -0.431914
v -0.446794 0.136825 -0.412700
v -0.438643 0.183138 -0.392370
v 0.054046 0.187143 -0.599012
v 0.045895 0.140830 -0.619342
v -0.309860 0.136617 -0.431573
v -0.318010 0.090304 -0.451903
v -0.071666 0.092306 -0.555224
v -0.063516 0.138619 -0.534894
v -0.529277 0.201061 -0.349515
v -0.555245 0.225963 -0.324194
v 0.178601 0.231927 -0.631982
v 0.170451 0.185614 -0.652312
v -0.685588 0.378292 -0.497745
v -0.180961 0.137587 -0.405045
v -0.722442 0.369799 0.383158
v -0.211964 0.130213 0.326667
v -0.707458 0.331979 -0.498950
v -0.202831 0.091274 -0.406250
v -0.744312 0.323486 0.381952
v -0.233834 0.083900 0.325462
v -0.031926 -0.123614 -0.017878
v -0.877058 0.302846 -0.047825
v -0.898928 0.256533 -0.049030
v -0.013036 -0.076006 -0.016780
v -0.120306 -0.025242 0.174812
v -0.943495 0.399042 0.179289
v -0.965365 0.352729 0.178084
v -0.101415 0.022366 0.175910
v -0.947431 0.356159 -0.279183
v -0.082495 0.027429 -0.247726
v -0.101386 -0.020180 -0.248824
v -0.925561 0.402472 -0.277978
v -0.968129 0.315957 0.063201
v -0.058443 -0.028848 0.095754
v -0.079665 -0.075477 0.095648
v -0.946259 0.362270 0.064406
v -0.069532 -0.074252 -0.133481
v -0.937293 0.363985 -0.164228
v -0.959162 0.317672 -0.165433
v -0.050642 -0.026643 -0.132383
v -0.173276 0.034025 0.287678
v -0.873077 0.414966 0.296669
v -0.894947 0.368653 0.295464
v -0.154386 0.081634 0.288776
v -0.871597 0.375352 -0.385742
v -0.123231 0.087001 -0.358554
v -0.142122 0.039392 -0.359652
v -0.849727 0.421666 -0.384537
v -0.407820 0.273525 -0.520826
v -0.469136 0.218224 0.424965
v -0.447266 0.264537 0.426170
v -0.429690 0.227212 -0.522032
v -0.439051 0.088587 -0.032343
v -0.460920 0.042274 -0.033548
v -0.562856 0.136825 0.230518
v -0.540986 0.183138 0.231723
v -0.520048 0.187143 -0.302136
v -0.541918 0.140830 -0.303341
v -0.522090 0.136617 0.098438
v -0.543960 0.090304 0.097233
v -0.533491 0.092306 -0.169697
v -0.511621 0.138619 -0.168492
v -0.540451 0.201061 0.331977
v -0.528476 0.225963 0.366212
v -0.497290 0.231927 -0.428955
v -0.519160 0.185614 -0.430160
v -0.740852 0.378292 0.410998
v -0.443573 0.137587 -0.007173
v 0.041941 0.369799 0.816685
v 0.206481 0.130213 0.330160
v -0.751187 0.331979 0.430309
v -0.453908 0.091274 0.012139
v 0.031607 0.323486 0.835996
v 0.196146 0.083900 0.349472
v -0.029696 -0.123614 0.021380
v -0.414005 0.302846 0.774673
v -0.424339 0.256533 0.793984
v -0.020717 -0.076006 0.004723
v 0.107590 -0.025242 0.182913
v -0.236247 0.399042 0.930868
v -0.246582 0.352729 0.950179
v 0.116569 0.022366 0.166256
v -0.653427 0.356159 0.740677
v -0.259380 0.027429 -0.029928
v -0.268358 -0.020180 -0.013271
v -0.643092 0.402472 0.721365
v -0.351870 0.315957 0.904133
v 0.062083 -0.028848 0.093434
v 0.053019 -0.075477 0.112624
v -0.341535 0.362270 0.884821
v -0.150361 -0.074252 0.006606
v -0.544958 0.363985 0.780070
v -0.555292 0.317672 0.799381
v -0.141382 -0.026643 -0.010051
v 0.187495 0.034025 0.278620
v -0.100105 0.414966 0.916654
v -0.110440 0.368653 0.935966
v 0.196474 0.081634 0.261963
v -0.717953 0.375352 0.626913
v -0.377040 0.087001 -0.039846
v -0.386019 0.039392 -0.023189
v -0.707619 0.421666 0.607602
v -0.644381 0.273525 0.149500
v 0.186884 0.218224 0.604780
v 0.197219 0.264537 0.585468
v -0.654716 0.227212 0.168811
v -0.214864 0.088587 0.384246
v -0.225198 0.042274 0.403558
v -0.028953 0.136825 0.607542
v -0.018618 0.183138 0.588230
v -0.493610 0.187143 0.343636
v -0.503944 0.140830 0.362947
v -0.131430 0.136617 0.514776
v -0.141765 0.090304 0.534088
v -0.379260 0.092306 0.411790
v -0.368926 0.138619 0.392479
v 0.072469 0.201061 0.630114
v 0.108557 0.225963 0.633730
v -0.598929 0.231927 0.269413
v -0.609264 0.185614 0.288725
v 0.059393 0.378292 0.845135
v -0.193963 0.137587 0.398982
v 0.757893 0.369799 0.307134
v 0.386489 0.130213 -0.047603
v 0.072527 0.331979 0.862663
v -0.180828 0.091274 0.416510
v 0.771027 0.323487 0.324662
v 0.399624 0.083900 -0.030075
v 0.006827 -0.123614 0.035949
v 0.527126 0.302846 0.702607
v 0.540260 0.256533 0.720135
v -0.004475 -0.076006 0.020772
v 0.211245 -0.025242 -0.020207
v 0.743810 0.399042 0.607515
v 0.756945 0.352729 0.625043
v 0.199944 0.022366 -0.035384
v 0.395131 0.356159 0.905230
v -0.136742 0.027429 0.222430
v -0.125441 -0.020180 0.237607
v 0.381996 0.402472 0.887702
v 0.670716 0.315957 0.701006
v 0.110918 -0.028848 -0.016779
v 0.124478 -0.075477 -0.000454
v 0.657581 0.362270 0.683478
v -0.057558 -0.074252 0.139065
v 0.476674 0.363985 0.823571
v 0.489809 0.317672 0.841099
v -0.068860 -0.026643 0.123888
v 0.331754 0.034025 -0.052179
v 0.788465 0.414966 0.478121
v 0.801599 0.368653 0.495649
v 0.320453 0.081634 -0.067355
v 0.264756 0.375352 0.915632
v -0.195457 0.087001 0.324874
v -0.184155 0.039392 0.340051
v 0.251622 0.421666 0.898104
v -0.136835 0.273525 0.647189
v 0.627097 0.218224 0.086217
v 0.613963 0.264537 0.068689
v -0.123700 0.227212 0.664717
v 0.257440 0.088587 0.357122
v 0.270574 0.042274 0.374650
v 0.538384 0.136825 0.282999
v 0.525249 0.183138 0.265471
v 0.102831 0.187143 0.592589
v 0.115966 0.140830 0.610117
v 0.411001 0.136617 0.336670
v 0.424135 0.090304 0.354198
v 0.212926 0.092306 0.517757
v 0.199792 0.138619 0.500229
v 0.601704 0.201061 0.200619
v 0.620233 0.225963 0.169440
v -0.008947 0.231927 0.656673
v 0.004187 0.185614 0.674201
v 0.726361 0.378292 0.436098
v 0.215574 0.137587 0.387732
v 0.686299 0.369799 -0.444664
v 0.182687 0.130213 -0.343898
v 0.748252 0.331979 0.435393
v 0.237466 0.091274 0.387026
v 0.708191 0.323486 -0.445370
v 0.204578 0.083900 -0.344603
v 0.033363 -0.123614 0.015027
v 0.877889 0.302846 -0.028798
v 0.899780 0.256533 -0.029503
v 0.014448 -0.076006 0.015580
v 0.104612 -0.025242 -0.184632
v 0.924279 0.399042 -0.260837
v 0.946170 0.352729 -0.261543
v 0.085698 0.022366 -0.184080
v 0.968158 0.356159 0.195546
v 0.103772 0.027429 0.239593
v 0.122686 -0.020180 0.239041
v 0.946267 0.402472 0.196252
v 0.958937 0.315957 -0.147338
v 0.049875 -0.028848 -0.100483
v 0.071025 -0.075477 -0.102227
v 0.937045 0.362270 -0.146632
v 0.080901 -0.074252 0.126913
v 0.948039 0.363985 0.081912
v 0.969931 0.317672 0.081207
v 0.061987 -0.026643 0.127466
v 0.147544 0.034025 -0.301686
v 0.843898 0.414966 -0.371633
v 0.865790 0.368653 -0.372339
v 0.128630 0.081634 -0.301133
v 0.901900 0.375352 0.308309
v 0.154012 0.087001 0.346449
v 0.172927 0.039392 0.345897
v 0.880008 0.421666 0.309015
v 0.451661 0.273525 0.483301
v 0.430313 0.218224 -0.464236
v 0.408421 0.264537 -0.463530
v 0.473553 0.227212 0.482595
v 0.440199 0.088587 -0.006046
v 0.462090 0.042274 -0.006751
v 0.540623 0.136825 -0.278697
v 0.518732 0.183138 -0.277991
v 0.544402 0.187143 0.255661
v 0.566294 0.140830 0.254955
v 0.511524 0.136617 -0.143566
v 0.533416 0.090304 -0.144272
v 0.546251 0.092306 0.122554
v 0.524360 0.138619 0.123260
v 0.509461 0.201061 -0.377817
v 0.494548 0.225963 -0.410878
v 0.532783 0.231927 0.383981
v 0.554675 0.185614 0.383276
vn 0.3454 0.8251 0.4471
vn -0.1894 0.6513 0.7348
vn -0.5038 0.8405 -0.1994
vn -0.6538 0.6952 0.2987
vn 0.9266 -0.3195 0.1984
vn 0.5400 -0.5166 0.6645
vn -0.3283 -0.4036 -0.8540
vn -0.6830 -0.5360 -0.4961
vn -0.2967 -0.8947 0.3338
vn 0.0642 0.9946 -0.0817
vn 0.5519 -0.5778 -0.6013
vn -0.6590 0.2160 0.7205
vn -0.6371 -0.7544 -0.1578
vn 0.2830 0.9189 -0.2749
vn 0.3903 -0.2067 -0.8972
vn -0.6698 0.4779 0.5683
vn 0.8581 -0.2036 -0.4715
vn -0.5128 0.4362 0.7394
vn 0.1471 -0.7841 0.6030
vn 0.2328 0.9171 -0.3237
vn 0.7355 -0.2765 -0.6186
vn -0.7477 0.4038 0.5271
vn -0.5770 -0.8081 -0.1185
vn 0.5324 0.8465 -0.0032
vn 0.1312 -0.8207 0.5562
vn -0.0573 0.8405 -0.5387
vn 0.5482 -0.2783 -0.7887
vn -0.5079 0.4335 0.7444
vn -0.6956 -0.6756 -0.2442
vn -0.1497 0.9188 -0.3653
vn -0.0447 -0.2158 -0.9754
vn -0.8068 0.4901 0.3299
vn 0.9739 -0.1987 -0.1097
vn -0.2787 0.4811 0.8312
vn 0.3046 -0.6741 0.6729
vn 0.3343 0.9420 0.0290
vn 0.1119 0.7417 0.6613
vn -0.5800 -0.4891 -0.6514
vn -0.6136 0.7894 -0.0183
vn 0.7092 -0.4235 0.5636
vn -0.2525 0.9299 0.2676
vn 0.2527 -0.9297 -0.2678
vn -0.0624 -0.8337 -0.5487
vn -0.0330 0.8706 0.4909
vn -0.5038 0.8607 0.0736
vn 0.5039 -0.8606 -0.0739
vn -0.1177 0.9014 0.4166
vn 0.1180 -0.9014 -0.4167
vn 0.4137 -0.8973 -0.1539
vn -0.4136 0.8974 0.1536
vn -0.1431 -0.7975 -0.5861
vn 0.1998 0.7570 0.6221
vn -0.5886 0.8068 -0.0516
vn 0.5888 -0.8066 0.0516
vn 0.5961 0.5730 -0.5624
vn 0.9302 0.0771 -0.3588
vn 0.6037 0.5709 0.5565
vn 0.9417 0.0855 0.3255
vn -0.5747 0.0493 -0.8169
vn -0.2313 -0.4864 -0.8426
vn -0.6031 0.0080 0.7976
vn -0.2642 -0.4683 0.8432
vn -0.2207 -0.9753 0.0020
vn 0.5494 0.8355 -0.0000
vn -0.9976 0.0694 -0.0000
vn 0.8925 -0.4510 0.0018
vn -0.2300 -0.8293 0.5093
vn 0.2768 0.9604 -0.0315
vn -0.8466 0.4285 0.3158
vn 0.9662 -0.2239 0.1277
vn -0.8471 0.4268 -0.3167
vn 0.9662 -0.2279 -0.1208
vn -0.2298 -0.8299 -0.5084
vn 0.2742 0.9609 0.0384
vn -0.9128 0.3882 -0.1265
vn 0.9600 -0.2464 0.1328
vn -0.2878 -0.8401 0.4597
vn 0.2551 0.8811 -0.3983
vn -0.2713 -0.8428 -0.4648
vn 0.2552 0.8811 0.3983
vn -0.9128 0.3882 0.1265
vn 0.9647 -0.2302 -0.1278
vn -0.2131 -0.7000 0.6816
vn 0.4388 0.8516 0.2868
vn -0.6996 0.2937 0.6514
vn 0.9178 -0.1314 0.3747
vn -0.6985 0.3084 -0.6457
vn 0.9242 -0.1378 -0.3561
vn -0.2029 -0.7115 -0.6728
vn 0.4377 0.8563 -0.2740
vn 0.7878 0.3087 -0.5330
vn -0.3769 -0.3151 0.8710
vn 0.7916 0.3145 0.5239
vn -0.3185 -0.2953 -0.9007
vn 0.8735 0.4869 -0.0000
vn -0.8736 -0.4866 -0.0000
vn -0.8323 -0.4097 0.3734
vn 0.8528 0.4200 -0.3104
vn 0.8508 0.4191 0.3170
vn -0.8509 -0.4189 -0.3169
vn 0.8724 0.4478 -0.1961
vn -0.8725 -0.4475 0.1960
vn -0.8725 -0.4476 -0.1961
vn 0.8724 0.4478 0.1962
vn -0.7941 -0.4037 0.4544
vn 0.7857 0.3990 -0.4728
vn 0.7897 0.4008 0.4644
vn -0.7898 -0.4007 -0.4645
vn 0.1981 0.5730 0.7953
vn -0.1431 0.0771 0.9867
vn -0.7709 0.5325 0.3495
vn -0.7092 0.1215 0.6944
vn 0.9937 0.0493 -0.1006
vn 0.8478 -0.4864 0.2113
vn -0.4356 -0.0471 -0.8989
vn -0.6055 -0.4683 -0.6435
vn 0.1065 -0.9753 -0.1934
vn -0.2692 0.8355 0.4790
vn 0.4888 0.0694 -0.8696
vn -0.4390 -0.4510 0.7771
vn -0.3940 -0.7779 -0.4896
vn -0.1082 0.9604 0.2567
vn 0.1396 0.4285 -0.8927
vn -0.5750 -0.1808 0.7979
vn 0.6912 0.4268 -0.5832
vn -0.3682 -0.2279 0.9014
vn 0.5558 -0.8299 0.0488
vn -0.1679 0.9609 0.2202
vn 0.5576 0.3882 -0.7337
vn -0.6354 -0.2515 0.7301
vn -0.3114 -0.8126 -0.4926
vn 0.2222 0.8811 0.4176
vn 0.5382 -0.8428 -0.0087
vn -0.4722 0.8811 0.0273
vn 0.3371 0.3882 -0.8577
vn -0.3614 -0.2302 0.9036
vn -0.4972 -0.7006 -0.5118
vn -0.5262 0.8207 0.2227
vn -0.2740 0.2750 -0.9216
vn -0.7754 -0.1165 0.6206
vn 0.9052 0.3084 -0.2925
vn -0.1425 -0.1378 0.9802
vn 0.6859 -0.7115 0.1528
vn 0.0244 0.8563 0.5159
vn 0.0786 0.3087 0.9479
vn -0.5745 -0.3151 -0.7554
vn -0.7988 0.3612 0.4811
vn 0.9413 -0.2953 0.1638
vn -0.4281 0.4869 0.7614
vn 0.4281 -0.4866 -0.7615
vn 0.0286 -0.4123 -0.9106
vn -0.1436 0.4280 0.8923
vn -0.6932 0.4191 0.5863
vn 0.6933 -0.4189 -0.5865
vn -0.2522 0.4513 0.8560
vn 0.2524 -0.4511 -0.8561
vn 0.5985 -0.4476 -0.6645
vn -0.5985 0.4478 0.6643
vn -0.0666 -0.4006 -0.9138
vn 0.1411 0.3762 0.9157
vn -0.7918 0.4008 0.4608
vn 0.7919 -0.4007 -0.4608
vn -0.8123 0.5730 -0.1091
vn -0.8644 0.0771 -0.4969
vn -0.0406 0.5325 -0.8455
vn -0.3840 0.1215 -0.9153
vn -0.2729 0.0493 0.9608
vn -0.5090 -0.4864 0.7101
vn 0.9962 -0.0471 -0.0734
vn 0.8214 -0.4683 -0.3256
vn 0.1405 -0.9753 0.1703
vn -0.3459 0.8355 -0.4269
vn 0.6280 0.0694 0.7751
vn -0.5605 -0.4510 -0.6946
vn 0.6004 -0.7779 -0.1857
vn -0.1988 0.9604 -0.1952
vn 0.7783 0.4285 0.4589
vn -0.5296 -0.1808 -0.8287
vn 0.2872 0.4268 0.8575
vn -0.7021 -0.2279 -0.6746
vn -0.2503 -0.8299 0.4986
vn -0.1428 0.9609 -0.2372
vn 0.4764 0.3882 0.7889
vn -0.4443 -0.2515 -0.8598
vn 0.5727 -0.8126 -0.1078
vn -0.4701 0.8811 0.0525
vn -0.1904 -0.8428 0.5035
vn 0.1488 0.8811 -0.4490
vn 0.6730 0.3882 0.6296
vn -0.7066 -0.2302 -0.6691
vn 0.6590 -0.7006 -0.2734
vn -0.0129 0.8207 -0.5712
vn 0.9577 0.2750 0.0851
vn -0.2910 -0.1165 -0.9496
vn -0.0620 0.3084 0.9492
vn -0.8585 -0.1378 -0.4939
vn -0.3950 -0.7115 0.5812
vn -0.4885 0.8563 -0.1676
vn -0.9101 0.3087 -0.2765
vn 0.9140 -0.3151 -0.2555
vn -0.1526 0.3612 -0.9199
vn -0.4993 -0.2953 0.8145
vn -0.5499 0.4869 -0.6787
vn 0.5500 -0.4866 0.6788
vn 0.8359 -0.4123 0.3623
vn -0.7765 0.4280 -0.4625
vn -0.2893 0.4191 -0.8606
vn 0.2895 -0.4189 0.8607
vn -0.7027 0.4513 -0.5501
vn 0.7027 -0.4511 0.5503
vn 0.3969 -0.4476 0.8013
vn -0.3968 0.4478 -0.8013
vn 0.8740 -0.4006 0.2750
vn -0.9032 0.3762 -0.2065
vn -0.1364 0.4008 -0.9059
vn 0.1363 -0.4007 0.9060
vn 0.5076 0.7338 0.4515
vn 0.2752 0.3495 0.8956
vn -0.5590 0.6928 0.4555
vn -0.3610 0.3824 0.8506
vn 0.8645 -0.0966 -0.4933
vn 0.8597 -0.5107 -0.0095
vn -0.7666 -0.2293 -0.5998
vn -0.8165 -0.5456 -0.1887
vn 0.0176 -0.9974 0.0698
vn -0.0485 0.9576 0.2838
vn 0.0881 -0.2193 -0.9717
vn -0.0807 -0.1762 0.9810
vn -0.5604 -0.8268 -0.0486
vn 0.0069 0.9999 -0.0095
vn -0.2398 0.1598 -0.9576
vn -0.1961 0.1040 0.9750
vn 0.3903 0.1741 -0.9041
vn 0.0349 0.0616 0.9975
vn 0.5267 -0.8477 0.0625
vn -0.0625 0.9979 -0.0181
vn 0.2067 0.1135 -0.9718
vn -0.2790 0.0257 0.9599
vn -0.4864 -0.8706 -0.0737
vn 0.3742 0.9270 0.0237
vn 0.4870 -0.8731 0.0229
vn -0.4193 0.9068 -0.0437
vn -0.0454 0.1071 -0.9932
vn 0.0420 0.0592 0.9974
vn -0.6636 -0.7464 -0.0495
vn -0.3881 0.9066 0.1655
vn -0.6287 0.0542 -0.7758
vn -0.4517 0.1428 0.8807
vn 0.7049 0.1116 -0.7004
vn 0.2731 0.1418 0.9515
vn 0.6881 -0.7224 0.0680
vn 0.2343 0.9525 0.1945
vn 0.4614 0.5349 0.7078
vn -0.8343 -0.4319 -0.3426
vn -0.5304 0.5665 0.6306
vn 0.9254 -0.3512 -0.1427
vn -0.0772 0.7166 0.6932
vn 0.0772 -0.7164 -0.6934
vn -0.3483 -0.6370 -0.6876
vn 0.2359 0.6609 0.7125
vn -0.3909 0.6371 0.6643
vn 0.3909 -0.6369 -0.6645
vn 0.1220 0.6865 0.7168
vn -0.1219 -0.6863 -0.7170
vn 0.2724 -0.6736 -0.6870
vn -0.2725 0.6738 0.6869
vn -0.4364 -0.6154 -0.6564
vn 0.5051 0.5837 0.6357
vn -0.5323 0.5984 0.5988
vn 0.5324 -0.5982 -0.5989
vn -0.3840 0.7338 0.5604
vn -0.8539 0.3495 0.3857
vn -0.5223 0.6928 -0.4972
vn -0.8893 0.3824 -0.2510
vn 0.5982 -0.0966 0.7955
vn 0.1176 -0.5107 0.8517
vn 0.4985 -0.2293 -0.8360
vn 0.0844 -0.5456 -0.8338
vn -0.0670 -0.9974 0.0262
vn -0.2877 0.9576 -0.0124
vn 0.9750 -0.2193 -0.0349
vn -0.9834 -0.1762 0.0435
vn -0.0224 -0.8268 -0.5621
vn 0.0103 0.9999 0.0057
vn 0.9198 0.1598 -0.3584
vn -0.9920 0.1040 -0.0718
vn 0.9460 0.1741 0.2733
vn -0.9852 0.0616 0.1602
vn 0.0044 -0.8477 0.5304
vn 0.0100 0.9979 -0.0643
vn 0.9901 0.1135 0.0827
vn -0.9874 0.0257 -0.1560
vn 0.0119 -0.8706 -0.4918
vn 0.0236 0.9271 0.3742
vn 0.0386 -0.8731 0.4860
vn -0.0094 0.9068 -0.4214
vn 0.9796 0.1071 -0.1700
vn -0.9841 0.0592 0.1673
vn -0.0344 -0.7464 -0.6646
vn -0.2131 0.9066 -0.3642
vn 0.6905 0.0542 -0.7213
vn -0.9305 0.1428 -0.3372
vn 0.7836 0.1116 0.6111
vn -0.9095 0.1418 0.3907
vn 0.0192 -0.7224 0.6912
vn -0.1634 0.9525 0.2569
vn -0.6441 0.5349 0.5468
vn 0.2349 -0.4319 -0.8708
vn -0.6924 0.5665 -0.4468
vn 0.2581 -0.3512 0.9000
vn -0.6974 0.7166 0.0107
vn 0.6977 -0.7164 -0.0107
vn 0.6383 -0.6370 -0.4321
vn -0.6771 0.6609 0.3238
vn -0.7082 0.6371 -0.3042
vn 0.7084 -0.6369 0.3041
vn -0.6958 0.6865 0.2113
vn 0.6960 -0.6863 -0.2112
vn 0.7159 -0.6736 0.1837
vn -0.7157 0.6738 -0.1838
vn 0.5962 -0.6154 -0.5156
vn -0.5670 0.5837 0.5812
vn -0.6611 0.5984 -0.4527
vn 0.6611 -0.5982 0.4528
vn -0.5741 0.7338 -0.3632
vn -0.4168 0.3495 -0.8392
vn 0.4778 0.6928 -0.5402
vn 0.2183 0.3824 -0.8979
vn -0.7730 -0.0966 0.6270
vn -0.8468 -0.5107 0.1488
vn 0.8537 -0.2293 0.4675
vn 0.8363 -0.5456 0.0538
vn -0.0286 -0.9974 -0.0660
vn 0.0018 0.9576 -0.2879
vn 0.0706 -0.2193 0.9731
vn -0.0795 -0.1762 -0.9811
vn 0.5609 -0.8268 -0.0429
vn -0.0053 0.9999 0.0105
vn 0.3919 0.1598 0.9060
vn 0.0354 0.1040 -0.9939
vn -0.2385 0.1741 0.9554
vn -0.1962 0.0616 -0.9786
vn -0.5299 -0.8477 0.0238
vn 0.0646 0.9979 0.0077
vn -0.0463 0.1135 0.9925
vn 0.1197 0.0257 -0.9925
vn 0.4919 -0.8706 -0.0061
vn -0.3731 0.9271 0.0373
vn -0.4843 -0.8731 0.0564
vn 0.4208 0.9068 -0.0249
vn 0.2058 0.1071 0.9727
vn -0.2032 0.0592 -0.9773
vn 0.6629 -0.7464 -0.0588
vn 0.3561 0.9066 -0.2263
vn 0.7462 0.0542 0.6636
vn 0.3029 0.1428 -0.9423
vn -0.5820 0.1116 0.8055
vn -0.4238 0.1418 -0.8946
vn -0.6900 -0.7224 0.0445
vn -0.2627 0.9525 -0.1539
vn -0.5700 0.5349 -0.6236
vn 0.8788 -0.4319 0.2028
vn 0.4211 0.5665 -0.7083
vn -0.8900 -0.3512 0.2909
vn -0.0362 0.7166 -0.6966
vn 0.0363 -0.7164 0.6968
vn 0.4552 -0.6370 0.6221
vn -0.3484 0.6609 -0.6648
vn 0.2780 0.6371 -0.7189
vn -0.2779 -0.6369 0.7191
vn -0.2367 0.6865 -0.6875
vn 0.2366 -0.6863 0.6878
vn -0.1574 -0.6736 0.7221
vn 0.1575 0.6738 -0.7219
vn 0.5371 -0.6154 0.5769
vn -0.6015 0.5837 -0.5454
vn 0.4282 0.5984 -0.6772
vn -0.4283 -0.5982 0.6773
vn 0.3761 0.7338 -0.5657
vn 0.8484 0.3495 -0.3977
vn 0.5292 0.6928 0.4898
vn 0.8927 0.3824 0.2385
vn -0.6094 -0.0966 -0.7870
vn -0.1296 -0.5107 -0.8499
vn -0.4866 -0.2293 0.8430
vn -0.0726 -0.5456 0.8349
vn 0.0666 -0.9974 -0.0271
vn 0.2878 0.9576 0.0083
vn -0.9744 -0.2193 0.0487
vn 0.9827 -0.1762 -0.0574
vn 0.0303 -0.8268 0.5617
vn -0.0104 0.9999 -0.0055
vn -0.9146 0.1598 0.3714
vn 0.9929 0.1040 0.0578
vn -0.9498 0.1741 -0.2600
vn 0.9828 0.0616 -0.1741
vn -0.0118 -0.8477 -0.5303
vn -0.0091 0.9979 0.0644
vn -0.9912 0.1135 -0.0687
vn 0.9895 0.0257 0.1420
vn -0.0050 -0.8706 0.4919
vn -0.0289 0.9271 -0.3738
vn -0.0454 -0.8731 -0.4854
vn 0.0154 0.9068 0.4213
vn -0.9771 0.1071 0.1838
vn 0.9817 0.0592 -0.1811
vn 0.0438 -0.7464 0.6640
vn 0.2182 0.9066 0.3611
vn -0.6802 0.0542 0.7310
vn 0.9352 0.1428 0.3240
vn -0.7922 0.1116 -0.6000
vn 0.9039 0.1418 -0.4035
vn -0.0289 -0.7224 -0.6908
vn 0.1598 0.9525 -0.2592
vn 0.6363 0.5349 -0.5558
vn -0.2226 -0.4319 0.8740
vn 0.6986 0.5665 0.4370
vn -0.2707 -0.3512 -0.8963
vn 0.6972 0.7166 -0.0205
vn -0.6974 -0.7164 0.0205
vn -0.6322 -0.6370 0.4411
vn 0.6725 0.6609 -0.3333
vn 0.7124 0.6371 0.2942
vn -0.7126 -0.6369 -0.2941
vn 0.6927 0.6865 -0.2211
vn -0.6929 -0.6863 0.2210
vn -0.7184 -0.6736 -0.1736
vn 0.7182 0.6738 0.1737
vn -0.5889 -0.6154 0.5239
vn 0.5588 0.5837 -0.5891
vn 0.6674 0.5984 0.4434
vn -0.6675 -0.5982 -0.4434
vn 0.5512 0.8251 -0.1241
vn 0.5860 0.6513 0.4822
vn -0.3936 0.8405 0.3724
vn -0.0055 0.6952 0.7187
vn 0.5714 -0.3195 -0.7559
vn 0.8304 -0.5166 -0.2085
vn -0.9128 -0.4036 -0.0634
vn -0.7383 -0.5360 0.4094
vn 0.1771 -0.8947 0.4100
vn -0.0469 0.9946 -0.0927
vn -0.3117 -0.5778 -0.7543
vn 0.3745 0.2160 0.9017
vn -0.4123 -0.7544 0.5108
vn -0.1296 0.9189 -0.3726
vn -0.6482 -0.2067 -0.7329
vn 0.2319 0.4779 0.8472
vn -0.0647 -0.2036 -0.9769
vn 0.4534 0.4362 0.7773
vn 0.6087 -0.7841 0.1215
vn -0.1950 0.9171 -0.3477
vn -0.2498 -0.2765 -0.9280
vn 0.1618 0.4038 0.9004
vn -0.3512 -0.8081 0.4729
vn 0.2221 0.8465 -0.4839
vn 0.5595 -0.8207 0.1162
vn -0.5124 0.8405 -0.1757
vn -0.4831 -0.2783 -0.8301
vn 0.4600 0.4335 0.7749
vn -0.5153 -0.6756 0.5272
vn -0.3943 0.9188 -0.0187
vn -0.9029 -0.2158 -0.3717
vn -0.0419 0.4901 0.8707
vn 0.3122 -0.1987 -0.9290
vn 0.6356 0.4811 0.6038
vn 0.7386 -0.6741 0.0083
vn 0.1676 0.9420 -0.2907
vn 0.6467 0.7417 0.1780
vn -0.8355 -0.4891 0.2504
vn -0.2759 0.7894 0.5483
vn 0.8105 -0.4235 -0.4046
vn 0.1358 0.9299 0.3419
vn -0.1359 -0.9297 -0.3422
vn -0.5237 -0.8337 -0.1753
vn 0.4309 0.8706 0.2374
vn -0.1462 0.8607 0.4877
vn 0.1460 -0.8606 -0.4880
vn 0.3278 0.9014 0.2828
vn -0.3278 -0.9014 -0.2830
vn 0.0354 -0.8973 -0.4400
vn -0.0356 0.8974 0.4398
vn -0.5917 -0.7975 -0.1180
vn 0.6482 0.7570 0.0818
vn -0.2955 0.8068 0.5117
vn 0.2956 -0.8066 -0.5118
vn 0.1204 0.8251 -0.5520
vn 0.6846 0.6513 -0.3273
vn 0.1711 0.8405 0.5141
vn 0.6491 0.6952 0.3088
vn -0.4436 -0.3195 -0.8373
vn 0.1620 -0.5166 -0.8408
vn -0.4432 -0.4036 0.8004
vn 0.0590 -0.5360 0.8421
vn 0.4464 -0.8947 0.0128
vn -0.1039 0.9946 0.0034
vn -0.8154 -0.5778 -0.0363
vn 0.9755 0.2160 0.0417
vn 0.2887 -0.7544 0.5895
vn -0.3925 0.9189 -0.0400
vn -0.9382 -0.2067 0.2777
vn 0.8659 0.4779 0.1478
vn -0.9127 -0.2036 -0.3542
vn 0.8961 0.4362 -0.0825
vn 0.3674 -0.7841 -0.5003
vn -0.3976 0.9171 0.0298
vn -0.9466 -0.2765 -0.1658
vn 0.8844 0.4038 0.2339
vn 0.2801 -0.8081 0.5182
vn -0.3447 0.8465 -0.4058
vn 0.3417 -0.8207 -0.4580
vn -0.3758 0.8405 0.3902
vn -0.9565 -0.2783 0.0870
vn 0.8967 0.4335 -0.0895
vn 0.2600 -0.6756 0.6899
vn -0.1836 0.9188 0.3495
vn -0.7185 -0.2158 0.6612
vn 0.7714 0.4901 0.4060
vn -0.7100 -0.1987 -0.6756
vn 0.8159 0.4811 -0.3208
vn 0.3197 -0.6741 -0.6659
vn -0.1927 0.9420 -0.2748
vn 0.4347 0.7417 -0.5109
vn -0.1262 -0.4891 0.8631
vn 0.3804 0.7894 0.4818
vn -0.0241 -0.4235 -0.9056
vn 0.3673 0.9299 0.0214
vn -0.3676 -0.9297 -0.0214
vn -0.3802 -0.8337 0.4005
vn 0.3973 0.8706 -0.2902
vn 0.3802 0.8607 0.3386
vn -0.3805 -0.8606 -0.3386
vn 0.3948 0.9014 -0.1776
vn -0.3951 -0.9014 0.1774
vn -0.3838 -0.8973 -0.2180
vn 0.3836 0.8974 0.2181
vn -0.3570 -0.7975 0.4863
vn 0.3481 0.7570 -0.5529
vn 0.3388 0.8068 0.4841
vn -0.3390 -0.8066 -0.4842
vn -0.4494 0.8251 -0.3424
vn -0.0073 0.6513 -0.7588
vn 0.5383 0.8405 0.0622
vn 0.5542 0.6952 -0.4578
vn -0.9464 -0.3195 0.0482
vn -0.6935 -0.5166 -0.5021
vn 0.5381 -0.4036 0.7400
vn 0.7882 -0.5360 0.3024
vn 0.2002 -0.8947 -0.3992
vn -0.0409 0.9946 0.0956
vn -0.3775 -0.5778 0.7236
vn 0.4500 0.2160 -0.8665
vn 0.6563 -0.7544 -0.0125
vn -0.2022 0.9189 0.3388
vn -0.1448 -0.2067 0.9676
vn 0.4999 0.4779 -0.7223
vn -0.7068 -0.2036 0.6775
vn 0.3040 0.4362 -0.8470
vn -0.2982 -0.7841 -0.5444
vn -0.1410 0.9171 0.3729
vn -0.5503 -0.2765 0.7879
vn 0.5858 0.4038 -0.7027
vn 0.5880 -0.8081 -0.0349
vn -0.5134 0.8465 0.1409
vn -0.2706 -0.8207 -0.5033
vn 0.1948 0.8405 0.5055
vn -0.3254 -0.2783 0.9037
vn 0.2979 0.4335 -0.8505
vn 0.7351 -0.6756 0.0559
vn 0.2392 0.9188 0.3141
vn 0.2957 -0.2158 0.9306
vn 0.6939 0.4901 -0.5275
vn -0.9123 -0.1987 0.3580
vn 0.0540 0.4811 -0.8750
vn -0.4684 -0.6741 -0.5711
vn -0.3304 0.9420 0.0585
vn -0.2793 0.7417 -0.6098
vn 0.7289 -0.4891 0.4791
vn 0.5974 0.7894 -0.1411
vn -0.8309 -0.4235 -0.3609
vn 0.1746 0.9299 -0.3239
vn -0.1748 -0.9297 0.3241
vn 0.2023 -0.8337 0.5138
vn -0.0952 0.8706 -0.4827
vn 0.4676 0.8607 -0.2015
vn -0.4676 -0.8606 0.2018
vn 0.0059 0.9014 -0.4329
vn -0.0061 -0.9014 0.4330
vn -0.3598 -0.8973 0.2557
vn 0.3597 0.8974 -0.2555
vn 0.2899 -0.7975 0.5291
vn -0.3540 0.7570 -0.5492
vn 0.5819 0.8068 -0.1025
vn -0.5821 -0.8066 0.1026
vn -0.5003 0.8251 0.2625
vn -0.6908 0.6513 -0.3141
vn 0.2838 0.8405 -0.4616
vn -0.1807 0.6952 -0.6957
vn -0.3563 -0.3195 0.8781
vn -0.7482 -0.5166 0.4164
vn 0.8981 -0.4036 -0.1750
vn 0.6072 -0.5360 -0.5865
vn -0.2772 -0.8947 -0.3502
vn 0.0693 0.9946 0.0774
vn 0.4963 -0.5778 0.6479
vn -0.5951 0.2160 -0.7741
vn 0.2660 -0.7544 -0.6001
vn 0.2216 0.9189 0.3264
vn 0.8158 -0.2067 0.5402
vn -0.4433 0.4779 -0.7583
vn 0.3153 -0.2036 0.9269
vn -0.6392 0.4362 -0.6334
vn -0.6194 -0.7841 0.0402
vn 0.2783 0.9171 0.2854
vn 0.4815 -0.2765 0.8317
vn -0.3893 0.4038 -0.8279
vn 0.2169 -0.8081 -0.5477
vn -0.0893 0.8465 0.5249
vn -0.5705 -0.8207 0.0326
vn 0.5405 0.8405 0.0371
vn 0.6815 -0.2783 0.6768
vn -0.6449 0.4335 -0.6294
vn 0.3613 -0.6756 -0.6426
vn 0.3857 0.9188 -0.0840
vn 0.9684 -0.2158 0.1253
vn -0.1848 0.4901 -0.8519
vn -0.0611 -0.1987 0.9782
vn -0.7702 0.4811 -0.4188
vn -0.7156 -0.6741 0.1831
vn -0.0866 0.9420 0.3242
vn -0.6707 0.7417 -0.0046
vn 0.7423 -0.4891 -0.4581
vn 0.1246 0.7894 -0.6011
vn -0.6782 -0.4235 0.6006
vn -0.2197 0.9299 -0.2951
vn 0.2199 -0.9297 0.2954
vn 0.5512 -0.8337 0.0338
vn -0.4777 0.8706 -0.1178
vn 0.0150 0.8607 -0.5089
vn -0.0148 -0.8606 0.5091
vn -0.3898 0.9014 -0.1883
vn 0.3899 -0.9014 0.1886
vn 0.0797 -0.8973 0.4341
vn -0.0795 0.8974 -0.4340
vn 0.6020 -0.7975 -0.0391
vn -0.6473 0.7570 0.0887
vn 0.1530 0.8068 -0.5707
vn -0.1530 -0.8066 0.5709
vn -0.0719 0.8251 0.5604
vn -0.6535 0.6513 0.3857
vn -0.2153 0.8405 -0.4972
vn -0.6735 0.6952 -0.2510
vn 0.5149 -0.3195 0.7955
vn -0.0881 -0.5166 0.8517
vn 0.3718 -0.4036 -0.8360
vn -0.1322 -0.5360 -0.8338
vn -0.4459 -0.8947 0.0262
vn 0.1032 0.9946 -0.0124
vn 0.8154 -0.5778 -0.0349
vn -0.9754 0.2160 0.0435
vn -0.3389 -0.7544 -0.5621
vn 0.3945 0.9189 0.0057
vn 0.9104 -0.2067 -0.3584
vn -0.8755 0.4779 -0.0718
vn 0.9401 -0.2036 0.2733
vn -0.8855 0.4362 0.1602
vn -0.3224 -0.7841 0.5304
vn 0.3935 0.9171 -0.0643
vn 0.9575 -0.2765 0.0827
vn -0.9014 0.4038 -0.1560
vn -0.3242 -0.8081 -0.4918
vn 0.3787 0.8465 0.3742
vn -0.3005 -0.8207 0.4860
vn 0.3404 0.8405 -0.4214
vn 0.9453 -0.2783 -0.1700
vn -0.8855 0.4335 0.1673
vn -0.3192 -0.6756 -0.6646
vn 0.1524 0.9188 -0.3642
vn 0.6581 -0.2158 -0.7213
vn -0.8038 0.4901 -0.3372
vn 0.7662 -0.1987 0.6111
vn -0.7848 0.4811 0.3907
vn -0.2604 -0.6741 0.6912
vn 0.2159 0.9420 0.2569
vn -0.3885 0.7417 0.5468
vn 0.0505 -0.4891 -0.8708
vn -0.4209 0.7894 -0.4468
vn 0.1029 -0.4235 0.9000
vn -0.3678 0.9299 0.0107
vn 0.3681 -0.9297 -0.0107
vn 0.3438 -0.8337 -0.4321
vn -0.3705 0.8706 0.3238
vn -0.4083 0.8607 -0.3042
vn 0.4086 -0.8606 0.3041
vn -0.3778 0.9014 0.2113
vn 0.3781 -0.9014 -0.2112
vn 0.4013 -0.8973 0.1837
vn -0.4011 0.8974 -0.1838
vn 0.3133 -0.7975 -0.5156
vn -0.2986 0.7570 0.5812
vn -0.3797 0.8068 -0.4527
vn 0.3799 -0.8066 0.4528
vt 0.625000 0.718750
vt 0.875000 0.750000
vt 0.625000 0.750000
vt 0.500000 1.000000
vt 0.500000 0.750000
vt 0.500000 0.217434
vt 0.625000 0.250000
vt 0.500000 0.250000
vt 0.375000 0.718750
vt 0.125000 0.750000
vt 0.125000 0.718750
vt 0.500000 0.718750
vt 0.625000 0.500000
vt 0.500000 0.500000
vt 0.500000 0.593750
vt 0.625000 0.625000
vt 0.500000 0.625000
vt 0.125000 0.593750
vt 0.375000 0.625000
vt 0.125000 0.625000
vt 0.500000 0.093750
vt 0.625000 0.125000
vt 0.500000 0.125000
vt 0.875000 0.593750
vt 0.625000 0.593750
vt 0.625000 0.031250
vt 0.500000 0.062500
vt 0.500000 0.031250
vt 0.625000 0.656250
vt 0.500000 0.687500
vt 0.500000 0.656250
vt 0.375000 0.656250
vt 0.125000 0.687500
vt 0.125000 0.656250
vt 0.875000 0.687500
vt 0.625000 0.687500
vt 0.875000 0.532566
vt 0.625000 0.562500
vt 0.625000 0.532566
vt 0.125000 0.532566
vt 0.375000 0.562500
vt 0.125000 0.562500
vt 0.500000 0.562500
vt 0.500000 0.532566
vt 0.625000 0.156250
vt 0.500000 0.187500
vt 0.500000 0.156250
vt 0.875000 0.656250
vt 0.625000 0.093750
vt 0.875000 0.562500
vt 0.375000 0.593750
vt 0.625000 0.000000
vt 0.500000 0.000000
vt 0.375000 0.687500
vt 0.875000 0.718750
vt 0.125000 0.500000
vt 0.375000 0.532566
vt 0.875000 0.500000
vt 0.625000 0.217434
vt 0.375000 0.217434
vt 0.375000 0.187500
vt 0.375000 0.500000
vt 0.375000 0.000000
vt 0.375000 0.031250
vt 0.375000 0.156250
vt 0.375000 0.125000
vt 0.375000 0.062500
vt 0.375000 0.093750
vt 0.375000 0.250000
vt 0.375000 0.750000
vt 0.375000 1.000000
vt 0.625000 1.000000
vt 0.875000 0.625000
vt 0.625000 0.062500
vt 0.625000 0.187500
s 1
usemtl マテリアル
f 30/1/30 7/2/7 3/3/3
f 3/3/3 38/4/38 39/5/39
f 54/6/54 5/7/5 40/8/40
f 32/9/32 8/10/8 29/11/29
f 52/12/52 3/3/3 39/5/39
f 40/8/40 1/13/1 37/14/37
f 50/15/50 10/16/10 41/17/41
f 25/18/25 12/19/12 9/20/9
f 48/21/48 11/22/11 42/23/42
f 27/24/27 10/16/10 26/25/26
f 31/26/31 43/27/43 51/28/51
f 24/29/24 44/30/44 47/31/47
f 22/32/22 13/33/13 23/34/23
f 24/29/24 15/35/15 14/36/14
f 33/37/33 20/38/20 36/39/36
f 35/40/35 18/41/18 19/42/19
f 36/39/36 45/43/45 53/44/53
f 27/45/27 46/46/46 49/47/49
f 10/16/10 21/48/21 24/29/24
f 12/19/12 23/34/23 9/20/9
f 10/16/10 47/31/47 41/17/41
f 43/27/43 21/49/21 48/21/48
f 11/22/11 49/47/49 42/23/42
f 17/50/17 26/25/26 20/38/20
f 19/42/19 28/51/28 25/18/25
f 45/43/45 26/25/26 50/15/50
f 7/52/7 51/28/51 38/53/38
f 44/30/44 30/1/30 52/12/52
f 16/54/16 29/11/29 13/33/13
f 14/36/14 31/55/31 30/1/30
f 1/13/1 53/44/53 37/14/37
f 6/56/6 34/57/34 35/40/35
f 5/58/5 36/39/36 1/13/1
f 46/46/46 33/59/33 54/6/54
f 46/46/46 35/60/35 19/61/19
f 2/62/2 53/44/53 34/57/34
f 44/30/44 32/9/32 16/54/16
f 8/63/8 51/28/51 29/64/29
f 18/41/18 50/15/50 28/51/28
f 42/23/42 25/65/25 9/66/9
f 13/67/13 48/21/48 23/68/23
f 41/17/41 22/32/22 12/19/12
f 49/47/49 19/61/19 25/65/25
f 34/57/34 45/43/45 18/41/18
f 47/31/47 16/54/16 22/32/22
f 29/64/29 43/27/43 13/67/13
f 23/68/23 42/23/42 9/66/9
f 28/51/28 41/17/41 12/19/12
f 40/8/40 2/62/2 6/69/6
f 52/12/52 4/70/4 32/9/32
f 54/6/54 6/69/6 35/60/35
f 4/70/4 38/4/38 8/71/8
f 84/1/84 61/2/61 57/3/57
f 57/3/57 92/4/92 93/5/93
f 108/6/108 59/7/59 94/8/94
f 86/9/86 62/10/62 83/11/83
f 106/12/106 57/3/57 93/5/93
f 94/8/94 55/13/55 91/14/91
f 104/15/104 64/16/64 95/17/95
f 79/18/79 66/19/66 63/20/63
f 102/21/102 65/22/65 96/23/96
f 81/24/81 64/16/64 80/25/80
f 85/26/85 97/27/97 105/28/105
f 78/29/78 98/30/98 101/31/101
f 76/32/76 67/33/67 77/34/77
f 78/29/78 69/35/69 68/36/68
f 87/37/87 74/38/74 90/39/90
f 89/40/89 72/41/72 73/42/73
f 90/39/90 99/43/99 107/44/107
f 81/45/81 100/46/100 103/47/103
f 64/16/64 75/48/75 78/29/78
f 66/19/66 77/34/77 63/20/63
f 64/16/64 101/31/101 95/17/95
f 97/27/97 75/49/75 102/21/102
f 65/22/65 103/47/103 96/23/96
f 71/50/71 80/25/80 74/38/74
f 73/42/73 82/51/82 79/18/79
f 99/43/99 80/25/80 104/15/104
f 61/52/61 105/28/105 92/53/92
f 98/30/98 84/1/84 106/12/106
f 70/54/70 83/11/83 67/33/67
f 68/36/68 85/55/85 84/1/84
f 55/13/55 107/44/107 91/14/91
f 60/56/60 88/57/88 89/40/89
f 59/58/59 90/39/90 55/13/55
f 100/46/100 87/59/87 108/6/108
f 100/46/100 89/60/89 73/61/73
f 56/62/56 107/44/107 88/57/88
f 98/30/98 86/9/86 70/54/70
f 62/63/62 105/28/105 83/64/83
f 72/41/72 104/15/104 82/51/82
f 96/23/96 79/65/79 63/66/63
f 67/67/67 102/21/102 77/68/77
f 95/17/95 76/32/76 66/19/66
f 103/47/103 73/61/73 79/65/79
f 88/57/88 99/43/99 72/41/72
f 101/31/101 70/54/70 76/32/76
f 83/64/83 97/27/97 67/67/67
f 77/68/77 96/23/96 63/66/63
f 82/51/82 95/17/95 66/19/66
f 94/8/94 56/62/56 60/69/60
f 106/12/106 58/70/58 86/9/86
f 108/6/108 60/69/60 89/60/89
f 58/70/58 92/4/92 62/71/62
f 138/1/138 115/2/115 111/3/111
f 111/3/111 146/4/146 147/5/147
f 162/6/162 113/7/113 148/8/148
f 140/9/140 116/10/116 137/11/137
f 160/12/160 111/3/111 147/5/147
f 148/8/148 109/13/109 145/14/145
f 158/15/158 118/16/118 149/17/149
f 133/18/133 120/19/120 117/20/117
f 156/21/156 119/22/119 150/23/150
f 135/24/135 118/16/118 134/25/134
f 139/26/139 151/27/151 159/28/159
f 132/29/132 152/30/152 155/31/155
f 130/32/130 121/33/121 131/34/131
f 132/29/132 123/35/123 122/36/122
f 141/37/141 128/38/128 144/39/144
f 143/40/143 126/41/126 127/42/127
f 144/39/144 153/43/153 161/44/161
f 135/45/135 154/46/154 157/47/157
f 118/16/118 129/48/129 132/29/132
f 120/19/120 131/34/131 117/20/117
f 118/16/118 155/31/155 149/17/149
f 151/27/151 129/49/129 156/21/156
f 119/22/119 157/47/157 150/23/150
f 125/50/125 134/25/134 128/38/128
f 127/42/127 136/51/136 133/18/133
f 153/43/153 134/25/134 158/15/158
f 115/52/115 159/28/159 146/53/146
f 152/30/152 138/1/138 160/12/160
f 124/54/124 137/11/137 121/33/121
f 122/36/122 139/55/139 138/1/138
f 109/13/109 161/44/161 145/14/145
f 114/56/114 142/57/142 143/40/143
f 113/58/113 144/39/144 109/13/109
f 154/46/154 141/59/141 162/6/162
f 154/46/154 143/60/143 127/61/127
f 110/62/110 161/44/161 142/57/142
f 152/30/152 140/9/140 124/54/124
f 116/63/116 159/28/159 137/64/137
f 126/41/126 158/15/158 136/51/136
f 150/23/150 133/65/133 117/66/117
f 121/67/121 156/21/156 131/68/131
f 149/17/149 130/32/130 120/19/120
f 157/47/157 127/61/127 133/65/133
f 142/57/142 153/43/153 126/41/126
f 155/31/155 124/54/124 130/32/130
f 137/64/137 151/27/151 121/67/121
f 131/68/131 150/23/150 117/66/117
f 136/51/136 149/17/149 120/19/120
f 148/8/148 110/62/110 114/69/114
f 160/12/160 112/70/112 140/9/140
f 162/6/162 114/69/114 143/60/143
f 112/70/112 146/4/146 116/71/116
f 192/1/192 169/2/169 165/3/165
f 165/3/165 200/4/200 201/5/201
f 216/6/216 167/7/167 202/8/202
f 194/9/194 170/10/170 191/11/191
f 214/12/214 165/3/165 201/5/201
f 202/8/202 163/13/163 199/14/199
f 212/15/212 172/16/172 203/17/203
f 187/18/187 174/19/174 171/20/171
f 210/21/210 173/22/173 204/23/204
f 189/24/189 172/16/172 188/25/188
f 193/26/193 205/27/205 213/28/213
f 186/29/186 206/30/206 209/31/209
f 184/32/184 175/33/175 185/34/185
f 186/29/186 177/35/177 176/36/176
f 195/37/195 182/38/182 198/39/198
f 197/40/197 180/41/180 181/42/181
f 198/39/198 207/43/207 215/44/215
f 189/45/189 208/46/208 211/47/211
f 172/16/172 183/48/183 186/29/186
f 174/19/174 185/34/185 171/20/171
f 172/16/172 209/31/209 203/17/203
f 205/27/205 183/49/183 210/21/210
f 173/22/173 211/47/211 204/23/204
f 179/50/179 188/25/188 182/38/182
f 181/42/181 190/51/190 187/18/187
f 207/43/207 188/25/188 212/15/212
f 169/52/169 213/28/213 200/53/200
f 206/30/206 192/1/192 214/12/214
f 178/54/178 191/11/191 175/33/175
f 176/36/176 193/55/193 192/1/192
f 163/13/163 215/44/215 199/14/199
f 168/56/168 196/57/196 197/40/197
f 167/58/167 198/39/198 163/13/163
f 208/46/208 195/59/195 216/6/216
f 208/46/208 197/60/197 181/61/181
f 164/62/164 215/44/215 196/57/196
f 206/30/206 194/9/194 178/54/178
f 170/63/170 213/28/213 191/64/191
f 180/41/180 212/15/212 190/51/190
f 204/23/204 187/65/187 171/66/171
f 175/67/175 210/21/210 185/68/185
f 203/17/203 184/32/184 174/19/174
f 211/47/211 181/61/181 187/65/187
f 196/57/196 207/43/207 180/41/180
f 209/31/209 178/54/178 184/32/184
f 191/64/191 205/27/205 175/67/175
f 185/68/185 204/23/204 171/66/171
f 190/51/190 203/17/203 174/19/174
f 202/8/202 164/62/164 168/69/168
f 214/12/214 166/70/166 194/9/194
f 216/6/216 168/69/168 197/60/197
f 166/70/166 200/4/200 170/71/170
f 246/1/246 223/2/223 219/3/219
f 219/3/219 254/4/254 255/5/255
f 270/6/270 221/7/221 256/8/256
f 248/9/248 224/10/224 245/11/245
f 268/12/268 219/3/219 255/5/255
f 256/8/256 217/13/217 253/14/253
f 266/15/266 226/16/226 257/17/257
f 241/18/241 228/19/228 225/20/225
f 264/21/264 227/22/227 258/23/258
f 243/24/243 226/16/226 242/25/242
f 247/26/247 259/27/259 267/28/267
f 240/29/240 260/30/260 263/31/263
f 238/32/238 229/33/229 239/34/239
f 240/29/240 231/35/231 230/36/230
f 249/37/249 236/38/236 252/39/252
f 251/40/251 234/41/234 235/42/235
f 252/39/252 261/43/261 269/44/269
f 243/45/243 262/46/262 265/47/265
f 226/16/226 237/48/237 240/29/240
f 228/19/228 239/34/239 225/20/225
f 226/16/226 263/31/263 257/17/257
f 259/27/259 237/49/237 264/21/264
f 227/22/227 265/47/265 258/23/258
f 233/50/233 242/25/242 236/38/236
f 235/42/235 244/51/244 241/18/241
f 261/43/261 242/25/242 266/15/266
f 223/52/223 267/28/267 254/53/254
f 260/30/260 246/1/246 268/12/268
f 232/54/232 245/11/245 229/33/229
f 230/36/230 247/55/247 246/1/246
f 217/13/217 269/44/269 253/14/253
f 222/56/222 250/57/250 251/40/251
f 221/58/221 252/39/252 217/13/217
f 262/46/262 249/59/249 270/6/270
f 262/46/262 251/60/251 235/61/235
f 218/62/218 269/44/269 250/57/250
f 260/30/260 248/9/248 232/54/232
f 224/63/224 267/28/267 245/64/245
f 234/41/234 266/15/266 244/51/244
f 258/23/258 241/65/241 225/66/225
f 229/67/229 264/21/264 239/68/239
f 257/17/257 238/32/238 228/19/228
f 265/47/265 235/61/235 241/65/241
f 250/57/250 261/43/261 234/41/234
f 263/31/263 232/54/232 238/32/238
f 245/64/245 259/27/259 229/67/229
f 239/68/239 258/23/258 225/66/225
f 244/51/244 257/17/257 228/19/228
f 256/8/256 218/62/218 222/69/222
f 268/12/268 220/70/220 248/9/248
f 270/6/270 222/69/222 251/60/251
f 220/70/220 254/4/254 224/71/224
f 300/1/300 277/2/277 273/3/273
f 273/3/273 308/4/308 309/5/309
f 324/6/324 275/7/275 310/8/310
f 302/9/302 278/10/278 299/11/299
f 322/12/322 273/3/273 309/5/309
f 310/8/310 271/13/271 307/14/307
f 320/15/320 280/16/280 311/17/311
f 295/18/295 282/19/282 279/20/279
f 318/21/318 281/22/281 312/23/312
f 297/24/297 280/16/280 296/25/296
f 301/26/301 313/27/313 321/28/321
f 294/29/294 314/30/314 317/31/317
f 292/32/292 283/33/283 293/34/293
f 294/29/294 285/35/285 284/36/284
f 303/37/303 290/38/290 306/39/306
f 305/40/305 288/41/288 289/42/289
f 306/39/306 315/43/315 323/44/323
f 297/45/297 316/46/316 319/47/319
f 280/16/280 291/48/291 294/29/294
f 282/19/282 293/34/293 279/20/279
f 280/16/280 317/31/317 311/17/311
f 313/27/313 291/49/291 318/21/318
f 281/22/281 319/47/319 312/23/312
f 287/50/287 296/25/296 290/38/290
f 289/42/289 298/51/298 295/18/295
f 315/43/315 296/25/296 320/15/320
f 277/52/277 321/28/321 308/53/308
f 314/30/314 300/1/300 322/12/322
f 286/54/286 299/11/299 283/33/283
f 284/36/284 301/55/301 300/1/300
f 271/13/271 323/44/323 307/14/307
f 276/56/276 304/57/304 305/40/305
f 275/58/275 306/39/306 271/13/271
f 316/46/316 303/59/303 324/6/324
f 316/46/316 305/60/305 289/61/289
f 272/62/272 323/44/323 304/57/304
f 314/30/314 302/9/302 286/54/286
f 278/63/278 321/28/321 299/64/299
f 288/41/288 320/15/320 298/51/298
f 312/23/312 295/65/295 279/66/279
f 283/67/283 318/21/318 293/68/293
f 311/17/311 292/32/292 282/19/282
f 319/47/319 289/61/289 295/65/295
f 304/57/304 315/43/315 288/41/288
f 317/31/317 286/54/286 292/32/292
f 299/64/299 313/27/313 283/67/283
f 293/68/293 312/23/312 279/66/279
f 298/51/298 311/17/311 282/19/282
f 310/8/310 272/62/272 276/69/276
f 322/12/322 274/70/274 302/9/302
f 324/6/324 276/69/276 305/60/305
f 274/70/274 308/4/308 278/71/278
f 354/1/354 331/2/331 327/3/327
f 327/3/327 362/4/362 363/5/363
f 378/6/378 329/7/329 364/8/364
f 356/9/356 332/10/332 353/11/353
f 376/12/376 327/3/327 363/5/363
f 364/8/364 325/13/325 361/14/361
f 374/15/374 334/16/334 365/17/365
f 349/18/349 336/19/336 333/20/333
f 372/21/372 335/22/335 366/23/366
f 351/24/351 334/16/334 350/25/350
f 355/26/355 367/27/367 375/28/375
f 348/29/348 368/30/368 371/31/371
f 346/32/346 337/33/337 347/34/347
f 348/29/348 339/35/339 338/36/338
f 357/37/357 344/38/344 360/39/360
f 359/40/359 342/41/342 343/42/343
f 360/39/360 369/43/369 377/44/377
f 351/45/351 370/46/370 373/47/373
f 334/16/334 345/48/345 348/29/348
f 336/19/336 347/34/347 333/20/333
f 334/16/334 371/31/371 365/17/365
f 367/27/367 345/49/345 372/21/372
f 335/22/335 373/47/373 366/23/366
f 341/50/341 350/25/350 344/38/344
f 343/42/343 352/51/352 349/18/349
f 369/43/369 350/25/350 374/15/374
f 331/52/331 375/28/375 362/53/362
f 368/30/368 354/1/354 376/12/376
f 340/54/340 353/11/353 337/33/337
f 338/36/338 355/55/355 354/1/354
f 325/13/325 377/44/377 361/14/361
f 330/56/330 358/57/358 359/40/359
f 329/58/329 360/39/360 325/13/325
f 370/46/370 357/59/357 378/6/378
f 370/46/370 359/60/359 343/61/343
f 326/62/326 377/44/377 358/57/358
f 368/30/368 356/9/356 340/54/340
f 332/63/332 375/28/375 353/64/353
f 342/41/342 374/15/374 352/51/352
f 366/23/366 349/65/349 333/66/333
f 337/67/337 372/21/372 347/68/347
f 365/17/365 346/32/346 336/19/336
f 373/47/373 343/61/343 349/65/349
f 358/57/358 369/43/369 342/41/342
f 371/31/371 340/54/340 346/32/346
f 353/64/353 367/27/367 337/67/337
f 347/68/347 366/23/366 333/66/333
f 352/51/352 365/17/365 336/19/336
f 364/8/364 326/62/326 330/69/330
f 376/12/376 328/70/328 356/9/356
f 378/6/378 330/69/330 359/60/359
f 328/70/328 362/4/362 332/71/332
f 408/1/408 385/2/385 381/3/381
f 381/3/381 416/4/416 417/5/417
f 432/6/432 383/7/383 418/8/418
f 410/9/410 386/10/386 407/11/407
f 430/12/430 381/3/381 417/5/417
f 418/8/418 379/13/379 415/14/415
f 428/15/428 388/16/388 419/17/419
f 403/18/403 390/19/390 387/20/387
f 426/21/426 389/22/389 420/23/420
f 405/24/405 388/16/388 404/25/404
f 409/26/409 421/27/421 429/28/429
f 402/29/402 422/30/422 425/31/425
f 400/32/400 391/33/391 401/34/401
f 402/29/402 393/35/393 392/36/392
f 411/37/411 398/38/398 414/39/414
f 413/40/413 396/41/396 397/42/397
f 414/39/414 423/43/423 431/44/431
f 405/45/405 424/46/424 427/47/427
f 388/16/388 399/48/399 402/29/402
f 390/19/390 401/34/401 387/20/387
f 388/16/388 425/31/425 419/17/419
f 421/27/421 399/49/399 426/21/426
f 389/22/389 427/47/427 420/23/420
f 395/50/395 404/25/404 398/38/398
f 397/42/397 406/51/406 403/18/403
f 423/43/423 404/25/404 428/15/428
f 385/52/385 429/28/429 416/53/416
f 422/30/422 408/1/408 430/12/430
f 394/54/394 407/11/407 391/33/391
f 392/36/392 409/55/409 408/1/408
f 379/13/379 431/44/431 415/14/415
f 384/56/384 412/57/412 413/40/413
f 383/58/383 414/39/414 379/13/379
f 424/46/424 411/59/411 432/6/432
f 424/46/424 413/60/413 397/61/397
f 380/62/380 431/44/431 412/57/412
f 422/30/422 410/9/410 394/54/394
f 386/63/386 429/28/429 407/64/407
f 396/41/396 428/15/428 406/51/406
f 420/23/420 403/65/403 387/66/387
f 391/67/391 426/21/426 401/68/401
f 419/17/419 400/32/400 390/19/390
f 427/47/427 397/61/397 403/65/403
f 412/57/412 423/43/423 396/41/396
f 425/31/425 394/54/394 400/32/400
f 407/64/407 421/27/421 391/67/391
f 401/68/401 420/23/420 387/66/387
f 406/51/406 419/17/419 390/19/390
f 418/8/418 380/62/380 384/69/384
f 430/12/430 382/70/382 410/9/410
f 432/6/432 384/69/384 413/60/413
f 382/70/382 416/4/416 386/71/386
f 462/1/462 439/2/439 435/3/435
f 435/3/435 470/4/470 471/5/471
f 486/6/486 437/7/437 472/8/472
f 464/9/464 440/10/440 461/11/461
f 484/12/484 435/3/435 471/5/471
f 472/8/472 433/13/433 469/14/469
f 482/15/482 442/16/442 473/17/473
f 457/18/457 444/19/444 441/20/441
f 480/21/480 443/22/443 474/23/474
f 459/24/459 442/16/442 458/25/458
f 463/26/463 475/27/475 483/28/483
f 456/29/456 476/30/476 479/31/479
f 454/32/454 445/33/445 455/34/455
f 456/29/456 447/35/447 446/36/446
f 465/37/465 452/38/452 468/39/468
f 467/40/467 450/41/450 451/42/451
f 468/39/468 477/43/477 485/44/485
f 459/45/459 478/46/478 481/47/481
f 442/16/442 453/48/453 456/29/456
f 444/19/444 455/34/455 441/20/441
f 442/16/442 479/31/479 473/17/473
f 475/27/475 453/49/453 480/21/480
f 443/22/443 481/47/481 474/23/474
f 449/50/449 458/25/458 452/38/452
f 451/42/451 460/51/460 457/18/457
f 477/43/477 458/25/458 482/15/482
f 439/52/439 483/28/483 470/53/470
f 476/30/476 462/1/462 484/12/484
f 448/54/448 461/11/461 445/33/445
f 446/36/446 463/55/463 462/1/462
f 433/13/433 485/44/485 469/14/469
f 438/56/438 466/57/466 467/40/467
f 437/58/437 468/39/468 433/13/433
f 478/46/478 465/59/465 486/6/486
f 478/46/478 467/60/467 451/61/451
f 434/62/434 485/44/485 466/57/466
f 476/30/476 464/9/464 448/54/448
f 440/63/440 483/28/483 461/64/461
f 450/41/450 482/15/482 460/51/460
f 474/23/474 457/65/457 441/66/441
f 445/67/445 480/21/480 455/68/455
f 473/17/473 454/32/454 444/19/444
f 481/47/481 451/61/451 457/65/457
f 466/57/466 477/43/477 450/41/450
f 479/31/479 448/54/448 454/32/454
f 461/64/461 475/27/475 445/67/445
f 455/68/455 474/23/474 441/66/441
f 460/51/460 473/17/473 444/19/444
f 472/8/472 434/62/434 438/69/438
f 484/12/484 436/70/436 464/9/464
f 486/6/486 438/69/438 467/60/467
f 436/70/436 470/4/470 440/71/440
f 516/1/516 493/2/493 489/3/489
f 489/3/489 524/4/524 525/5/525
f 540/6/540 491/7/491 526/8/526
f 518/9/518 494/10/494 515/11/515
f 538/12/538 489/3/489 525/5/525
f 526/8/526 487/13/487 523/14/523
f 536/15/536 496/16/496 527/17/527
f 511/18/511 498/19/498 495/20/495
f 534/21/534 497/22/497 528/23/528
f 513/24/513 496/16/496 512/25/512
f 517/26/517 529/27/529 537/28/537
f 510/29/510 530/30/530 533/31/533
f 508/32/508 499/33/499 509/34/509
f 510/29/510 501/35/501 500/36/500
f 519/37/519 506/38/506 522/39/522
f 521/40/521 504/41/504 505/42/505
f 522/39/522 531/43/531 539/44/539
f 513/45/513 532/46/532 535/47/535
f 496/16/496 507/48/507 510/29/510
f 498/19/498 509/34/509 495/20/495
f 496/16/496 533/31/533 527/17/527
f 529/27/529 507/49/507 534/21/534
f 497/22/497 535/47/535 528/23/528
f 503/50/503 512/25/512 506/38/506
f 505/42/505 514/51/514 511/18/511
f 531/43/531 512/25/512 536/15/536
f 493/52/493 537/28/537 524/53/524
f 530/30/530 516/1/516 538/12/538
f 502/54/502 515/11/515 499/33/499
f 500/36/500 517/55/517 516/1/516
f 487/13/487 539/44/539 523/14/523
f 492/56/492 520/57/520 521/40/521
f 491/58/491 522/39/522 487/13/487
f 532/46/532 519/59/519 540/6/540
f 532/46/532 521/60/521 505/61/505
f 488/62/488 539/44/539 520/57/520
f 530/30/530 518/9/518 502/54/502
f 494/63/494 537/28/537 515/64/515
f 504/41/504 536/15/536 514/51/514
f 528/23/528 511/65/511 495/66/495
f 499/67/499 534/21/534 509/68/509
f 527/17/527 508/32/508 498/19/498
f 535/47/535 505/61/505 511/65/511
f 520/57/520 531/43/531 504/41/504
f 533/31/533 502/54/502 508/32/508
f 515/64/515 529/27/529 499/67/499
f 509/68/509 528/23/528 495/66/495
f 514/51/514 527/17/527 498/19/498
f 526/8/526 488/62/488 492/69/492
f 538/12/538 490/70/490 518/9/518
f 540/6/540 492/69/492 521/60/521
f 490/70/490 524/4/524 494/71/494
f 570/1/570 547/2/547 543/3/543
f 543/3/543 578/4/578 579/5/579
f 594/6/594 545/7/545 580/8/580
f 572/9/572 548/10/548 569/11/569
f 592/12/592 543/3/543 579/5/579
f 580/8/580 541/13/541 577/14/577
f 590/15/590 550/16/550 581/17/581
f 565/18/565 552/19/552 549/20/549
f 588/21/588 551/22/551 582/23/582
f 567/24/567 550/16/550 566/25/566
f 571/26/571 583/27/583 591/28/591
f 564/29/564 584/30/584 587/31/587
f 562/32/562 553/33/553 563/34/563
f 564/29/564 555/35/555 554/36/554
f 573/37/573 560/38/560 576/39/576
f 575/40/575 558/41/558 559/42/559
f 576/39/576 585/43/585 593/44/593
f 567/45/567 586/46/586 589/47/589
f 550/16/550 561/48/561 564/29/564
f 552/19/552 563/34/563 549/20/549
f 550/16/550 587/31/587 581/17/581
f 583/27/583 561/49/561 588/21/588
f 551/22/551 589/47/589 582/23/582
f 557/50/557 566/25/566 560/38/560
f 559/42/559 568/51/568 565/18/565
f 585/43/585 566/25/566 590/15/590
f 547/52/547 591/28/591 578/53/578
f 584/30/584 570/1/570 592/12/592
f 556/54/556 569/11/569 553/33/553
f 554/36/554 571/55/571 570/1/570
f 541/13/541 593/44/593 577/14/577
f 546/56/546 574/57/574 575/40/575
f 545/58/545 576/39/576 541/13/541
f 586/46/586 573/59/573 594/6/594
f 586/46/586 575/60/575 559/61/559
f 542/62/542 593/44/593 574/57/574
f 584/30/584 572/9/572 556/54/556
f 548/63/548 591/28/591 569/64/569
f 558/41/558 590/15/590 568/51/568
f 582/23/582 565/65/565 549/66/549
f 553/67/553 588/21/588 563/68/563
f 581/17/581 562/32/562 552/19/552
f 589/47/589 559/61/559 565/65/565
f 574/57/574 585/43/585 558/41/558
f 587/31/587 556/54/556 562/32/562
f 569/64/569 583/27/583 553/67/553
f 563/68/563 582/23/582 549/66/549
f 568/51/568 581/17/581 552/19/552
f 580/8/580 542/62/542 546/69/546
f 592/12/592 544/70/544 572/9/572
f 594/6/594 546/69/546 575/60/575
f 544/70/544 578/4/578 548/71/548
f 624/1/624 601/2/601 597/3/597
f 597/3/597 632/4/632 633/5/633
f 648/6/648 599/7/599 634/8/634
f 626/9/626 602/10/602 623/11/623
f 646/12/646 597/3/597 633/5/633
f 634/8/634 595/13/595 631/14/631
f 644/15/644 604/16/604 635/17/635
f 619/18/619 606/19/606 603/20/603
f 642/21/642 605/22/605 636/23/636
f 621/24/621 604/16/604 620/25/620
f 625/26/625 637/27/637 645/28/645
f 618/29/618 638/30/638 641/31/641
f 616/32/616 607/33/607 617/34/617
f 618/29/618 609/35/609 608/36/608
f 627/37/627 614/38/614 630/39/630
f 629/40/629 612/41/612 613/42/613
f 630/39/630 639/43/639 647/44/647
f 621/45/621 640/46/640 643/47/643
f 604/16/604 615/48/615 618/29/618
f 606/19/606 617/34/617 603/20/603
f 604/16/604 641/31/641 635/17/635
f 637/27/637 615/49/615 642/21/642
f 605/22/605 643/47/643 636/23/636
f 611/50/611 620/25/620 614/38/614
f 613/42/613 622/51/622 619/18/619
f 639/43/639 620/25/620 644/15/644
f 601/52/601 645/28/645 632/53/632
f 638/30/638 624/1/624 646/12/646
f 610/54/610 623/11/623 607/33/607
f 608/36/608 625/55/625 624/1/624
f 595/13/595 647/44/647 631/14/631
f 600/56/600 628/57/628 629/40/629
f 599/58/599 630/39/630 595/13/595
f 640/46/640 627/59/627 648/6/648
f 640/46/640 629/60/629 613/61/613
f 596/62/596 647/44/647 628/57/628
f 638/30/638 626/9/626 610/54/610
f 602/63/602 645/28/645 623/64/623
f 612/41/612 644/15/644 622/51/622
f 636/23/636 619/65/619 603/66/603
f 607/67/607 642/21/642 617/68/617
f 635/17/635 616/32/616 606/19/606
f 643/47/643 613/61/613 619/65/619
f 628/57/628 639/43/639 612/41/612
f 641/31/641 610/54/610 616/32/616
f 623/64/623 637/27/637 607/67/607
f 617/68/617 636/23/636 603/66/603
f 622/51/622 635/17/635 606/19/606
f 634/8/634 596/62/596 600/69/600
f 646/12/646 598/70/598 626/9/626
f 648/6/648 600/69/600 629/60/629
f 598/70/598 632/4/632 602/71/602
f 678/1/678 655/2/655 651/3/651
f 651/3/651 686/4/686 687/5/687
f 702/6/702 653/7/653 688/8/688
f 680/9/680 656/10/656 677/11/677
f 700/12/700 651/3/651 687/5/687
f 688/8/688 649/13/649 685/14/685
f 698/15/698 658/16/658 689/17/689
f 673/18/673 660/19/660 657/20/657
f 696/21/696 659/22/659 690/23/690
f 675/24/675 658/16/658 674/25/674
f 679/26/679 691/27/691 699/28/699
f 672/29/672 692/30/692 695/31/695
f 670/32/670 661/33/661 671/34/671
f 672/29/672 663/35/663 662/36/662
f 681/37/681 668/38/668 684/39/684
f 683/40/683 666/41/666 667/42/667
f 684/39/684 693/43/693 701/44/701
f 675/45/675 694/46/694 697/47/697
f 658/16/658 669/48/669 672/29/672
f 660/19/660 671/34/671 657/20/657
f 658/16/658 695/31/695 689/17/689
f 691/27/691 669/49/669 696/21/696
f 659/22/659 697/47/697 690/23/690
f 665/50/665 674/25/674 668/38/668
f 667/42/667 676/51/676 673/18/673
f 693/43/693 674/25/674 698/15/698
f 655/52/655 699/28/699 686/53/686
f 692/30/692 678/1/678 700/12/700
f 664/54/664 677/11/677 661/33/661
f 662/36/662 679/55/679 678/1/678
f 649/13/649 701/44/701 685/14/685
f 654/56/654 682/57/682 683/40/683
f 653/58/653 684/39/684 649/13/649
f 694/46/694 681/59/681 702/6/702
f 694/46/694 683/60/683 667/61/667
f 650/62/650 701/44/701 682/57/682
f 692/30/692 680/9/680 664/54/664
f 656/63/656 699/28/699 677/64/677
f 666/41/666 698/15/698 676/51/676
f 690/23/690 673/65/673 657/66/657
f 661/67/661 696/21/696 671/68/671
f 689/17/689 670/32/670 660/19/660
f 697/47/697 667/61/667 673/65/673
f 682/57/682 693/43/693 666/41/666
f 695/31/695 664/54/664 670/32/670
f 677/64/677 691/27/691 661/67/661
f 671/68/671 690/23/690 657/66/657
f 676/51/676 689/17/689 660/19/660
f 688/8/688 650/62/650 654/69/654
f 700/12/700 652/70/652 680/9/680
f 702/6/702 654/69/654 683/60/683
f 652/70/652 686/4/686 656/71/656
f 30/1/30 31/55/31 7/2/7
f 3/3/3 7/72/7 38/4/38
f 54/6/54 33/59/33 5/7/5
f 32/9/32 4/70/4 8/10/8
f 52/12/52 30/1/30 3/3/3
f 40/8/40 5/7/5 1/13/1
f 50/15/50 26/25/26 10/16/10
f 25/18/25 28/51/28 12/19/12
f 48/21/48 21/49/21 11/22/11
f 27/24/27 11/73/11 10/16/10
f 31/26/31 15/74/15 43/27/43
f 24/29/24 14/36/14 44/30/44
f 22/32/22 16/54/16 13/33/13
f 24/29/24 21/48/21 15/35/15
f 33/37/33 17/50/17 20/38/20
f 35/40/35 34/57/34 18/41/18
f 36/39/36 20/38/20 45/43/45
f 27/45/27 17/75/17 46/46/46
f 10/16/10 11/73/11 21/48/21
f 12/19/12 22/32/22 23/34/23
f 10/16/10 24/29/24 47/31/47
f 43/27/43 15/74/15 21/49/21
f 11/22/11 27/45/27 49/47/49
f 17/50/17 27/24/27 26/25/26
f 19/42/19 18/41/18 28/51/28
f 45/43/45 20/38/20 26/25/26
f 7/52/7 31/26/31 51/28/51
f 44/30/44 14/36/14 30/1/30
f 16/54/16 32/9/32 29/11/29
f 14/36/14 15/35/15 31/55/31
f 1/13/1 36/39/36 53/44/53
f 6/56/6 2/62/2 34/57/34
f 5/58/5 33/37/33 36/39/36
f 46/46/46 17/75/17 33/59/33
f 46/46/46 54/6/54 35/60/35
f 2/62/2 37/14/37 53/44/53
f 44/30/44 52/12/52 32/9/32
f 8/63/8 38/53/38 51/28/51
f 18/41/18 45/43/45 50/15/50
f 42/23/42 49/47/49 25/65/25
f 13/67/13 43/27/43 48/21/48
f 41/17/41 47/31/47 22/32/22
f 49/47/49 46/46/46 19/61/19
f 34/57/34 53/44/53 45/43/45
f 47/31/47 44/30/44 16/54/16
f 29/64/29 51/28/51 43/27/43
f 23/68/23 48/21/48 42/23/42
f 28/51/28 50/15/50 41/17/41
f 40/8/40 37/14/37 2/62/2
f 52/12/52 39/5/39 4/70/4
f 54/6/54 40/8/40 6/69/6
f 4/70/4 39/5/39 38/4/38
f 84/1/84 85/55/85 61/2/61
f 57/3/57 61/72/61 92/4/92
f 108/6/108 87/59/87 59/7/59
f 86/9/86 58/70/58 62/10/62
f 106/12/106 84/1/84 57/3/57
f 94/8/94 59/7/59 55/13/55
f 104/15/104 80/25/80 64/16/64
f 79/18/79 82/51/82 66/19/66
f 102/21/102 75/49/75 65/22/65
f 81/24/81 65/73/65 64/16/64
f 85/26/85 69/74/69 97/27/97
f 78/29/78 68/36/68 98/30/98
f 76/32/76 70/54/70 67/33/67
f 78/29/78 75/48/75 69/35/69
f 87/37/87 71/50/71 74/38/74
f 89/40/89 88/57/88 72/41/72
f 90/39/90 74/38/74 99/43/99
f 81/45/81 71/75/71 100/46/100
f 64/16/64 65/73/65 75/48/75
f 66/19/66 76/32/76 77/34/77
f 64/16/64 78/29/78 101/31/101
f 97/27/97 69/74/69 75/49/75
f 65/22/65 81/45/81 103/47/103
f 71/50/71 81/24/81 80/25/80
f 73/42/73 72/41/72 82/51/82
f 99/43/99 74/38/74 80/25/80
f 61/52/61 85/26/85 105/28/105
f 98/30/98 68/36/68 84/1/84
f 70/54/70 86/9/86 83/11/83
f 68/36/68 69/35/69 85/55/85
f 55/13/55 90/39/90 107/44/107
f 60/56/60 56/62/56 88/57/88
f 59/58/59 87/37/87 90/39/90
f 100/46/100 71/75/71 87/59/87
f 100/46/100 108/6/108 89/60/89
f 56/62/56 91/14/91 107/44/107
f 98/30/98 106/12/106 86/9/86
f 62/63/62 92/53/92 105/28/105
f 72/41/72 99/43/99 104/15/104
f 96/23/96 103/47/103 79/65/79
f 67/67/67 97/27/97 102/21/102
f 95/17/95 101/31/101 76/32/76
f 103/47/103 100/46/100 73/61/73
f 88/57/88 107/44/107 99/43/99
f 101/31/101 98/30/98 70/54/70
f 83/64/83 105/28/105 97/27/97
f 77/68/77 102/21/102 96/23/96
f 82/51/82 104/15/104 95/17/95
f 94/8/94 91/14/91 56/62/56
f 106/12/106 93/5/93 58/70/58
f 108/6/108 94/8/94 60/69/60
f 58/70/58 93/5/93 92/4/92
f 138/1/138 139/55/139 115/2/115
f 111/3/111 115/72/115 146/4/146
f 162/6/162 141/59/141 113/7/113
f 140/9/140 112/70/112 116/10/116
f 160/12/160 138/1/138 111/3/111
f 148/8/148 113/7/113 109/13/109
f 158/15/158 134/25/134 118/16/118
f 133/18/133 136/51/136 120/19/120
f 156/21/156 129/49/129 119/22/119
f 135/24/135 119/73/119 118/16/118
f 139/26/139 123/74/123 151/27/151
f 132/29/132 122/36/122 152/30/152
f 130/32/130 124/54/124 121/33/121
f 132/29/132 129/48/129 123/35/123
f 141/37/141 125/50/125 128/38/128
f 143/40/143 142/57/142 126/41/126
f 144/39/144 128/38/128 153/43/153
f 135/45/135 125/75/125 154/46/154
f 118/16/118 119/73/119 129/48/129
f 120/19/120 130/32/130 131/34/131
f 118/16/118 132/29/132 155/31/155
f 151/27/151 123/74/123 129/49/129
f 119/22/119 135/45/135 157/47/157
f 125/50/125 135/24/135 134/25/134
f 127/42/127 126/41/126 136/51/136
f 153/43/153 128/38/128 134/25/134
f 115/52/115 139/26/139 159/28/159
f 152/30/152 122/36/122 138/1/138
f 124/54/124 140/9/140 137/11/137
f 122/36/122 123/35/123 139/55/139
f 109/13/109 144/39/144 161/44/161
f 114/56/114 110/62/110 142/57/142
f 113/58/113 141/37/141 144/39/144
f 154/46/154 125/75/125 141/59/141
f 154/46/154 162/6/162 143/60/143
f 110/62/110 145/14/145 161/44/161
f 152/30/152 160/12/160 140/9/140
f 116/63/116 146/53/146 159/28/159
f 126/41/126 153/43/153 158/15/158
f 150/23/150 157/47/157 133/65/133
f 121/67/121 151/27/151 156/21/156
f 149/17/149 155/31/155 130/32/130
f 157/47/157 154/46/154 127/61/127
f 142/57/142 161/44/161 153/43/153
f 155/31/155 152/30/152 124/54/124
f 137/64/137 159/28/159 151/27/151
f 131/68/131 156/21/156 150/23/150
f 136/51/136 158/15/158 149/17/149
f 148/8/148 145/14/145 110/62/110
f 160/12/160 147/5/147 112/70/112
f 162/6/162 148/8/148 114/69/114
f 112/70/112 147/5/147 146/4/146
f 192/1/192 193/55/193 169/2/169
f 165/3/165 169/72/169 200/4/200
f 216/6/216 195/59/195 167/7/167
f 194/9/194 166/70/166 170/10/170
f 214/12/214 192/1/192 165/3/165
f 202/8/202 167/7/167 163/13/163
f 212/15/212 188/25/188 172/16/172
f 187/18/187 190/51/190 174/19/174
f 210/21/210 183/49/183 173/22/173
f 189/24/189 173/73/173 172/16/172
f 193/26/193 177/74/177 205/27/205
f 186/29/186 176/36/176 206/30/206
f 184/32/184 178/54/178 175/33/175
f 186/29/186 183/48/183 177/35/177
f 195/37/195 179/50/179 182/38/182
f 197/40/197 196/57/196 180/41/180
f 198/39/198 182/38/182 207/43/207
f 189/45/189 179/75/179 208/46/208
f 172/16/172 173/73/173 183/48/183
f 174/19/174 184/32/184 185/34/185
f 172/16/172 186/29/186 209/31/209
f 205/27/205 177/74/177 183/49/183
f 173/22/173 189/45/189 211/47/211
f 179/50/179 189/24/189 188/25/188
f 181/42/181 180/41/180 190/51/190
f 207/43/207 182/38/182 188/25/188
f 169/52/169 193/26/193 213/28/213
f 206/30/206 176/36/176 192/1/192
f 178/54/178 194/9/194 191/11/191
f 176/36/176 177/35/177 193/55/193
f 163/13/163 198/39/198 215/44/215
f 168/56/168 164/62/164 196/57/196
f 167/58/167 195/37/195 198/39/198
f 208/46/208 179/75/179 195/59/195
f 208/46/208 216/6/216 197/60/197
f 164/62/164 199/14/199 215/44/215
f 206/30/206 214/12/214 194/9/194
f 170/63/170 200/53/200 213/28/213
f 180/41/180 207/43/207 212/15/212
f 204/23/204 211/47/211 187/65/187
f 175/67/175 205/27/205 210/21/210
f 203/17/203 209/31/209 184/32/184
f 211/47/211 208/46/208 181/61/181
f 196/57/196 215/44/215 207/43/207
f 209/31/209 206/30/206 178/54/178
f 191/64/191 213/28/213 205/27/205
f 185/68/185 210/21/210 204/23/204
f 190/51/190 212/15/212 203/17/203
f 202/8/202 199/14/199 164/62/164
f 214/12/214 201/5/201 166/70/166
f 216/6/216 202/8/202 168/69/168
f 166/70/166 201/5/201 200/4/200
f 246/1/246 247/55/247 223/2/223
f 219/3/219 223/72/223 254/4/254
f 270/6/270 249/59/249 221/7/221
f 248/9/248 220/70/220 224/10/224
f 268/12/268 246/1/246 219/3/219
f 256/8/256 221/7/221 217/13/217
f 266/15/266 242/25/242 226/16/226
f 241/18/241 244/51/244 228/19/228
f 264/21/264 237/49/237 227/22/227
f 243/24/243 227/73/227 226/16/226
f 247/26/247 231/74/231 259/27/259
f 240/29/240 230/36/230 260/30/260
f 238/32/238 232/54/232 229/33/229
f 240/29/240 237/48/237 231/35/231
f 249/37/249 233/50/233 236/38/236
f 251/40/251 250/57/250 234/41/234
f 252/39/252 236/38/236 261/43/261
f 243/45/243 233/75/233 262/46/262
f 226/16/226 227/73/227 237/48/237
f 228/19/228 238/32/238 239/34/239
f 226/16/226 240/29/240 263/31/263
f 259/27/259 231/74/231 237/49/237
f 227/22/227 243/45/243 265/47/265
f 233/50/233 243/24/243 242/25/242
f 235/42/235 234/41/234 244/51/244
f 261/43/261 236/38/236 242/25/242
f 223/52/223 247/26/247 267/28/267
f 260/30/260 230/36/230 246/1/246
f 232/54/232 248/9/248 245/11/245
f 230/36/230 231/35/231 247/55/247
f 217/13/217 252/39/252 269/44/269
f 222/56/222 218/62/218 250/57/250
f 221/58/221 249/37/249 252/39/252
f 262/46/262 233/75/233 249/59/249
f 262/46/262 270/6/270 251/60/251
f 218/62/218 253/14/253 269/44/269
f 260/30/260 268/12/268 248/9/248
f 224/63/224 254/53/254 267/28/267
f 234/41/234 261/43/261 266/15/266
f 258/23/258 265/47/265 241/65/241
f 229/67/229 259/27/259 264/21/264
f 257/17/257 263/31/263 238/32/238
f 265/47/265 262/46/262 235/61/235
f 250/57/250 269/44/269 261/43/261
f 263/31/263 260/30/260 232/54/232
f 245/64/245 267/28/267 259/27/259
f 239/68/239 264/21/264 258/23/258
f 244/51/244 266/15/266 257/17/257
f 256/8/256 253/14/253 218/62/218
f 268/12/268 255/5/255 220/70/220
f 270/6/270 256/8/256 222/69/222
f 220/70/220 255/5/255 254/4/254
f 300/1/300 301/55/301 277/2/277
f 273/3/273 277/72/277 308/4/308
f 324/6/324 303/59/303 275/7/275
f 302/9/302 274/70/274 278/10/278
f 322/12/322 300/1/300 273/3/273
f 310/8/310 275/7/275 271/13/271
f 320/15/320 296/25/296 280/16/280
f 295/18/295 298/51/298 282/19/282
f 318/21/318 291/49/291 281/22/281
f 297/24/297 281/73/281 280/16/280
f 301/26/301 285/74/285 313/27/313
f 294/29/294 284/36/284 314/30/314
f 292/32/292 286/54/286 283/33/283
f 294/29/294 291/48/291 285/35/285
f 303/37/303 287/50/287 290/38/290
f 305/40/305 304/57/304 288/41/288
f 306/39/306 290/38/290 315/43/315
f 297/45/297 287/75/287 316/46/316
f 280/16/280 281/73/281 291/48/291
f 282/19/282 292/32/292 293/34/293
f 280/16/280 294/29/294 317/31/317
f 313/27/313 285/74/285 291/49/291
f 281/22/281 297/45/297 319/47/319
f 287/50/287 297/24/297 296/25/296
f 289/42/289 288/41/288 298/51/298
f 315/43/315 290/38/290 296/25/296
f 277/52/277 301/26/301 321/28/321
f 314/30/314 284/36/284 300/1/300
f 286/54/286 302/9/302 299/11/299
f 284/36/284 285/35/285 301/55/301
f 271/13/271 306/39/306 323/44/323
f 276/56/276 272/62/272 304/57/304
f 275/58/275 303/37/303 306/39/306
f 316/46/316 287/75/287 303/59/303
f 316/46/316 324/6/324 305/60/305
f 272/62/272 307/14/307 323/44/323
f 314/30/314 322/12/322 302/9/302
f 278/63/278 308/53/308 321/28/321
f 288/41/288 315/43/315 320/15/320
f 312/23/312 319/47/319 295/65/295
f 283/67/283 313/27/313 318/21/318
f 311/17/311 317/31/317 292/32/292
f 319/47/319 316/46/316 289/61/289
f 304/57/304 323/44/323 315/43/315
f 317/31/317 314/30/314 286/54/286
f 299/64/299 321/28/321 313/27/313
f 293/68/293 318/21/318 312/23/312
f 298/51/298 320/15/320 311/17/311
f 310/8/310 307/14/307 272/62/272
f 322/12/322 309/5/309 274/70/274
f 324/6/324 310/8/310 276/69/276
f 274/70/274 309/5/309 308/4/308
f 354/1/354 355/55/355 331/2/331
f 327/3/327 331/72/331 362/4/362
f 378/6/378 357/59/357 329/7/329
f 356/9/356 328/70/328 332/10/332
f 376/12/376 354/1/354 327/3/327
f 364/8/364 329/7/329 325/13/325
f 374/15/374 350/25/350 334/16/334
f 349/18/349 352/51/352 336/19/336
f 372/21/372 345/49/345 335/22/335
f 351/24/351 335/73/335 334/16/334
f 355/26/355 339/74/339 367/27/367
f 348/29/348 338/36/338 368/30/368
f 346/32/346 340/54/340 337/33/337
f 348/29/348 345/48/345 339/35/339
f 357/37/357 341/50/341 344/38/344
f 359/40/359 358/57/358 342/41/342
f 360/39/360 344/38/344 369/43/369
f 351/45/351 341/75/341 370/46/370
f 334/16/334 335/73/335 345/48/345
f 336/19/336 346/32/346 347/34/347
f 334/16/334 348/29/348 371/31/371
f 367/27/367 339/74/339 345/49/345
f 335/22/335 351/45/351 373/47/373
f 341/50/341 351/24/351 350/25/350
f 343/42/343 342/41/342 352/51/352
f 369/43/369 344/38/344 350/25/350
f 331/52/331 355/26/355 375/28/375
f 368/30/368 338/36/338 354/1/354
f 340/54/340 356/9/356 353/11/353
f 338/36/338 339/35/339 355/55/355
f 325/13/325 360/39/360 377/44/377
f 330/56/330 326/62/326 358/57/358
f 329/58/329 357/37/357 360/39/360
f 370/46/370 341/75/341 357/59/357
f 370/46/370 378/6/378 359/60/359
f 326/62/326 361/14/361 377/44/377
f 368/30/368 376/12/376 356/9/356
f 332/63/332 362/53/362 375/28/375
f 342/41/342 369/43/369 374/15/374
f 366/23/366 373/47/373 349/65/349
f 337/67/337 367/27/367 372/21/372
f 365/17/365 371/31/371 346/32/346
f 373/47/373 370/46/370 343/61/343
f 358/57/358 377/44/377 369/43/369
f 371/31/371 368/30/368 340/54/340
f 353/64/353 375/28/375 367/27/367
f 347/68/347 372/21/372 366/23/366
f 352/51/352 374/15/374 365/17/365
f 364/8/364 361/14/361 326/62/326
f 376/12/376 363/5/363 328/70/328
f 378/6/378 364/8/364 330/69/330
f 328/70/328 363/5/363 362/4/362
f 408/1/408 409/55/409 385/2/385
f 381/3/381 385/72/385 416/4/416
f 432/6/432 411/59/411 383/7/383
f 410/9/410 382/70/382 386/10/386
f 430/12/430 408/1/408 381/3/381
f 418/8/418 383/7/383 379/13/379
f 428/15/428 404/25/404 388/16/388
f 403/18/403 406/51/406 390/19/390
f 426/21/426 399/49/399 389/22/389
f 405/24/405 389/73/389 388/16/388
f 409/26/409 393/74/393 421/27/421
f 402/29/402 392/36/392 422/30/422
f 400/32/400 394/54/394 391/33/391
f 402/29/402 399/48/399 393/35/393
f 411/37/411 395/50/395 398/38/398
f 413/40/413 412/57/412 396/41/396
f 414/39/414 398/38/398 423/43/423
f 405/45/405 395/75/395 424/46/424
f 388/16/388 389/73/389 399/48/399
f 390/19/390 400/32/400 401/34/401
f 388/16/388 402/29/402 425/31/425
f 421/27/421 393/74/393 399/49/399
f 389/22/389 405/45/405 427/47/427
f 395/50/395 405/24/405 404/25/404
f 397/42/397 396/41/396 406/51/406
f 423/43/423 398/38/398 404/25/404
f 385/52/385 409/26/409 429/28/429
f 422/30/422 392/36/392 408/1/408
f 394/54/394 410/9/410 407/11/407
f 392/36/392 393/35/393 409/55/409
f 379/13/379 414/39/414 431/44/431
f 384/56/384 380/62/380 412/57/412
f 383/58/383 411/37/411 414/39/414
f 424/46/424 395/75/395 411/59/411
f 424/46/424 432/6/432 413/60/413
f 380/62/380 415/14/415 431/44/431
f 422/30/422 430/12/430 410/9/410
f 386/63/386 416/53/416 429/28/429
f 396/41/396 423/43/423 428/15/428
f 420/23/420 427/47/427 403/65/403
f 391/67/391 421/27/421 426/21/426
f 419/17/419 425/31/425 400/32/400
f 427/47/427 424/46/424 397/61/397
f 412/57/412 431/44/431 423/43/423
f 425/31/425 422/30/422 394/54/394
f 407/64/407 429/28/429 421/27/421
f 401/68/401 426/21/426 420/23/420
f 406/51/406 428/15/428 419/17/419
f 418/8/418 415/14/415 380/62/380
f 430/12/430 417/5/417 382/70/382
f 432/6/432 418/8/418 384/69/384
f 382/70/382 417/5/417 416/4/416
f 462/1/462 463/55/463 439/2/439
f 435/3/435 439/72/439 470/4/470
f 486/6/486 465/59/465 437/7/437
f 464/9/464 436/70/436 440/10/440
f 484/12/484 462/1/462 435/3/435
f 472/8/472 437/7/437 433/13/433
f 482/15/482 458/25/458 442/16/442
f 457/18/457 460/51/460 444/19/444
f 480/21/480 453/49/453 443/22/443
f 459/24/459 443/73/443 442/16/442
f 463/26/463 447/74/447 475/27/475
f 456/29/456 446/36/446 476/30/476
f 454/32/454 448/54/448 445/33/445
f 456/29/456 453/48/453 447/35/447
f 465/37/465 449/50/449 452/38/452
f 467/40/467 466/57/466 450/41/450
f 468/39/468 452/38/452 477/43/477
f 459/45/459 449/75/449 478/46/478
f 442/16/442 443/73/443 453/48/453
f 444/19/444 454/32/454 455/34/455
f 442/16/442 456/29/456 479/31/479
f 475/27/475 447/74/447 453/49/453
f 443/22/443 459/45/459 481/47/481
f 449/50/449 459/24/459 458/25/458
f 451/42/451 450/41/450 460/51/460
f 477/43/477 452/38/452 458/25/458
f 439/52/439 463/26/463 483/28/483
f 476/30/476 446/36/446 462/1/462
f 448/54/448 464/9/464 461/11/461
f 446/36/446 447/35/447 463/55/463
f 433/13/433 468/39/468 485/44/485
f 438/56/438 434/62/434 466/57/466
f 437/58/437 465/37/465 468/39/468
f 478/46/478 449/75/449 465/59/465
f 478/46/478 486/6/486 467/60/467
f 434/62/434 469/14/469 485/44/485
f 476/30/476 484/12/484 464/9/464
f 440/63/440 470/53/470 483/28/483
f 450/41/450 477/43/477 482/15/482
f 474/23/474 481/47/481 457/65/457
f 445/67/445 475/27/475 480/21/480
f 473/17/473 479/31/479 454/32/454
f 481/47/481 478/46/478 451/61/451
f 466/57/466 485/44/485 477/43/477
f 479/31/479 476/30/476 448/54/448
f 461/64/461 483/28/483 475/27/475
f 455/68/455 480/21/480 474/23/474
f 460/51/460 482/15/482 473/17/473
f 472/8/472 469/14/469 434/62/434
f 484/12/484 471/5/471 436/70/436
f 486/6/486 472/8/472 438/69/438
f 436/70/436 471/5/471 470/4/470
f 516/1/516 517/55/517 493/2/493
f 489/3/489 493/72/493 524/4/524
f 540/6/540 519/59/519 491/7/491
f 518/9/518 490/70/490 494/10/494
f 538/12/538 516/1/516 489/3/489
f 526/8/526 491/7/491 487/13/487
f 536/15/536 512/25/512 496/16/496
f 511/18/511 514/51/514 498/19/498
f 534/21/534 507/49/507 497/22/497
f 513/24/513 497/73/497 496/16/496
f 517/26/517 501/74/501 529/27/529
f 510/29/510 500/36/500 530/30/530
f 508/32/508 502/54/502 499/33/499
f 510/29/510 507/48/507 501/35/501
f 519/37/519 503/50/503 506/38/506
f 521/40/521 520/57/520 504/41/504
f 522/39/522 506/38/506 531/43/531
f 513/45/513 503/75/503 532/46/532
f 496/16/496 497/73/497 507/48/507
f 498/19/498 508/32/508 509/34/509
f 496/16/496 510/29/510 533/31/533
f 529/27/529 501/74/501 507/49/507
f 497/22/497 513/45/513 535/47/535
f 503/50/503 513/24/513 512/25/512
f 505/42/505 504/41/504 514/51/514
f 531/43/531 506/38/506 512/25/512
f 493/52/493 517/26/517 537/28/537
f 530/30/530 500/36/500 516/1/516
f 502/54/502 518/9/518 515/11/515
f 500/36/500 501/35/501 517/55/517
f 487/13/487 522/39/522 539/44/539
f 492/56/492 488/62/488 520/57/520
f 491/58/491 519/37/519 522/39/522
f 532/46/532 503/75/503 519/59/519
f 532/46/532 540/6/540 521/60/521
f 488/62/488 523/14/523 539/44/539
f 530/30/530 538/12/538 518/9/518
f 494/63/494 524/53/524 537/28/537
f 504/41/504 531/43/531 536/15/536
f 528/23/528 535/47/535 511/65/511
f 499/67/499 529/27/529 534/21/534
f 527/17/527 533/31/533 508/32/508
f 535/47/535 532/46/532 505/61/505
f 520/57/520 539/44/539 531/43/531
f 533/31/533 530/30/530 502/54/502
f 515/64/515 537/28/537 529/27/529
f 509/68/509 534/21/534 528/23/528
f 514/51/514 536/15/536 527/17/527
f 526/8/526 523/14/523 488/62/488
f 538/12/538 525/5/525 490/70/490
f 540/6/540 526/8/526 492/69/492
f 490/70/490 525/5/525 524/4/524
f 570/1/570 571/55/571 547/2/547
f 543/3/543 547/72/547 578/4/578
f 594/6/594 573/59/573 545/7/545
f 572/9/572 544/70/544 548/10/548
f 592/12/592 570/1/570 543/3/543
f 580/8/580 545/7/545 541/13/541
f 590/15/590 566/25/566 550/16/550
f 565/18/565 568/51/568 552/19/552
f 588/21/588 561/49/561 551/22/551
f 567/24/567 551/73/551 550/16/550
f 571/26/571 555/74/555 583/27/583
f 564/29/564 554/36/554 584/30/584
f 562/32/562 556/54/556 553/33/553
f 564/29/564 561/48/561 555/35/555
f 573/37/573 557/50/557 560/38/560
f 575/40/575 574/57/574 558/41/558
f 576/39/576 560/38/560 585/43/585
f 567/45/567 557/75/557 586/46/586
f 550/16/550 551/73/551 561/48/561
f 552/19/552 562/32/562 563/34/563
f 550/16/550 564/29/564 587/31/587
f 583/27/583 555/74/555 561/49/561
f 551/22/551 567/45/567 589/47/589
f 557/50/557 567/24/567 566/25/566
f 559/42/559 558/41/558 568/51/568
f 585/43/585 560/38/560 566/25/566
f 547/52/547 571/26/571 591/28/591
f 584/30/584 554/36/554 570/1/570
f 556/54/556 572/9/572 569/11/569
f 554/36/554 555/35/555 571/55/571
f 541/13/541 576/39/576 593/44/593
f 546/56/546 542/62/542 574/57/574
f 545/58/545 573/37/573 576/39/576
f 586/46/586 557/75/557 573/59/573
f 586/46/586 594/6/594 575/60/575
f 542/62/542 577/14/577 593/44/593
f 584/30/584 592/12/592 572/9/572
f 548/63/548 578/53/578 591/28/591
f 558/41/558 585/43/585 590/15/590
f 582/23/582 589/47/589 565/65/565
f 553/67/553 583/27/583 588/21/588
f 581/17/581 587/31/587 562/32/562
f 589/47/589 586/46/586 559/61/559
f 574/57/574 593/44/593 585/43/585
f 587/31/587 584/30/584 556/54/556
f 569/64/569 591/28/591 583/27/583
f 563/68/563 588/21/588 582/23/582
f 568/51/568 590/15/590 581/17/581
f 580/8/580 577/14/577 542/62/542
f 592/12/592 579/5/579 544/70/544
f 594/6/594 580/8/580 546/69/546
f 544/70/544 579/5/579 578/4/578
f 624/1/624 625/55/625 601/2/601
f 597/3/597 601/72/601 632/4/632
f 648/6/648 627/59/627 599/7/599
f 626/9/626 598/70/598 602/10/602
f 646/12/646 624/1/624 597/3/597
f 634/8/634 599/7/599 595/13/595
f 644/15/644 620/25/620 604/16/604
f 619/18/619 622/51/622 606/19/606
f 642/21/642 615/49/615 605/22/605
f 621/24/621 605/73/605 604/16/604
f 625/26/625 609/74/609 637/27/637
f 618/29/618 608/36/608 638/30/638
f 616/32/616 610/54/610 607/33/607
f 618/29/618 615/48/615 609/35/609
f 627/37/627 611/50/611 614/38/614
f 629/40/629 628/57/628 612/41/612
f 630/39/630 614/38/614 639/43/639
f 621/45/621 611/75/611 640/46/640
f 604/16/604 605/73/605 615/48/615
f 606/19/606 616/32/616 617/34/617
f 604/16/604 618/29/618 641/31/641
f 637/27/637 609/74/609 615/49/615
f 605/22/605 621/45/621 643/47/643
f 611/50/611 621/24/621 620/25/620
f 613/42/613 612/41/612 622/51/622
f 639/43/639 614/38/614 620/25/620
f 601/52/601 625/26/625 645/28/645
f 638/30/638 608/36/608 624/1/624
f 610/54/610 626/9/626 623/11/623
f 608/36/608 609/35/609 625/55/625
f 595/13/595 630/39/630 647/44/647
f 600/56/600 596/62/596 628/57/628
f 599/58/599 627/37/627 630/39/630
f 640/46/640 611/75/611 627/59/627
f 640/46/640 648/6/648 629/60/629
f 596/62/596 631/14/631 647/44/647
f 638/30/638 646/12/646 626/9/626
f 602/63/602 632/53/632 645/28/645
f 612/41/612 639/43/639 644/15/644
f 636/23/636 643/47/643 619/65/619
f 607/67/607 637/27/637 642/21/642
f 635/17/635 641/31/641 616/32/616
f 643/47/643 640/46/640 613/61/613
f 628/57/628 647/44/647 639/43/639
f 641/31/641 638/30/638 610/54/610
f 623/64/623 645/28/645 637/27/637
f 617/68/617 642/21/642 636/23/636
f 622/51/622 644/15/644 635/17/635
f 634/8/634 631/14/631 596/62/596
f 646/12/646 633/5/633 598/70/598
f 648/6/648 634/8/634 600/69/600
f 598/70/598 633/5/633 632/4/632
f 678/1/678 679/55/679 655/2/655
f 651/3/651 655/72/655 686/4/686
f 702/6/702 681/59/681 653/7/653
f 680/9/680 652/70/652 656/10/656
f 700/12/700 678/1/678 651/3/651
f 688/8/688 653/7/653 649/13/649
f 698/15/698 674/25/674 658/16/658
f 673/18/673 676/51/676 660/19/660
f 696/21/696 669/49/669 659/22/659
f 675/24/675 659/73/659 658/16/658
f 679/26/679 663/74/663 691/27/691
f 672/29/672 662/36/662 692/30/692
f 670/32/670 664/54/664 661/33/661
f 672/29/672 669/48/669 663/35/663
f 681/37/681 665/50/665 668/38/668
f 683/40/683 682/57/682 666/41/666
f 684/39/684 668/38/668 693/43/693
f 675/45/675 665/75/665 694/46/694
f 658/16/658 659/73/659 669/48/669
f 660/19/660 670/32/670 671/34/671
f 658/16/658 672/29/672 695/31/695
f 691/27/691 663/74/663 669/49/669
f 659/22/659 675/45/675 697/47/697
f 665/50/665 675/24/675 674/25/674
f 667/42/667 666/41/666 676/51/676
f 693/43/693 668/38/668 674/25/674
f 655/52/655 679/26/679 699/28/699
f 692/30/692 662/36/662 678/1/678
f 664/54/664 680/9/680 677/11/677
f 662/36/662 663/35/663 679/55/679
f 649/13/649 684/39/684 701/44/701
f 654/56/654 650/62/650 682/57/682
f 653/58/653 681/37/681 684/39/684
f 694/46/694 665/75/665 681/59/681
f 694/46/694 702/6/702 683/60/683
f 650/62/650 685/14/685 701/44/701
f 692/30/692 700/12/700 680/9/680
f 656/63/656 686/53/686 699/28/699
f 666/41/666 693/43/693 698/15/698
f 690/23/690 697/47/697 673/65/673
f 661/67/661 691/27/691 696/21/696
f 689/17/689 695/31/695 670/32/670
f 697/47/697 694/46/694 667/61/667
f 682/57/682 701/44/701 693/43/693
f 695/31/695 692/30/692 664/54/664
f 677/64/677 699/28/699 691/27/691
f 671/68/671 696/21/696 690/23/690
f 676/51/676 698/15/698 689/17/689
f 688/8/688 685/14/685 650/62/650
f 700/12/700 687/5/687 652/70/652
f 702/6/702 688/8/688 654/69/654
f 652/70/652 687/5/687 686/4/686
