# Blender 4.4.1
# www.blender.org
mtllib HitIce.mtl
o Cube
v 0.674762 1.000000 -0.674762
v 0.674482 -1.042310 -0.674438
v 0.674762 1.000000 0.674762
v 0.674762 -1.000000 0.674762
v -0.674762 1.000000 -0.674762
v -0.674762 -1.000000 -0.674762
v -0.674762 1.000000 0.674762
v -0.674482 -0.957690 0.674438
v 0.000000 -1.000000 -0.695342
v 0.000000 1.000000 0.695342
v 0.000000 -1.000000 0.695342
v 0.000000 1.000000 -0.695342
v -0.695342 -1.000000 0.000000
v 0.695342 1.000000 0.000000
v -0.695342 1.000000 0.000000
v 0.695342 -1.000000 0.000000
v 0.000000 -2.234390 0.000000
v 0.000000 2.234390 0.000000
v 1.000000 0.000000 -1.000000
v -1.000000 0.000000 1.000000
v 1.000000 0.000000 1.000000
v -1.000000 0.000000 -1.000000
v 0.000000 0.000000 -1.004774
v 0.000000 0.000000 1.004774
v 1.004774 0.000000 0.000000
v -1.004774 0.000000 0.000000
vn -0.8713 0.4908 -0.0000
vn -0.8710 0.4906 0.0266
vn -0.0000 0.3052 0.9523
vn -0.0176 0.3026 0.9530
vn -0.0045 0.3106 0.9505
vn -0.9523 0.3052 -0.0000
vn -0.9530 0.3026 -0.0176
vn -0.9505 0.3106 -0.0045
vn 0.8712 -0.4907 0.0151
vn 0.8712 -0.4907 0.0154
vn 0.8710 -0.4906 0.0266
vn 0.9523 0.3052 -0.0000
vn 0.9530 0.3026 0.0176
vn 0.9505 0.3106 0.0045
vn -0.0000 0.3052 -0.9523
vn 0.0176 0.3026 -0.9530
vn 0.0045 0.3106 -0.9505
vn -0.0176 0.3026 -0.9530
vn -0.0045 0.3106 -0.9505
vn -0.0151 -0.4907 0.8712
vn -0.0163 -0.4907 0.8712
vn -0.0577 -0.4900 0.8698
vn 0.0176 0.3026 0.9530
vn 0.0045 0.3106 0.9505
vn -0.0000 0.4908 0.8713
vn 0.0266 0.4906 0.8710
vn 0.0266 0.4906 -0.8710
vn -0.0000 0.4908 -0.8713
vn -0.0266 -0.4906 -0.8710
vn -0.0154 -0.4907 -0.8712
vn -0.0150 -0.4907 -0.8712
vn 0.9530 0.3026 -0.0176
vn 0.9505 0.3106 -0.0045
vn 0.8713 -0.4908 0.0038
vn -0.9530 0.3026 0.0176
vn -0.9505 0.3106 0.0045
vn -0.8710 0.4906 -0.0266
vn -0.9509 -0.3084 0.0278
vn -0.9510 -0.3090 0.0037
vn -0.9553 -0.2956 0.0087
vn 0.9547 -0.2974 -0.0080
vn 0.9534 -0.3016 0.0033
vn 0.9553 -0.2956 0.0087
vn 0.0176 -0.3026 0.9530
vn -0.0037 -0.3090 0.9510
vn -0.0087 -0.2956 0.9553
vn -0.0176 -0.3026 -0.9530
vn -0.0033 -0.3016 -0.9534
vn -0.0087 -0.2956 -0.9553
vn 0.0080 -0.2974 -0.9547
vn 0.9530 -0.3026 0.0176
vn -0.9530 -0.3026 -0.0176
vn -0.0278 -0.3084 0.9509
vn -0.0266 0.4906 0.8710
vn -0.0266 0.4906 -0.8710
vn 0.8713 0.4908 -0.0000
vn 0.8710 0.4906 0.0266
vn 0.8710 0.4906 -0.0266
vn -0.0038 -0.4908 -0.8713
vn -0.8712 -0.4907 0.0163
vn -0.8710 -0.4906 -0.0266
vn -0.8712 -0.4907 0.0151
vn -0.8698 -0.4900 0.0576
vn 0.0266 -0.4906 0.8710
vn -0.0000 0.2956 0.9553
vn -0.9553 0.2956 -0.0000
vn 0.9553 0.2956 -0.0000
vn -0.0000 0.2956 -0.9553
vn -0.9463 -0.3232 0.0045
vn 0.9541 -0.2994 -0.0046
vn 0.0045 -0.3106 0.9505
vn -0.0045 -0.3106 -0.9505
vn 0.0046 -0.2994 -0.9541
vn 0.9505 -0.3106 0.0045
vn -0.9505 -0.3106 -0.0045
vn -0.0045 -0.3232 0.9463
vt 0.750000 0.625000
vt 0.875000 0.625000
vt 0.875000 0.750000
vt 0.500000 0.875000
vt 0.625000 1.000000
vt 0.500000 1.000000
vt 0.500000 0.125000
vt 0.625000 0.250000
vt 0.500000 0.250000
vt 0.250000 0.625000
vt 0.375000 0.625000
vt 0.375000 0.750000
vt 0.500000 0.625000
vt 0.625000 0.750000
vt 0.500000 0.750000
vt 0.500000 0.375000
vt 0.625000 0.500000
vt 0.500000 0.500000
vt 0.250000 0.750000
vt 0.125000 0.750000
vt 0.750000 0.750000
vt 0.750000 0.500000
vt 0.125000 0.500000
vt 0.250000 0.500000
vt 0.375000 0.500000
vt 0.625000 0.000000
vt 0.500000 0.000000
vt 0.875000 0.500000
vt 0.375000 0.000000
vt 0.375000 0.125000
vt 0.375000 0.875000
vt 0.375000 0.250000
vt 0.375000 0.375000
vt 0.375000 1.000000
vt 0.625000 0.625000
vt 0.125000 0.625000
vt 0.625000 0.875000
vt 0.625000 0.125000
vt 0.625000 0.375000
s 1
usemtl Material
f 18/1/1 15/2/1 7/3/2
f 24/4/3 7/5/4 20/6/5
f 26/7/6 5/8/7 22/9/8
f 17/10/9 16/11/10 4/12/11
f 25/13/12 3/14/13 21/15/14
f 23/16/15 1/17/16 19/18/17
f 5/8/18 23/16/15 22/9/19
f 17/10/20 11/19/21 8/20/22
f 3/14/23 24/4/3 21/15/24
f 18/1/25 10/21/25 3/14/26
f 1/17/27 12/22/28 18/1/28
f 6/23/29 9/24/30 17/10/31
f 1/17/32 25/13/12 19/18/33
f 2/25/34 16/11/10 17/10/9
f 7/26/35 26/7/6 20/27/36
f 5/28/37 15/2/1 18/1/1
f 8/29/38 26/7/39 13/30/40
f 2/25/41 25/13/42 16/11/43
f 4/12/44 24/4/45 11/31/46
f 6/32/47 23/16/48 9/33/49
f 23/16/48 2/25/50 9/33/49
f 25/13/42 4/12/51 16/11/43
f 26/7/39 6/32/52 13/30/40
f 24/4/45 8/34/53 11/31/46
f 10/21/25 18/1/25 7/3/54
f 12/22/28 5/28/55 18/1/28
f 14/35/56 18/1/56 3/14/57
f 14/35/56 1/17/58 18/1/56
f 9/24/30 2/25/59 17/10/31
f 13/36/60 6/23/61 17/10/62
f 13/36/60 17/10/62 8/20/63
f 11/19/21 17/10/20 4/12/64
f 24/4/3 10/37/65 7/5/4
f 26/7/6 15/38/66 5/8/7
f 25/13/12 14/35/67 3/14/13
f 23/16/15 12/39/68 1/17/16
f 5/8/18 12/39/68 23/16/15
f 3/14/23 10/37/65 24/4/3
f 1/17/32 14/35/67 25/13/12
f 7/26/35 15/38/66 26/7/6
f 8/29/38 20/27/69 26/7/39
f 2/25/41 19/18/70 25/13/42
f 4/12/44 21/15/71 24/4/45
f 6/32/47 22/9/72 23/16/48
f 23/16/48 19/18/73 2/25/50
f 25/13/42 21/15/74 4/12/51
f 26/7/39 22/9/75 6/32/52
f 24/4/45 20/6/76 8/34/53
