# Blender 4.4.1
# www.blender.org
mtllib Key.mtl
o Cube.001
v 0.485458 1.155250 -0.954760
v 0.297009 -1.000000 -0.297009
v 0.485458 1.155250 0.954760
v 0.297009 -1.000000 0.297009
v -0.485458 1.155250 -0.954760
v -0.297009 -1.000000 -0.297009
v -0.485458 1.155250 0.954760
v -0.297009 -1.000000 0.297009
v -0.485458 -0.859107 0.293209
v 0.485458 -0.859107 0.293209
v 0.485458 -0.859107 -0.293209
v -0.485458 -0.859107 -0.293209
v -0.297009 -7.013340 0.297009
v 0.297009 -7.013340 0.297009
v 0.297009 -7.013340 -0.297009
v -0.297009 -7.013340 -0.297009
v 0.485458 1.259277 1.276355
v 0.485458 -1.058358 0.391971
v 0.485458 1.259277 -1.276355
v 0.485458 -1.058358 -0.391971
v -0.485458 1.259277 -1.276355
v -0.485458 -1.058358 -0.391971
v -0.485458 1.259277 1.276355
v -0.485458 -1.058358 0.391971
v 0.485458 1.981200 0.000000
v -0.485458 1.981200 0.000000
v 0.485458 1.781949 0.000000
v -0.485458 1.781949 0.000000
v 0.485458 -0.293192 1.052892
v -0.485458 -0.293192 1.052892
v 0.485458 -0.293192 0.787602
v -0.485458 -0.293192 0.787602
v 0.485458 -0.293192 -1.052892
v -0.485458 -0.293192 -1.052892
v 0.485458 -0.293192 -0.787602
v -0.485458 -0.293192 -0.787602
v 0.485458 1.809042 0.775184
v 0.485458 1.609791 0.579866
v -0.485458 1.809042 0.775184
v -0.485458 1.609791 0.579866
v -0.485458 1.809042 -0.775184
v -0.485458 1.609791 -0.579866
v 0.485458 1.809042 -0.775184
v 0.485458 1.609791 -0.579866
v -0.485458 0.568601 1.314738
v -0.485458 0.516588 0.983473
v 0.485458 0.568601 1.314738
v 0.485458 0.516588 0.983473
v 0.485458 0.568601 -1.314738
v -0.485458 0.568601 -1.314738
v 0.485458 0.516588 -0.983473
v -0.485458 0.516588 -0.983473
v 0.485458 0.137704 1.286610
v 0.485458 0.111698 0.962432
v -0.485458 0.137704 1.286610
v -0.485458 0.111698 0.962432
v 0.485458 0.137704 -1.286610
v -0.485458 0.137704 -1.286610
v 0.485458 0.111698 -0.962432
v -0.485458 0.111698 -0.962432
v -0.485458 1.938076 0.387592
v -0.485458 1.738825 0.289933
v 0.485458 1.938076 0.387592
v 0.485458 1.738825 0.289933
v 0.485458 1.938076 -0.387592
v 0.485458 1.738825 -0.289933
v -0.485458 1.938076 -0.387592
v -0.485458 1.738825 -0.289933
v 0.485458 1.577045 1.081866
v 0.485458 1.425406 0.809276
v -0.485458 1.577045 1.081866
v -0.485458 1.425406 0.809276
v -0.485458 1.577045 -1.081866
v -0.485458 1.425406 -0.809276
v 0.485458 1.577045 -1.081866
v 0.485458 1.425406 -0.809276
v -0.485458 0.913939 1.326502
v -0.485458 0.835919 0.992272
v 0.485458 0.913939 1.326502
v 0.485458 0.835919 0.992272
v 0.485458 0.913939 -1.326502
v -0.485458 0.913939 -1.326502
v 0.485458 0.835919 -0.992272
v -0.485458 0.835919 -0.992272
v 0.485458 -0.675775 0.779100
v 0.485458 -0.576150 0.582796
v -0.485458 -0.675775 0.779100
v -0.485458 -0.576150 0.582796
v 0.485458 -0.675775 -0.779100
v -0.485458 -0.675775 -0.779100
v 0.485458 -0.576150 -0.582796
v -0.485458 -0.576150 -0.582796
v 0.000000 1.307307 1.340547
v 0.000000 -1.342194 0.411685
v 0.000000 1.307307 -1.340547
v 0.000000 -1.342194 -0.411685
v 0.000000 -1.149301 0.344494
v 0.000000 -1.149301 -0.344494
v 0.000000 -7.032356 0.355234
v 0.000000 -7.032356 -0.355234
v 0.000000 2.132602 0.000000
v 0.000000 -0.467463 1.105846
v 0.000000 -0.467463 -1.105846
v 0.000000 1.935793 0.814171
v 0.000000 1.935793 -0.814171
v 0.000000 0.517732 1.380861
v 0.000000 0.517732 -1.380861
v 0.000000 0.025134 1.351318
v 0.000000 0.025134 -1.351318
v 0.000000 2.083304 0.407085
v 0.000000 2.083304 -0.407085
v 0.000000 1.670576 1.136277
v 0.000000 1.670576 -1.136277
v 0.000000 0.912519 1.393216
v 0.000000 0.912519 -1.393216
v 0.000000 -0.904829 0.818284
v 0.000000 -0.904829 -0.818284
v -0.242729 1.300209 1.328456
v -0.242729 -1.365672 -0.407972
v -0.148505 -1.168433 -0.341387
v -0.148505 -7.026134 -0.341387
v -0.242729 -0.485533 1.095871
v -0.242729 0.505753 1.368406
v -0.242729 0.010110 1.339130
v -0.242729 0.902981 1.380650
v -0.242729 -0.925603 0.810903
v -0.242729 -1.365672 0.407972
v -0.242729 1.300209 -1.328456
v -0.148505 -1.168433 0.341387
v -0.148505 -7.026134 0.341387
v -0.242729 2.130607 -0.000000
v -0.242729 -0.485533 -1.095871
v -0.242729 1.932580 0.806827
v -0.242729 1.932580 -0.806827
v -0.242729 0.505753 -1.368406
v -0.242729 0.010110 -1.339130
v -0.242729 2.081003 0.403414
v -0.242729 2.081003 -0.403414
v -0.242729 1.665724 1.126028
v -0.242729 1.665724 -1.126028
v -0.242729 0.902981 -1.380650
v -0.242729 -0.925603 -0.810903
v 0.242729 -1.365672 0.407972
v 0.242729 1.300209 -1.328456
v 0.148505 -1.168433 0.341387
v 0.148505 -7.026134 0.341387
v 0.242729 2.130607 -0.000000
v 0.242729 -0.485533 -1.095871
v 0.242729 1.932580 0.806827
v 0.242729 1.932580 -0.806827
v 0.242729 0.505753 -1.368406
v 0.242729 0.010110 -1.339130
v 0.242729 2.081003 0.403414
v 0.242729 2.081003 -0.403414
v 0.242729 1.665724 1.126028
v 0.242729 1.665724 -1.126028
v 0.242729 0.902981 -1.380650
v 0.242729 -0.925603 -0.810903
v 0.242729 1.300209 1.328456
v 0.242729 -1.365672 -0.407972
v 0.148505 -1.168433 -0.341387
v 0.148505 -7.026134 -0.341387
v 0.242729 -0.485533 1.095871
v 0.242729 0.505753 1.368406
v 0.242729 0.010110 1.339130
v 0.242729 0.902981 1.380650
v 0.242729 -0.925603 0.810903
v -0.297009 -5.390428 -0.297009
v -0.297009 -5.390428 0.297009
v 0.297009 -5.390428 0.297009
v 0.297009 -5.390428 -0.297009
v 0.000000 -5.391704 0.355234
v 0.000000 -5.391704 -0.355234
v -0.148505 -5.393749 -0.341387
v -0.148505 -5.393749 0.341387
v 0.148505 -5.393749 0.341387
v 0.148505 -5.393749 -0.341387
v -0.297009 -6.106966 -0.297009
v 0.297009 -6.106966 0.297009
v 0.000000 -6.116755 -0.355234
v -0.148505 -6.113572 -0.341387
v -0.148505 -6.113572 0.341387
v 0.148505 -6.113572 0.341387
v 0.148505 -6.113572 -0.341387
v -0.297009 -6.106966 0.297009
v 0.297009 -6.106966 -0.297009
v -0.297009 -6.724483 -0.297009
v 0.297009 -6.724483 0.297009
v 0.000000 -6.742229 0.355234
v 0.000000 -6.742229 -0.355234
v -0.148505 -6.736433 -0.341387
v -0.148505 -6.736433 0.341387
v 0.148505 -6.736433 0.341387
v 0.148505 -6.736433 -0.341387
v -0.297009 -6.724483 0.297009
v 0.297009 -6.724483 -0.297009
v 0.148505 -6.113572 1.192274
v 0.000000 -6.116755 1.206121
v -0.148505 -5.393749 1.192274
v 0.148505 -5.393749 1.192274
v -0.148505 -6.113572 1.192274
v 0.000000 -5.391704 1.206121
v 0.000000 -6.742229 1.206121
v -0.148505 -6.736433 1.192274
v 0.148505 -6.736433 1.192274
v -0.531708 0.045014 0.532619
v -0.488725 1.178228 0.494137
v 0.000000 0.586490 0.921309
v -0.662453 -0.293597 0.000000
v -0.662453 1.358481 0.000000
v -0.900610 0.586490 0.000000
v -0.645885 0.593651 0.662453
v 0.000000 -0.293597 0.662453
v 0.000000 1.358481 0.662453
v 0.000000 1.556695 0.000000
v 0.000000 -0.860480 0.000000
v -0.597080 -0.171238 0.266309
v -0.575589 1.321663 0.247068
v -0.808385 0.594551 0.331227
v 0.000000 1.501776 0.331221
v 0.000000 -0.656577 0.331227
v -0.575589 0.885939 0.610056
v 0.000000 0.972485 0.865142
v -0.846039 0.972485 0.000000
v -0.763474 0.962901 0.264727
v -0.331227 0.590662 0.791881
v -0.244362 1.293670 0.578295
v -0.331227 -0.618990 0.000000
v -0.265854 -0.149740 0.597536
v -0.331227 1.515188 0.000000
v -0.298540 -0.449912 0.298768
v -0.287794 1.467655 0.289147
v -0.287794 0.942166 0.737599
v -0.614231 0.319332 0.624411
v -0.849789 0.146447 0.000000
v 0.000000 0.146447 0.861936
v -0.753482 0.211657 0.259261
v -0.259485 0.220461 0.743173
v 0.531708 0.045014 0.532619
v 0.488725 1.178228 0.494137
v 0.662453 -0.293597 0.000000
v 0.662453 1.358481 0.000000
v 0.900610 0.586490 0.000000
v 0.645885 0.593651 0.662453
v 0.597080 -0.171238 0.266309
v 0.575589 1.321663 0.247068
v 0.808385 0.594551 0.331227
v 0.575589 0.885939 0.610056
v 0.846039 0.972485 0.000000
v 0.763474 0.962901 0.264727
v 0.331227 0.590662 0.791881
v 0.244362 1.293670 0.578295
v 0.331227 -0.618990 0.000000
v 0.265854 -0.149740 0.597536
v 0.331227 1.515188 0.000000
v 0.298540 -0.449912 0.298768
v 0.287794 1.467655 0.289147
v 0.287794 0.942166 0.737599
v 0.614231 0.319332 0.624411
v 0.849789 0.146447 0.000000
v 0.753482 0.211657 0.259261
v 0.259485 0.220461 0.743173
v -0.531708 0.045014 -0.532619
v -0.488725 1.178228 -0.494137
v 0.000000 0.586490 -0.921309
v -0.645885 0.593651 -0.662453
v 0.000000 -0.293597 -0.662453
v 0.000000 1.358481 -0.662453
v -0.597080 -0.171238 -0.266309
v -0.575589 1.321663 -0.247068
v -0.808385 0.594551 -0.331227
v 0.000000 1.501776 -0.331221
v 0.000000 -0.656577 -0.331227
v -0.575589 0.885939 -0.610056
v 0.000000 0.972485 -0.865142
v -0.763474 0.962901 -0.264727
v -0.331227 0.590662 -0.791881
v -0.244362 1.293670 -0.578295
v -0.265854 -0.149740 -0.597536
v -0.298540 -0.449912 -0.298768
v -0.287794 1.467655 -0.289147
v -0.287794 0.942166 -0.737599
v -0.614231 0.319332 -0.624411
v 0.000000 0.146447 -0.861936
v -0.753482 0.211657 -0.259261
v -0.259485 0.220461 -0.743173
v 0.531708 0.045014 -0.532619
v 0.488725 1.178228 -0.494137
v 0.645885 0.593651 -0.662453
v 0.597080 -0.171238 -0.266309
v 0.575589 1.321663 -0.247068
v 0.808385 0.594551 -0.331227
v 0.575589 0.885939 -0.610056
v 0.763474 0.962901 -0.264727
v 0.331227 0.590662 -0.791881
v 0.244362 1.293670 -0.578295
v 0.265854 -0.149740 -0.597536
v 0.298540 -0.449912 -0.298768
v 0.287794 1.467655 -0.289147
v 0.287794 0.942166 -0.737599
v 0.614231 0.319332 -0.624411
v 0.753482 0.211657 -0.259261
v 0.259485 0.220461 -0.743173
vn -0.3391 0.6076 0.7182
vn -0.2627 0.3236 0.9090
vn -0.3668 0.6152 0.6978
vn -0.8020 -0.0000 -0.5974
vn -0.6706 -0.5639 0.4820
vn -0.8020 -0.0000 0.5974
vn -0.2197 0.0488 0.9743
vn -0.2458 0.3148 0.9168
vn -0.2149 0.0569 0.9750
vn -0.0000 0.9261 -0.3773
vn -0.0000 0.6532 -0.7572
vn 0.5061 -0.4525 -0.7342
vn 0.5782 -0.4974 -0.6468
vn 0.6209 -0.5085 -0.5966
vn -0.0000 -0.3007 -0.9537
vn -0.0000 -0.6395 -0.7688
vn 0.0886 -0.3199 -0.9433
vn -0.0087 -0.7994 -0.6008
vn 0.0883 -0.2805 -0.9558
vn -0.0255 -0.8734 0.4863
vn -0.0255 -0.8735 -0.4862
vn -0.0886 -0.3199 0.9433
vn 0.0087 -0.7994 0.6008
vn -0.0883 -0.2805 0.9558
vn 0.0255 -0.8734 -0.4863
vn 0.0255 -0.8735 0.4862
vn 0.6706 -0.5639 -0.4820
vn 0.1761 -0.6851 0.7068
vn 0.1761 -0.6852 -0.7068
vn 0.8020 -0.0000 0.5974
vn 0.8020 -0.0000 -0.5974
vn 0.1905 -0.0000 -0.9817
vn -0.2239 -0.0000 0.9746
vn -0.1761 -0.6852 0.7068
vn 1.0000 -0.0000 -0.0000
vn -1.0000 -0.0000 -0.0000
vn -0.0000 -0.3007 0.9537
vn -0.0000 -0.0447 0.9990
vn -0.0000 0.9261 0.3773
vn -0.0000 -1.0000 -0.0000
vn -0.0000 -0.9602 0.2794
vn -0.5095 0.8379 -0.1958
vn -0.5195 0.8545 -0.0000
vn -0.5242 0.8516 -0.0000
vn -0.0000 0.4943 -0.8693
vn -0.0000 0.2277 -0.9737
vn -0.0000 0.2278 -0.9737
vn -0.5061 -0.4525 0.7342
vn -0.5782 -0.4974 0.6468
vn -0.6209 -0.5085 0.5966
vn -0.0000 0.4943 0.8693
vn -0.0000 0.6532 0.7572
vn 0.2294 -0.0481 -0.9721
vn 0.3079 -0.2079 -0.9284
vn 0.3614 -0.2949 -0.8846
vn -0.0000 -0.8536 -0.5209
vn -0.0000 -0.9602 -0.2794
vn -0.5002 0.8430 0.1980
vn -0.4611 0.7779 0.4269
vn -0.5095 0.8379 0.1958
vn -0.3668 0.6152 -0.6978
vn -0.4406 0.7815 -0.4418
vn -0.4611 0.7779 -0.4269
vn -0.0000 -0.8536 0.5209
vn -0.0000 -0.6395 0.7688
vn -0.0000 0.0397 -0.9992
vn -0.0000 -0.0447 -0.9990
vn -0.2294 -0.0481 0.9721
vn -0.3079 -0.2079 0.9284
vn -0.3614 -0.2949 0.8846
vn -0.0000 0.0397 0.9992
vn -0.0000 0.2278 0.9737
vn -0.0000 0.2277 0.9737
vn 0.4685 -0.4394 -0.7664
vn -0.4685 -0.4394 0.7664
vn 0.2197 0.0488 -0.9743
vn 0.2257 -0.0448 -0.9732
vn -0.5002 0.8430 -0.1980
vn -0.4406 0.7815 0.4418
vn -0.2627 0.3236 -0.9090
vn -0.3391 0.6076 -0.7182
vn -0.2257 -0.0448 0.9732
vn 0.6597 -0.5165 -0.5459
vn 0.6704 -0.5010 -0.5472
vn -0.6597 -0.5165 0.5459
vn -0.6704 -0.5010 0.5472
vn 0.3668 0.6152 -0.6978
vn 0.4406 0.7815 -0.4418
vn 0.3391 0.6076 -0.7182
vn 0.0497 -0.6786 -0.7328
vn -0.0000 -0.6094 -0.7928
vn -0.0000 -0.6809 -0.7324
vn -0.0497 -0.6786 0.7328
vn -0.0000 -0.6094 0.7928
vn -0.0000 -0.6809 0.7324
vn -0.0534 0.0478 -0.9974
vn -0.0000 -0.0450 -0.9990
vn -0.0487 -0.0456 -0.9978
vn 0.0534 0.0478 0.9974
vn -0.0000 -0.0450 0.9990
vn 0.0487 -0.0456 0.9978
vn -0.0000 0.3162 -0.9487
vn 0.0449 0.6406 -0.7665
vn 0.0569 0.3116 -0.9485
vn -0.0000 0.8664 0.4994
vn 0.0449 0.6406 0.7665
vn 0.0251 0.8672 0.4973
vn 0.0251 0.8672 -0.4973
vn -0.0000 0.9721 -0.2344
vn 0.0122 0.9722 -0.2337
vn -0.0000 1.0000 -0.0000
vn 0.0122 0.9722 0.2337
vn 0.0082 1.0000 -0.0000
vn -0.0300 -0.2658 -0.9636
vn -0.0000 -0.4937 -0.8696
vn 0.0036 -0.4980 -0.8672
vn 0.0300 -0.2658 0.9636
vn -0.0000 -0.4937 0.8696
vn -0.0036 -0.4980 0.8672
vn -0.0000 -0.2489 -0.9685
vn -0.0000 -0.2489 0.9685
vn -0.0000 0.8664 -0.4994
vn -0.0000 0.9721 0.2344
vn 0.0287 -0.6149 -0.7881
vn -0.0287 -0.6149 0.7881
vn -0.0000 -0.0000 1.0000
vn 0.2239 -0.0000 0.9746
vn -0.0000 -0.0000 -1.0000
vn -0.1761 -0.6851 -0.7068
vn -0.1905 -0.0000 -0.9817
vn -0.0000 -0.6962 -0.7179
vn 0.0886 -0.3199 0.9433
vn -0.0000 -0.3356 0.9420
vn 0.0883 -0.2805 0.9558
vn -0.0886 -0.3199 -0.9433
vn -0.0000 -0.3356 -0.9420
vn -0.0883 -0.2805 -0.9558
vn -0.0569 0.3116 -0.9485
vn -0.0000 0.0519 -0.9987
vn 0.0569 0.3116 0.9485
vn -0.0000 0.0519 0.9987
vn -0.0000 0.3162 0.9487
vn -0.2458 0.3148 -0.9168
vn -0.2197 0.0488 -0.9743
vn -0.2149 0.0569 -0.9750
vn 0.0087 -0.7994 -0.6008
vn -0.6706 -0.5639 -0.4820
vn -0.5782 -0.4974 -0.6468
vn -0.5061 -0.4525 -0.7342
vn -0.6209 -0.5085 -0.5966
vn -0.3079 -0.2079 -0.9284
vn -0.2294 -0.0481 -0.9721
vn -0.3614 -0.2949 -0.8846
vn -0.4685 -0.4394 -0.7664
vn -0.2257 -0.0448 -0.9732
vn -0.6597 -0.5165 -0.5459
vn -0.6704 -0.5010 -0.5472
vn 0.0497 -0.6786 0.7328
vn -0.0534 0.0478 0.9974
vn -0.0487 -0.0456 0.9978
vn -0.0449 0.6406 -0.7665
vn -0.0000 0.6410 -0.7676
vn -0.0449 0.6406 0.7665
vn -0.0000 0.6410 0.7676
vn -0.0251 0.8672 -0.4973
vn -0.0122 0.9722 0.2337
vn -0.0300 -0.2658 0.9636
vn 0.0036 -0.4980 0.8672
vn -0.0251 0.8672 0.4973
vn 0.0287 -0.6149 0.7881
vn -0.0122 0.9722 -0.2337
vn -0.0000 -0.6962 0.7179
vn -0.0000 -0.3289 0.9443
vn -0.0569 0.3116 0.9485
vn 0.3391 0.6076 0.7182
vn 0.2627 0.3236 0.9090
vn 0.2458 0.3148 0.9168
vn 0.2197 0.0488 0.9743
vn 0.2149 0.0569 0.9750
vn -0.0087 -0.7994 0.6008
vn 0.6706 -0.5639 0.4820
vn 0.5095 0.8379 -0.1958
vn 0.5195 0.8545 -0.0000
vn 0.5002 0.8430 -0.1980
vn 0.5782 -0.4974 0.6468
vn 0.5061 -0.4525 0.7342
vn 0.6209 -0.5085 0.5966
vn 0.5002 0.8430 0.1980
vn 0.4611 0.7779 0.4269
vn 0.4406 0.7815 0.4418
vn 0.2627 0.3236 -0.9090
vn 0.2458 0.3148 -0.9168
vn 0.3079 -0.2079 0.9284
vn 0.2294 -0.0481 0.9721
vn 0.3614 -0.2949 0.8846
vn 0.4685 -0.4394 0.7664
vn 0.5095 0.8379 0.1958
vn 0.4611 0.7779 -0.4269
vn 0.3668 0.6152 0.6978
vn 0.2257 -0.0448 0.9732
vn 0.6597 -0.5165 0.5459
vn 0.6704 -0.5010 0.5472
vn -0.0497 -0.6786 -0.7328
vn 0.0534 0.0478 -0.9974
vn 0.0487 -0.0456 -0.9978
vn 0.0300 -0.2658 -0.9636
vn -0.0036 -0.4980 -0.8672
vn -0.0287 -0.6149 -0.7881
vn -0.0000 -0.3289 -0.9443
vn -0.0000 0.0001 -1.0000
vn 0.1901 0.0006 -0.9818
vn -0.0000 0.0013 -1.0000
vn 0.1778 -0.0000 0.9841
vn 0.9286 -0.0000 0.3711
vn -0.0000 0.0001 1.0000
vn -0.2227 0.0008 0.9749
vn -0.0000 0.0025 1.0000
vn -0.1778 -0.0000 -0.9841
vn -0.9286 -0.0000 -0.3711
vn -0.1901 0.0006 -0.9818
vn 0.2227 0.0008 0.9749
vn -0.1778 -0.0000 0.9841
vn 0.1778 -0.0000 -0.9841
vn 0.9286 -0.0000 -0.3711
vn -0.9286 -0.0000 0.3711
vn 0.6047 0.5779 0.5480
vn 0.7328 0.6805 -0.0000
vn -0.6116 -0.5696 0.5491
vn -0.7408 -0.6718 -0.0000
vn -0.2863 -0.0000 0.9581
vn 0.6116 -0.5696 0.5491
vn 0.7392 -0.0000 0.6735
vn 0.2863 -0.0000 0.9581
vn -0.6047 0.5779 0.5480
vn -0.0000 0.6900 0.7238
vn -0.7392 -0.0000 0.6735
vn 0.7407 -0.6718 -0.0000
vn -0.0000 -0.6956 0.7185
vn -0.7327 0.6805 -0.0000
vn -0.4343 0.4406 0.7856
vn -0.3589 -0.1898 0.9139
vn -0.5047 0.7041 0.4995
vn -0.8656 0.4117 0.2849
vn -0.9230 -0.1066 0.3697
vn -0.4788 -0.5926 0.6477
vn -0.5389 -0.7065 0.4588
vn -0.8934 -0.2034 0.4007
vn -0.7527 0.4236 0.5039
vn -0.4666 0.8589 0.2113
vn -0.8608 0.2829 0.4231
vn -0.9515 0.1631 0.2610
vn -0.3664 0.2488 0.8966
vn -0.3556 0.1854 0.9161
vn -0.1395 0.9769 0.1620
vn -0.6363 -0.6298 0.4456
vn -0.5630 -0.5685 0.5999
vn -0.3554 0.8579 0.3711
vn -0.4413 -0.1200 0.8893
vn -0.4045 0.4185 0.8132
vn -0.4072 -0.3771 0.8319
vn -0.8215 -0.3270 0.4672
vn -0.8526 -0.3630 0.3760
vn -0.4406 -0.3221 0.8380
vn 0.4647 0.4125 0.7835
vn 0.3589 -0.1898 0.9139
vn 0.4382 0.7019 0.5615
vn 0.8208 0.4473 0.3552
vn 0.9454 -0.1859 0.2678
vn 0.4799 -0.5914 0.6481
vn 0.5275 -0.7235 0.4454
vn 0.8860 -0.1625 0.4342
vn 0.7527 0.4236 0.5039
vn 0.4113 0.8693 0.2741
vn 0.8608 0.2829 0.4231
vn 0.9515 0.1631 0.2610
vn 0.4285 0.1894 0.8835
vn 0.4132 0.1311 0.9012
vn 0.1223 0.9762 0.1789
vn 0.6317 -0.6430 0.4330
vn 0.5750 -0.5449 0.6103
vn 0.1756 0.8317 0.5268
vn 0.4413 -0.1200 0.8893
vn 0.3936 0.4274 0.8139
vn 0.4072 -0.3771 0.8319
vn 0.8171 -0.3884 0.4261
vn 0.8504 -0.3400 0.4014
vn 0.4406 -0.3221 0.8380
vn -0.4647 0.4125 -0.7835
vn -0.3589 -0.1898 -0.9139
vn -0.4382 0.7019 -0.5615
vn -0.8208 0.4473 -0.3552
vn -0.9454 -0.1859 -0.2678
vn -0.4799 -0.5914 -0.6481
vn -0.5275 -0.7235 -0.4454
vn -0.8860 -0.1625 -0.4342
vn -0.7527 0.4236 -0.5039
vn -0.4113 0.8693 -0.2741
vn -0.8608 0.2829 -0.4231
vn -0.9515 0.1631 -0.2610
vn -0.4285 0.1894 -0.8835
vn -0.4132 0.1311 -0.9012
vn -0.1223 0.9762 -0.1789
vn -0.6317 -0.6430 -0.4330
vn -0.5750 -0.5449 -0.6103
vn -0.1756 0.8317 -0.5268
vn -0.4413 -0.1200 -0.8893
vn -0.3936 0.4274 -0.8139
vn -0.4072 -0.3771 -0.8319
vn -0.8171 -0.3884 -0.4261
vn -0.8504 -0.3400 -0.4014
vn -0.4406 -0.3221 -0.8380
vn 0.4343 0.4406 -0.7856
vn 0.3589 -0.1898 -0.9139
vn 0.5047 0.7041 -0.4995
vn 0.8656 0.4117 -0.2849
vn 0.9230 -0.1066 -0.3697
vn 0.4788 -0.5926 -0.6477
vn 0.5389 -0.7065 -0.4588
vn 0.8934 -0.2034 -0.4007
vn 0.7527 0.4236 -0.5039
vn 0.4666 0.8589 -0.2113
vn 0.8608 0.2829 -0.4231
vn 0.9515 0.1631 -0.2610
vn 0.3664 0.2488 -0.8966
vn 0.3556 0.1854 -0.9161
vn 0.1395 0.9769 -0.1620
vn 0.6363 -0.6298 -0.4456
vn 0.5630 -0.5685 -0.5999
vn 0.3554 0.8579 -0.3711
vn 0.4413 -0.1200 -0.8893
vn 0.4045 0.4185 -0.8132
vn 0.4072 -0.3771 -0.8319
vn 0.8215 -0.3270 -0.4672
vn 0.8526 -0.3630 -0.3760
vn 0.4406 -0.3221 -0.8380
vn -0.0082 1.0000 -0.0000
vn 0.5242 0.8516 -0.0000
vn -0.4647 0.4125 0.7835
vn -0.3763 -0.1697 0.9108
vn -0.4382 0.7019 0.5615
vn -0.8208 0.4473 0.3552
vn -0.9454 -0.1859 0.2678
vn -0.4799 -0.5914 0.6481
vn -0.5275 -0.7235 0.4454
vn -0.8860 -0.1625 0.4342
vn -0.7526 0.4191 0.5079
vn -0.4113 0.8693 0.2741
vn -0.8431 0.1934 0.5018
vn -0.9447 0.1336 0.2995
vn -0.4285 0.1894 0.8835
vn -0.4132 0.1311 0.9012
vn -0.1223 0.9762 0.1789
vn -0.6317 -0.6430 0.4330
vn -0.5750 -0.5449 0.6103
vn -0.1756 0.8317 0.5268
vn -0.3594 -0.1899 0.9137
vn -0.3936 0.4274 0.8139
vn -0.4679 -0.3166 0.8251
vn -0.8171 -0.3884 0.4261
vn -0.8504 -0.3400 0.4014
vn -0.3888 -0.3954 0.8322
vn 0.4343 0.4406 0.7856
vn 0.3763 -0.1697 0.9108
vn 0.5047 0.7041 0.4995
vn 0.8656 0.4117 0.2849
vn 0.9230 -0.1066 0.3697
vn 0.4788 -0.5926 0.6477
vn 0.5389 -0.7065 0.4588
vn 0.8934 -0.2034 0.4007
vn 0.7526 0.4191 0.5079
vn 0.4666 0.8589 0.2113
vn 0.8431 0.1934 0.5018
vn 0.9447 0.1336 0.2995
vn 0.3664 0.2488 0.8966
vn 0.3556 0.1854 0.9161
vn 0.1395 0.9769 0.1620
vn 0.6363 -0.6298 0.4456
vn 0.5630 -0.5685 0.5999
vn 0.3554 0.8579 0.3711
vn 0.3594 -0.1899 0.9137
vn 0.4045 0.4185 0.8132
vn 0.4679 -0.3166 0.8251
vn 0.8215 -0.3270 0.4672
vn 0.8526 -0.3630 0.3760
vn 0.3888 -0.3954 0.8322
vn -0.4343 0.4406 -0.7856
vn -0.3763 -0.1697 -0.9108
vn -0.5047 0.7041 -0.4995
vn -0.8656 0.4117 -0.2849
vn -0.9230 -0.1066 -0.3697
vn -0.4788 -0.5926 -0.6477
vn -0.5389 -0.7065 -0.4588
vn -0.8934 -0.2034 -0.4007
vn -0.7526 0.4191 -0.5079
vn -0.4666 0.8589 -0.2113
vn -0.8431 0.1934 -0.5018
vn -0.9447 0.1336 -0.2995
vn -0.3664 0.2488 -0.8966
vn -0.3556 0.1854 -0.9161
vn -0.1395 0.9769 -0.1620
vn -0.6363 -0.6298 -0.4456
vn -0.5630 -0.5685 -0.5999
vn -0.3554 0.8579 -0.3711
vn -0.3594 -0.1899 -0.9137
vn -0.4045 0.4185 -0.8132
vn -0.4679 -0.3166 -0.8251
vn -0.8215 -0.3270 -0.4672
vn -0.8526 -0.3630 -0.3760
vn -0.3888 -0.3954 -0.8322
vn 0.4647 0.4125 -0.7835
vn 0.3763 -0.1697 -0.9108
vn 0.4382 0.7019 -0.5615
vn 0.8208 0.4473 -0.3552
vn 0.9454 -0.1859 -0.2678
vn 0.4799 -0.5914 -0.6481
vn 0.5275 -0.7235 -0.4454
vn 0.8860 -0.1625 -0.4342
vn 0.7526 0.4191 -0.5079
vn 0.4113 0.8693 -0.2741
vn 0.8431 0.1934 -0.5018
vn 0.9447 0.1336 -0.2995
vn 0.4285 0.1894 -0.8835
vn 0.4132 0.1311 -0.9012
vn 0.1223 0.9762 -0.1789
vn 0.6317 -0.6430 -0.4330
vn 0.5750 -0.5449 -0.6103
vn 0.1756 0.8317 -0.5268
vn 0.3594 -0.1899 -0.9137
vn 0.3936 0.4274 -0.8139
vn 0.4679 -0.3166 -0.8251
vn 0.8171 -0.3884 -0.4261
vn 0.8504 -0.3400 -0.4014
vn 0.3888 -0.3954 -0.8322
vn 0.2149 0.0569 -0.9750
vt 0.870568 0.452335
vt 0.928567 0.435579
vt 0.890663 0.482336
vt 0.083326 0.085841
vt 0.115698 0.069461
vt 0.122119 0.087104
vt 0.950799 0.380483
vt 0.900372 0.415352
vt 0.915421 0.373006
vt 0.735412 0.240422
vt 0.826420 0.163984
vt 0.759264 0.248803
vt 0.687674 0.277560
vt 0.687817 0.259899
vt 0.699476 0.265862
vt 0.780185 0.344672
vt 0.836479 0.428797
vt 0.768823 0.358234
vt 0.726034 0.260712
vt 0.732894 0.250301
vt 0.730089 0.262360
vt 0.714201 0.254699
vt 0.725619 0.255641
vt 0.641630 0.023185
vt 0.648318 0.087000
vt 0.612828 0.038374
vt 0.772889 0.051200
vt 0.667784 0.051606
vt 0.372945 0.076448
vt 0.342027 0.066033
vt 0.378601 0.068805
vt 0.339743 0.091119
vt 0.378258 0.091379
vt 0.389662 0.086332
vt 0.135988 0.081368
vt 0.121023 0.061947
vt 0.771167 0.325340
vt 0.787307 0.327838
vt 0.664419 0.345058
vt 0.685200 0.346914
vt 0.676361 0.358540
vt 0.707534 0.250706
vt 0.706261 0.242290
vt 0.683691 0.249467
vt 0.585334 0.398717
vt 0.530223 0.378580
vt 0.569782 0.359797
vt 0.860590 0.395001
vt 0.792327 0.084104
vt 0.855810 0.148916
vt 0.665263 0.122550
vt 0.775584 0.119098
vt 0.656813 0.327999
vt 0.684404 0.470749
vt 0.724674 0.502798
vt 0.672016 0.498161
vt 0.738726 0.374729
vt 0.722705 0.366999
vt 0.737714 0.364233
vt 0.722737 0.375962
vt 0.706698 0.374807
vt 0.666911 0.537465
vt 0.725222 0.542637
vt 0.879613 0.262939
vt 0.895178 0.206358
vt 0.922335 0.269179
vt 0.774448 0.264349
vt 0.754977 0.259672
vt 0.785942 0.287417
vt 0.922040 0.167447
vt 0.875656 0.099201
vt 0.668913 0.264782
vt 0.613659 0.168479
vt 0.583769 0.209299
vt 0.584100 0.153551
vt 0.657844 0.287726
vt 0.675501 0.276744
vt 0.671094 0.295875
vt 0.678774 0.309507
vt 0.680646 0.293871
vt 0.750779 0.356542
vt 0.759893 0.346941
vt 0.804431 0.452549
vt 0.777233 0.496753
vt 0.764149 0.469683
vt 0.755266 0.368550
vt 0.841603 0.515708
vt 0.783382 0.535884
vt 0.558075 0.486879
vt 0.619493 0.482774
vt 0.608118 0.518883
vt 0.690108 0.368666
vt 0.610596 0.431583
vt 0.577270 0.456283
vt 0.707677 0.364284
vt 0.790229 0.310015
vt 0.875174 0.355141
vt 0.922902 0.327110
vt 0.772680 0.295936
vt 0.959778 0.320696
vt 0.954995 0.245940
vt 0.669786 0.312272
vt 0.673033 0.325166
vt 0.653740 0.309980
vt 0.563262 0.267235
vt 0.563321 0.320422
vt 0.520633 0.274928
vt 0.767948 0.276579
vt 0.880901 0.315309
vt 0.680893 0.321937
vt 0.546034 0.211571
vt 0.724303 0.476014
vt 0.643681 0.454629
vt 0.766076 0.336247
vt 0.829253 0.479966
vt 0.546392 0.420265
vt 0.518867 0.441280
vt 0.694566 0.356570
vt 0.774190 0.312463
vt 0.678463 0.336146
vt 0.521591 0.333042
vt 0.710742 0.260639
vt 0.825447 0.036634
vt 0.857184 0.204925
vt 0.692052 0.342765
vt 0.528872 0.077909
vt 0.596798 0.007090
vt 0.739383 0.272191
vt 0.727845 0.265891
vt 0.495148 0.386989
vt 0.444677 0.333459
vt 0.484575 0.327562
vt 0.763284 0.322337
vt 0.757339 0.310279
vt 0.765134 0.309875
vt 0.691633 0.330339
vt 0.685616 0.332996
vt 0.741756 0.345015
vt 0.753216 0.343074
vt 0.744880 0.350260
vt 0.700566 0.350216
vt 0.712898 0.348891
vt 0.711260 0.355209
vt 0.722638 0.350203
vt 0.734126 0.355161
vt 0.722668 0.356607
vt 0.487347 0.252654
vt 0.480706 0.157133
vt 0.518189 0.173371
vt 0.763022 0.294073
vt 0.749477 0.282566
vt 0.755656 0.277577
vt 0.447372 0.247341
vt 0.755988 0.296548
vt 0.703853 0.344939
vt 0.732474 0.348791
vt 0.563166 0.103599
vt 0.743067 0.266157
vt 0.316024 0.073828
vt 0.326087 0.084815
vt 0.060322 0.073445
vt 0.084103 0.062979
vt 0.071927 0.080231
vt 0.078386 0.053115
vt 0.713906 0.258916
vt 0.712898 0.263234
vt 0.797231 0.022839
vt 0.840162 0.005733
vt 0.458003 0.402002
vt 0.758880 0.333337
vt 0.756132 0.321132
vt 0.752693 0.330879
vt 0.089427 0.070998
vt 0.908822 0.073050
vt 0.999842 0.325515
vt 0.487307 0.464344
vt 0.533924 0.515647
vt 0.859578 0.548962
vt 0.915626 0.510406
vt 0.658448 0.574597
vt 0.591066 0.552641
vt 0.725752 0.581469
vt 0.792854 0.572765
vt 0.958934 0.150281
vt 0.994799 0.239521
vt 0.146255 0.070954
vt 0.126024 0.052096
vt 0.631078 0.000158
vt 0.988410 0.394484
vt 0.960822 0.457762
vt 0.347029 0.073791
vt 0.703677 0.271519
vt 0.686533 0.309697
vt 0.693927 0.282301
vt 0.687656 0.296193
vt 0.401233 0.080183
vt 0.384467 0.060009
vt 0.337359 0.055289
vt 0.724993 0.263670
vt 0.688054 0.320474
vt 0.444361 0.590091
vt 0.406754 0.203906
vt 0.420498 0.203036
vt 0.347138 0.599076
vt 0.337447 0.208168
vt 0.362423 0.613762
vt 0.112249 0.597718
vt 0.134675 0.205661
vt 0.148557 0.207144
vt 0.013763 0.591578
vt 0.064697 0.200285
vt 0.026735 0.608608
vt 0.000158 0.587302
vt 0.050407 0.198466
vt 0.333168 0.596964
vt 0.323081 0.208471
vt 0.098073 0.599410
vt 0.120230 0.204938
vt 0.430770 0.593897
vt 0.392554 0.205249
vt 0.417410 0.610341
vt 0.082169 0.613762
vt 0.400927 0.138686
vt 0.414290 0.136287
vt 0.335857 0.143247
vt 0.228255 0.285392
vt 0.242877 0.207725
vt 0.242048 0.286824
vt 0.072107 0.135850
vt 0.036556 0.197136
vt 0.058529 0.132845
vt 0.232291 0.001695
vt 0.216898 0.081305
vt 0.218138 0.000158
vt 0.124005 0.139824
vt 0.138011 0.139495
vt 0.387413 0.141179
vt 0.230100 0.140217
vt 0.245094 0.081762
vt 0.244220 0.140757
vt 0.321958 0.142395
vt 0.215371 0.207417
vt 0.229136 0.206978
vt 0.045086 0.129948
vt 0.215965 0.140293
vt 0.230991 0.081881
vt 0.394852 0.849214
vt 0.371283 0.874985
vt 0.366900 0.849173
vt 0.383917 0.816866
vt 0.348459 0.809121
vt 0.370323 0.782444
vt 0.372427 0.909952
vt 0.393845 0.886555
vt 0.341426 0.864273
vt 0.336420 0.896971
vt 0.323791 0.872015
vt 0.317949 0.814872
vt 0.311968 0.848652
vt 0.297973 0.820997
vt 0.297319 0.748135
vt 0.345443 0.723746
vt 0.338999 0.757345
vt 0.263405 0.752689
vt 0.289288 0.709050
vt 0.333795 0.838849
vt 0.349003 0.921836
vt 0.353787 0.890593
vt 0.357673 0.828024
vt 0.419805 0.802215
vt 0.364679 0.952812
vt 0.395900 0.929085
vt 0.281784 0.789008
vt 0.305746 0.784536
vt 0.334940 0.788639
vt 0.420043 0.895953
vt 0.391358 0.757493
vt 0.428482 0.847373
vt 0.669646 0.816922
vt 0.693215 0.842692
vt 0.670654 0.854263
vt 0.716039 0.776829
vt 0.680582 0.784573
vt 0.694175 0.750152
vt 0.692071 0.877659
vt 0.710711 0.858301
vt 0.723072 0.831981
vt 0.728078 0.864679
vt 0.746550 0.782579
vt 0.752530 0.816359
vt 0.730703 0.806557
vt 0.767179 0.715842
vt 0.719055 0.691454
vt 0.775210 0.676757
vt 0.801093 0.720397
vt 0.820998 0.681064
vt 0.706826 0.795732
vt 0.697598 0.816881
vt 0.715495 0.889543
vt 0.644694 0.769922
vt 0.636016 0.815081
vt 0.699819 0.920519
vt 0.782714 0.756716
vt 0.758753 0.752243
vt 0.725499 0.725053
vt 0.668598 0.896793
vt 0.673140 0.725201
vt 0.644455 0.863660
vt 0.729558 0.756347
vt 0.766526 0.788704
vt 0.263334 0.915770
vt 0.298057 0.912042
vt 0.294019 0.937073
vt 0.258504 0.854644
vt 0.243745 0.887801
vt 0.224060 0.856463
vt 0.325555 0.933672
vt 0.320996 0.907187
vt 0.307109 0.881640
vt 0.281207 0.833465
vt 0.291142 0.860434
vt 0.239650 0.777319
vt 0.191498 0.801652
vt 0.212913 0.747700
vt 0.243500 0.713357
vt 0.268279 0.873263
vt 0.279855 0.893224
vt 0.210686 0.908042
vt 0.241934 0.941778
vt 0.263990 0.805667
vt 0.222387 0.816358
vt 0.327071 0.963917
vt 0.191498 0.858635
vt 0.286075 0.963749
vt 0.250006 0.831621
vt 0.801164 0.883478
vt 0.766441 0.879749
vt 0.784644 0.860931
vt 0.820753 0.855508
vt 0.805994 0.822351
vt 0.840438 0.824170
vt 0.738943 0.901379
vt 0.770479 0.904781
vt 0.757389 0.849347
vt 0.740707 0.839723
vt 0.783291 0.801173
vt 0.824848 0.745026
vt 0.873001 0.769359
vt 0.842111 0.784065
vt 0.851585 0.715407
vt 0.773356 0.828142
vt 0.743503 0.874895
vt 0.796220 0.840970
vt 0.853812 0.875749
vt 0.737428 0.931625
vt 0.800508 0.773374
vt 0.814492 0.799328
vt 0.778423 0.931456
vt 0.873001 0.826342
vt 0.822565 0.909485
vt 0.697072 0.338586
vt 0.748423 0.339211
vt 0.714739 0.261168
vt 0.806692 0.000158
vt 0.309305 0.209509
vt 0.214433 0.286516
vt 0.246486 0.000618
s 1
usemtl Material
f 71/1/1 118/2/2 139/3/3
f 187/4/4 13/5/5 195/6/6
f 125/7/7 23/8/8 77/9/9
f 10/10/10 88/11/11 86/12/11
f 148/13/12 89/14/13 158/15/14
f 3/16/15 72/17/16 70/18/16
f 145/19/17 18/20/18 143/21/19
f 2/22/20 18/20/18 4/23/21
f 120/24/22 22/25/23 119/26/24
f 8/27/25 22/25/23 6/28/26
f 15/29/27 146/30/28 162/31/29
f 188/32/30 15/29/27 196/33/31
f 194/34/32 15/29/27 162/31/29
f 192/35/33 13/5/5 130/36/34
f 3/16/35 79/37/35 80/38/35
f 1/39/35 75/40/35 76/41/35
f 10/10/35 20/42/35 11/43/35
f 91/44/35 20/42/35 89/14/35
f 5/45/36 82/46/36 84/47/36
f 7/48/36 71/1/36 72/17/36
f 88/11/36 24/49/36 87/50/36
f 12/51/36 24/49/36 9/52/36
f 1/39/37 84/47/38 83/53/38
f 11/43/39 9/52/10 10/10/10
f 68/54/36 26/55/36 67/56/36
f 64/57/35 25/58/35 63/59/35
f 27/60/40 68/54/41 66/61/41
f 138/62/42 26/55/43 131/63/44
f 56/64/36 30/65/36 55/66/36
f 31/67/35 85/68/35 86/12/35
f 31/67/45 56/64/46 54/69/47
f 122/70/48 87/50/49 126/71/50
f 35/72/51 92/73/52 91/44/52
f 36/74/36 90/75/36 92/73/36
f 59/76/35 33/77/35 57/78/35
f 151/79/53 57/78/54 152/80/55
f 70/18/35 37/81/35 69/82/35
f 40/83/36 61/84/36 62/85/36
f 38/86/56 62/85/57 64/57/57
f 61/84/58 133/87/59 137/88/60
f 140/89/61 41/90/62 134/91/63
f 44/92/64 74/93/65 76/41/65
f 74/93/36 41/90/36 73/94/36
f 44/92/35 65/95/35 66/61/35
f 48/96/66 78/97/67 80/38/67
f 78/97/36 45/98/36 77/9/36
f 48/96/35 53/99/35 54/69/35
f 123/100/68 55/66/69 124/101/70
f 83/53/35 49/102/35 81/103/35
f 51/104/71 60/105/72 59/76/73
f 52/106/36 58/107/36 60/105/36
f 152/80/55 33/77/74 148/13/12
f 124/101/70 30/65/75 122/70/48
f 54/69/35 29/108/35 31/67/35
f 54/69/47 46/109/66 48/96/66
f 46/109/36 55/66/36 45/98/36
f 157/110/76 49/102/77 151/79/53
f 60/105/36 34/111/36 36/74/36
f 59/76/73 36/74/51 35/72/51
f 51/104/35 57/78/35 49/102/35
f 26/55/43 137/88/60 131/63/44
f 64/57/57 28/112/40 27/60/40
f 62/85/36 26/55/36 28/112/36
f 38/86/35 63/59/35 37/81/35
f 66/61/35 25/58/35 27/60/35
f 134/91/63 67/56/78 138/62/42
f 66/61/41 42/113/64 44/92/64
f 42/113/36 67/56/36 41/90/36
f 3/16/35 69/82/35 17/114/35
f 72/17/36 39/115/36 40/83/36
f 70/18/16 40/83/56 38/86/56
f 39/115/79 139/3/3 133/87/59
f 5/45/36 73/94/36 21/116/36
f 76/41/65 5/45/37 1/39/37
f 128/117/80 73/94/81 140/89/61
f 76/41/35 43/118/35 44/92/35
f 7/48/36 77/9/36 23/8/36
f 80/38/67 7/48/15 3/16/15
f 80/38/35 47/119/35 48/96/35
f 125/7/7 45/98/82 123/100/68
f 1/39/35 81/103/35 19/120/35
f 83/53/38 52/106/71 51/104/71
f 84/47/36 50/121/36 52/106/36
f 158/15/14 20/42/83 160/122/84
f 126/71/50 24/49/85 127/123/86
f 86/12/35 18/20/35 10/10/35
f 32/124/36 87/50/36 30/65/36
f 86/12/11 32/124/45 31/67/45
f 156/125/87 43/118/88 75/40/89
f 92/73/36 22/25/36 12/51/36
f 91/44/52 12/51/39 11/43/39
f 35/72/35 89/14/35 33/77/35
f 119/26/90 117/126/91 96/127/92
f 143/21/93 116/128/94 94/129/95
f 141/130/96 107/131/97 135/132/98
f 166/133/99 106/134/100 164/135/101
f 95/136/102 156/125/103 144/137/104
f 104/138/105 155/139/106 149/140/107
f 150/141/108 111/142/109 154/143/110
f 101/144/111 153/145/112 147/146/113
f 136/147/114 103/148/115 132/149/116
f 165/150/117 102/151/118 163/152/119
f 135/132/98 109/153/120 136/147/114
f 164/135/101 108/154/121 165/150/117
f 156/125/103 105/155/122 150/141/108
f 110/156/123 149/140/107 153/145/112
f 132/149/116 117/126/91 142/157/124
f 163/152/119 116/128/94 167/158/125
f 154/143/110 101/144/111 147/146/113
f 189/159/126 146/30/28 193/160/127
f 190/161/128 121/162/129 191/163/130
f 100/164/131 130/36/34 121/162/129
f 161/165/132 96/166/133 160/122/134
f 129/167/135 94/168/136 127/123/137
f 128/117/138 115/169/139 141/130/96
f 159/170/140 114/171/141 166/133/99
f 155/139/106 93/172/142 159/170/140
f 21/116/143 141/130/144 82/46/145
f 129/167/135 24/49/146 8/27/25
f 121/162/129 13/5/5 16/173/147
f 191/163/130 16/173/147 187/4/4
f 90/75/148 132/149/149 142/157/150
f 58/107/151 135/132/152 136/147/153
f 34/111/154 136/147/153 132/149/149
f 50/121/155 141/130/144 135/132/152
f 22/25/156 142/157/150 119/26/157
f 116/174/94 127/123/158 94/168/95
f 106/175/100 125/7/159 123/100/160
f 95/176/102 140/89/161 113/177/162
f 104/178/105 139/3/163 112/179/164
f 134/91/165 111/180/109 105/181/122
f 101/182/111 137/88/166 110/183/123
f 102/184/118 124/101/167 122/70/168
f 108/185/121 123/100/160 124/101/167
f 140/89/161 105/181/122 113/177/162
f 110/183/123 133/87/169 104/178/105
f 116/174/94 122/70/168 126/71/170
f 138/62/171 101/182/111 111/180/109
f 189/186/126 130/36/34 99/187/172
f 120/24/22 96/127/133 98/188/173
f 114/189/141 118/2/174 125/7/159
f 139/3/163 93/190/142 112/179/164
f 69/82/175 159/170/176 17/114/177
f 17/114/177 166/133/178 79/37/179
f 161/165/132 20/42/180 2/22/20
f 193/160/127 14/191/181 188/32/30
f 154/143/182 25/58/183 65/95/184
f 85/68/185 163/152/186 167/158/187
f 63/59/188 149/140/189 37/81/190
f 144/137/191 75/40/89 19/120/192
f 53/99/193 164/135/194 165/150/195
f 29/108/196 165/150/195 163/152/186
f 25/58/183 153/145/197 63/59/188
f 150/141/198 65/95/184 43/118/88
f 37/81/190 155/139/199 69/82/175
f 47/119/200 166/133/178 164/135/194
f 18/20/201 167/158/187 143/21/202
f 117/192/91 160/122/203 96/166/92
f 107/193/97 157/110/204 151/79/205
f 103/194/115 152/80/206 148/13/207
f 109/195/120 151/79/205 152/80/206
f 117/192/91 148/13/207 158/15/208
f 190/196/128 162/31/29 100/197/131
f 162/31/29 99/198/172 100/197/131
f 145/19/17 94/129/136 97/199/209
f 115/200/139 144/137/104 157/110/204
f 98/201/210 177/202/211 173/203/212
f 145/204/213 170/205/30 4/206/214
f 97/207/215 175/208/216 172/209/217
f 120/210/218 168/211/4 6/212/219
f 98/213/210 174/214/220 120/210/218
f 97/215/215 176/216/221 145/204/213
f 129/217/222 169/218/6 175/208/216
f 161/219/223 171/220/31 177/202/211
f 4/206/214 171/220/31 2/221/224
f 6/212/219 169/218/6 8/222/225
f 173/203/212 184/223/32 180/224/128
f 176/216/221 179/225/30 170/205/30
f 172/226/111 200/227/226 176/228/227
f 174/214/220 178/229/4 168/211/4
f 173/230/212 181/231/130 174/214/220
f 189/232/40 204/233/228 192/234/229
f 175/208/216 185/235/6 182/236/230
f 177/202/211 186/237/31 184/223/32
f 198/238/126 205/239/231 197/240/232
f 168/211/4 185/235/6 169/218/6
f 180/224/128 194/34/32 190/196/128
f 183/241/233 188/32/30 179/225/30
f 172/226/111 199/242/234 202/243/235
f 181/231/130 187/4/4 178/229/4
f 180/244/128 191/163/130 181/231/130
f 192/35/229 201/245/236 182/236/36
f 182/236/230 195/6/6 192/35/33
f 184/223/32 196/33/31 194/34/32
f 202/243/235 197/240/232 200/227/226
f 178/229/4 195/6/6 185/235/6
f 183/241/35 205/239/231 193/160/237
f 176/216/227 197/240/232 183/241/35
f 198/238/126 204/233/228 203/246/238
f 189/232/40 205/239/231 203/246/238
f 202/243/235 201/245/236 198/238/126
f 186/237/31 188/32/30 196/33/31
f 171/220/31 179/225/30 186/237/31
f 182/236/36 199/242/234 175/208/239
f 71/1/1 23/8/8 118/2/2
f 187/4/4 16/173/147 13/5/5
f 125/7/7 118/2/2 23/8/8
f 10/10/10 9/52/10 88/11/11
f 3/16/15 7/48/15 72/17/16
f 145/19/17 4/23/21 18/20/18
f 2/22/20 20/42/180 18/20/18
f 120/24/22 6/28/26 22/25/23
f 8/27/25 24/49/146 22/25/23
f 15/29/27 14/191/181 146/30/28
f 188/32/30 14/191/181 15/29/27
f 194/34/32 196/33/31 15/29/27
f 192/35/33 195/6/6 13/5/5
f 3/16/35 17/114/35 79/37/35
f 1/39/35 19/120/35 75/40/35
f 10/10/35 18/20/35 20/42/35
f 91/44/35 11/43/35 20/42/35
f 5/45/36 21/116/36 82/46/36
f 7/48/36 23/8/36 71/1/36
f 88/11/36 9/52/36 24/49/36
f 12/51/36 22/25/36 24/49/36
f 1/39/37 5/45/37 84/47/38
f 11/43/39 12/51/39 9/52/10
f 68/54/36 28/112/36 26/55/36
f 64/57/35 27/60/35 25/58/35
f 27/60/40 28/112/40 68/54/41
f 138/62/42 67/56/78 26/55/43
f 56/64/36 32/124/36 30/65/36
f 31/67/35 29/108/35 85/68/35
f 31/67/45 32/124/45 56/64/46
f 122/70/48 30/65/75 87/50/49
f 35/72/51 36/74/51 92/73/52
f 36/74/36 34/111/36 90/75/36
f 59/76/35 35/72/35 33/77/35
f 70/18/35 38/86/35 37/81/35
f 40/83/36 39/115/36 61/84/36
f 38/86/56 40/83/56 62/85/57
f 61/84/58 39/115/79 133/87/59
f 140/89/61 73/94/81 41/90/62
f 44/92/64 42/113/64 74/93/65
f 74/93/36 42/113/36 41/90/36
f 44/92/35 43/118/35 65/95/35
f 48/96/66 46/109/66 78/97/67
f 78/97/36 46/109/36 45/98/36
f 48/96/35 47/119/35 53/99/35
f 123/100/68 45/98/82 55/66/69
f 83/53/35 51/104/35 49/102/35
f 51/104/71 52/106/71 60/105/72
f 52/106/36 50/121/36 58/107/36
f 124/101/70 55/66/69 30/65/75
f 54/69/35 53/99/35 29/108/35
f 54/69/47 56/64/46 46/109/66
f 46/109/36 56/64/36 55/66/36
f 60/105/36 58/107/36 34/111/36
f 59/76/73 60/105/72 36/74/51
f 51/104/35 59/76/35 57/78/35
f 26/55/43 61/84/58 137/88/60
f 64/57/57 62/85/57 28/112/40
f 62/85/36 61/84/36 26/55/36
f 38/86/35 64/57/35 63/59/35
f 66/61/35 65/95/35 25/58/35
f 134/91/63 41/90/62 67/56/78
f 66/61/41 68/54/41 42/113/64
f 42/113/36 68/54/36 67/56/36
f 3/16/35 70/18/35 69/82/35
f 72/17/36 71/1/36 39/115/36
f 70/18/16 72/17/16 40/83/56
f 39/115/79 71/1/1 139/3/3
f 5/45/36 74/93/36 73/94/36
f 76/41/65 74/93/65 5/45/37
f 128/117/80 21/116/143 73/94/81
f 76/41/35 75/40/35 43/118/35
f 7/48/36 78/97/36 77/9/36
f 80/38/67 78/97/67 7/48/15
f 80/38/35 79/37/35 47/119/35
f 125/7/7 77/9/9 45/98/82
f 1/39/35 83/53/35 81/103/35
f 83/53/38 84/47/38 52/106/71
f 84/47/36 82/46/36 50/121/36
f 126/71/50 87/50/49 24/49/85
f 86/12/35 85/68/35 18/20/35
f 32/124/36 88/11/36 87/50/36
f 86/12/11 88/11/11 32/124/45
f 92/73/36 90/75/36 22/25/36
f 91/44/52 92/73/52 12/51/39
f 35/72/35 91/44/35 89/14/35
f 119/26/90 142/157/124 117/126/91
f 143/21/93 167/158/125 116/128/94
f 141/130/96 115/169/139 107/131/97
f 166/133/99 114/171/141 106/134/100
f 95/136/102 113/361/162 156/125/103
f 104/138/105 112/362/164 155/139/106
f 150/141/108 105/155/122 111/142/109
f 101/144/111 110/156/123 153/145/112
f 136/147/114 109/153/120 103/148/115
f 165/150/117 108/154/121 102/151/118
f 135/132/98 107/131/97 109/153/120
f 164/135/101 106/134/100 108/154/121
f 156/125/103 113/361/162 105/155/122
f 110/156/123 104/138/105 149/140/107
f 132/149/116 103/148/115 117/126/91
f 163/152/119 102/151/118 116/128/94
f 154/143/110 111/142/109 101/144/111
f 189/159/126 99/198/172 146/30/28
f 190/161/128 100/164/131 121/162/129
f 100/164/131 99/187/172 130/36/34
f 161/165/132 98/363/173 96/166/133
f 129/167/135 97/364/209 94/168/136
f 128/117/138 95/176/102 115/169/139
f 159/170/140 93/172/142 114/171/141
f 155/139/106 112/362/164 93/172/142
f 21/116/143 128/117/80 141/130/144
f 129/167/135 127/123/137 24/49/146
f 121/162/129 130/36/34 13/5/5
f 191/163/130 121/162/129 16/173/147
f 90/75/148 34/111/154 132/149/149
f 58/107/151 50/121/155 135/132/152
f 34/111/154 58/107/151 136/147/153
f 50/121/155 82/46/145 141/130/144
f 22/25/156 90/75/148 142/157/150
f 116/174/94 126/71/170 127/123/158
f 106/175/100 114/189/141 125/7/159
f 95/176/102 128/117/138 140/89/161
f 104/178/105 133/87/169 139/3/163
f 134/91/165 138/62/171 111/180/109
f 101/182/111 131/63/336 137/88/166
f 102/184/118 108/185/121 124/101/167
f 108/185/121 106/175/100 123/100/160
f 140/89/161 134/91/165 105/181/122
f 110/183/123 137/88/166 133/87/169
f 116/174/94 102/184/118 122/70/168
f 138/62/171 131/63/336 101/182/111
f 189/186/126 192/35/33 130/36/34
f 120/24/22 119/26/24 96/127/133
f 114/189/141 93/190/142 118/2/174
f 139/3/163 118/2/174 93/190/142
f 69/82/175 155/139/199 159/170/176
f 17/114/177 159/170/176 166/133/178
f 161/165/132 160/122/134 20/42/180
f 193/160/127 146/30/28 14/191/181
f 154/143/182 147/146/337 25/58/183
f 85/68/185 29/108/196 163/152/186
f 63/59/188 153/145/197 149/140/189
f 53/99/193 47/119/200 164/135/194
f 29/108/196 53/99/193 165/150/195
f 25/58/183 147/146/337 153/145/197
f 150/141/198 154/143/182 65/95/184
f 37/81/190 149/140/189 155/139/199
f 47/119/200 79/37/179 166/133/178
f 18/20/201 85/68/185 167/158/187
f 117/192/91 158/15/208 160/122/203
f 107/193/97 115/200/139 157/110/204
f 103/194/115 109/195/120 152/80/206
f 109/195/120 107/193/97 151/79/205
f 117/192/91 103/194/115 148/13/207
f 190/196/128 194/34/32 162/31/29
f 162/31/29 146/30/28 99/198/172
f 145/19/17 143/21/19 94/129/136
f 115/200/139 95/136/102 144/137/104
f 98/201/210 161/219/223 177/202/211
f 145/204/213 176/216/221 170/205/30
f 97/207/215 129/217/222 175/208/216
f 120/210/218 174/214/220 168/211/4
f 98/213/210 173/230/212 174/214/220
f 97/215/215 172/365/217 176/216/221
f 129/217/222 8/222/225 169/218/6
f 161/219/223 2/221/224 171/220/31
f 4/206/214 170/205/30 171/220/31
f 6/212/219 168/211/4 169/218/6
f 173/203/212 177/202/211 184/223/32
f 176/216/221 183/241/233 179/225/30
f 172/226/111 202/243/235 200/227/226
f 174/214/220 181/231/130 178/229/4
f 173/230/212 180/244/128 181/231/130
f 189/232/40 203/246/238 204/233/228
f 175/208/216 169/218/6 185/235/6
f 177/202/211 171/220/31 186/237/31
f 198/238/126 203/246/238 205/239/231
f 168/211/4 178/229/4 185/235/6
f 180/224/128 184/223/32 194/34/32
f 183/241/233 193/160/127 188/32/30
f 172/226/111 175/366/239 199/242/234
f 181/231/130 191/163/130 187/4/4
f 180/244/128 190/161/128 191/163/130
f 192/35/229 204/233/228 201/245/236
f 182/236/230 185/235/6 195/6/6
f 184/223/32 186/237/31 196/33/31
f 202/243/235 198/238/126 197/240/232
f 178/229/4 187/4/4 195/6/6
f 183/241/35 197/240/232 205/239/231
f 176/216/227 200/227/226 197/240/232
f 198/238/126 201/245/236 204/233/228
f 189/232/40 193/367/237 205/239/231
f 202/243/235 199/242/234 201/245/236
f 186/237/31 179/225/30 188/32/30
f 171/220/31 170/205/30 179/225/30
f 182/236/36 201/245/236 199/242/234
f 157/110/76 19/120/192 81/103/434
f 148/13/12 33/77/74 89/14/13
f 151/79/53 49/102/77 57/78/54
f 152/80/55 57/78/54 33/77/74
f 157/110/76 81/103/434 49/102/77
f 158/15/14 89/14/13 20/42/83
f 156/125/87 150/141/198 43/118/88
f 144/137/191 156/125/87 75/40/89
f 157/110/76 144/137/191 19/120/192
s 0
usemtl 
f 233/247/240 207/248/240 222/249/240
f 226/250/241 234/251/241 238/252/241
f 232/253/242 207/248/242 227/254/242
f 225/255/243 210/256/243 224/257/243
f 237/258/244 211/259/244 235/260/244
f 231/261/245 213/262/245 229/263/245
f 228/264/246 221/265/246 231/261/246
f 234/251/247 219/266/247 237/258/247
f 207/248/248 225/255/248 222/249/248
f 230/267/249 218/268/249 232/253/249
f 222/249/250 219/266/250 212/269/250
f 225/255/251 211/259/251 219/266/251
f 226/250/252 222/249/252 212/269/252
f 208/270/253 233/247/253 226/250/253
f 215/271/254 232/253/254 220/272/254
f 209/273/255 231/261/255 217/274/255
f 217/274/256 229/263/256 206/275/256
f 220/272/257 227/254/257 214/276/257
f 208/270/258 238/252/258 236/277/258
f 223/278/259 227/254/259 233/247/259
f 236/277/260 229/263/260 213/262/260
f 206/275/261 237/258/261 217/274/261
f 217/274/262 235/260/262 209/273/262
f 238/252/263 206/275/263 229/263/263
f 258/279/264 240/280/264 252/281/264
f 259/282/265 251/283/265 262/284/265
f 257/285/266 240/280/266 246/286/266
f 250/287/267 242/288/267 246/286/267
f 261/289/268 243/290/268 247/291/268
f 256/292/269 213/293/269 221/294/269
f 253/295/270 221/294/270 216/296/270
f 259/282/271 247/291/271 244/297/271
f 250/287/272 240/280/272 248/298/272
f 255/299/273 246/286/273 242/288/273
f 247/291/274 248/298/274 244/297/274
f 243/290/275 250/287/275 247/291/275
f 251/283/276 248/298/276 258/279/276
f 208/300/277 258/279/277 223/301/277
f 215/302/278 257/285/278 255/299/278
f 241/303/279 256/292/279 253/295/279
f 245/304/280 254/305/280 256/292/280
f 220/306/281 252/281/281 257/285/281
f 262/284/282 208/300/282 236/307/282
f 223/301/283 252/281/283 214/308/283
f 254/305/284 236/307/284 213/293/284
f 239/309/285 261/289/285 259/282/285
f 245/304/286 260/310/286 261/289/286
f 239/309/287 262/284/287 254/305/287
f 282/311/288 264/312/288 278/313/288
f 283/314/289 277/315/289 286/316/289
f 281/317/290 264/312/290 270/318/290
f 276/319/291 210/256/291 270/318/291
f 285/320/292 211/259/292 271/321/292
f 280/322/293 267/323/293 273/324/293
f 228/264/294 273/324/294 216/325/294
f 283/314/295 271/321/295 266/326/295
f 276/319/296 264/312/296 274/327/296
f 230/267/297 270/318/297 210/256/297
f 271/321/298 274/327/298 266/326/298
f 211/259/299 276/319/299 271/321/299
f 277/315/300 274/327/300 282/311/300
f 265/328/301 282/311/301 275/329/301
f 215/271/302 281/317/302 230/267/302
f 209/273/303 280/322/303 228/264/303
f 269/330/304 279/331/304 280/322/304
f 272/332/305 278/313/305 281/317/305
f 286/316/306 265/328/306 284/333/306
f 275/329/307 278/313/307 268/334/307
f 279/331/308 284/333/308 267/323/308
f 263/335/309 285/320/309 283/314/309
f 269/330/310 235/260/310 285/320/310
f 263/335/311 286/316/311 279/331/311
f 300/336/312 288/337/312 293/338/312
f 295/339/313 301/340/313 303/341/313
f 299/342/314 288/337/314 296/343/314
f 294/344/315 242/288/315 249/345/315
f 302/346/316 243/290/316 260/310/316
f 298/347/317 267/348/317 297/349/317
f 253/295/318 273/350/318 298/347/318
f 301/340/319 292/351/319 302/346/319
f 288/337/320 294/344/320 293/338/320
f 255/299/321 291/352/321 299/342/321
f 293/338/322 292/351/322 289/353/322
f 294/344/323 243/290/323 292/351/323
f 295/339/324 293/338/324 289/353/324
f 265/354/325 300/336/325 295/339/325
f 215/302/326 299/342/326 272/355/326
f 241/303/327 298/347/327 290/356/327
f 290/356/328 297/349/328 287/357/328
f 272/355/329 296/343/329 268/358/329
f 265/354/330 303/341/330 284/359/330
f 275/360/331 296/343/331 300/336/331
f 284/359/332 297/349/332 267/348/332
f 287/357/333 302/346/333 290/356/333
f 290/356/334 260/310/334 241/303/334
f 303/341/335 287/357/335 297/349/335
f 233/247/338 227/254/338 207/248/338
f 226/250/339 212/269/339 234/251/339
f 232/253/340 218/268/340 207/248/340
f 225/255/341 218/268/341 210/256/341
f 237/258/342 219/266/342 211/259/342
f 231/261/343 221/265/343 213/262/343
f 228/264/344 216/325/344 221/265/344
f 234/251/345 212/269/345 219/266/345
f 207/248/346 218/268/346 225/255/346
f 230/267/347 210/256/347 218/268/347
f 222/249/348 225/255/348 219/266/348
f 225/255/349 224/257/349 211/259/349
f 226/250/350 233/247/350 222/249/350
f 208/270/351 223/278/351 233/247/351
f 215/271/352 230/267/352 232/253/352
f 209/273/353 228/264/353 231/261/353
f 217/274/354 231/261/354 229/263/354
f 220/272/355 232/253/355 227/254/355
f 208/270/356 226/250/356 238/252/356
f 223/278/357 214/276/357 227/254/357
f 236/277/358 238/252/358 229/263/358
f 206/275/359 234/251/359 237/258/359
f 217/274/360 237/258/360 235/260/360
f 238/252/361 234/251/361 206/275/361
f 258/279/362 248/298/362 240/280/362
f 259/282/363 244/297/363 251/283/363
f 257/285/364 252/281/364 240/280/364
f 250/287/365 249/345/365 242/288/365
f 261/289/366 260/310/366 243/290/366
f 256/292/367 254/305/367 213/293/367
f 253/295/368 256/292/368 221/294/368
f 259/282/369 261/289/369 247/291/369
f 250/287/370 246/286/370 240/280/370
f 255/299/371 257/285/371 246/286/371
f 247/291/372 250/287/372 248/298/372
f 243/290/373 249/345/373 250/287/373
f 251/283/374 244/297/374 248/298/374
f 208/300/375 251/283/375 258/279/375
f 215/302/376 220/306/376 257/285/376
f 241/303/377 245/304/377 256/292/377
f 245/304/378 239/309/378 254/305/378
f 220/306/379 214/308/379 252/281/379
f 262/284/380 251/283/380 208/300/380
f 223/301/381 258/279/381 252/281/381
f 254/305/382 262/284/382 236/307/382
f 239/309/383 245/304/383 261/289/383
f 245/304/384 241/303/384 260/310/384
f 239/309/385 259/282/385 262/284/385
f 282/311/386 274/327/386 264/312/386
f 283/314/387 266/326/387 277/315/387
f 281/317/388 278/313/388 264/312/388
f 276/319/389 224/257/389 210/256/389
f 285/320/390 235/260/390 211/259/390
f 280/322/391 279/331/391 267/323/391
f 228/264/392 280/322/392 273/324/392
f 283/314/393 285/320/393 271/321/393
f 276/319/394 270/318/394 264/312/394
f 230/267/395 281/317/395 270/318/395
f 271/321/396 276/319/396 274/327/396
f 211/259/397 224/257/397 276/319/397
f 277/315/398 266/326/398 274/327/398
f 265/328/399 277/315/399 282/311/399
f 215/271/400 272/332/400 281/317/400
f 209/273/401 269/330/401 280/322/401
f 269/330/402 263/335/402 279/331/402
f 272/332/403 268/334/403 278/313/403
f 286/316/404 277/315/404 265/328/404
f 275/329/405 282/311/405 278/313/405
f 279/331/406 286/316/406 284/333/406
f 263/335/407 269/330/407 285/320/407
f 269/330/408 209/273/408 235/260/408
f 263/335/409 283/314/409 286/316/409
f 300/336/410 296/343/410 288/337/410
f 295/339/411 289/353/411 301/340/411
f 299/342/412 291/352/412 288/337/412
f 294/344/413 291/352/413 242/288/413
f 302/346/414 292/351/414 243/290/414
f 298/347/415 273/350/415 267/348/415
f 253/295/416 216/296/416 273/350/416
f 301/340/417 289/353/417 292/351/417
f 288/337/418 291/352/418 294/344/418
f 255/299/419 242/288/419 291/352/419
f 293/338/420 294/344/420 292/351/420
f 294/344/421 249/345/421 243/290/421
f 295/339/422 300/336/422 293/338/422
f 265/354/423 275/360/423 300/336/423
f 215/302/424 255/299/424 299/342/424
f 241/303/425 253/295/425 298/347/425
f 290/356/426 298/347/426 297/349/426
f 272/355/427 299/342/427 296/343/427
f 265/354/428 295/339/428 303/341/428
f 275/360/429 268/358/429 296/343/429
f 284/359/430 303/341/430 297/349/430
f 287/357/431 301/340/431 302/346/431
f 290/356/432 302/346/432 260/310/432
f 303/341/433 301/340/433 287/357/433
