# Blender 4.4.1
# www.blender.org
mtllib Tree.mtl
o Cube
v 1.690238 81.774178 -1.690238
v 2.320594 -12.947672 -2.320594
v 1.690238 81.774178 1.690238
v 2.320594 -12.947672 2.320594
v -1.690238 81.774178 -1.690238
v -2.320594 -12.947672 -2.320594
v -1.690238 81.774178 1.690238
v -2.320594 -12.947672 2.320594
v 0.000000 -12.947672 -3.136352
v 0.000000 81.774178 2.284407
v 0.000000 -12.947672 3.136352
v 0.000000 81.774178 -2.284407
v -3.136352 -12.947672 0.000000
v 2.284407 81.774178 0.000000
v -2.284407 81.774178 0.000000
v 3.136352 -12.947672 0.000000
v 0.000000 -12.947672 0.000000
v 0.000000 113.204178 0.000000
v -2.890624 -12.947672 1.229253
v 2.105428 81.774178 0.895344
v -0.000000 -12.947672 1.661371
v -0.000000 113.204178 1.210084
v -2.105428 81.774178 0.895344
v 2.890624 -12.947672 1.229253
v -2.105428 81.774178 -0.895344
v 2.890624 -12.947672 -1.229253
v -2.890624 -12.947672 -1.229253
v 2.105428 81.774178 -0.895344
v -0.000000 -12.947672 -1.661371
v -0.000000 113.204178 -1.210084
v -1.229253 -12.947672 -2.890624
v -0.895344 81.774178 2.105428
v -1.229253 -12.947672 2.890624
v -0.895344 81.774178 -2.105428
v -1.661371 -12.947672 -0.000000
v -1.210084 113.204178 -0.000000
v -1.445312 -12.947672 1.445312
v -1.052714 113.204178 1.052714
v -1.052714 113.204178 -1.052714
v -1.445312 -12.947672 -1.445312
v 1.229253 -12.947672 2.890624
v 0.895344 81.774178 -2.105428
v 1.229253 -12.947672 -2.890624
v 0.895344 81.774178 2.105428
v 1.210084 113.204178 -0.000000
v 1.661371 -12.947672 -0.000000
v 1.052714 113.204178 1.052714
v 1.445312 -12.947672 1.445312
v 1.445312 -12.947672 -1.445312
v 1.052714 113.204178 -1.052714
v -17.986938 86.847488 20.998119
v -16.430843 55.284916 22.626919
v 4.892720 86.847488 -0.860320
v 6.448817 55.284916 0.768477
v -3.460420 78.504768 -29.267206
v -3.460420 82.273964 -29.267202
v -4.226888 78.229874 -29.542101
v -5.345017 78.091782 -29.680185
v -5.345017 82.686951 -29.680185
v -4.226886 82.548859 -29.542101
v -3.185521 81.507500 -29.542101
v -3.047437 80.389366 -29.680185
v -3.185521 79.271233 -29.542101
v -3.047435 78.091782 -27.382608
v -3.185521 78.229874 -28.500734
v -3.185523 82.548859 -28.500734
v -3.047437 82.686951 -27.382608
v -5.345016 79.133698 -30.329470
v -5.345019 80.389366 -30.546865
v -5.345016 81.645035 -30.329470
v -4.153359 79.197708 -30.130312
v -4.089345 80.389366 -30.329470
v -4.153359 81.581024 -30.130308
v -2.597310 79.197708 -28.574263
v -2.398150 80.389366 -28.638277
v -2.597310 81.581024 -28.574263
v -2.398152 79.133698 -27.382605
v -2.180755 80.389366 -27.382608
v -2.398150 81.645035 -27.382608
v -5.345017 77.442497 -28.638277
v -4.153359 77.641663 -28.574266
v -5.345016 77.225098 -27.382605
v -4.089345 77.442497 -27.382608
v -4.594724 83.021790 -28.209276
v -5.345017 83.093742 -28.450754
v -4.276864 83.093742 -27.382601
v -3.116479 78.160828 -27.941671
v -3.116481 82.617905 -27.941668
v -2.497731 79.165703 -27.978434
v -2.289453 80.389366 -28.010439
v -2.497731 81.613029 -27.978434
v -5.345016 77.333801 -28.010439
v -4.121352 77.542084 -27.978434
v -4.504048 83.041710 -27.989336
v -5.345017 82.829002 -27.590494
v -4.785953 78.160828 -29.611143
v -4.785953 82.617905 -29.611139
v -4.749187 79.165703 -30.229891
v -4.717179 80.389366 -30.438169
v -4.749187 81.613029 -30.229891
v -4.749188 77.542084 -28.606272
v -4.717183 77.333801 -27.382608
v -4.812892 83.041710 -28.298178
v -5.143966 82.829002 -27.382601
v -5.189368 82.830505 -27.519922
v -4.733184 77.437943 -27.994440
v -3.844874 78.288208 -29.426249
v -3.844874 82.491074 -29.426245
v -3.663030 81.589882 -29.876711
v -3.557551 80.389641 -30.052725
v -3.663030 79.189407 -29.876711
v -3.663030 77.839706 -28.521093
v -3.557551 77.664467 -27.382605
v -3.557551 83.058533 -27.382605
v -3.663030 82.939575 -28.521097
v -3.610290 82.995621 -27.918337
v -3.610291 77.752090 -27.918341
v -3.301375 78.288208 -28.882746
v -3.301375 82.491074 -28.882746
v -2.850909 79.189407 -29.064592
v -2.674897 80.389641 -29.170073
v -2.850907 81.589882 -29.064592
v -5.345016 77.664467 -29.170069
v -4.206527 77.839706 -29.064592
v -4.206527 82.939575 -29.064592
v -5.345017 83.058533 -29.170073
v -4.809279 82.995621 -29.117334
v -4.809279 77.752090 -29.117334
v -3.753953 82.751213 -28.973673
v -3.753953 78.063957 -28.973669
v -5.345017 85.820595 -27.606928
v -5.345017 85.797791 -27.382608
v -5.127532 85.820595 -27.382605
v -5.172936 85.822098 -27.536356
v -7.229615 78.504768 -29.267202
v -7.229615 82.273964 -29.267202
v -6.463149 78.229874 -29.542101
v -6.463151 82.548859 -29.542101
v -7.504512 81.507500 -29.542101
v -7.642600 80.389366 -29.680185
v -7.504512 79.271233 -29.542101
v -7.642598 78.091782 -27.382605
v -7.504512 78.229874 -28.500734
v -7.504516 82.548859 -28.500734
v -7.642598 82.686951 -27.382601
v -6.536675 79.197708 -30.130312
v -6.600688 80.389366 -30.329470
v -6.536675 81.581024 -30.130312
v -8.092723 79.197708 -28.574263
v -8.291883 80.389366 -28.638277
v -8.092723 81.581024 -28.574263
v -8.291883 79.133698 -27.382601
v -8.509280 80.389366 -27.382605
v -8.291883 81.645035 -27.382605
v -6.536675 77.641663 -28.574263
v -6.600688 77.442497 -27.382605
v -6.095313 83.021790 -28.209276
v -6.413171 83.093742 -27.382605
v -7.573554 78.160828 -27.941671
v -7.573554 82.617905 -27.941668
v -8.192302 79.165703 -27.978434
v -8.400582 80.389366 -28.010439
v -8.192302 81.613029 -27.978434
v -6.568683 77.542076 -27.978434
v -6.185987 83.041710 -27.989336
v -5.904082 78.160828 -29.611139
v -5.904084 82.617905 -29.611139
v -5.940845 79.165703 -30.229891
v -5.972852 80.389366 -30.438166
v -5.940845 81.613029 -30.229891
v -5.940846 77.542084 -28.606268
v -5.972852 77.333801 -27.382605
v -5.877141 83.041710 -28.298178
v -5.546067 82.829002 -27.382608
v -5.500667 82.830505 -27.519922
v -5.956849 77.437943 -27.994440
v -6.845160 78.288208 -29.426249
v -6.845159 82.491074 -29.426249
v -7.027005 81.589882 -29.876711
v -7.132483 80.389641 -30.052725
v -7.027005 79.189407 -29.876711
v -7.027005 77.839706 -28.521093
v -7.132482 77.664467 -27.382601
v -7.132483 83.058533 -27.382605
v -7.027005 82.939575 -28.521093
v -7.079745 82.995621 -27.918344
v -7.079745 77.752090 -27.918341
v -7.388659 78.288208 -28.882746
v -7.388659 82.491074 -28.882746
v -7.839124 79.189407 -29.064592
v -8.015136 80.389641 -29.170069
v -7.839124 81.589882 -29.064592
v -6.483504 77.839706 -29.064592
v -6.483506 82.939575 -29.064592
v -5.880752 82.995621 -29.117334
v -5.880754 77.752090 -29.117334
v -6.936084 82.751213 -28.973673
v -6.936084 78.063957 -28.973673
v -5.562501 85.820595 -27.382605
v -5.517098 85.822098 -27.536356
v -3.460418 78.504768 -25.498007
v -3.460420 82.273964 -25.498007
v -4.226886 78.229874 -25.223108
v -5.345017 78.091782 -25.085024
v -5.345016 82.686951 -25.085024
v -4.226886 82.548859 -25.223108
v -3.185523 81.507500 -25.223108
v -3.047437 80.389366 -25.085024
v -3.185523 79.271233 -25.223108
v -3.185521 78.229874 -26.264475
v -3.185519 82.548859 -26.264475
v -5.345017 79.133698 -24.435740
v -5.345017 80.389366 -24.218344
v -5.345019 81.645035 -24.435740
v -4.153359 79.197708 -24.634897
v -4.089345 80.389366 -24.435740
v -4.153361 81.581024 -24.634897
v -2.597312 79.197708 -26.190947
v -2.398150 80.389366 -26.126932
v -2.597312 81.581024 -26.190947
v -5.345017 77.442497 -26.126932
v -4.153359 77.641663 -26.190947
v -4.594722 83.021790 -26.555933
v -5.345016 83.093742 -26.314455
v -3.116479 78.160828 -26.823542
v -3.116481 82.617905 -26.823542
v -2.497733 79.165703 -26.786776
v -2.289454 80.389366 -26.754770
v -2.497733 81.613029 -26.786776
v -5.345017 77.333801 -26.754770
v -4.121352 77.542084 -26.786776
v -4.504046 83.041710 -26.775877
v -5.345016 82.829002 -27.174715
v -4.785949 78.160828 -25.154070
v -4.785951 82.617905 -25.154070
v -4.749188 79.165703 -24.535318
v -4.717181 80.389366 -24.327044
v -4.749188 81.613029 -24.535318
v -4.749190 77.542084 -26.158941
v -4.812894 83.041710 -26.467031
v -5.189366 82.830505 -27.245287
v -4.733184 77.437943 -26.770769
v -3.844874 78.288208 -25.338961
v -3.844878 82.491074 -25.338964
v -3.663030 81.589882 -24.888498
v -3.557549 80.389641 -24.712488
v -3.663028 79.189407 -24.888498
v -3.663028 77.839706 -26.244116
v -3.663028 82.939575 -26.244116
v -3.610290 82.995621 -26.846869
v -3.610290 77.752090 -26.846869
v -3.301375 78.288208 -25.882463
v -3.301375 82.491074 -25.882463
v -2.850911 79.189407 -25.700617
v -2.674899 80.389641 -25.595140
v -2.850911 81.589882 -25.700617
v -5.345019 77.664467 -25.595140
v -4.206529 77.839706 -25.700617
v -4.206527 82.939575 -25.700617
v -5.345017 83.058533 -25.595140
v -4.809283 82.995621 -25.647875
v -4.809283 77.752090 -25.647875
v -3.753953 82.751213 -25.791536
v -3.753955 78.063957 -25.791540
v -5.345017 85.820595 -27.158281
v -5.172935 85.822098 -27.228853
v -7.229613 78.504768 -25.498007
v -7.229615 82.273964 -25.498007
v -6.463147 78.229874 -25.223108
v -6.463149 82.548859 -25.223108
v -7.504514 81.507500 -25.223108
v -7.642596 80.389366 -25.085024
v -7.504514 79.271233 -25.223108
v -7.504514 78.229866 -26.264475
v -7.504512 82.548859 -26.264475
v -6.536674 79.197708 -24.634901
v -6.600688 80.389366 -24.435740
v -6.536674 81.581024 -24.634897
v -8.092723 79.197708 -26.190950
v -8.291883 80.389366 -26.126932
v -8.092723 81.581024 -26.190950
v -6.536677 77.641663 -26.190943
v -6.095313 83.021790 -26.555933
v -7.573554 78.160828 -26.823542
v -7.573554 82.617905 -26.823538
v -8.192302 79.165703 -26.786776
v -8.400580 80.389366 -26.754770
v -8.192302 81.613029 -26.786776
v -6.568683 77.542084 -26.786776
v -6.185988 83.041710 -26.775877
v -5.904082 78.160828 -25.154070
v -5.904082 82.617905 -25.154070
v -5.940846 79.165703 -24.535318
v -5.972854 80.389366 -24.327040
v -5.940846 81.613029 -24.535318
v -5.940848 77.542084 -26.158941
v -5.877141 83.041710 -26.467035
v -5.500667 82.830505 -27.245287
v -5.956851 77.437943 -26.770769
v -6.845160 78.288208 -25.338964
v -6.845160 82.491074 -25.338961
v -7.027007 81.589882 -24.888498
v -7.132483 80.389641 -24.712484
v -7.027007 79.189407 -24.888498
v -7.027003 77.839706 -26.244116
v -7.027005 82.939575 -26.244116
v -7.079745 82.995621 -26.846872
v -7.079745 77.752090 -26.846872
v -7.388659 78.288208 -25.882463
v -7.388659 82.491074 -25.882463
v -7.839126 79.189407 -25.700617
v -8.015138 80.389641 -25.595140
v -7.839126 81.589882 -25.700617
v -6.483508 77.839706 -25.700617
v -6.483508 82.939575 -25.700617
v -5.880754 82.995621 -25.647875
v -5.880754 77.752090 -25.647875
v -6.936084 82.751213 -25.791536
v -6.936082 78.063957 -25.791536
v -5.517098 85.822098 -27.228853
v 16.906582 102.468567 -12.611139
v 1.621471 84.822533 0.860551
v 16.394154 103.152130 -12.861498
v 1.153545 85.407265 0.687283
v 16.990360 102.070168 -13.661644
v 1.966212 84.481750 -0.415534
v 16.477928 102.753738 -13.912001
v 1.498291 85.066475 -0.588802
v 1.876088 84.549362 0.252963
v 16.345970 103.073074 -13.430748
v 1.243673 85.339653 0.018785
v 17.038536 102.149216 -13.092390
v 1.792845 84.714211 -0.726459
v 16.635639 102.880363 -12.551676
v 16.748863 102.341919 -13.971460
v 1.326914 85.174805 0.998207
v 1.559874 84.944519 0.135875
v 27.366505 108.473175 -17.707026
v 1.650660 84.887123 -0.704790
v 16.504356 103.040321 -12.673607
v 1.392380 85.153824 0.073852
v 27.200008 108.692444 -17.784380
v 16.608711 102.544067 -13.982151
v 1.221235 85.311630 0.884752
v 16.880154 102.181976 -13.849537
v 1.469104 85.001884 0.976535
v 1.898523 84.577377 -0.613005
v 16.775795 102.678230 -12.540985
v 1.727379 84.735191 0.197898
v 27.532993 108.253914 -17.629663
v 1.942619 84.490059 -0.094191
v 16.395290 102.931381 -13.695730
v 1.359754 85.218437 -0.310022
v 17.033596 102.079887 -13.383877
v 1.683280 84.822510 -0.320915
v 27.413013 108.345398 -18.071117
v 1.521523 85.020462 -0.315469
v 27.262131 108.552750 -18.091063
v 27.551804 108.171265 -17.956463
v 1.812953 84.656288 -0.207552
v 1.177139 85.398949 0.365940
v 16.989220 102.290924 -12.827412
v 1.760003 84.670578 0.581770
v 16.350914 103.142395 -13.139263
v 27.319992 108.600952 -17.342932
v 1.436477 85.066505 0.592663
v 27.181210 108.775070 -17.457582
v 1.306807 85.232727 0.479303
v 1.598243 84.868538 0.587215
v 27.470882 108.393600 -17.322983
v -21.882919 86.043884 34.215126
v -0.613165 65.524422 -0.507576
v -21.229500 86.838760 34.101727
v -0.054215 66.204376 -0.663267
v -21.245838 85.580627 35.261948
v -0.068192 65.128143 0.929646
v -20.592419 86.375496 35.148544
v 0.490757 65.808090 0.773956
v -0.438921 65.206764 0.238401
v -20.796108 86.746841 34.605202
v 0.316515 66.125748 0.027981
v -21.679226 85.672539 34.758465
v 0.307070 65.398460 1.104414
v -21.668184 86.522758 33.974426
v -20.807152 85.896637 35.389236
v -0.429477 65.934052 -0.838033
v -0.061204 65.666260 0.133189
v -28.264309 93.026276 46.145554
v 0.426258 65.599533 0.987085
v -21.461395 86.708748 33.999825
v 0.138879 65.909653 0.077458
v -28.054729 93.281235 46.104950
v -20.667818 86.131699 35.303787
v -0.252582 66.093170 -0.803177
v -21.013943 85.710632 35.363850
v -0.548665 65.732979 -0.720704
v 0.130175 65.239349 1.069557
v -21.807518 86.287689 34.059887
v -0.261287 65.422852 0.188923
v -28.473892 92.771317 46.186134
v -0.264988 65.137817 0.610815
v -20.661972 86.582062 34.888466
v 0.431262 65.984787 0.416883
v -21.475899 85.591934 35.029720
v 0.133876 65.524399 0.647661
v -28.059967 92.877686 46.520271
v 0.282569 65.754593 0.532272
v -27.904213 93.118813 46.436226
v -28.268871 92.675201 46.506851
v -0.065556 65.331108 0.629238
v 0.142581 66.194702 -0.344435
v -21.813366 85.837326 34.475208
v -0.553668 65.347725 -0.150501
v -20.999439 86.827454 34.333950
v -28.468651 93.174866 45.770821
v -0.256284 65.808113 -0.381282
v -28.259750 93.377335 45.784241
v -0.056851 66.001411 -0.362858
v -0.404975 65.577919 -0.265891
v -28.624405 92.933739 45.854866
v -7.017238 91.564636 -40.250427
v 0.886634 71.045166 -0.305503
v -7.420703 92.359512 -39.724091
v 0.581286 71.725121 0.187878
v -8.195247 91.101364 -40.588074
v -0.488330 70.648880 -0.992580
v -8.598712 91.896240 -40.061729
v -0.793677 71.328842 -0.499202
v 0.252820 70.727516 -0.735763
v -8.080623 92.267586 -39.800400
v -0.159866 71.646492 -0.068942
v -7.535325 91.193283 -40.511765
v -0.882674 70.919205 -0.866652
v -7.011922 92.043495 -39.927917
v -8.604035 91.417381 -40.384247
v 0.975630 71.454803 0.061951
v 0.046478 71.186996 -0.402346
v -10.414189 98.547012 -53.346909
v -0.890753 71.120277 -0.699604
v -7.181149 92.229492 -39.806389
v -0.062824 71.430405 -0.225739
v -10.540738 98.801987 -53.174973
v -8.648528 91.652435 -40.226967
v 0.821959 71.613907 0.156247
v -8.434802 91.231377 -40.505775
v 0.983706 71.253723 -0.105105
v -0.729003 70.760094 -0.960951
v -6.967427 91.808434 -40.085197
v 0.155780 70.943604 -0.578963
v -10.287642 98.292068 -53.518829
v -0.127515 70.658554 -0.891616
v -8.371264 92.102806 -39.917694
v -0.507869 71.505539 -0.277041
v -7.868693 91.112671 -40.573326
v -0.445706 71.045143 -0.648296
v -10.818442 98.398430 -53.483841
v -0.476788 71.275337 -0.462671
v -10.875964 98.639549 -53.316467
v -10.655780 98.195946 -53.615601
v -0.286611 70.851852 -0.769957
v 0.220471 71.715446 0.086915
v -7.244683 91.358078 -40.394470
v 0.600823 70.868469 -0.527659
v -7.747258 92.348206 -39.738838
v -10.009933 98.695610 -53.209976
v 0.538664 71.328857 -0.156405
v -10.172606 98.898087 -53.078217
v 0.379567 71.522163 -0.034743
v 0.569742 71.098663 -0.342035
v -9.952413 98.454483 -53.377342
v -10.680655 90.132538 -5.518496
v -9.100133 66.510353 -4.931704
v -2.437995 90.132538 -27.720037
v -0.857472 66.510353 -27.133242
v -24.869652 106.159424 25.500269
v -28.976936 81.187286 44.494827
v -3.064403 90.113388 9.119607
v -7.171686 65.141251 28.114162
v -8.913364 127.711639 3.821568
v -10.263821 102.739510 23.208139
v 10.326951 111.665604 -15.507301
v 8.976495 86.693466 3.879268
v -14.544396 114.941193 -40.351807
v -1.108039 89.969063 -26.311605
v -15.903907 98.895164 -67.590500
v -2.467553 73.923027 -53.550301
v 2.943086 98.260010 -4.431449
v 16.379440 73.287880 9.608753
v 1.583573 82.213974 -31.670149
v 15.019931 57.241840 -17.629948
v 10.871690 124.160736 -16.082401
v 24.308048 99.188599 -2.042198
v 9.512177 108.114700 -43.321091
v 22.948532 83.142563 -29.280897
vn -0.9143 0.0682 0.3993
vn -0.3992 0.0682 0.9143
vn -0.5606 0.6094 0.5606
vn -0.2461 -0.6733 0.6972
vn -0.5379 0.6490 0.5379
vn -0.5422 -0.6420 0.5422
vn -0.6972 -0.6733 -0.2461
vn -0.5379 0.6490 -0.5379
vn -0.5422 -0.6420 -0.5422
vn -0.0000 -1.0000 -0.0000
vn 0.5422 -0.6420 0.5422
vn 0.2461 -0.6733 0.6972
vn 0.6972 -0.6733 0.2461
vn 0.5379 0.6490 0.5379
vn 0.2461 -0.6733 -0.6972
vn 0.5379 0.6490 -0.5379
vn 0.5422 -0.6420 -0.5422
vn -0.3992 0.0682 -0.9143
vn -0.0000 -0.6622 -0.7493
vn -0.2461 -0.6733 -0.6972
vn 0.3992 0.0682 0.9143
vn -0.0000 -0.6622 0.7493
vn -0.0000 0.6872 0.7264
vn 0.5606 0.6094 0.5606
vn 0.5606 0.6094 -0.5606
vn -0.0000 1.0000 -0.0000
vn 0.7264 0.6872 -0.0000
vn 0.9143 0.0682 -0.3993
vn 0.7493 -0.6622 -0.0000
vn 0.6972 -0.6733 -0.2461
vn -0.7493 -0.6622 -0.0000
vn -0.6972 -0.6733 0.2461
vn -0.9143 0.0682 -0.3993
vn -0.7264 0.6872 -0.0000
vn -0.5606 0.6094 -0.5606
vn 0.9143 0.0682 0.3993
vn 0.3992 0.0682 -0.9143
vn -0.0000 0.6872 -0.7264
vn -0.0000 0.0215 -0.9998
vn -0.0000 0.0215 0.9998
vn 0.9998 0.0215 -0.0000
vn 0.6890 0.0712 0.7212
vn 0.1711 -0.0000 -0.9853
vn 0.3001 -0.3397 -0.8914
vn 0.1724 -0.3515 -0.9202
vn 0.2999 0.3396 -0.8915
vn 0.3197 -0.0000 -0.9475
vn 0.1724 0.3515 -0.9202
vn 0.2392 0.6368 -0.7330
vn 0.4986 0.3320 -0.8007
vn 0.6027 0.5231 -0.6027
vn 0.6749 0.2982 -0.6749
vn 0.5271 0.0001 -0.8498
vn 0.7071 -0.0000 -0.7071
vn 0.6749 -0.2983 -0.6749
vn 0.4986 -0.3319 -0.8008
vn 0.5981 -0.5335 -0.5981
vn 0.4446 -0.6169 -0.6495
vn 0.2451 -0.6315 -0.7357
vn 0.1710 -0.6502 -0.7403
vn 0.9202 -0.3515 -0.1724
vn 1.0000 -0.0000 -0.0000
vn 0.9348 -0.3553 -0.0000
vn 0.9202 0.3515 -0.1724
vn 0.9853 -0.0000 -0.1711
vn 0.8008 -0.3319 -0.4986
vn 0.7357 -0.6315 -0.2451
vn 0.6495 -0.6169 -0.4446
vn 0.8498 -0.0000 -0.5271
vn 0.8914 -0.3397 -0.3001
vn 0.8915 0.3396 -0.2999
vn 0.9475 -0.0000 -0.3197
vn 0.8007 0.3320 -0.4986
vn 0.7330 0.6368 -0.2392
vn 0.7270 0.6648 -0.1719
vn 0.9348 0.3553 -0.0000
vn 0.7403 -0.6502 -0.1710
vn 0.7519 -0.6593 -0.0000
vn 0.2815 -0.9441 -0.1717
vn 0.1714 -0.9852 -0.0000
vn 0.1699 -0.9707 -0.1699
vn 0.2998 -0.8207 -0.4864
vn 0.1718 -0.9441 -0.2815
vn 0.1744 -0.8411 -0.5120
vn 0.4864 -0.8207 -0.2998
vn 0.4687 -0.7487 -0.4687
vn 0.5120 -0.8411 -0.1744
vn 0.5195 -0.8545 -0.0000
vn 0.3401 0.8867 -0.3132
vn -0.0000 0.6568 -0.7540
vn 0.5629 0.6520 -0.5080
vn 0.2106 0.9000 -0.3816
vn 0.3825 0.8994 -0.2117
vn 0.4721 0.7445 -0.4721
vn 0.1376 0.9299 -0.3411
vn -0.0000 0.9959 0.0908
vn 0.0321 0.9976 0.0619
vn 0.3430 0.9293 -0.1366
vn -0.0796 0.9968 -0.0000
vn 0.3415 0.9399 -0.0000
vn -0.0640 0.9978 -0.0172
vn -0.0000 0.8944 -0.4472
vn 0.2922 -0.9106 -0.2922
vn -0.0000 -0.9852 -0.1714
vn -0.0000 -0.9591 -0.2832
vn 0.1043 0.9890 -0.1052
vn 0.4856 0.8742 -0.0000
vn -0.0000 -0.8545 -0.5195
vn -0.0000 -0.3553 -0.9348
vn -0.0000 -0.6593 -0.7519
vn -0.0000 0.3553 -0.9348
vn 0.1719 0.6648 -0.7270
vn -0.0000 -0.0000 -1.0000
vn 0.7347 0.6784 -0.0000
vn 0.6625 0.6082 -0.4372
vn 0.2832 -0.9591 -0.0000
vn -0.0000 0.6784 -0.7347
vn 0.4372 0.6082 -0.6625
vn 0.7363 0.6766 -0.0000
vn -0.3001 -0.3397 -0.8914
vn -0.1711 -0.0000 -0.9853
vn -0.1724 -0.3515 -0.9202
vn -0.2999 0.3396 -0.8915
vn -0.1724 0.3515 -0.9202
vn -0.2392 0.6368 -0.7330
vn -0.1719 0.6648 -0.7270
vn -0.4986 0.3320 -0.8007
vn -0.6027 0.5231 -0.6027
vn -0.4372 0.6082 -0.6625
vn -0.5271 -0.0000 -0.8498
vn -0.6749 0.2982 -0.6749
vn -0.6749 -0.2983 -0.6749
vn -0.4986 -0.3319 -0.8008
vn -0.5981 -0.5335 -0.5981
vn -0.4446 -0.6169 -0.6495
vn -0.2451 -0.6315 -0.7357
vn -0.1710 -0.6502 -0.7403
vn -0.9202 -0.3515 -0.1724
vn -1.0000 -0.0000 -0.0000
vn -0.9853 -0.0000 -0.1711
vn -0.9202 0.3515 -0.1724
vn -0.7357 -0.6315 -0.2451
vn -0.8008 -0.3319 -0.4986
vn -0.6495 -0.6169 -0.4446
vn -0.8914 -0.3397 -0.3001
vn -0.8498 -0.0000 -0.5271
vn -0.8915 0.3396 -0.2999
vn -0.8007 0.3320 -0.4986
vn -0.7330 0.6368 -0.2392
vn -0.6625 0.6082 -0.4372
vn -0.9348 0.3553 -0.0000
vn -0.7270 0.6648 -0.1719
vn -0.7403 -0.6502 -0.1710
vn -0.9348 -0.3553 -0.0000
vn -0.1714 -0.9852 -0.0000
vn -0.2815 -0.9441 -0.1717
vn -0.1699 -0.9707 -0.1699
vn -0.1717 -0.9441 -0.2815
vn -0.2998 -0.8207 -0.4864
vn -0.1744 -0.8411 -0.5120
vn -0.4864 -0.8207 -0.2998
vn -0.4687 -0.7487 -0.4687
vn -0.5120 -0.8411 -0.1744
vn -0.7519 -0.6593 -0.0000
vn -0.3401 0.8867 -0.3132
vn -0.3825 0.8994 -0.2117
vn -0.2106 0.9000 -0.3816
vn -0.4721 0.7445 -0.4721
vn -0.1376 0.9299 -0.3411
vn -0.0000 0.9399 -0.3415
vn -0.3430 0.9293 -0.1365
vn 0.0796 0.9968 -0.0000
vn 0.0640 0.9978 -0.0172
vn -0.1042 0.9890 -0.1052
vn -0.0321 0.9976 0.0619
vn -0.2922 -0.9106 -0.2922
vn -0.9475 -0.0000 -0.3197
vn -0.4856 0.8742 -0.0000
vn -0.7347 0.6784 -0.0000
vn -0.2832 -0.9591 -0.0000
vn -0.3197 -0.0000 -0.9475
vn -0.7071 -0.0000 -0.7071
vn -0.5629 0.6520 -0.5080
vn -0.7363 0.6766 -0.0000
vn 0.3001 -0.3397 0.8914
vn 0.1711 -0.0000 0.9853
vn 0.1724 -0.3515 0.9202
vn 0.2999 0.3396 0.8915
vn 0.1724 0.3515 0.9202
vn 0.2392 0.6368 0.7330
vn 0.1719 0.6648 0.7270
vn 0.4986 0.3320 0.8007
vn 0.6027 0.5231 0.6027
vn 0.4372 0.6082 0.6625
vn 0.5271 -0.0000 0.8498
vn 0.6749 0.2982 0.6749
vn 0.6749 -0.2983 0.6749
vn 0.4986 -0.3319 0.8008
vn 0.5981 -0.5335 0.5981
vn 0.4446 -0.6169 0.6495
vn 0.2451 -0.6315 0.7357
vn 0.1710 -0.6502 0.7403
vn 0.9202 -0.3515 0.1724
vn 0.9853 -0.0000 0.1711
vn 0.9202 0.3515 0.1724
vn 0.7357 -0.6315 0.2451
vn 0.8008 -0.3319 0.4986
vn 0.6495 -0.6169 0.4446
vn 0.8914 -0.3397 0.3001
vn 0.8498 0.0001 0.5271
vn 0.8915 0.3396 0.2999
vn 0.8007 0.3320 0.4986
vn 0.7330 0.6368 0.2392
vn 0.6625 0.6082 0.4372
vn 0.7270 0.6648 0.1719
vn 0.7403 -0.6502 0.1710
vn 0.2815 -0.9441 0.1717
vn 0.1699 -0.9707 0.1699
vn 0.1717 -0.9441 0.2815
vn 0.2998 -0.8207 0.4864
vn 0.1744 -0.8411 0.5120
vn 0.4864 -0.8207 0.2998
vn 0.4687 -0.7487 0.4687
vn 0.5120 -0.8411 0.1744
vn 0.3401 0.8867 0.3132
vn -0.0000 0.6568 0.7540
vn -0.0000 0.8944 0.4473
vn 0.3825 0.8994 0.2117
vn 0.2106 0.9000 0.3816
vn 0.4721 0.7445 0.4721
vn 0.1376 0.9299 0.3411
vn -0.0000 0.9959 -0.0908
vn -0.0000 0.9399 0.3415
vn 0.3430 0.9293 0.1365
vn -0.0640 0.9978 0.0172
vn 0.1042 0.9890 0.1052
vn 0.0321 0.9976 -0.0619
vn 0.2922 -0.9106 0.2922
vn 0.9475 -0.0000 0.3197
vn -0.0000 -0.9852 0.1714
vn -0.0000 -0.9591 0.2832
vn -0.0000 -0.8545 0.5195
vn -0.0000 -0.3553 0.9348
vn -0.0000 -0.6593 0.7519
vn -0.0000 0.3553 0.9348
vn -0.0000 0.6784 0.7347
vn -0.0000 -0.0000 1.0000
vn 0.3197 -0.0000 0.9475
vn 0.7071 -0.0000 0.7071
vn 0.5629 0.6520 0.5080
vn -0.1711 -0.0000 0.9853
vn -0.3001 -0.3397 0.8914
vn -0.1724 -0.3515 0.9202
vn -0.2999 0.3396 0.8915
vn -0.3197 -0.0000 0.9475
vn -0.1724 0.3515 0.9202
vn -0.2392 0.6368 0.7330
vn -0.4986 0.3320 0.8007
vn -0.6027 0.5231 0.6027
vn -0.6749 0.2982 0.6749
vn -0.5271 -0.0000 0.8498
vn -0.7071 -0.0000 0.7071
vn -0.6749 -0.2983 0.6749
vn -0.4986 -0.3319 0.8008
vn -0.5981 -0.5335 0.5981
vn -0.4446 -0.6169 0.6495
vn -0.2451 -0.6315 0.7357
vn -0.1710 -0.6502 0.7403
vn -0.9202 -0.3515 0.1724
vn -0.9202 0.3515 0.1724
vn -0.9853 -0.0000 0.1711
vn -0.8008 -0.3319 0.4986
vn -0.7357 -0.6315 0.2451
vn -0.6495 -0.6169 0.4446
vn -0.8498 -0.0000 0.5271
vn -0.8914 -0.3397 0.3001
vn -0.8915 0.3396 0.2999
vn -0.9475 -0.0000 0.3197
vn -0.8007 0.3320 0.4986
vn -0.7330 0.6368 0.2392
vn -0.7270 0.6648 0.1719
vn -0.7403 -0.6502 0.1710
vn -0.2815 -0.9441 0.1717
vn -0.1699 -0.9707 0.1699
vn -0.2998 -0.8207 0.4864
vn -0.1717 -0.9441 0.2815
vn -0.1744 -0.8411 0.5120
vn -0.4864 -0.8207 0.2998
vn -0.4687 -0.7487 0.4687
vn -0.5120 -0.8411 0.1744
vn -0.5195 -0.8545 -0.0000
vn -0.3401 0.8867 0.3132
vn -0.5629 0.6520 0.5080
vn -0.2106 0.9000 0.3816
vn -0.3825 0.8994 0.2117
vn -0.4721 0.7445 0.4721
vn -0.1376 0.9299 0.3411
vn -0.0321 0.9976 -0.0619
vn -0.3430 0.9293 0.1366
vn -0.3415 0.9399 -0.0000
vn 0.0640 0.9978 0.0172
vn -0.2922 -0.9106 0.2922
vn -0.1043 0.9890 0.1052
vn -0.1719 0.6648 0.7270
vn -0.6625 0.6082 0.4372
vn -0.4372 0.6082 0.6625
vn -0.4218 -0.0312 -0.9062
vn -0.6609 0.4839 -0.5737
vn 0.1663 0.5658 -0.8076
vn -0.8675 -0.2364 -0.4377
vn -0.9375 -0.1538 -0.3120
vn -0.2422 -0.8603 -0.4486
vn 0.8792 -0.2150 -0.4252
vn 0.0326 -0.9917 -0.1245
vn -0.7742 -0.6316 -0.0405
vn -0.9573 0.1648 0.2377
vn -0.9939 -0.0018 -0.1104
vn -0.1290 0.7636 0.6327
vn -0.7898 0.0948 0.6060
vn 0.0504 -0.8940 0.4453
vn 0.8972 0.2272 0.3787
vn -0.0113 -0.7256 0.6880
vn 0.0565 -0.9902 0.1280
vn 0.7108 -0.6389 0.2944
vn 0.0739 -0.9509 0.3007
vn -0.7743 -0.6316 -0.0405
vn -0.5840 0.8116 0.0150
vn -0.9727 -0.0680 -0.2218
vn 0.1623 0.9697 0.1826
vn -0.6924 0.6546 -0.3035
vn 0.8360 0.0723 0.5439
vn 0.8091 0.5791 -0.0999
vn 0.5727 0.6214 0.5347
vn 0.4869 0.1440 0.8615
vn -0.4682 -0.1596 0.8691
vn -0.2079 -0.4873 0.8482
vn -0.7379 -0.4217 -0.5270
vn -0.1770 -0.4291 -0.8858
vn -0.4989 -0.6384 -0.5861
vn 0.8263 -0.3340 -0.4534
vn 0.5315 0.0990 -0.8413
vn 0.1602 0.4783 0.8635
vn 0.6709 -0.7411 -0.0265
vn 0.2160 -0.7020 -0.6787
vn 0.7329 -0.3945 0.5542
vn 0.9743 -0.1552 0.1632
vn 0.1549 0.9339 -0.3223
vn 0.0802 0.9874 0.1362
vn 0.8196 0.0164 0.5727
vn 0.7790 0.5974 0.1902
vn 0.3386 0.5658 0.7518
vn 0.9954 -0.0730 -0.0624
vn 0.9730 0.0344 -0.2280
vn 0.5169 -0.8395 0.1678
vn -0.4632 -0.3205 0.8263
vn 0.1997 -0.9794 0.0308
vn 0.6510 -0.6316 -0.4210
vn 0.6247 0.2847 -0.7271
vn 0.8638 0.1891 -0.4670
vn -0.3068 0.7701 -0.5593
vn 0.2982 0.1433 -0.9437
vn -0.1168 -0.9161 -0.3835
vn -0.9886 0.1002 0.1122
vn -0.2457 -0.7587 -0.6033
vn 0.0571 -0.9858 -0.1577
vn -0.6519 -0.7556 0.0641
vn -0.0491 -0.9617 -0.2695
vn 0.3550 0.9019 -0.2461
vn 0.9302 0.1297 -0.3432
vn -0.2386 0.9697 -0.0528
vn 0.6391 0.7674 -0.0505
vn -0.9962 0.0723 0.0494
vn -0.5970 0.5791 0.5552
vn -0.7774 0.6214 -0.0976
vn -0.2175 -0.5189 -0.8267
vn -0.6386 0.4381 -0.6327
vn -0.0549 -0.1476 -0.9875
vn 0.7790 -0.5883 0.2170
vn 0.9389 -0.3316 0.0917
vn -0.4037 -0.3340 0.8517
vn 0.6251 -0.4239 0.6554
vn 0.0625 0.0990 0.9931
vn 0.3080 0.6128 0.7278
vn -0.4363 -0.8450 0.3092
vn 0.2202 -0.7240 0.6537
vn -0.8668 0.0692 -0.4938
vn 0.6511 -0.6316 -0.4210
vn -0.8404 -0.5246 -0.1363
vn -0.8851 -0.1552 0.4388
vn 0.0634 0.9339 0.3519
vn -0.2560 0.9664 0.0235
vn -0.9908 0.0164 0.1347
vn -0.7017 0.5974 0.3883
vn -0.7586 0.5658 -0.3231
vn -0.6894 -0.0730 0.7207
vn -0.5607 0.0344 0.8273
vn -0.4937 -0.8395 0.2271
vn -0.2197 -0.3205 -0.9214
vn -0.1676 -0.9794 0.1128
vn -0.1932 -0.6316 0.7509
vn 0.0337 0.2847 0.9580
vn -0.3184 0.1891 0.9289
vn 0.6047 0.7701 0.2032
vn 0.4205 0.1432 0.8959
vn 0.3459 -0.9161 0.2028
vn 0.6507 0.1002 -0.7527
vn 0.5896 -0.7587 0.2769
vn 0.0650 -0.9858 0.1547
vn 0.4358 -0.7556 -0.4891
vn 0.2188 -0.9617 0.1648
vn -0.0942 0.9019 0.4216
vn -0.4512 0.1297 0.8830
vn 0.2112 0.9697 -0.1229
vn -0.4356 0.7674 0.4704
vn 0.6988 0.0723 -0.7116
vn 0.0625 0.5791 -0.8128
vn 0.6376 0.6214 -0.4553
vn 0.7203 -0.5189 0.4603
vn 0.8984 0.4381 0.0321
vn 0.7099 -0.1476 0.6887
vn -0.7197 -0.5884 0.3686
vn -0.7524 -0.3316 0.5691
vn -0.2807 -0.3340 -0.8998
vn -0.9039 -0.4239 -0.0581
vn -0.7192 0.0990 -0.6877
vn -0.7198 0.6128 -0.3262
vn 0.1111 -0.8450 -0.5231
vn -0.6050 -0.7240 -0.3313
vn 0.9720 0.0692 -0.2246
vn 0.7102 -0.5246 -0.4695
vn 0.3531 -0.1552 -0.9226
vn -0.2852 0.9339 -0.2157
vn 0.1723 0.9664 -0.1909
vn 0.9351 0.0712 0.3472
vn 0.7129 0.3465 0.6097
vn 0.7928 0.3465 0.5015
vn 0.9043 0.3465 -0.2492
vn -0.9998 0.0215 -0.0000
vn 0.0304 0.5903 -0.8066
vt 0.786387 0.832265
vt 0.783320 0.835319
vt 0.783320 0.832265
vt 0.761826 0.844533
vt 0.774106 0.847612
vt 0.761826 0.847612
vt 0.761826 0.807678
vt 0.774106 0.810758
vt 0.761826 0.810758
vt 0.758746 0.832265
vt 0.761826 0.835319
vt 0.758746 0.835319
vt 0.761826 0.832265
vt 0.774106 0.835319
vt 0.761826 0.819970
vt 0.774106 0.823051
vt 0.761826 0.823051
vt 0.774106 0.813836
vt 0.761826 0.816892
vt 0.761826 0.813836
vt 0.755679 0.832265
vt 0.752600 0.835319
vt 0.752600 0.832265
vt 0.774106 0.838399
vt 0.761826 0.841477
vt 0.761826 0.838399
vt 0.780253 0.832265
vt 0.777173 0.835319
vt 0.777173 0.832265
vt 0.777173 0.826104
vt 0.780253 0.829185
vt 0.777173 0.829185
vt 0.752600 0.826104
vt 0.755679 0.829185
vt 0.752600 0.829185
vt 0.774106 0.826104
vt 0.761826 0.829185
vt 0.761826 0.826104
vt 0.758746 0.829185
vt 0.758746 0.826104
vt 0.774106 0.801544
vt 0.761826 0.804624
vt 0.761826 0.801544
vt 0.786387 0.826104
vt 0.783320 0.829185
vt 0.783320 0.826104
vt 0.774106 0.798465
vt 0.761826 0.798465
vt 0.774106 0.832265
vt 0.783320 0.823051
vt 0.758746 0.823051
vt 0.752600 0.823051
vt 0.755679 0.826104
vt 0.777173 0.823051
vt 0.780253 0.826104
vt 0.774106 0.807678
vt 0.749533 0.823051
vt 0.749533 0.826104
vt 0.780253 0.823051
vt 0.749533 0.832265
vt 0.749533 0.829185
vt 0.749533 0.835319
vt 0.774106 0.844533
vt 0.780253 0.835319
vt 0.755679 0.823051
vt 0.774106 0.829185
vt 0.774106 0.819970
vt 0.755679 0.835319
vt 0.999755 0.000245
vt 0.666912 0.333088
vt 0.666912 0.000245
vt 0.430696 0.706889
vt 0.419027 0.696554
vt 0.424911 0.692573
vt 0.424354 0.721108
vt 0.423296 0.708490
vt 0.431330 0.722304
vt 0.420866 0.732694
vt 0.418751 0.721161
vt 0.413478 0.728199
vt 0.413387 0.720535
vt 0.417569 0.709734
vt 0.411961 0.710953
vt 0.409261 0.701629
vt 0.413893 0.698832
vt 0.406133 0.694578
vt 0.408281 0.690655
vt 0.411034 0.687458
vt 0.414800 0.681859
vt 0.395409 0.704755
vt 0.392875 0.715146
vt 0.390783 0.705712
vt 0.399543 0.723482
vt 0.397541 0.714114
vt 0.404370 0.702542
vt 0.398438 0.694609
vt 0.401951 0.694114
vt 0.406945 0.712050
vt 0.400123 0.703943
vt 0.404145 0.722246
vt 0.402308 0.713065
vt 0.408574 0.721747
vt 0.406516 0.731404
vt 0.401830 0.732964
vt 0.394963 0.724558
vt 0.393489 0.695113
vt 0.388622 0.695967
vt 0.392601 0.683473
vt 0.384386 0.676868
vt 0.392477 0.675996
vt 0.404991 0.684393
vt 0.400571 0.676393
vt 0.407688 0.677659
vt 0.398396 0.688909
vt 0.403374 0.689526
vt 0.392506 0.689265
vt 0.387343 0.690199
vt 0.250218 0.672586
vt 0.250447 0.789979
vt 0.249843 0.790769
vt 0.416559 0.737841
vt 0.408891 0.736513
vt 0.413034 0.734087
vt 0.421894 0.742779
vt 0.419030 0.754711
vt 0.413026 0.749312
vt 0.403368 0.738556
vt 0.399960 0.747094
vt 0.398310 0.739655
vt 0.407767 0.747572
vt 0.406605 0.760810
vt 0.404726 0.759141
vt 0.399253 0.683490
vt 0.392387 0.666912
vt 0.402294 0.667995
vt 0.410673 0.747320
vt 0.402641 0.759180
vt 0.410595 0.670693
vt 0.382431 0.668053
vt 0.431789 0.687890
vt 0.419237 0.675434
vt 0.439519 0.723736
vt 0.426498 0.736187
vt 0.439519 0.704985
vt 0.397105 0.734218
vt 0.409895 0.730366
vt 0.386072 0.684468
vt 0.433225 0.740223
vt 0.417032 0.730880
vt 0.250898 0.791013
vt 0.250244 0.791877
vt 0.250944 0.672865
vt 0.330369 0.719892
vt 0.336575 0.705593
vt 0.337384 0.721012
vt 0.324816 0.695388
vt 0.330633 0.691355
vt 0.316757 0.686363
vt 0.320384 0.680817
vt 0.319716 0.697708
vt 0.311962 0.693560
vt 0.314049 0.689628
vt 0.323475 0.708564
vt 0.315120 0.700543
vt 0.319373 0.719421
vt 0.324753 0.719998
vt 0.319519 0.727134
vt 0.323124 0.729781
vt 0.326971 0.731514
vt 0.332750 0.734996
vt 0.305498 0.722445
vt 0.298809 0.714099
vt 0.303474 0.713061
vt 0.301328 0.703726
vt 0.312532 0.730359
vt 0.314555 0.720662
vt 0.315925 0.729322
vt 0.310114 0.721187
vt 0.312868 0.710957
vt 0.306021 0.702900
vt 0.310245 0.701480
vt 0.304298 0.693599
vt 0.307799 0.693111
vt 0.296722 0.704687
vt 0.299392 0.694166
vt 0.307834 0.731994
vt 0.300901 0.723532
vt 0.307298 0.752377
vt 0.311950 0.742918
vt 0.314999 0.749746
vt 0.322166 0.745966
vt 0.322790 0.736847
vt 0.328080 0.741810
vt 0.314904 0.735542
vt 0.319155 0.732878
vt 0.309416 0.737710
vt 0.303062 0.733277
vt 0.251186 0.669599
vt 0.250616 0.671408
vt 0.304290 0.687964
vt 0.310678 0.683519
vt 0.309070 0.688411
vt 0.313425 0.676789
vt 0.305785 0.667186
vt 0.316479 0.669923
vt 0.298422 0.688448
vt 0.291724 0.682151
vt 0.298596 0.678418
vt 0.301337 0.677417
vt 0.302627 0.674617
vt 0.291947 0.666912
vt 0.317971 0.740091
vt 0.308237 0.711997
vt 0.318758 0.758017
vt 0.327278 0.752848
vt 0.289044 0.670065
vt 0.290950 0.669219
vt 0.333660 0.746893
vt 0.345597 0.722349
vt 0.339488 0.738943
vt 0.337448 0.686595
vt 0.324774 0.674315
vt 0.345375 0.703588
vt 0.294579 0.695027
vt 0.305612 0.744777
vt 0.329192 0.707270
vt 0.317878 0.709831
vt 0.251228 0.789874
vt 0.251355 0.790158
vt 0.250938 0.666912
vt 0.361315 0.709353
vt 0.355109 0.723652
vt 0.354300 0.708233
vt 0.366868 0.733857
vt 0.361051 0.737890
vt 0.374927 0.742882
vt 0.371300 0.748428
vt 0.371969 0.731537
vt 0.379722 0.735685
vt 0.377635 0.739617
vt 0.368209 0.720681
vt 0.376565 0.728701
vt 0.372311 0.709824
vt 0.366931 0.709247
vt 0.372165 0.702111
vt 0.368560 0.699464
vt 0.364713 0.697730
vt 0.358934 0.694249
vt 0.386185 0.706800
vt 0.388210 0.716184
vt 0.390356 0.725519
vt 0.379152 0.698886
vt 0.377129 0.708583
vt 0.375759 0.699923
vt 0.381570 0.708058
vt 0.378816 0.718288
vt 0.385663 0.726345
vt 0.381439 0.727764
vt 0.387386 0.735646
vt 0.383885 0.736134
vt 0.392292 0.735079
vt 0.383850 0.697251
vt 0.379734 0.686327
vt 0.376685 0.679499
vt 0.369518 0.683279
vt 0.368894 0.692398
vt 0.363603 0.687435
vt 0.376780 0.693703
vt 0.372529 0.696366
vt 0.382268 0.691535
vt 0.251675 0.672617
vt 0.251675 0.791558
vt 0.251275 0.671439
vt 0.387394 0.741281
vt 0.381006 0.745726
vt 0.382614 0.740834
vt 0.378259 0.752456
vt 0.385899 0.762059
vt 0.375205 0.759322
vt 0.393262 0.740797
vt 0.393088 0.750827
vt 0.390347 0.751827
vt 0.389057 0.754628
vt 0.399737 0.762333
vt 0.373713 0.689154
vt 0.383447 0.717248
vt 0.372926 0.671228
vt 0.364406 0.676397
vt 0.400734 0.760026
vt 0.358024 0.682352
vt 0.346087 0.706896
vt 0.352196 0.690302
vt 0.354236 0.742650
vt 0.366910 0.754929
vt 0.346309 0.725657
vt 0.362492 0.721975
vt 0.373806 0.719414
vt 0.251244 0.793235
vt 0.260988 0.722356
vt 0.272657 0.732691
vt 0.266773 0.736671
vt 0.267330 0.708136
vt 0.268388 0.720755
vt 0.260354 0.706941
vt 0.270818 0.696551
vt 0.272933 0.708083
vt 0.278206 0.701046
vt 0.278297 0.708710
vt 0.274115 0.719511
vt 0.279723 0.718292
vt 0.282423 0.727615
vt 0.277790 0.730413
vt 0.285551 0.734667
vt 0.283403 0.738590
vt 0.280650 0.741787
vt 0.276884 0.747386
vt 0.296275 0.724490
vt 0.292141 0.705763
vt 0.294143 0.715131
vt 0.287314 0.726703
vt 0.293246 0.734636
vt 0.289733 0.735131
vt 0.284739 0.717195
vt 0.291561 0.725302
vt 0.287539 0.706999
vt 0.289376 0.716180
vt 0.283110 0.707498
vt 0.285168 0.697841
vt 0.289854 0.696281
vt 0.298195 0.734132
vt 0.299083 0.745772
vt 0.299207 0.753248
vt 0.286693 0.744852
vt 0.291113 0.752852
vt 0.283996 0.751586
vt 0.293288 0.740336
vt 0.288310 0.739719
vt 0.299178 0.739980
vt 0.304341 0.739046
vt 0.250702 0.669621
vt 0.251386 0.790633
vt 0.275125 0.691404
vt 0.282793 0.692731
vt 0.278650 0.695158
vt 0.269790 0.686466
vt 0.272654 0.674533
vt 0.278658 0.679933
vt 0.288316 0.690689
vt 0.293374 0.689590
vt 0.283917 0.681673
vt 0.285079 0.668435
vt 0.286958 0.670104
vt 0.292431 0.745754
vt 0.299297 0.762333
vt 0.289390 0.761250
vt 0.281011 0.681925
vt 0.281089 0.758552
vt 0.309253 0.761192
vt 0.259895 0.741355
vt 0.272447 0.753811
vt 0.252165 0.705508
vt 0.265186 0.693058
vt 0.252165 0.724260
vt 0.281789 0.698879
vt 0.258459 0.689022
vt 0.274652 0.698365
vt 0.320299 0.832265
vt 0.317232 0.835319
vt 0.317232 0.832265
vt 0.308018 0.844533
vt 0.295738 0.847612
vt 0.295738 0.844533
vt 0.295738 0.807678
vt 0.308018 0.810758
vt 0.295738 0.810758
vt 0.292659 0.832265
vt 0.295738 0.835319
vt 0.292659 0.835319
vt 0.308018 0.832265
vt 0.295738 0.832265
vt 0.295738 0.819970
vt 0.308018 0.823051
vt 0.295738 0.823051
vt 0.295738 0.813836
vt 0.308018 0.816892
vt 0.295738 0.816892
vt 0.289592 0.832265
vt 0.286525 0.835319
vt 0.286525 0.832265
vt 0.308018 0.838399
vt 0.295738 0.841477
vt 0.295738 0.838399
vt 0.311085 0.832265
vt 0.314165 0.835319
vt 0.311085 0.835319
vt 0.311085 0.826104
vt 0.314165 0.829185
vt 0.311085 0.829185
vt 0.286525 0.826104
vt 0.289592 0.829185
vt 0.286525 0.829185
vt 0.308018 0.826104
vt 0.295738 0.829185
vt 0.295738 0.826104
vt 0.292659 0.829185
vt 0.292659 0.826104
vt 0.295738 0.801544
vt 0.308018 0.804624
vt 0.295738 0.804624
vt 0.317232 0.826104
vt 0.320299 0.829185
vt 0.317232 0.829185
vt 0.295738 0.798465
vt 0.308018 0.801544
vt 0.308018 0.829185
vt 0.317232 0.823051
vt 0.320299 0.826104
vt 0.292659 0.823051
vt 0.286525 0.823051
vt 0.289592 0.826104
vt 0.314165 0.823051
vt 0.311085 0.823051
vt 0.308018 0.807678
vt 0.283445 0.823051
vt 0.283445 0.826104
vt 0.314165 0.826104
vt 0.314165 0.832265
vt 0.283445 0.832265
vt 0.283445 0.829185
vt 0.283445 0.835319
vt 0.308018 0.813836
vt 0.308018 0.841477
vt 0.289592 0.823051
vt 0.308018 0.835319
vt 0.308018 0.819970
vt 0.289592 0.835319
vt 0.439727 0.832265
vt 0.436647 0.835319
vt 0.436647 0.832265
vt 0.427434 0.844533
vt 0.415153 0.847612
vt 0.415153 0.844533
vt 0.415153 0.807678
vt 0.427434 0.810758
vt 0.415153 0.810758
vt 0.412086 0.832265
vt 0.415153 0.835319
vt 0.412086 0.835319
vt 0.427434 0.832265
vt 0.415153 0.832265
vt 0.415153 0.819970
vt 0.427434 0.823051
vt 0.415153 0.823051
vt 0.415153 0.813836
vt 0.427434 0.816892
vt 0.415153 0.816892
vt 0.409007 0.832265
vt 0.405940 0.835319
vt 0.405940 0.832265
vt 0.427434 0.838399
vt 0.415153 0.841477
vt 0.415153 0.838399
vt 0.430513 0.832265
vt 0.433580 0.835319
vt 0.430513 0.835319
vt 0.430513 0.826104
vt 0.433580 0.829185
vt 0.430513 0.829185
vt 0.405940 0.826104
vt 0.409007 0.829185
vt 0.405940 0.829185
vt 0.415153 0.826104
vt 0.427434 0.829185
vt 0.415153 0.829185
vt 0.412086 0.829185
vt 0.412086 0.826104
vt 0.427434 0.801544
vt 0.415153 0.804624
vt 0.415153 0.801544
vt 0.436647 0.826104
vt 0.439727 0.829185
vt 0.436647 0.829185
vt 0.427434 0.798465
vt 0.415153 0.798465
vt 0.436647 0.823051
vt 0.439727 0.826104
vt 0.412086 0.823051
vt 0.427434 0.826104
vt 0.405940 0.823051
vt 0.409007 0.826104
vt 0.433580 0.823051
vt 0.430513 0.823051
vt 0.427434 0.807678
vt 0.402873 0.823051
vt 0.402873 0.826104
vt 0.433580 0.826104
vt 0.433580 0.832265
vt 0.402873 0.832265
vt 0.402873 0.829185
vt 0.402873 0.835319
vt 0.427434 0.813836
vt 0.427434 0.841477
vt 0.409007 0.823051
vt 0.427434 0.835319
vt 0.427434 0.819970
vt 0.409007 0.835319
vt 0.545320 0.832265
vt 0.542252 0.835319
vt 0.542252 0.832265
vt 0.533038 0.844533
vt 0.520746 0.847612
vt 0.520746 0.844533
vt 0.520746 0.807678
vt 0.533038 0.810758
vt 0.520746 0.810758
vt 0.517679 0.832265
vt 0.520746 0.835319
vt 0.517679 0.835319
vt 0.533038 0.832265
vt 0.520746 0.832265
vt 0.520746 0.819970
vt 0.533038 0.823051
vt 0.520746 0.823051
vt 0.520746 0.813836
vt 0.533038 0.816892
vt 0.520746 0.816892
vt 0.514612 0.832265
vt 0.511532 0.835319
vt 0.511532 0.832265
vt 0.533038 0.838399
vt 0.520746 0.841477
vt 0.520746 0.838399
vt 0.536105 0.832265
vt 0.539172 0.835319
vt 0.536105 0.835319
vt 0.536105 0.826104
vt 0.539172 0.829185
vt 0.536105 0.829185
vt 0.511532 0.826104
vt 0.514612 0.829185
vt 0.511532 0.829185
vt 0.520746 0.826104
vt 0.533038 0.829185
vt 0.520746 0.829185
vt 0.517679 0.829185
vt 0.517679 0.826104
vt 0.533038 0.801544
vt 0.520746 0.804624
vt 0.520746 0.801544
vt 0.542252 0.826104
vt 0.545320 0.829185
vt 0.542252 0.829185
vt 0.533038 0.798465
vt 0.520746 0.798465
vt 0.542252 0.823051
vt 0.545320 0.826104
vt 0.517679 0.823051
vt 0.533038 0.826104
vt 0.511532 0.823051
vt 0.514612 0.826104
vt 0.539172 0.823051
vt 0.536105 0.823051
vt 0.533038 0.807678
vt 0.508465 0.823051
vt 0.508465 0.826104
vt 0.539172 0.826104
vt 0.539172 0.832265
vt 0.508465 0.832265
vt 0.508465 0.829185
vt 0.508465 0.835319
vt 0.533038 0.813836
vt 0.533038 0.841477
vt 0.514612 0.823051
vt 0.533038 0.835319
vt 0.533038 0.819970
vt 0.514612 0.835319
vt 0.000245 0.916020
vt 0.249353 0.666912
vt 0.249353 0.916020
vt 0.000245 0.000245
vt 0.333088 0.333088
vt 0.000245 0.333088
vt 0.000245 0.333579
vt 0.333088 0.666422
vt 0.000245 0.666422
vt 0.666912 0.666421
vt 0.999755 0.333578
vt 0.999755 0.666421
vt 0.333578 0.666422
vt 0.666421 0.333578
vt 0.666422 0.666422
vt 0.333578 0.333088
vt 0.666421 0.000245
vt 0.666422 0.333088
vt 0.786387 0.835319
vt 0.774106 0.816892
vt 0.774106 0.841477
vt 0.774106 0.804624
vt 0.786387 0.829185
vt 0.786387 0.823051
vt 0.999755 0.333088
vt 0.427564 0.747710
vt 0.264120 0.681534
vt 0.320299 0.835319
vt 0.308018 0.847612
vt 0.308018 0.798465
vt 0.320299 0.823051
vt 0.439727 0.835319
vt 0.427434 0.847612
vt 0.427434 0.804624
vt 0.439727 0.823051
vt 0.545320 0.835319
vt 0.533038 0.847612
vt 0.533038 0.804624
vt 0.545320 0.823051
vt 0.000245 0.666912
vt 0.333088 0.000245
vt 0.333088 0.333578
vt 0.666912 0.333578
vt 0.333578 0.333579
vt 0.333578 0.000245
s 1
usemtl マテリアル
f 23/1/1 32/2/2 38/3/3
f 33/4/4 7/5/5 8/6/6
f 27/7/7 5/8/8 6/9/9
f 48/10/10 4/11/11 41/12/12
f 24/13/13 3/14/14 4/11/11
f 43/15/15 1/16/16 2/17/17
f 34/18/18 9/19/19 31/20/20
f 21/21/10 33/22/4 37/23/10
f 44/24/21 11/25/22 41/26/12
f 22/27/23 44/28/21 47/29/24
f 50/30/25 18/31/26 45/32/27
f 40/33/10 17/34/10 35/35/10
f 28/36/28 16/37/29 26/38/30
f 26/38/30 46/39/10 49/40/10
f 23/41/1 13/42/31 19/43/32
f 25/44/33 36/45/34 39/46/35
f 7/47/5 19/43/32 8/48/6
f 18/31/26 47/29/24 45/32/27
f 17/34/10 37/23/10 35/35/10
f 16/37/29 20/49/36 24/13/13
f 46/39/10 24/13/13 48/10/10
f 36/45/34 23/1/1 38/3/3
f 34/50/18 25/44/33 39/46/35
f 2/17/17 49/40/10 43/51/15
f 1/16/16 26/38/30 2/17/17
f 31/52/20 29/53/10 40/33/10
f 42/54/37 30/55/38 50/30/25
f 13/42/31 25/56/33 27/7/7
f 6/57/9 40/33/10 27/58/7
f 34/50/18 30/55/38 12/59/39
f 18/31/26 38/3/3 22/27/23
f 35/35/10 19/60/32 13/61/31
f 39/46/35 18/31/26 30/55/38
f 27/58/7 35/35/10 13/61/31
f 37/23/10 8/62/6 19/60/32
f 5/8/8 31/20/20 6/9/9
f 11/25/22 32/63/2 33/4/4
f 22/27/23 32/2/2 10/64/40
f 42/54/37 28/36/28 1/16/16
f 43/51/15 29/53/10 9/65/19
f 17/34/10 48/10/10 21/21/10
f 45/32/27 20/49/36 14/66/41
f 49/40/10 17/34/10 29/53/10
f 28/36/28 45/32/27 14/66/41
f 20/49/36 44/28/21 3/14/14
f 3/14/14 41/26/12 4/11/11
f 9/19/19 42/67/37 43/15/15
f 21/21/10 41/12/12 11/68/22
s 0
f 51/69/42 54/70/42 53/71/42
s 1
f 99/72/43 71/73/44 98/74/45
f 99/72/43 73/75/46 72/76/47
f 100/77/48 60/78/49 73/75/46
f 109/79/50 56/80/51 61/81/52
f 110/82/53 61/81/52 62/83/54
f 110/82/53 63/84/55 111/85/56
f 111/85/56 55/86/57 107/87/58
f 98/74/45 57/88/59 96/89/60
f 89/90/61 78/91/62 77/92/63
f 91/93/64 78/91/62 90/94/65
f 120/95/66 65/96/67 118/97/68
f 121/98/69 74/99/70 120/95/66
f 121/98/69 76/100/71 75/101/72
f 122/102/73 66/103/74 76/100/71
f 88/104/75 79/105/76 91/93/64
f 87/106/77 77/92/63 64/107/78
f 93/108/79 102/109/80 106/110/81
f 124/111/82 101/112/83 128/113/84
f 118/97/68 112/114/85 130/115/86
f 117/116/87 64/107/78 113/117/88
f 105/118/89 131/119/90 134/120/91
f 125/121/92 115/122/93 129/123/94
f 127/124/95 85/125/96 103/126/97
f 116/127/98 86/128/99 114/129/100
f 115/122/93 94/130/101 116/127/98
f 103/126/97 95/131/102 105/132/89
f 112/114/85 87/106/77 117/116/87
f 81/133/103 106/110/81 101/112/83
f 65/96/67 89/90/61 87/106/77
f 66/103/74 91/93/64 76/100/71
f 76/100/71 90/94/65 75/101/72
f 74/99/70 90/94/65 89/90/61
f 101/112/83 92/134/104 80/135/105
f 103/126/97 94/130/101 84/136/106
f 127/124/95 84/136/106 125/121/92
f 94/130/101 104/137/107 86/128/99
f 128/113/84 80/135/105 123/138/108
f 92/134/104 102/109/80 82/139/10
f 68/140/109 96/89/60 58/141/110
f 70/142/111 97/143/112 100/77/48
f 69/144/113 100/77/48 99/72/43
f 69/144/113 98/74/45 68/140/109
f 112/114/85 93/108/79 81/133/103
f 66/103/74 116/127/98 88/104/75
f 116/127/98 67/145/114 88/104/75
f 119/146/115 115/122/93 66/103/74
f 117/116/87 83/147/116 93/108/79
f 130/115/86 81/133/103 124/111/82
f 57/88/59 111/85/56 107/87/58
f 71/73/44 110/82/53 111/85/56
f 73/75/46 110/82/53 72/76/47
f 60/78/49 109/79/50 73/75/46
f 107/87/58 124/111/82 57/88/59
f 56/80/51 129/123/94 119/146/115
f 58/141/110 128/113/84 123/138/108
f 60/78/49 127/124/95 125/121/92
f 59/148/117 127/124/95 97/143/112
f 108/149/118 125/121/92 129/123/94
f 55/86/57 130/115/86 107/87/58
f 96/89/60 124/111/82 128/113/84
f 56/80/51 122/102/73 61/81/52
f 61/81/52 121/98/69 62/83/54
f 63/84/55 121/98/69 120/95/66
f 55/86/57 120/95/66 118/97/68
f 134/120/91 132/150/26 133/151/119
f 105/118/89 133/151/119 104/152/107
f 146/153/120 169/154/121 168/155/122
f 169/154/121 148/156/123 170/157/124
f 170/157/124 138/158/125 167/159/126
f 179/160/127 136/161/128 178/162/129
f 180/163/130 139/164/131 179/160/127
f 141/165/132 180/163/130 181/166/133
f 135/167/134 181/166/133 177/168/135
f 137/169/136 168/155/122 166/170/137
f 161/171/138 153/172/139 162/173/140
f 153/172/139 163/174/141 162/173/140
f 143/175/142 190/176/143 188/177/144
f 149/178/145 191/179/146 190/176/143
f 191/179/146 151/180/147 192/181/148
f 192/181/148 144/182/149 189/183/150
f 154/184/151 160/185/152 163/174/141
f 159/186/153 152/187/154 161/171/138
f 172/188/155 164/189/156 176/190/157
f 171/191/158 193/192/159 196/193/160
f 182/194/161 188/177/144 198/195/162
f 187/196/163 142/197/164 159/186/153
f 175/198/165 131/119/90 95/199/102
f 185/200/166 194/201/167 197/202/168
f 195/203/169 85/204/96 126/205/170
f 186/206/171 158/207/172 165/208/173
f 185/200/166 165/208/173 157/209/174
f 173/210/175 95/211/102 85/204/96
f 182/194/161 159/186/153 143/175/142
f 176/190/157 155/212/176 171/191/158
f 143/175/142 161/171/138 149/178/145
f 163/174/141 144/182/149 151/180/147
f 162/173/140 151/180/147 150/213/177
f 149/178/145 162/173/140 150/213/177
f 92/214/104 171/191/158 80/215/105
f 165/208/173 173/210/175 157/209/174
f 157/209/174 195/203/169 194/201/167
f 165/208/173 174/216/178 175/217/165
f 80/215/105 196/193/160 123/218/108
f 92/214/104 172/188/155 176/190/157
f 166/170/137 68/219/109 58/220/110
f 70/221/111 167/159/126 59/222/117
f 69/223/113 170/157/124 70/221/111
f 168/155/122 69/223/113 68/219/109
f 164/189/156 182/194/161 155/212/176
f 144/182/149 186/206/171 185/200/166
f 145/224/179 186/206/171 160/185/152
f 189/183/150 185/200/166 197/202/168
f 156/225/180 187/196/163 164/189/156
f 155/212/176 198/195/162 193/192/159
f 137/169/136 181/166/133 146/153/120
f 146/153/120 180/163/130 147/226/181
f 180/163/130 148/156/123 147/226/181
f 179/160/127 138/158/125 148/156/123
f 193/192/159 177/168/135 137/169/136
f 136/161/128 197/202/168 178/162/129
f 58/220/110 196/193/160 166/170/137
f 138/158/125 195/203/169 167/159/126
f 195/203/169 59/222/117 167/159/126
f 178/162/129 194/201/167 138/158/125
f 198/195/162 135/167/134 177/168/135
f 166/170/137 193/192/159 137/169/136
f 192/181/148 136/161/128 139/164/131
f 191/179/146 139/164/131 140/227/182
f 141/165/132 191/179/146 140/227/182
f 135/167/134 190/176/143 141/165/132
f 200/228/183 132/150/26 131/119/90
f 199/229/184 175/198/165 174/230/178
f 215/231/185 237/232/186 236/233/187
f 237/232/186 217/234/188 238/235/189
f 238/235/189 206/236/190 235/237/191
f 245/238/192 202/239/193 244/240/194
f 246/241/195 207/242/196 245/238/192
f 209/243/197 246/241/195 247/244/198
f 201/245/199 247/244/198 243/246/200
f 203/247/201 236/233/187 234/248/202
f 227/249/203 78/91/62 228/250/204
f 78/91/62 229/251/205 228/250/204
f 210/252/206 254/253/207 252/254/208
f 218/255/209 255/256/210 254/253/207
f 255/256/210 220/257/211 256/258/212
f 256/258/212 211/259/213 253/260/214
f 79/105/76 226/261/215 229/251/205
f 225/262/216 77/92/63 227/249/203
f 102/109/80 231/263/217 242/264/218
f 239/265/219 258/266/220 262/267/221
f 248/268/222 252/254/208 264/269/223
f 251/270/224 64/107/78 225/262/216
f 241/271/225 265/272/226 233/273/227
f 249/274/228 259/275/229 263/276/230
f 261/277/231 224/278/232 260/279/233
f 250/280/234 86/128/99 232/281/235
f 249/274/228 232/281/235 223/282/236
f 240/283/237 233/284/227 224/278/232
f 248/268/222 225/262/216 210/252/206
f 242/264/218 222/285/238 239/265/219
f 210/252/206 227/249/203 218/255/209
f 229/251/205 211/259/213 220/257/211
f 228/250/204 220/257/211 219/286/239
f 218/255/209 228/250/204 219/286/239
f 230/287/240 239/265/219 221/288/241
f 232/281/235 240/283/237 223/282/236
f 223/282/236 261/277/231 259/275/229
f 232/281/235 104/137/107 241/289/225
f 221/288/241 262/267/221 257/290/242
f 230/287/240 102/109/80 242/264/218
f 234/248/202 212/291/243 204/292/244
f 214/293/245 235/237/191 205/294/246
f 213/295/247 238/235/189 214/293/245
f 236/233/187 213/295/247 212/291/243
f 231/263/217 248/268/222 222/285/238
f 211/259/213 250/280/234 249/274/228
f 67/145/114 250/280/234 226/261/215
f 253/260/214 249/274/228 263/276/230
f 83/147/116 251/270/224 231/263/217
f 222/285/238 264/269/223 258/266/220
f 203/247/201 247/244/198 215/231/185
f 215/231/185 246/241/195 216/296/248
f 246/241/195 217/234/188 216/296/248
f 245/238/192 206/236/190 217/234/188
f 258/266/220 243/246/200 203/247/201
f 202/239/193 263/276/230 244/240/194
f 204/292/244 262/267/221 234/248/202
f 206/236/190 261/277/231 235/237/191
f 261/277/231 205/294/246 235/237/191
f 244/240/194 259/275/229 206/236/190
f 264/269/223 201/245/199 243/246/200
f 234/248/202 258/266/220 203/247/201
f 256/258/212 202/239/193 207/242/196
f 255/256/210 207/242/196 208/297/249
f 209/243/197 255/256/210 208/297/249
f 201/245/199 254/253/207 209/243/197
f 266/298/250 132/150/26 265/272/226
f 133/151/119 241/271/225 104/152/107
f 294/299/251 276/300/252 293/301/253
f 294/299/251 278/302/254 277/303/255
f 295/304/256 270/305/257 278/302/254
f 302/306/258 268/307/259 271/308/260
f 303/309/261 271/308/260 272/310/262
f 303/309/261 273/311/263 304/312/264
f 304/312/264 267/313/265 300/314/266
f 293/301/253 269/315/267 291/316/268
f 286/317/269 153/172/139 152/187/154
f 288/318/270 153/172/139 287/319/271
f 311/320/272 274/321/273 309/322/274
f 312/323/275 279/324/276 311/320/272
f 312/323/275 281/325/277 280/326/278
f 313/327/279 275/328/280 281/325/277
f 285/329/281 154/184/151 288/318/270
f 284/330/282 152/187/154 142/197/164
f 289/331/283 172/188/155 299/332/284
f 314/333/285 296/334/286 317/335/287
f 309/322/274 305/336/288 319/337/289
f 308/338/290 142/197/164 183/339/291
f 298/340/292 265/272/226 320/341/293
f 315/342/294 306/343/295 318/344/296
f 316/345/297 224/346/232 297/347/298
f 307/348/299 158/207/172 184/349/300
f 306/343/295 290/350/301 307/348/299
f 297/347/298 233/351/227 298/352/292
f 305/336/288 284/330/282 308/338/290
f 282/353/302 299/332/284 296/334/286
f 274/321/273 286/317/269 284/330/282
f 275/328/280 288/318/270 281/325/277
f 281/325/277 287/319/271 280/326/278
f 279/324/276 287/319/271 286/317/269
f 296/334/286 230/354/240 221/355/241
f 297/347/298 290/350/301 283/356/303
f 316/345/297 283/356/303 315/342/294
f 290/350/301 174/216/178 158/207/172
f 317/335/287 221/355/241 257/357/242
f 230/354/240 172/188/155 82/358/10
f 212/359/243 291/316/268 204/360/244
f 214/361/245 292/362/304 295/304/256
f 213/363/247 295/304/256 294/299/251
f 213/363/247 293/301/253 212/359/243
f 305/336/288 289/331/283 282/353/302
f 275/328/280 307/348/299 285/329/281
f 307/348/299 145/224/179 285/329/281
f 310/364/305 306/343/295 275/328/280
f 308/338/290 156/225/180 289/331/283
f 319/337/289 282/353/302 314/333/285
f 269/315/267 304/312/264 300/314/266
f 276/300/252 303/309/261 304/312/264
f 278/302/254 303/309/261 277/303/255
f 270/305/257 302/306/258 278/302/254
f 300/314/266 314/333/285 269/315/267
f 268/307/259 318/344/296 310/364/305
f 204/360/244 317/335/287 257/357/242
f 270/305/257 316/345/297 315/342/294
f 205/365/246 316/345/297 292/362/304
f 301/366/306 315/342/294 318/344/296
f 267/313/265 319/337/289 300/314/266
f 291/316/268 314/333/285 317/335/287
f 268/307/259 313/327/279 271/308/260
f 271/308/260 312/323/275 272/310/262
f 273/311/263 312/323/275 311/320/272
f 267/313/265 311/320/272 309/322/274
f 320/341/293 132/150/26 199/229/184
f 298/340/292 199/229/184 174/230/178
f 343/367/307 352/368/308 358/369/309
f 352/370/308 328/371/310 353/372/311
f 347/373/312 325/374/313 326/375/314
f 368/376/315 324/377/316 361/378/317
f 340/379/318 324/377/316 344/380/319
f 363/381/320 321/382/321 322/383/322
f 351/384/323 332/385/324 329/386/325
f 341/387/326 353/388/311 357/389/326
f 364/390/327 331/391/328 361/392/317
f 367/393/329 330/394/330 364/395/327
f 370/396/331 338/397/332 365/398/333
f 360/399/315 337/400/326 355/401/315
f 348/402/334 336/403/335 346/404/336
f 346/404/336 366/405/315 369/406/326
f 339/407/337 335/408/338 333/409/339
f 359/410/340 335/411/338 356/412/341
f 328/413/310 343/414/307 339/407/337
f 338/397/332 367/393/329 365/398/333
f 337/400/326 357/389/326 355/401/315
f 334/415/342 344/380/319 336/403/335
f 366/405/315 344/380/319 368/376/315
f 335/411/338 358/369/309 356/412/341
f 354/416/343 345/417/344 359/410/340
f 322/383/322 369/406/326 363/418/320
f 321/382/321 346/404/336 322/383/322
f 351/419/323 349/420/326 360/399/315
f 332/421/324 370/396/331 362/422/345
f 333/409/339 345/423/344 347/373/312
f 326/424/314 360/399/315 347/425/312
f 354/416/343 350/426/346 332/421/324
f 338/397/332 358/369/309 342/427/347
f 355/401/315 339/428/337 333/429/339
f 359/410/340 338/397/332 350/426/346
f 347/425/312 355/401/315 333/429/339
f 357/389/326 328/430/310 339/428/337
f 326/375/314 354/431/343 351/384/323
f 330/432/330 353/372/311 331/391/328
f 342/427/347 352/368/308 330/394/330
f 362/422/345 348/402/334 321/382/321
f 363/418/320 349/420/326 329/433/325
f 337/400/326 368/376/315 341/387/326
f 365/398/333 340/379/318 334/415/342
f 369/406/326 337/400/326 349/420/326
f 348/402/334 365/398/333 334/415/342
f 340/379/318 364/395/327 323/434/348
f 323/434/348 361/392/317 324/377/316
f 329/386/325 362/435/345 363/381/320
f 341/387/326 361/378/317 331/436/328
f 393/437/349 402/438/350 408/439/351
f 402/440/350 378/441/352 403/442/353
f 397/443/354 375/444/355 376/445/356
f 418/446/357 374/447/358 411/448/359
f 390/449/360 374/447/358 394/450/361
f 413/451/362 371/452/363 372/453/364
f 401/454/365 382/455/366 379/456/367
f 391/457/357 403/458/353 407/459/357
f 414/460/368 381/461/369 411/462/359
f 417/463/370 380/464/371 414/465/368
f 420/466/372 388/467/373 415/468/374
f 410/469/357 387/470/357 405/471/357
f 396/472/375 384/473/376 386/474/377
f 396/472/375 416/475/357 419/476/357
f 393/477/349 383/478/378 389/479/379
f 409/480/380 385/481/381 406/482/382
f 377/483/383 389/479/379 378/484/352
f 388/467/373 417/463/370 415/468/374
f 387/470/357 407/459/357 405/471/357
f 384/473/376 394/450/361 386/474/377
f 416/475/357 394/450/361 418/446/357
f 385/481/381 408/439/351 406/482/382
f 404/485/384 395/486/385 409/480/380
f 372/453/364 419/476/357 413/487/362
f 372/453/364 398/488/386 396/472/375
f 401/489/365 399/490/387 410/469/357
f 382/491/366 420/466/372 412/492/388
f 383/478/378 395/493/385 397/443/354
f 376/494/356 410/469/357 397/495/354
f 404/485/384 400/496/389 382/491/366
f 388/467/373 408/439/351 392/497/390
f 405/471/357 389/498/379 383/499/378
f 409/480/380 388/467/373 400/496/389
f 397/495/354 405/471/357 383/499/378
f 407/459/357 378/500/352 389/498/379
f 376/445/356 404/501/384 401/454/365
f 380/502/371 403/442/353 381/461/369
f 392/497/390 402/438/350 380/464/371
f 412/492/388 398/488/386 371/452/363
f 413/487/362 399/490/387 379/503/367
f 387/470/357 418/446/357 391/457/357
f 415/468/374 390/449/360 384/473/376
f 419/476/357 387/470/357 399/490/387
f 398/488/386 415/468/374 384/473/376
f 390/449/360 414/465/368 373/504/391
f 373/504/391 411/462/359 374/447/358
f 379/456/367 412/505/388 413/451/362
f 391/457/357 411/448/359 381/506/369
f 443/507/392 452/508/393 458/509/394
f 452/510/393 428/511/395 453/512/396
f 447/513/397 425/514/398 426/515/399
f 468/516/400 424/517/401 461/518/402
f 440/519/403 424/517/401 444/520/404
f 463/521/405 421/522/406 422/523/407
f 451/524/408 432/525/409 429/526/410
f 441/527/400 453/528/396 457/529/400
f 464/530/411 431/531/412 461/532/402
f 467/533/413 430/534/414 464/535/411
f 470/536/415 438/537/416 465/538/417
f 460/539/400 437/540/400 455/541/400
f 446/542/418 434/543/419 436/544/420
f 446/542/418 466/545/400 469/546/400
f 443/547/392 433/548/421 439/549/422
f 459/550/423 435/551/424 456/552/425
f 427/553/426 439/549/422 428/554/395
f 438/537/416 467/533/413 465/538/417
f 437/540/400 457/529/400 455/541/400
f 434/543/419 444/520/404 436/544/420
f 466/545/400 444/520/404 468/516/400
f 435/551/424 458/509/394 456/552/425
f 454/555/427 445/556/428 459/550/423
f 422/523/407 469/546/400 463/557/405
f 422/523/407 448/558/429 446/542/418
f 451/559/408 449/560/400 460/539/400
f 432/561/409 470/536/415 462/562/430
f 433/548/421 445/563/428 447/513/397
f 426/564/399 460/539/400 447/565/397
f 454/555/427 450/566/431 432/561/409
f 438/537/416 458/509/394 442/567/432
f 455/541/400 439/568/422 433/569/421
f 459/550/423 438/537/416 450/566/431
f 447/565/397 455/541/400 433/569/421
f 457/529/400 428/570/395 439/568/422
f 426/515/399 454/571/427 451/524/408
f 430/572/414 453/512/396 431/531/412
f 442/567/432 452/508/393 430/534/414
f 462/562/430 448/558/429 421/522/406
f 463/557/405 449/560/400 429/573/410
f 437/540/400 468/516/400 441/527/400
f 465/538/417 440/519/403 434/543/419
f 469/546/400 437/540/400 449/560/400
f 448/558/429 465/538/417 434/543/419
f 440/519/403 464/535/411 423/574/433
f 423/574/433 461/532/402 424/517/401
f 429/526/410 462/575/430 463/521/405
f 441/527/400 461/518/402 431/576/412
s 0
f 471/577/434 474/578/434 473/579/434
f 476/580/435 477/581/435 475/582/435
f 480/583/436 481/584/436 479/585/436
f 484/586/437 485/587/437 483/588/437
f 488/589/437 489/590/437 487/591/437
f 492/592/437 493/593/437 491/594/437
s 1
f 23/1/1 7/595/5 32/2/2
f 33/4/4 32/63/2 7/5/5
f 27/7/7 25/56/33 5/8/8
f 48/10/10 24/13/13 4/11/11
f 24/13/13 20/49/36 3/14/14
f 43/15/15 42/67/37 1/16/16
f 34/18/18 12/596/39 9/19/19
f 21/21/10 11/68/22 33/22/4
f 44/24/21 10/597/40 11/25/22
f 22/27/23 10/64/40 44/28/21
f 50/30/25 30/55/38 18/31/26
f 40/33/10 29/53/10 17/34/10
f 28/36/28 14/66/41 16/37/29
f 26/38/30 16/37/29 46/39/10
f 23/41/1 15/598/438 13/42/31
f 25/44/33 15/599/438 36/45/34
f 7/47/5 23/41/1 19/43/32
f 18/31/26 22/27/23 47/29/24
f 17/34/10 21/21/10 37/23/10
f 16/37/29 14/66/41 20/49/36
f 46/39/10 16/37/29 24/13/13
f 36/45/34 15/599/438 23/1/1
f 34/50/18 5/600/8 25/44/33
f 2/17/17 26/38/30 49/40/10
f 1/16/16 28/36/28 26/38/30
f 31/52/20 9/65/19 29/53/10
f 42/54/37 12/59/39 30/55/38
f 13/42/31 15/598/438 25/56/33
f 6/57/9 31/52/20 40/33/10
f 34/50/18 39/46/35 30/55/38
f 18/31/26 36/45/34 38/3/3
f 35/35/10 37/23/10 19/60/32
f 39/46/35 36/45/34 18/31/26
f 27/58/7 40/33/10 35/35/10
f 37/23/10 33/22/4 8/62/6
f 5/8/8 34/18/18 31/20/20
f 11/25/22 10/597/40 32/63/2
f 22/27/23 38/3/3 32/2/2
f 42/54/37 50/30/25 28/36/28
f 43/51/15 49/40/10 29/53/10
f 17/34/10 46/39/10 48/10/10
f 45/32/27 47/29/24 20/49/36
f 49/40/10 46/39/10 17/34/10
f 28/36/28 50/30/25 45/32/27
f 20/49/36 47/29/24 44/28/21
f 3/14/14 44/24/21 41/26/12
f 9/19/19 12/596/39 42/67/37
f 21/21/10 48/10/10 41/12/12
s 0
f 51/69/42 52/601/42 54/70/42
s 1
f 99/72/43 72/76/47 71/73/44
f 99/72/43 100/77/48 73/75/46
f 100/77/48 97/143/112 60/78/49
f 109/79/50 108/149/118 56/80/51
f 110/82/53 109/79/50 61/81/52
f 110/82/53 62/83/54 63/84/55
f 111/85/56 63/84/55 55/86/57
f 98/74/45 71/73/44 57/88/59
f 89/90/61 90/94/65 78/91/62
f 91/93/64 79/105/76 78/91/62
f 120/95/66 74/99/70 65/96/67
f 121/98/69 75/101/72 74/99/70
f 121/98/69 122/102/73 76/100/71
f 122/102/73 119/146/115 66/103/74
f 88/104/75 67/145/114 79/105/76
f 87/106/77 89/90/61 77/92/63
f 93/108/79 83/147/116 102/109/80
f 124/111/82 81/133/103 101/112/83
f 118/97/68 65/96/67 112/114/85
f 117/116/87 87/106/77 64/107/78
f 105/118/89 95/199/102 131/119/90
f 125/121/92 84/136/106 115/122/93
f 127/124/95 126/602/170 85/125/96
f 116/127/98 94/130/101 86/128/99
f 115/122/93 84/136/106 94/130/101
f 103/126/97 85/125/96 95/131/102
f 112/114/85 65/96/67 87/106/77
f 81/133/103 93/108/79 106/110/81
f 65/96/67 74/99/70 89/90/61
f 66/103/74 88/104/75 91/93/64
f 76/100/71 91/93/64 90/94/65
f 74/99/70 75/101/72 90/94/65
f 101/112/83 106/110/81 92/134/104
f 103/126/97 105/132/89 94/130/101
f 127/124/95 103/126/97 84/136/106
f 94/130/101 105/132/89 104/137/107
f 128/113/84 101/112/83 80/135/105
f 92/134/104 106/110/81 102/109/80
f 68/140/109 98/74/45 96/89/60
f 70/142/111 59/148/117 97/143/112
f 69/144/113 70/142/111 100/77/48
f 69/144/113 99/72/43 98/74/45
f 112/114/85 117/116/87 93/108/79
f 66/103/74 115/122/93 116/127/98
f 116/127/98 114/129/100 67/145/114
f 119/146/115 129/123/94 115/122/93
f 117/116/87 113/117/88 83/147/116
f 130/115/86 112/114/85 81/133/103
f 57/88/59 71/73/44 111/85/56
f 71/73/44 72/76/47 110/82/53
f 73/75/46 109/79/50 110/82/53
f 60/78/49 108/149/118 109/79/50
f 107/87/58 130/115/86 124/111/82
f 56/80/51 108/149/118 129/123/94
f 58/141/110 96/89/60 128/113/84
f 60/78/49 97/143/112 127/124/95
f 59/148/117 126/602/170 127/124/95
f 108/149/118 60/78/49 125/121/92
f 55/86/57 118/97/68 130/115/86
f 96/89/60 57/88/59 124/111/82
f 56/80/51 119/146/115 122/102/73
f 61/81/52 122/102/73 121/98/69
f 63/84/55 62/83/54 121/98/69
f 55/86/57 63/84/55 120/95/66
f 134/120/91 131/119/90 132/150/26
f 105/118/89 134/120/91 133/151/119
f 146/153/120 147/226/181 169/154/121
f 169/154/121 147/226/181 148/156/123
f 170/157/124 148/156/123 138/158/125
f 179/160/127 139/164/131 136/161/128
f 180/163/130 140/227/182 139/164/131
f 141/165/132 140/227/182 180/163/130
f 135/167/134 141/165/132 181/166/133
f 137/169/136 146/153/120 168/155/122
f 161/171/138 152/187/154 153/172/139
f 153/172/139 154/184/151 163/174/141
f 143/175/142 149/178/145 190/176/143
f 149/178/145 150/213/177 191/179/146
f 191/179/146 150/213/177 151/180/147
f 192/181/148 151/180/147 144/182/149
f 154/184/151 145/224/179 160/185/152
f 159/186/153 142/197/164 152/187/154
f 172/188/155 156/225/180 164/189/156
f 171/191/158 155/212/176 193/192/159
f 182/194/161 143/175/142 188/177/144
f 187/196/163 183/339/291 142/197/164
f 175/198/165 200/228/183 131/119/90
f 185/200/166 157/209/174 194/201/167
f 195/203/169 173/210/175 85/204/96
f 186/206/171 184/349/300 158/207/172
f 185/200/166 186/206/171 165/208/173
f 173/210/175 175/217/165 95/211/102
f 182/194/161 187/196/163 159/186/153
f 176/190/157 164/189/156 155/212/176
f 143/175/142 159/186/153 161/171/138
f 163/174/141 160/185/152 144/182/149
f 162/173/140 163/174/141 151/180/147
f 149/178/145 161/171/138 162/173/140
f 92/214/104 176/190/157 171/191/158
f 165/208/173 175/217/165 173/210/175
f 157/209/174 173/210/175 195/203/169
f 165/208/173 158/207/172 174/216/178
f 80/215/105 171/191/158 196/193/160
f 92/214/104 82/358/10 172/188/155
f 166/170/137 168/155/122 68/219/109
f 70/221/111 170/157/124 167/159/126
f 69/223/113 169/154/121 170/157/124
f 168/155/122 169/154/121 69/223/113
f 164/189/156 187/196/163 182/194/161
f 144/182/149 160/185/152 186/206/171
f 145/224/179 184/349/300 186/206/171
f 189/183/150 144/182/149 185/200/166
f 156/225/180 183/339/291 187/196/163
f 155/212/176 182/194/161 198/195/162
f 137/169/136 177/168/135 181/166/133
f 146/153/120 181/166/133 180/163/130
f 180/163/130 179/160/127 148/156/123
f 179/160/127 178/162/129 138/158/125
f 193/192/159 198/195/162 177/168/135
f 136/161/128 189/183/150 197/202/168
f 58/220/110 123/218/108 196/193/160
f 138/158/125 194/201/167 195/203/169
f 195/203/169 126/205/170 59/222/117
f 178/162/129 197/202/168 194/201/167
f 198/195/162 188/177/144 135/167/134
f 166/170/137 196/193/160 193/192/159
f 192/181/148 189/183/150 136/161/128
f 191/179/146 192/181/148 139/164/131
f 141/165/132 190/176/143 191/179/146
f 135/167/134 188/177/144 190/176/143
f 200/228/183 199/229/184 132/150/26
f 199/229/184 200/228/183 175/198/165
f 215/231/185 216/296/248 237/232/186
f 237/232/186 216/296/248 217/234/188
f 238/235/189 217/234/188 206/236/190
f 245/238/192 207/242/196 202/239/193
f 246/241/195 208/297/249 207/242/196
f 209/243/197 208/297/249 246/241/195
f 201/245/199 209/243/197 247/244/198
f 203/247/201 215/231/185 236/233/187
f 227/249/203 77/92/63 78/91/62
f 78/91/62 79/105/76 229/251/205
f 210/252/206 218/255/209 254/253/207
f 218/255/209 219/286/239 255/256/210
f 255/256/210 219/286/239 220/257/211
f 256/258/212 220/257/211 211/259/213
f 79/105/76 67/145/114 226/261/215
f 225/262/216 64/107/78 77/92/63
f 102/109/80 83/147/116 231/263/217
f 239/265/219 222/285/238 258/266/220
f 248/268/222 210/252/206 252/254/208
f 251/270/224 113/117/88 64/107/78
f 241/271/225 266/298/250 265/272/226
f 249/274/228 223/282/236 259/275/229
f 261/277/231 240/283/237 224/278/232
f 250/280/234 114/129/100 86/128/99
f 249/274/228 250/280/234 232/281/235
f 240/283/237 241/289/225 233/284/227
f 248/268/222 251/270/224 225/262/216
f 242/264/218 231/263/217 222/285/238
f 210/252/206 225/262/216 227/249/203
f 229/251/205 226/261/215 211/259/213
f 228/250/204 229/251/205 220/257/211
f 218/255/209 227/249/203 228/250/204
f 230/287/240 242/264/218 239/265/219
f 232/281/235 241/289/225 240/283/237
f 223/282/236 240/283/237 261/277/231
f 232/281/235 86/128/99 104/137/107
f 221/288/241 239/265/219 262/267/221
f 230/287/240 82/139/10 102/109/80
f 234/248/202 236/233/187 212/291/243
f 214/293/245 238/235/189 235/237/191
f 213/295/247 237/232/186 238/235/189
f 236/233/187 237/232/186 213/295/247
f 231/263/217 251/270/224 248/268/222
f 211/259/213 226/261/215 250/280/234
f 67/145/114 114/129/100 250/280/234
f 253/260/214 211/259/213 249/274/228
f 83/147/116 113/117/88 251/270/224
f 222/285/238 248/268/222 264/269/223
f 203/247/201 243/246/200 247/244/198
f 215/231/185 247/244/198 246/241/195
f 246/241/195 245/238/192 217/234/188
f 245/238/192 244/240/194 206/236/190
f 258/266/220 264/269/223 243/246/200
f 202/239/193 253/260/214 263/276/230
f 204/292/244 257/290/242 262/267/221
f 206/236/190 259/275/229 261/277/231
f 261/277/231 260/279/233 205/294/246
f 244/240/194 263/276/230 259/275/229
f 264/269/223 252/254/208 201/245/199
f 234/248/202 262/267/221 258/266/220
f 256/258/212 253/260/214 202/239/193
f 255/256/210 256/258/212 207/242/196
f 209/243/197 254/253/207 255/256/210
f 201/245/199 252/254/208 254/253/207
f 266/298/250 133/151/119 132/150/26
f 133/151/119 266/298/250 241/271/225
f 294/299/251 277/303/255 276/300/252
f 294/299/251 295/304/256 278/302/254
f 295/304/256 292/362/304 270/305/257
f 302/306/258 301/366/306 268/307/259
f 303/309/261 302/306/258 271/308/260
f 303/309/261 272/310/262 273/311/263
f 304/312/264 273/311/263 267/313/265
f 293/301/253 276/300/252 269/315/267
f 286/317/269 287/319/271 153/172/139
f 288/318/270 154/184/151 153/172/139
f 311/320/272 279/324/276 274/321/273
f 312/323/275 280/326/278 279/324/276
f 312/323/275 313/327/279 281/325/277
f 313/327/279 310/364/305 275/328/280
f 285/329/281 145/224/179 154/184/151
f 284/330/282 286/317/269 152/187/154
f 289/331/283 156/225/180 172/188/155
f 314/333/285 282/353/302 296/334/286
f 309/322/274 274/321/273 305/336/288
f 308/338/290 284/330/282 142/197/164
f 298/340/292 233/273/227 265/272/226
f 315/342/294 283/356/303 306/343/295
f 316/345/297 260/603/233 224/346/232
f 307/348/299 290/350/301 158/207/172
f 306/343/295 283/356/303 290/350/301
f 297/347/298 224/346/232 233/351/227
f 305/336/288 274/321/273 284/330/282
f 282/353/302 289/331/283 299/332/284
f 274/321/273 279/324/276 286/317/269
f 275/328/280 285/329/281 288/318/270
f 281/325/277 288/318/270 287/319/271
f 279/324/276 280/326/278 287/319/271
f 296/334/286 299/332/284 230/354/240
f 297/347/298 298/352/292 290/350/301
f 316/345/297 297/347/298 283/356/303
f 290/350/301 298/352/292 174/216/178
f 317/335/287 296/334/286 221/355/241
f 230/354/240 299/332/284 172/188/155
f 212/359/243 293/301/253 291/316/268
f 214/361/245 205/365/246 292/362/304
f 213/363/247 214/361/245 295/304/256
f 213/363/247 294/299/251 293/301/253
f 305/336/288 308/338/290 289/331/283
f 275/328/280 306/343/295 307/348/299
f 307/348/299 184/349/300 145/224/179
f 310/364/305 318/344/296 306/343/295
f 308/338/290 183/339/291 156/225/180
f 319/337/289 305/336/288 282/353/302
f 269/315/267 276/300/252 304/312/264
f 276/300/252 277/303/255 303/309/261
f 278/302/254 302/306/258 303/309/261
f 270/305/257 301/366/306 302/306/258
f 300/314/266 319/337/289 314/333/285
f 268/307/259 301/366/306 318/344/296
f 204/360/244 291/316/268 317/335/287
f 270/305/257 292/362/304 316/345/297
f 205/365/246 260/603/233 316/345/297
f 301/366/306 270/305/257 315/342/294
f 267/313/265 309/322/274 319/337/289
f 291/316/268 269/315/267 314/333/285
f 268/307/259 310/364/305 313/327/279
f 271/308/260 313/327/279 312/323/275
f 273/311/263 272/310/262 312/323/275
f 267/313/265 273/311/263 311/320/272
f 320/341/293 265/272/226 132/150/26
f 298/340/292 320/341/293 199/229/184
f 343/367/307 327/604/439 352/368/308
f 352/370/308 327/605/439 328/371/310
f 347/373/312 345/423/344 325/374/313
f 368/376/315 344/380/319 324/377/316
f 340/379/318 323/434/348 324/377/316
f 363/381/320 362/435/345 321/382/321
f 351/384/323 354/431/343 332/385/324
f 341/387/326 331/436/328 353/388/311
f 364/390/327 330/432/330 331/391/328
f 367/393/329 342/427/347 330/394/330
f 370/396/331 350/426/346 338/397/332
f 360/399/315 349/420/326 337/400/326
f 348/402/334 334/415/342 336/403/335
f 346/404/336 336/403/335 366/405/315
f 339/407/337 343/414/307 335/408/338
f 359/410/340 345/417/344 335/411/338
f 328/413/310 327/606/439 343/414/307
f 338/397/332 342/427/347 367/393/329
f 337/400/326 341/387/326 357/389/326
f 334/415/342 340/379/318 344/380/319
f 366/405/315 336/403/335 344/380/319
f 335/411/338 343/367/307 358/369/309
f 354/416/343 325/607/313 345/417/344
f 322/383/322 346/404/336 369/406/326
f 321/382/321 348/402/334 346/404/336
f 351/419/323 329/433/325 349/420/326
f 332/421/324 350/426/346 370/396/331
f 333/409/339 335/408/338 345/423/344
f 326/424/314 351/419/323 360/399/315
f 354/416/343 359/410/340 350/426/346
f 338/397/332 356/412/341 358/369/309
f 355/401/315 357/389/326 339/428/337
f 359/410/340 356/412/341 338/397/332
f 347/425/312 360/399/315 355/401/315
f 357/389/326 353/388/311 328/430/310
f 326/375/314 325/374/313 354/431/343
f 330/432/330 352/370/308 353/372/311
f 342/427/347 358/369/309 352/368/308
f 362/422/345 370/396/331 348/402/334
f 363/418/320 369/406/326 349/420/326
f 337/400/326 366/405/315 368/376/315
f 365/398/333 367/393/329 340/379/318
f 369/406/326 366/405/315 337/400/326
f 348/402/334 370/396/331 365/398/333
f 340/379/318 367/393/329 364/395/327
f 323/434/348 364/390/327 361/392/317
f 329/386/325 332/385/324 362/435/345
f 341/387/326 368/376/315 361/378/317
f 393/437/349 377/608/383 402/438/350
f 402/440/350 377/609/383 378/441/352
f 397/443/354 395/493/385 375/444/355
f 418/446/357 394/450/361 374/447/358
f 390/449/360 373/504/391 374/447/358
f 413/451/362 412/505/388 371/452/363
f 401/454/365 404/501/384 382/455/366
f 391/457/357 381/506/369 403/458/353
f 414/460/368 380/502/371 381/461/369
f 417/463/370 392/497/390 380/464/371
f 420/466/372 400/496/389 388/467/373
f 410/469/357 399/490/387 387/470/357
f 396/472/375 398/488/386 384/473/376
f 396/472/375 386/474/377 416/475/357
f 393/477/349 385/610/381 383/478/378
f 409/480/380 395/486/385 385/481/381
f 377/483/383 393/477/349 389/479/379
f 388/467/373 392/497/390 417/463/370
f 387/470/357 391/457/357 407/459/357
f 384/473/376 390/449/360 394/450/361
f 416/475/357 386/474/377 394/450/361
f 385/481/381 393/437/349 408/439/351
f 404/485/384 375/611/355 395/486/385
f 372/453/364 396/472/375 419/476/357
f 372/453/364 371/452/363 398/488/386
f 401/489/365 379/503/367 399/490/387
f 382/491/366 400/496/389 420/466/372
f 383/478/378 385/610/381 395/493/385
f 376/494/356 401/489/365 410/469/357
f 404/485/384 409/480/380 400/496/389
f 388/467/373 406/482/382 408/439/351
f 405/471/357 407/459/357 389/498/379
f 409/480/380 406/482/382 388/467/373
f 397/495/354 410/469/357 405/471/357
f 407/459/357 403/458/353 378/500/352
f 376/445/356 375/444/355 404/501/384
f 380/502/371 402/440/350 403/442/353
f 392/497/390 408/439/351 402/438/350
f 412/492/388 420/466/372 398/488/386
f 413/487/362 419/476/357 399/490/387
f 387/470/357 416/475/357 418/446/357
f 415/468/374 417/463/370 390/449/360
f 419/476/357 416/475/357 387/470/357
f 398/488/386 420/466/372 415/468/374
f 390/449/360 417/463/370 414/465/368
f 373/504/391 414/460/368 411/462/359
f 379/456/367 382/455/366 412/505/388
f 391/457/357 418/446/357 411/448/359
f 443/507/392 427/612/426 452/508/393
f 452/510/393 427/613/426 428/511/395
f 447/513/397 445/563/428 425/514/398
f 468/516/400 444/520/404 424/517/401
f 440/519/403 423/574/433 424/517/401
f 463/521/405 462/575/430 421/522/406
f 451/524/408 454/571/427 432/525/409
f 441/527/400 431/576/412 453/528/396
f 464/530/411 430/572/414 431/531/412
f 467/533/413 442/567/432 430/534/414
f 470/536/415 450/566/431 438/537/416
f 460/539/400 449/560/400 437/540/400
f 446/542/418 448/558/429 434/543/419
f 446/542/418 436/544/420 466/545/400
f 443/547/392 435/614/424 433/548/421
f 459/550/423 445/556/428 435/551/424
f 427/553/426 443/547/392 439/549/422
f 438/537/416 442/567/432 467/533/413
f 437/540/400 441/527/400 457/529/400
f 434/543/419 440/519/403 444/520/404
f 466/545/400 436/544/420 444/520/404
f 435/551/424 443/507/392 458/509/394
f 454/555/427 425/615/398 445/556/428
f 422/523/407 446/542/418 469/546/400
f 422/523/407 421/522/406 448/558/429
f 451/559/408 429/573/410 449/560/400
f 432/561/409 450/566/431 470/536/415
f 433/548/421 435/614/424 445/563/428
f 426/564/399 451/559/408 460/539/400
f 454/555/427 459/550/423 450/566/431
f 438/537/416 456/552/425 458/509/394
f 455/541/400 457/529/400 439/568/422
f 459/550/423 456/552/425 438/537/416
f 447/565/397 460/539/400 455/541/400
f 457/529/400 453/528/396 428/570/395
f 426/515/399 425/514/398 454/571/427
f 430/572/414 452/510/393 453/512/396
f 442/567/432 458/509/394 452/508/393
f 462/562/430 470/536/415 448/558/429
f 463/557/405 469/546/400 449/560/400
f 437/540/400 466/545/400 468/516/400
f 465/538/417 467/533/413 440/519/403
f 469/546/400 466/545/400 437/540/400
f 448/558/429 470/536/415 465/538/417
f 440/519/403 467/533/413 464/535/411
f 423/574/433 464/530/411 461/532/402
f 429/526/410 432/525/409 462/575/430
f 441/527/400 468/516/400 461/518/402
s 0
f 471/577/434 472/616/434 474/578/434
f 476/580/435 478/617/435 477/581/435
f 480/583/436 482/618/436 481/584/436
f 484/586/437 486/619/437 485/587/437
f 488/589/437 490/620/437 489/590/437
f 492/592/437 494/621/437 493/593/437
