# Blender 4.4.1
# www.blender.org
mtllib Pillar.mtl
o Cube
v 0.970010 6.256542 -0.967895
v 0.966827 6.091610 -0.968942
v -0.969666 7.143291 0.967900
v -0.967171 7.308218 0.968937
v 0.967171 7.308218 0.968937
v 0.969666 7.143291 0.967900
v -0.970010 6.256542 -0.967895
v -0.966827 6.091610 -0.968942
v -0.000000 4.418466 -0.968419
v -0.000000 4.577888 -0.968419
v -0.000000 8.445064 0.968419
v -0.000000 8.606640 0.968419
v 0.000000 4.365479 -1.000000
v 1.000000 6.041378 -1.000000
v 0.000000 4.630875 -1.000000
v 1.000000 6.306774 -1.000000
v 1.000000 7.093057 1.000000
v 1.000000 7.358452 1.000000
v -1.000000 7.093057 1.000000
v -1.000000 6.041378 -1.000000
v -1.000000 7.358452 1.000000
v -1.000000 6.306774 -1.000000
v 0.000000 8.393154 1.000000
v 0.000000 8.658549 1.000000
v -1.000000 8.679226 1.000000
v 0.921205 7.847197 -1.000000
v 1.000000 8.679226 1.000000
v -0.921205 7.847197 -1.000000
v 0.000000 9.020618 -1.000000
v 0.000000 9.329275 1.000000
v 0.921205 7.537273 -1.000000
v 1.000000 8.018839 1.000000
v -0.921205 7.537273 -1.000000
v 0.000000 6.379388 -1.000000
v 0.000000 8.993912 1.000000
v -1.000000 8.018839 1.000000
v -1.000000 8.153387 -1.000000
v 0.000000 9.427176 -1.000000
v 1.000000 8.153387 -1.000000
v 1.000000 7.230080 -1.000000
v -1.000000 7.230080 -1.000000
v 0.000000 5.973156 -1.000000
v 0.000000 9.020618 -1.109328
v 0.000000 6.379388 -1.109328
v -0.921205 7.847197 -1.109328
v 0.921205 7.847197 -1.109328
v 0.921205 7.537273 -1.109328
v -0.921205 7.537273 -1.109328
v 0.000000 7.692235 -1.541356
v -1.000000 8.153387 -1.073517
v 0.000000 9.427176 -1.073517
v 1.000000 8.153387 -1.073517
v 0.000000 5.973156 -1.073517
v 1.000000 7.230080 -1.073517
v -1.000000 7.230080 -1.073517
v -0.921205 7.847197 -1.073517
v 0.000000 9.020618 -1.073517
v 0.921205 7.847197 -1.073517
v 0.000000 6.379388 -1.073517
v 0.921205 7.537273 -1.073517
v -0.921205 7.537273 -1.073517
v 1.000000 9.827916 -1.000000
v 0.965583 10.000000 -0.965583
v 0.989920 9.949598 -0.989920
v 0.965583 10.000000 0.965583
v 1.000000 9.827916 1.000000
v 0.989920 9.949598 0.989920
v -0.965583 10.000000 -0.965583
v -1.000000 9.827916 -1.000000
v -0.989920 9.949598 -0.989920
v -0.965583 10.000000 0.965583
v -1.000000 9.827916 1.000000
v -0.989920 9.949598 0.989920
v 0.000000 9.827916 1.000000
v 0.000000 10.000000 0.965583
v 0.000000 9.949598 0.989920
v 0.000000 9.827916 -1.000000
v 0.000000 10.000000 -0.965583
v 0.000000 9.949598 -0.989920
v 0.939393 0.000000 -0.939393
v 1.000000 0.303033 -1.000000
v 0.982249 0.088757 -0.982249
v 0.939393 0.000000 0.939393
v 1.000000 0.303033 1.000000
v 0.982249 0.088757 0.982249
v -1.000000 0.303033 -1.000000
v -0.939393 0.000000 -0.939393
v -0.982249 0.088757 -0.982249
v -0.939393 0.000000 0.939393
v -1.000000 0.303033 1.000000
v -0.982249 0.088757 0.982249
v 0.000000 0.303033 -1.000000
v 0.000000 0.000000 -0.939393
v 0.000000 0.088757 -0.982249
v 0.000000 0.303033 1.000000
v 0.000000 0.000000 0.939393
v 0.000000 0.088757 0.982249
vn -0.0000 0.0343 -0.9994
vn -0.0000 -0.0000 -1.0000
vn -0.5169 0.6823 -0.5169
vn -0.0000 0.7090 0.7052
vn -0.0000 0.7090 -0.7052
vn -0.0000 -0.0343 -0.9994
vn -0.0000 -0.0398 -0.9992
vn -0.0000 0.0343 0.9994
vn -0.0000 -0.0000 1.0000
vn 0.9994 0.0343 -0.0000
vn 1.0000 -0.0000 -0.0000
vn -0.0000 -0.0398 0.9992
vn -0.0000 -0.0343 0.9994
vn -0.0000 0.0001 -1.0000
vn -0.0107 0.0065 -0.9999
vn 0.5169 -0.6823 -0.5169
vn -0.0000 -0.7090 0.7052
vn -0.0000 -0.7090 -0.7052
vn 0.9998 -0.0190 0.0089
vn 0.9999 0.0148 -0.0066
vn 0.9998 -0.0194 0.0090
vn -0.9999 0.0148 -0.0066
vn -0.9998 -0.0190 0.0089
vn -0.9998 -0.0194 0.0090
vn -0.0000 -0.0001 1.0000
vn 0.0079 -0.0063 0.9999
vn 0.0081 -0.0064 0.9999
vn -0.0079 -0.0063 0.9999
vn -0.0081 -0.0064 0.9999
vn -0.5169 -0.6823 0.5169
vn -0.5169 -0.6824 -0.5169
vn 0.0107 0.0065 -0.9999
vn -0.9994 -0.0343 -0.0000
vn -1.0000 -0.0000 -0.0000
vn -0.9994 0.0343 -0.0000
vn -0.4297 0.2562 -0.8659
vn -0.0000 0.5036 -0.8639
vn -0.0000 0.5120 -0.8590
vn 0.8588 -0.5122 -0.0108
vn -0.0000 -0.5195 -0.8545
vn 0.8587 -0.5124 0.0004
vn 0.6737 0.6540 -0.3440
vn 0.8886 0.4026 -0.2197
vn 0.6708 0.6564 -0.3452
vn 0.6775 -0.6510 0.3424
vn 0.8907 -0.3990 0.2178
vn 0.6746 -0.6533 0.3435
vn -0.6737 0.6540 -0.3440
vn -0.8886 0.4026 -0.2197
vn -0.8908 0.3987 -0.2178
vn -0.6775 -0.6510 0.3424
vn -0.8907 -0.3990 0.2178
vn -0.8929 -0.3951 0.2159
vn -0.7750 0.5958 0.2109
vn -0.0000 0.5260 0.8505
vn -0.0000 0.5198 0.8543
vn 0.3834 -0.2948 0.8753
vn -0.0000 -0.5130 0.8584
vn 0.3811 -0.2931 0.8768
vn 0.4297 0.2562 -0.8659
vn 0.4268 0.2547 -0.8678
vn -0.8588 -0.5122 -0.0108
vn -0.0000 -0.5120 -0.8590
vn 0.7750 0.5958 0.2109
vn 0.7765 0.5973 0.2009
vn -0.3834 -0.2948 0.8753
vn -0.0000 -0.5198 0.8543
vn -0.7825 -0.6226 -0.0000
vn -0.0000 -1.0000 -0.0000
vn -0.7866 0.6175 -0.0000
vn -0.9684 -0.2492 -0.0000
vn -0.9686 0.2485 -0.0000
vn -0.3665 0.2878 -0.8848
vn 0.3665 0.2878 -0.8848
vn 0.7866 0.6175 -0.0000
vn 0.7825 -0.6226 -0.0000
vn 0.3657 -0.2909 -0.8841
vn -0.4246 -0.0000 -0.9054
vn -0.3657 -0.2909 -0.8841
vn 0.4246 -0.0000 -0.9054
vn 0.9684 -0.2492 -0.0000
vn 0.9686 0.2485 -0.0000
vn -0.5169 0.6824 0.5169
vn -0.0000 0.1961 0.9806
vn -0.0000 0.1414 0.9900
vn -0.0000 0.0398 0.9992
vn 0.5169 0.6823 0.5169
vn 0.9900 0.1414 -0.0000
vn 0.5169 0.6824 -0.5169
vn -0.9900 0.1414 -0.0000
vn -0.0000 0.1961 -0.9806
vn -0.0000 0.1414 -0.9900
vn -0.0000 0.0398 -0.9992
vn -0.9900 -0.1414 -0.0000
vn -0.0000 -0.1961 -0.9806
vn -0.0000 -0.1414 -0.9900
vn 0.5169 -0.6824 0.5169
vn -0.0000 -0.1961 0.9806
vn -0.0000 -0.1414 0.9900
vn 0.9900 -0.1414 -0.0000
vn 0.9994 -0.0343 -0.0000
vn -0.0108 0.0066 -0.9999
vn 0.9999 0.0152 -0.0068
vn -0.9999 0.0152 -0.0068
vn 0.0108 0.0066 -0.9999
vn -0.4268 0.2547 -0.8678
vn 0.8908 0.3987 -0.2178
vn 0.8929 -0.3951 0.2159
vn -0.6708 0.6564 -0.3452
vn -0.6746 -0.6533 0.3435
vn -0.7765 0.5973 0.2009
vn -0.8587 -0.5124 0.0004
vn -0.3811 -0.2931 0.8768
vt 0.272431 0.689477
vt 0.202819 0.710658
vt 0.289443 0.704046
vt 0.272767 0.689141
vt 0.196783 0.519558
vt 0.192588 0.689483
vt 0.919059 0.637729
vt 0.759932 0.130109
vt 0.919059 0.130109
vt 0.286955 0.519237
vt 0.193244 0.499846
vt 0.289366 0.497379
vt 0.272490 0.689477
vt 0.312836 0.528666
vt 0.289502 0.704047
vt 0.266222 0.435932
vt 0.394736 0.261410
vt 0.266222 0.261410
vt 0.085070 0.500000
vt 0.046164 0.375749
vt 0.089168 0.500000
vt 0.274011 0.008037
vt 0.394736 0.249487
vt 0.394736 0.008037
vt 0.041922 0.375341
vt 0.035291 0.125611
vt 0.394720 0.261410
vt 0.266206 0.435932
vt 0.266206 0.261410
vt 0.035291 0.874389
vt 0.041922 0.624659
vt 0.046163 0.624251
vt 0.004400 0.999666
vt 0.031057 0.874797
vt 0.031057 0.125203
vt 0.004400 0.000334
vt 0.394720 0.008037
vt 0.273995 0.249487
vt 0.273995 0.008037
vt 0.262072 0.257276
vt 0.114581 0.000248
vt 0.262072 0.000248
vt 0.193184 0.499846
vt 0.286895 0.519237
vt 0.289306 0.497379
vt 0.759932 0.130348
vt 0.919059 0.637968
vt 0.919059 0.130348
vt 0.312778 0.528667
vt 0.202878 0.710659
vt 0.766066 0.863433
vt 0.920233 0.658024
vt 0.174557 0.317383
vt 0.178815 0.448855
vt 0.178679 0.313314
vt 0.109841 0.003875
vt 0.087566 0.257276
vt 0.114597 0.000248
vt 0.339496 0.535721
vt 0.324080 0.714326
vt 0.336614 0.532614
vt 0.109825 0.003875
vt 0.087550 0.257276
vt 0.083727 0.252886
vt 0.339438 0.535722
vt 0.324021 0.714326
vt 0.328439 0.713802
vt 0.269132 0.440964
vt 0.394720 0.469348
vt 0.393977 0.473556
vt 0.289220 0.468954
vt 0.193392 0.484989
vt 0.292474 0.472030
vt 0.766066 0.863671
vt 0.759932 0.847378
vt 0.174557 0.317254
vt 0.178815 0.448726
vt 0.174557 0.449169
vt 0.269148 0.440964
vt 0.394736 0.469348
vt 0.289279 0.468954
vt 0.193452 0.484989
vt 0.193284 0.481778
vt 0.192647 0.491425
vt 0.290950 0.484704
vt 0.118104 0.974240
vt 0.209137 0.877835
vt 0.218897 0.889436
vt 0.084283 0.826809
vt 0.099745 0.958641
vt 0.084579 0.958675
vt 0.324740 0.530600
vt 0.306589 0.709275
vt 0.324682 0.530601
vt 0.306529 0.709274
vt 0.192588 0.491425
vt 0.290890 0.484704
vt 0.336555 0.532614
vt 0.211516 0.437858
vt 0.178679 0.313185
vt 0.211516 0.437729
vt 0.292534 0.472030
vt 0.290117 0.814200
vt 0.294445 0.829530
vt 0.300243 0.822070
vt 0.298673 0.714826
vt 0.298614 0.714826
vt 0.292878 0.713071
vt 0.274871 0.954279
vt 0.284319 0.821660
vt 0.274871 0.821660
vt 0.300267 0.822173
vt 0.284331 0.821728
vt 0.290141 0.814277
vt 0.099448 0.826775
vt 0.154389 0.852350
vt 0.200542 0.742106
vt 0.092694 0.973807
vt 0.108343 0.962639
vt 0.101292 0.977804
vt 0.190805 0.730480
vt 0.089711 0.815149
vt 0.224298 0.877835
vt 0.209137 0.746112
vt 0.224298 0.746112
vt 0.216202 0.730953
vt 0.207608 0.726947
vt 0.284319 0.954279
vt 0.294445 0.951699
vt 0.294444 0.829530
vt 0.284318 0.954279
vt 0.284318 0.821660
vt 0.294516 0.829466
vt 0.284390 0.954083
vt 0.294516 0.951537
vt 0.294457 0.829624
vt 0.284331 0.954240
vt 0.274942 0.954083
vt 0.284390 0.821571
vt 0.274942 0.821571
vt 0.274870 0.821660
vt 0.274870 0.954279
vt 0.300242 0.822070
vt 0.290116 0.814200
vt 0.274883 0.821728
vt 0.274883 0.954240
vt 0.290200 0.814120
vt 0.300326 0.822016
vt 0.282585 0.524292
vt 0.195235 0.515397
vt 0.285391 0.521810
vt 0.193794 0.511140
vt 0.282645 0.524292
vt 0.272893 0.689596
vt 0.272827 0.689142
vt 0.287329 0.523895
vt 0.287270 0.523896
vt 0.272834 0.689595
vt 0.291794 0.524742
vt 0.195612 0.695458
vt 0.192647 0.689484
vt 0.198736 0.701239
vt 0.195294 0.515397
vt 0.285450 0.521810
vt 0.193853 0.511140
vt 0.195553 0.695457
vt 0.198677 0.701238
vt 0.268033 0.002530
vt 0.268033 0.254995
vt 0.769576 0.072386
vt 0.919059 0.101367
vt 0.919059 0.072386
vt 0.762757 0.101367
vt 0.274011 0.249487
vt 0.394736 0.255449
vt 0.268504 0.255448
vt 0.268050 0.254995
vt 0.268050 0.002530
vt 0.262088 0.257276
vt 0.769577 0.072148
vt 0.919059 0.101128
vt 0.762757 0.101128
vt 0.394720 0.255449
vt 0.268487 0.255449
vt 0.262088 0.000248
vt 0.759932 0.847140
vt 0.291853 0.524742
vt 0.000248 0.999752
vt 0.000248 0.000248
vt 0.394720 0.249487
vt 0.174557 0.449299
vt 0.083744 0.252886
vt 0.328498 0.713802
vt 0.193225 0.481778
vt 0.920233 0.658263
vt 0.393993 0.473556
vt 0.201173 0.305750
vt 0.201173 0.305621
vt 0.292937 0.713071
vt 0.294444 0.951699
vt 0.294457 0.951694
vt 0.196843 0.519558
vt 0.919059 0.072148
s 1
usemtl Material
f 69/1/1 38/2/2 37/3/2
f 68/4/3 75/5/4 78/6/5
f 13/7/2 81/8/6 92/9/7
f 66/10/8 30/11/9 27/12/9
f 62/13/10 27/14/11 39/15/11
f 17/16/9 95/17/12 84/18/13
f 10/19/14 2/20/15 9/21/2
f 80/22/16 96/23/17 93/24/18
f 1/25/19 6/26/20 2/20/21
f 95/27/12 19/28/9 90/29/13
f 3/30/22 7/31/23 8/32/24
f 11/33/25 4/34/26 3/30/27
f 5/35/28 11/36/25 6/26/29
f 93/37/18 89/38/30 87/39/31
f 8/32/32 10/19/14 9/21/2
f 90/40/33 20/41/34 86/42/33
f 30/43/9 72/44/8 25/45/9
f 86/46/6 13/47/2 92/48/7
f 25/49/34 69/1/35 37/3/34
f 38/50/2 62/13/1 39/15/2
f 2/51/36 13/7/37 9/52/38
f 1/53/39 15/54/40 16/55/41
f 2/56/42 17/57/43 14/58/44
f 5/59/45 16/60/46 18/61/47
f 8/62/48 19/63/49 3/64/50
f 4/65/51 22/66/52 7/67/53
f 3/68/54 23/69/55 11/70/56
f 4/71/57 24/72/58 21/73/59
f 8/74/60 13/47/37 20/75/61
f 7/76/62 15/77/40 10/78/63
f 6/79/64 23/80/55 17/16/65
f 5/81/66 24/82/58 12/83/67
f 27/12/9 35/84/9 32/85/9
f 33/86/68 44/87/69 34/88/69
f 29/89/70 45/90/70 28/91/70
f 39/15/11 32/92/11 40/93/11
f 36/94/34 37/3/34 41/95/34
f 35/96/9 25/45/9 36/97/9
f 24/72/9 36/97/9 21/73/9
f 21/98/34 41/95/34 22/66/34
f 40/93/11 18/61/11 16/60/11
f 42/99/2 16/55/2 15/54/2
f 22/100/2 42/101/2 15/77/2
f 32/85/9 24/82/9 18/102/9
f 37/103/71 56/104/71 28/105/71
f 31/106/2 39/15/2 40/93/2
f 33/107/2 37/3/2 28/108/2
f 38/109/70 50/110/70 37/111/70
f 33/112/72 55/113/72 41/114/72
f 45/90/73 43/115/73 49/116/73
f 49/116/74 43/115/74 46/117/74
f 28/118/34 48/119/34 33/120/34
f 26/121/75 43/115/75 29/122/75
f 34/123/69 47/124/76 31/125/76
f 31/126/11 46/117/11 26/127/11
f 44/87/77 49/116/77 47/124/77
f 48/119/78 45/90/78 49/116/78
f 44/87/79 48/119/79 49/116/79
f 47/124/80 49/116/80 46/117/80
f 56/104/2 51/128/2 57/129/2
f 58/130/2 51/131/2 52/132/2
f 60/133/2 53/134/2 59/135/2
f 61/136/2 53/137/2 55/113/2
f 42/138/76 54/139/76 40/140/76
f 39/141/75 51/131/75 38/142/75
f 26/143/81 52/132/81 39/144/81
f 41/145/68 53/137/68 42/146/68
f 40/147/82 60/133/82 31/148/82
f 71/149/83 76/150/84 75/5/4
f 73/151/85 74/152/86 76/150/84
f 65/153/87 64/154/88 63/155/89
f 67/156/88 62/13/10 64/154/88
f 68/4/3 73/157/90 71/149/83
f 70/158/90 72/159/35 73/157/90
f 63/155/89 79/160/91 78/161/5
f 64/154/92 77/162/93 79/160/91
f 65/153/87 76/163/84 67/164/85
f 67/164/85 74/165/86 66/10/8
f 68/4/3 79/166/91 70/158/92
f 70/158/92 77/167/93 69/1/1
f 78/161/5 65/153/87 63/155/89
f 89/38/30 88/168/94 87/39/31
f 91/169/94 86/42/33 88/168/94
f 87/170/31 94/171/95 93/172/18
f 88/173/96 92/48/7 94/171/95
f 83/174/97 97/175/98 96/23/17
f 85/176/99 95/17/12 97/175/98
f 80/22/16 85/177/100 83/174/97
f 82/178/100 84/179/101 85/177/100
f 80/180/16 94/181/95 82/182/96
f 82/182/96 92/9/7 81/8/6
f 89/38/30 97/183/98 91/184/99
f 91/184/99 95/27/12 90/29/13
f 14/58/11 84/179/101 81/185/101
f 69/1/1 77/167/93 38/2/2
f 68/4/3 71/149/83 75/5/4
f 13/7/2 14/186/2 81/8/6
f 66/10/8 74/165/86 30/11/9
f 62/13/10 66/187/10 27/14/11
f 17/16/9 23/80/9 95/17/12
f 10/19/14 1/25/102 2/20/15
f 80/22/16 83/174/97 96/23/17
f 1/25/19 5/35/103 6/26/20
f 95/27/12 23/69/9 19/28/9
f 3/30/22 4/34/104 7/31/23
f 11/33/25 12/188/9 4/34/26
f 5/35/28 12/189/9 11/36/25
f 93/37/18 96/190/17 89/38/30
f 8/32/32 7/31/105 10/19/14
f 90/40/33 19/63/34 20/41/34
f 30/43/9 74/152/86 72/44/8
f 86/46/6 20/75/2 13/47/2
f 25/49/34 72/159/35 69/1/35
f 38/50/2 77/162/93 62/13/1
f 2/51/36 14/186/106 13/7/37
f 1/53/39 10/191/63 15/54/40
f 2/56/42 6/192/107 17/57/43
f 5/59/45 1/193/108 16/60/46
f 8/62/48 20/41/109 19/63/49
f 4/65/51 21/98/110 22/66/52
f 3/68/54 19/28/111 23/69/55
f 4/71/57 12/194/67 24/72/58
f 8/74/60 9/195/38 13/47/37
f 7/76/62 22/100/112 15/77/40
f 6/79/64 11/196/56 23/80/55
f 5/81/66 18/102/113 24/82/58
f 27/12/9 30/11/9 35/84/9
f 33/86/68 48/119/68 44/87/69
f 29/89/70 43/115/70 45/90/70
f 39/15/11 27/14/11 32/92/11
f 36/94/34 25/49/34 37/3/34
f 35/96/9 30/43/9 25/45/9
f 24/72/9 35/96/9 36/97/9
f 21/98/34 36/94/34 41/95/34
f 40/93/11 32/92/11 18/61/11
f 42/99/2 40/197/2 16/55/2
f 22/100/2 41/198/2 42/101/2
f 32/85/9 35/84/9 24/82/9
f 37/103/71 50/110/71 56/104/71
f 31/106/2 26/199/2 39/15/2
f 33/107/2 41/95/2 37/3/2
f 38/109/70 51/128/70 50/110/70
f 33/112/72 61/136/72 55/113/72
f 28/118/34 45/90/34 48/119/34
f 26/121/75 46/117/75 43/115/75
f 34/123/69 44/87/69 47/124/76
f 31/126/11 47/124/11 46/117/11
f 56/104/2 50/110/2 51/128/2
f 58/130/2 57/200/2 51/131/2
f 60/133/2 54/139/2 53/134/2
f 61/136/2 59/201/2 53/137/2
f 42/138/76 53/134/76 54/139/76
f 39/141/75 52/132/75 51/131/75
f 26/143/81 58/130/81 52/132/81
f 41/145/68 55/113/68 53/137/68
f 40/147/82 54/139/82 60/133/82
f 71/149/83 73/151/85 76/150/84
f 73/151/85 72/44/8 74/152/86
f 65/153/87 67/156/88 64/154/88
f 67/156/88 66/187/10 62/13/10
f 68/4/3 70/158/90 73/157/90
f 70/158/90 69/1/35 72/159/35
f 63/155/89 64/154/92 79/160/91
f 64/154/92 62/13/1 77/162/93
f 65/153/87 75/202/4 76/163/84
f 67/164/85 76/163/84 74/165/86
f 68/4/3 78/6/5 79/166/91
f 70/158/92 79/166/91 77/167/93
f 78/161/5 75/202/4 65/153/87
f 89/38/30 91/169/94 88/168/94
f 91/169/94 90/40/33 86/42/33
f 87/170/31 88/173/96 94/171/95
f 88/173/96 86/46/6 92/48/7
f 83/174/97 85/176/99 97/175/98
f 85/176/99 84/18/13 95/17/12
f 80/22/16 82/178/100 85/177/100
f 82/178/100 81/185/101 84/179/101
f 80/180/16 93/203/18 94/181/95
f 82/182/96 94/181/95 92/9/7
f 89/38/30 96/190/17 97/183/98
f 91/184/99 97/183/98 95/27/12
f 14/58/11 17/57/11 84/179/101
