{
	"asset":{
		"generator":"Khronos glTF Blender I/O v4.4.56",
		"version":"2.0"
	},
	"scene":0,
	"scenes":[
		{
			"name":"Scene",
			"nodes":[
				20
			]
		}
	],
	"nodes":[
		{
			"name":"\u30dc\u30fc\u30f3.018",
			"rotation":[
				-3.5527119847346064e-15,
				1.0658141036401503e-14,
				-4.0389678347315804e-28,
				1
			],
			"translation":[
				0,
				1.6066246032714844,
				0
			]
		},
		{
			"children":[
				0
			],
			"name":"\u30dc\u30fc\u30f3.017",
			"rotation":[
				-3.5527119847346064e-15,
				-1.0658141036401503e-14,
				-4.235167260626398e-22,
				1
			],
			"translation":[
				0,
				1.2049694061279297,
				0
			]
		},
		{
			"children":[
				1
			],
			"name":"\u30dc\u30fc\u30f3.016",
			"rotation":[
				-3.5527119847346064e-15,
				0,
				-4.0389678347315804e-28,
				1
			],
			"translation":[
				0,
				1.347299575805664,
				0
			]
		},
		{
			"children":[
				2
			],
			"name":"\u30dc\u30fc\u30f3.015",
			"rotation":[
				1.6940658945086007e-21,
				0,
				-3.0292258760486853e-28,
				1
			],
			"scale":[
				1,
				0.9999999403953552,
				1
			],
			"translation":[
				0,
				1.3336868286132812,
				0
			]
		},
		{
			"children":[
				3
			],
			"name":"\u30dc\u30fc\u30f3.014",
			"rotation":[
				1.6940658945086007e-21,
				1.0658141036401503e-14,
				-3.0292258760486853e-28,
				1
			],
			"translation":[
				0,
				1.3609046936035156,
				0
			]
		},
		{
			"children":[
				4
			],
			"name":"\u30dc\u30fc\u30f3.013",
			"rotation":[
				-3.5527119847346064e-15,
				-1.0658141036401503e-14,
				-4.23516625088444e-22,
				1
			],
			"translation":[
				0,
				1.3200788497924805,
				0
			]
		},
		{
			"children":[
				5
			],
			"name":"\u30dc\u30fc\u30f3.012",
			"rotation":[
				-3.5527119847346064e-15,
				0,
				-2.0194839173657902e-28,
				1
			],
			"translation":[
				0,
				1.3336858749389648,
				0
			]
		},
		{
			"children":[
				6
			],
			"name":"\u30dc\u30fc\u30f3.011",
			"rotation":[
				-3.5527119847346064e-15,
				0,
				-2.0194839173657902e-28,
				1
			],
			"translation":[
				0,
				1.3745145797729492,
				0
			]
		},
		{
			"children":[
				7
			],
			"name":"\u30dc\u30fc\u30f3.010",
			"rotation":[
				-3.5527119847346064e-15,
				0,
				-2.0194839173657902e-28,
				1
			],
			"translation":[
				0,
				1.2928619384765625,
				0
			]
		},
		{
			"children":[
				8
			],
			"name":"\u30dc\u30fc\u30f3.009",
			"rotation":[
				-3.5527119847346064e-15,
				0,
				-2.0194839173657902e-28,
				1
			],
			"translation":[
				0,
				1.347294807434082,
				0
			]
		},
		{
			"children":[
				9
			],
			"name":"\u30dc\u30fc\u30f3.008",
			"rotation":[
				-3.5527119847346064e-15,
				0,
				-2.0194839173657902e-28,
				1
			],
			"translation":[
				0,
				1.360905647277832,
				0
			]
		},
		{
			"children":[
				10
			],
			"name":"\u30dc\u30fc\u30f3.007",
			"rotation":[
				-3.5527119847346064e-15,
				0,
				-2.0194839173657902e-28,
				1
			],
			"translation":[
				0,
				1.3336868286132812,
				0
			]
		},
		{
			"children":[
				11
			],
			"name":"\u30dc\u30fc\u30f3.006",
			"rotation":[
				-3.5527119847346064e-15,
				0,
				-2.0194839173657902e-28,
				1
			],
			"translation":[
				0,
				1.3722448348999023,
				0
			]
		},
		{
			"children":[
				12
			],
			"name":"\u30dc\u30fc\u30f3.005",
			"rotation":[
				-3.5527119847346064e-15,
				0,
				-2.0194839173657902e-28,
				1
			],
			"translation":[
				0,
				1.3041996955871582,
				0
			]
		},
		{
			"children":[
				13
			],
			"name":"\u30dc\u30fc\u30f3.004",
			"rotation":[
				-3.5527119847346064e-15,
				0,
				-2.0194839173657902e-28,
				1
			],
			"translation":[
				0,
				1.3268811702728271,
				0
			]
		},
		{
			"children":[
				14
			],
			"name":"\u30dc\u30fc\u30f3.003",
			"rotation":[
				-3.5527119847346064e-15,
				0,
				-2.0194839173657902e-28,
				1
			],
			"translation":[
				0,
				1.372244954109192,
				0
			]
		},
		{
			"children":[
				15
			],
			"name":"\u30dc\u30fc\u30f3.002",
			"rotation":[
				-3.5527119847346064e-15,
				0,
				-2.0194839173657902e-28,
				1
			],
			"translation":[
				0,
				1.3336859941482544,
				0
			]
		},
		{
			"children":[
				16
			],
			"name":"\u30dc\u30fc\u30f3.001",
			"rotation":[
				-3.5527119847346064e-15,
				1.7763568394002505e-14,
				-2.0194839173657902e-28,
				1
			],
			"translation":[
				0,
				1.4899252653121948,
				0
			]
		},
		{
			"children":[
				17
			],
			"name":"\u30dc\u30fc\u30f3",
			"rotation":[
				-2.980232594040899e-08,
				1.1920927533992653e-07,
				0,
				1
			],
			"scale":[
				1,
				0.9999999403953552,
				0.9999999403953552
			]
		},
		{
			"mesh":0,
			"name":"\u5186\u67f1",
			"skin":0
		},
		{
			"children":[
				19,
				18
			],
			"name":"\u30a2\u30fc\u30de\u30c1\u30e5\u30a2",
			"translation":[
				0,
				-1.1399731636047363,
				0
			]
		}
	],
	"animations":[
		{
			"channels":[
				{
					"sampler":0,
					"target":{
						"node":18,
						"path":"translation"
					}
				},
				{
					"sampler":1,
					"target":{
						"node":18,
						"path":"rotation"
					}
				},
				{
					"sampler":2,
					"target":{
						"node":18,
						"path":"scale"
					}
				},
				{
					"sampler":3,
					"target":{
						"node":17,
						"path":"translation"
					}
				},
				{
					"sampler":4,
					"target":{
						"node":17,
						"path":"rotation"
					}
				},
				{
					"sampler":5,
					"target":{
						"node":17,
						"path":"scale"
					}
				},
				{
					"sampler":6,
					"target":{
						"node":16,
						"path":"translation"
					}
				},
				{
					"sampler":7,
					"target":{
						"node":16,
						"path":"rotation"
					}
				},
				{
					"sampler":8,
					"target":{
						"node":16,
						"path":"scale"
					}
				},
				{
					"sampler":9,
					"target":{
						"node":15,
						"path":"translation"
					}
				},
				{
					"sampler":10,
					"target":{
						"node":15,
						"path":"rotation"
					}
				},
				{
					"sampler":11,
					"target":{
						"node":15,
						"path":"scale"
					}
				},
				{
					"sampler":12,
					"target":{
						"node":14,
						"path":"translation"
					}
				},
				{
					"sampler":13,
					"target":{
						"node":14,
						"path":"rotation"
					}
				},
				{
					"sampler":14,
					"target":{
						"node":14,
						"path":"scale"
					}
				},
				{
					"sampler":15,
					"target":{
						"node":13,
						"path":"translation"
					}
				},
				{
					"sampler":16,
					"target":{
						"node":13,
						"path":"rotation"
					}
				},
				{
					"sampler":17,
					"target":{
						"node":13,
						"path":"scale"
					}
				},
				{
					"sampler":18,
					"target":{
						"node":12,
						"path":"translation"
					}
				},
				{
					"sampler":19,
					"target":{
						"node":12,
						"path":"rotation"
					}
				},
				{
					"sampler":20,
					"target":{
						"node":12,
						"path":"scale"
					}
				},
				{
					"sampler":21,
					"target":{
						"node":11,
						"path":"translation"
					}
				},
				{
					"sampler":22,
					"target":{
						"node":11,
						"path":"rotation"
					}
				},
				{
					"sampler":23,
					"target":{
						"node":11,
						"path":"scale"
					}
				},
				{
					"sampler":24,
					"target":{
						"node":10,
						"path":"translation"
					}
				},
				{
					"sampler":25,
					"target":{
						"node":10,
						"path":"rotation"
					}
				},
				{
					"sampler":26,
					"target":{
						"node":10,
						"path":"scale"
					}
				},
				{
					"sampler":27,
					"target":{
						"node":9,
						"path":"translation"
					}
				},
				{
					"sampler":28,
					"target":{
						"node":9,
						"path":"rotation"
					}
				},
				{
					"sampler":29,
					"target":{
						"node":9,
						"path":"scale"
					}
				},
				{
					"sampler":30,
					"target":{
						"node":8,
						"path":"translation"
					}
				},
				{
					"sampler":31,
					"target":{
						"node":8,
						"path":"rotation"
					}
				},
				{
					"sampler":32,
					"target":{
						"node":8,
						"path":"scale"
					}
				},
				{
					"sampler":33,
					"target":{
						"node":7,
						"path":"translation"
					}
				},
				{
					"sampler":34,
					"target":{
						"node":7,
						"path":"rotation"
					}
				},
				{
					"sampler":35,
					"target":{
						"node":7,
						"path":"scale"
					}
				},
				{
					"sampler":36,
					"target":{
						"node":6,
						"path":"translation"
					}
				},
				{
					"sampler":37,
					"target":{
						"node":6,
						"path":"rotation"
					}
				},
				{
					"sampler":38,
					"target":{
						"node":6,
						"path":"scale"
					}
				},
				{
					"sampler":39,
					"target":{
						"node":5,
						"path":"translation"
					}
				},
				{
					"sampler":40,
					"target":{
						"node":5,
						"path":"rotation"
					}
				},
				{
					"sampler":41,
					"target":{
						"node":5,
						"path":"scale"
					}
				},
				{
					"sampler":42,
					"target":{
						"node":4,
						"path":"translation"
					}
				},
				{
					"sampler":43,
					"target":{
						"node":4,
						"path":"rotation"
					}
				},
				{
					"sampler":44,
					"target":{
						"node":4,
						"path":"scale"
					}
				},
				{
					"sampler":45,
					"target":{
						"node":3,
						"path":"translation"
					}
				},
				{
					"sampler":46,
					"target":{
						"node":3,
						"path":"rotation"
					}
				},
				{
					"sampler":47,
					"target":{
						"node":3,
						"path":"scale"
					}
				},
				{
					"sampler":48,
					"target":{
						"node":2,
						"path":"translation"
					}
				},
				{
					"sampler":49,
					"target":{
						"node":2,
						"path":"rotation"
					}
				},
				{
					"sampler":50,
					"target":{
						"node":2,
						"path":"scale"
					}
				},
				{
					"sampler":51,
					"target":{
						"node":1,
						"path":"translation"
					}
				},
				{
					"sampler":52,
					"target":{
						"node":1,
						"path":"rotation"
					}
				},
				{
					"sampler":53,
					"target":{
						"node":1,
						"path":"scale"
					}
				},
				{
					"sampler":54,
					"target":{
						"node":0,
						"path":"translation"
					}
				},
				{
					"sampler":55,
					"target":{
						"node":0,
						"path":"rotation"
					}
				},
				{
					"sampler":56,
					"target":{
						"node":0,
						"path":"scale"
					}
				}
			],
			"name":"Special",
			"samplers":[
				{
					"input":7,
					"interpolation":"STEP",
					"output":8
				},
				{
					"input":9,
					"interpolation":"LINEAR",
					"output":10
				},
				{
					"input":7,
					"interpolation":"STEP",
					"output":11
				},
				{
					"input":7,
					"interpolation":"LINEAR",
					"output":12
				},
				{
					"input":9,
					"interpolation":"LINEAR",
					"output":13
				},
				{
					"input":7,
					"interpolation":"STEP",
					"output":14
				},
				{
					"input":7,
					"interpolation":"LINEAR",
					"output":15
				},
				{
					"input":9,
					"interpolation":"LINEAR",
					"output":16
				},
				{
					"input":7,
					"interpolation":"LINEAR",
					"output":17
				},
				{
					"input":7,
					"interpolation":"LINEAR",
					"output":18
				},
				{
					"input":9,
					"interpolation":"LINEAR",
					"output":19
				},
				{
					"input":7,
					"interpolation":"LINEAR",
					"output":20
				},
				{
					"input":7,
					"interpolation":"LINEAR",
					"output":21
				},
				{
					"input":9,
					"interpolation":"LINEAR",
					"output":22
				},
				{
					"input":7,
					"interpolation":"LINEAR",
					"output":23
				},
				{
					"input":7,
					"interpolation":"LINEAR",
					"output":24
				},
				{
					"input":9,
					"interpolation":"LINEAR",
					"output":25
				},
				{
					"input":7,
					"interpolation":"LINEAR",
					"output":26
				},
				{
					"input":7,
					"interpolation":"LINEAR",
					"output":27
				},
				{
					"input":9,
					"interpolation":"LINEAR",
					"output":28
				},
				{
					"input":7,
					"interpolation":"STEP",
					"output":29
				},
				{
					"input":7,
					"interpolation":"LINEAR",
					"output":30
				},
				{
					"input":9,
					"interpolation":"LINEAR",
					"output":31
				},
				{
					"input":7,
					"interpolation":"LINEAR",
					"output":32
				},
				{
					"input":7,
					"interpolation":"LINEAR",
					"output":33
				},
				{
					"input":9,
					"interpolation":"LINEAR",
					"output":34
				},
				{
					"input":7,
					"interpolation":"LINEAR",
					"output":35
				},
				{
					"input":7,
					"interpolation":"LINEAR",
					"output":36
				},
				{
					"input":9,
					"interpolation":"LINEAR",
					"output":37
				},
				{
					"input":7,
					"interpolation":"STEP",
					"output":38
				},
				{
					"input":7,
					"interpolation":"LINEAR",
					"output":39
				},
				{
					"input":9,
					"interpolation":"LINEAR",
					"output":40
				},
				{
					"input":7,
					"interpolation":"STEP",
					"output":41
				},
				{
					"input":7,
					"interpolation":"LINEAR",
					"output":42
				},
				{
					"input":9,
					"interpolation":"LINEAR",
					"output":43
				},
				{
					"input":7,
					"interpolation":"STEP",
					"output":44
				},
				{
					"input":7,
					"interpolation":"LINEAR",
					"output":45
				},
				{
					"input":9,
					"interpolation":"LINEAR",
					"output":46
				},
				{
					"input":7,
					"interpolation":"LINEAR",
					"output":47
				},
				{
					"input":7,
					"interpolation":"LINEAR",
					"output":48
				},
				{
					"input":9,
					"interpolation":"LINEAR",
					"output":49
				},
				{
					"input":7,
					"interpolation":"STEP",
					"output":50
				},
				{
					"input":7,
					"interpolation":"LINEAR",
					"output":51
				},
				{
					"input":9,
					"interpolation":"LINEAR",
					"output":52
				},
				{
					"input":7,
					"interpolation":"LINEAR",
					"output":53
				},
				{
					"input":7,
					"interpolation":"LINEAR",
					"output":54
				},
				{
					"input":9,
					"interpolation":"LINEAR",
					"output":55
				},
				{
					"input":7,
					"interpolation":"STEP",
					"output":56
				},
				{
					"input":7,
					"interpolation":"LINEAR",
					"output":57
				},
				{
					"input":9,
					"interpolation":"LINEAR",
					"output":58
				},
				{
					"input":7,
					"interpolation":"LINEAR",
					"output":59
				},
				{
					"input":7,
					"interpolation":"LINEAR",
					"output":60
				},
				{
					"input":9,
					"interpolation":"LINEAR",
					"output":61
				},
				{
					"input":7,
					"interpolation":"STEP",
					"output":62
				},
				{
					"input":7,
					"interpolation":"LINEAR",
					"output":63
				},
				{
					"input":9,
					"interpolation":"LINEAR",
					"output":64
				},
				{
					"input":7,
					"interpolation":"LINEAR",
					"output":65
				}
			]
		}
	],
	"materials":[
		{
			"doubleSided":true,
			"name":"Material",
			"pbrMetallicRoughness":{
				"baseColorTexture":{
					"index":0
				},
				"metallicFactor":0,
				"roughnessFactor":0.5
			}
		}
	],
	"meshes":[
		{
			"name":"\u5186\u67f1",
			"primitives":[
				{
					"attributes":{
						"POSITION":0,
						"NORMAL":1,
						"TEXCOORD_0":2,
						"JOINTS_0":3,
						"WEIGHTS_0":4
					},
					"indices":5,
					"material":0
				}
			]
		}
	],
	"textures":[
		{
			"sampler":0,
			"source":0
		}
	],
	"images":[
		{
			"mimeType":"image/png",
			"name":"sizukuSpecialImaginary",
			"uri":"sizukuSpecialImaginary.png"
		}
	],
	"skins":[
		{
			"inverseBindMatrices":6,
			"joints":[
				18,
				17,
				16,
				15,
				14,
				13,
				12,
				11,
				10,
				9,
				8,
				7,
				6,
				5,
				4,
				3,
				2,
				1,
				0
			],
			"name":"\u30a2\u30fc\u30de\u30c1\u30e5\u30a2"
		}
	],
	"accessors":[
		{
			"bufferView":0,
			"componentType":5126,
			"count":430,
			"max":[
				1,
				24.30976104736328,
				1
			],
			"min":[
				-1,
				-1,
				-1
			],
			"type":"VEC3"
		},
		{
			"bufferView":1,
			"componentType":5126,
			"count":430,
			"type":"VEC3"
		},
		{
			"bufferView":2,
			"componentType":5126,
			"count":430,
			"type":"VEC2"
		},
		{
			"bufferView":3,
			"componentType":5121,
			"count":430,
			"type":"VEC4"
		},
		{
			"bufferView":4,
			"componentType":5126,
			"count":430,
			"type":"VEC4"
		},
		{
			"bufferView":5,
			"componentType":5123,
			"count":1920,
			"type":"SCALAR"
		},
		{
			"bufferView":6,
			"componentType":5126,
			"count":19,
			"type":"MAT4"
		},
		{
			"bufferView":7,
			"componentType":5126,
			"count":2,
			"max":[
				0.8333333333333334
			],
			"min":[
				0
			],
			"type":"SCALAR"
		},
		{
			"bufferView":8,
			"componentType":5126,
			"count":2,
			"type":"VEC3"
		},
		{
			"bufferView":9,
			"componentType":5126,
			"count":21,
			"max":[
				0.8333333333333334
			],
			"min":[
				0
			],
			"type":"SCALAR"
		},
		{
			"bufferView":10,
			"componentType":5126,
			"count":21,
			"type":"VEC4"
		},
		{
			"bufferView":11,
			"componentType":5126,
			"count":2,
			"type":"VEC3"
		},
		{
			"bufferView":12,
			"componentType":5126,
			"count":2,
			"type":"VEC3"
		},
		{
			"bufferView":13,
			"componentType":5126,
			"count":21,
			"type":"VEC4"
		},
		{
			"bufferView":14,
			"componentType":5126,
			"count":2,
			"type":"VEC3"
		},
		{
			"bufferView":15,
			"componentType":5126,
			"count":2,
			"type":"VEC3"
		},
		{
			"bufferView":16,
			"componentType":5126,
			"count":21,
			"type":"VEC4"
		},
		{
			"bufferView":17,
			"componentType":5126,
			"count":2,
			"type":"VEC3"
		},
		{
			"bufferView":18,
			"componentType":5126,
			"count":2,
			"type":"VEC3"
		},
		{
			"bufferView":19,
			"componentType":5126,
			"count":21,
			"type":"VEC4"
		},
		{
			"bufferView":20,
			"componentType":5126,
			"count":2,
			"type":"VEC3"
		},
		{
			"bufferView":21,
			"componentType":5126,
			"count":2,
			"type":"VEC3"
		},
		{
			"bufferView":22,
			"componentType":5126,
			"count":21,
			"type":"VEC4"
		},
		{
			"bufferView":23,
			"componentType":5126,
			"count":2,
			"type":"VEC3"
		},
		{
			"bufferView":24,
			"componentType":5126,
			"count":2,
			"type":"VEC3"
		},
		{
			"bufferView":25,
			"componentType":5126,
			"count":21,
			"type":"VEC4"
		},
		{
			"bufferView":26,
			"componentType":5126,
			"count":2,
			"type":"VEC3"
		},
		{
			"bufferView":27,
			"componentType":5126,
			"count":2,
			"type":"VEC3"
		},
		{
			"bufferView":28,
			"componentType":5126,
			"count":21,
			"type":"VEC4"
		},
		{
			"bufferView":29,
			"componentType":5126,
			"count":2,
			"type":"VEC3"
		},
		{
			"bufferView":30,
			"componentType":5126,
			"count":2,
			"type":"VEC3"
		},
		{
			"bufferView":31,
			"componentType":5126,
			"count":21,
			"type":"VEC4"
		},
		{
			"bufferView":32,
			"componentType":5126,
			"count":2,
			"type":"VEC3"
		},
		{
			"bufferView":33,
			"componentType":5126,
			"count":2,
			"type":"VEC3"
		},
		{
			"bufferView":34,
			"componentType":5126,
			"count":21,
			"type":"VEC4"
		},
		{
			"bufferView":35,
			"componentType":5126,
			"count":2,
			"type":"VEC3"
		},
		{
			"bufferView":36,
			"componentType":5126,
			"count":2,
			"type":"VEC3"
		},
		{
			"bufferView":37,
			"componentType":5126,
			"count":21,
			"type":"VEC4"
		},
		{
			"bufferView":38,
			"componentType":5126,
			"count":2,
			"type":"VEC3"
		},
		{
			"bufferView":39,
			"componentType":5126,
			"count":2,
			"type":"VEC3"
		},
		{
			"bufferView":40,
			"componentType":5126,
			"count":21,
			"type":"VEC4"
		},
		{
			"bufferView":41,
			"componentType":5126,
			"count":2,
			"type":"VEC3"
		},
		{
			"bufferView":42,
			"componentType":5126,
			"count":2,
			"type":"VEC3"
		},
		{
			"bufferView":43,
			"componentType":5126,
			"count":21,
			"type":"VEC4"
		},
		{
			"bufferView":44,
			"componentType":5126,
			"count":2,
			"type":"VEC3"
		},
		{
			"bufferView":45,
			"componentType":5126,
			"count":2,
			"type":"VEC3"
		},
		{
			"bufferView":46,
			"componentType":5126,
			"count":21,
			"type":"VEC4"
		},
		{
			"bufferView":47,
			"componentType":5126,
			"count":2,
			"type":"VEC3"
		},
		{
			"bufferView":48,
			"componentType":5126,
			"count":2,
			"type":"VEC3"
		},
		{
			"bufferView":49,
			"componentType":5126,
			"count":21,
			"type":"VEC4"
		},
		{
			"bufferView":50,
			"componentType":5126,
			"count":2,
			"type":"VEC3"
		},
		{
			"bufferView":51,
			"componentType":5126,
			"count":2,
			"type":"VEC3"
		},
		{
			"bufferView":52,
			"componentType":5126,
			"count":21,
			"type":"VEC4"
		},
		{
			"bufferView":53,
			"componentType":5126,
			"count":2,
			"type":"VEC3"
		},
		{
			"bufferView":54,
			"componentType":5126,
			"count":2,
			"type":"VEC3"
		},
		{
			"bufferView":55,
			"componentType":5126,
			"count":21,
			"type":"VEC4"
		},
		{
			"bufferView":56,
			"componentType":5126,
			"count":2,
			"type":"VEC3"
		},
		{
			"bufferView":57,
			"componentType":5126,
			"count":2,
			"type":"VEC3"
		},
		{
			"bufferView":58,
			"componentType":5126,
			"count":21,
			"type":"VEC4"
		},
		{
			"bufferView":59,
			"componentType":5126,
			"count":2,
			"type":"VEC3"
		},
		{
			"bufferView":60,
			"componentType":5126,
			"count":2,
			"type":"VEC3"
		},
		{
			"bufferView":61,
			"componentType":5126,
			"count":21,
			"type":"VEC4"
		},
		{
			"bufferView":62,
			"componentType":5126,
			"count":2,
			"type":"VEC3"
		},
		{
			"bufferView":63,
			"componentType":5126,
			"count":2,
			"type":"VEC3"
		},
		{
			"bufferView":64,
			"componentType":5126,
			"count":21,
			"type":"VEC4"
		},
		{
			"bufferView":65,
			"componentType":5126,
			"count":2,
			"type":"VEC3"
		}
	],
	"bufferViews":[
		{
			"buffer":0,
			"byteLength":5160,
			"byteOffset":0,
			"target":34962
		},
		{
			"buffer":0,
			"byteLength":5160,
			"byteOffset":5160,
			"target":34962
		},
		{
			"buffer":0,
			"byteLength":3440,
			"byteOffset":10320,
			"target":34962
		},
		{
			"buffer":0,
			"byteLength":1720,
			"byteOffset":13760,
			"target":34962
		},
		{
			"buffer":0,
			"byteLength":6880,
			"byteOffset":15480,
			"target":34962
		},
		{
			"buffer":0,
			"byteLength":3840,
			"byteOffset":22360,
			"target":34963
		},
		{
			"buffer":0,
			"byteLength":1216,
			"byteOffset":26200
		},
		{
			"buffer":0,
			"byteLength":8,
			"byteOffset":27416
		},
		{
			"buffer":0,
			"byteLength":24,
			"byteOffset":27424
		},
		{
			"buffer":0,
			"byteLength":84,
			"byteOffset":27448
		},
		{
			"buffer":0,
			"byteLength":336,
			"byteOffset":27532
		},
		{
			"buffer":0,
			"byteLength":24,
			"byteOffset":27868
		},
		{
			"buffer":0,
			"byteLength":24,
			"byteOffset":27892
		},
		{
			"buffer":0,
			"byteLength":336,
			"byteOffset":27916
		},
		{
			"buffer":0,
			"byteLength":24,
			"byteOffset":28252
		},
		{
			"buffer":0,
			"byteLength":24,
			"byteOffset":28276
		},
		{
			"buffer":0,
			"byteLength":336,
			"byteOffset":28300
		},
		{
			"buffer":0,
			"byteLength":24,
			"byteOffset":28636
		},
		{
			"buffer":0,
			"byteLength":24,
			"byteOffset":28660
		},
		{
			"buffer":0,
			"byteLength":336,
			"byteOffset":28684
		},
		{
			"buffer":0,
			"byteLength":24,
			"byteOffset":29020
		},
		{
			"buffer":0,
			"byteLength":24,
			"byteOffset":29044
		},
		{
			"buffer":0,
			"byteLength":336,
			"byteOffset":29068
		},
		{
			"buffer":0,
			"byteLength":24,
			"byteOffset":29404
		},
		{
			"buffer":0,
			"byteLength":24,
			"byteOffset":29428
		},
		{
			"buffer":0,
			"byteLength":336,
			"byteOffset":29452
		},
		{
			"buffer":0,
			"byteLength":24,
			"byteOffset":29788
		},
		{
			"buffer":0,
			"byteLength":24,
			"byteOffset":29812
		},
		{
			"buffer":0,
			"byteLength":336,
			"byteOffset":29836
		},
		{
			"buffer":0,
			"byteLength":24,
			"byteOffset":30172
		},
		{
			"buffer":0,
			"byteLength":24,
			"byteOffset":30196
		},
		{
			"buffer":0,
			"byteLength":336,
			"byteOffset":30220
		},
		{
			"buffer":0,
			"byteLength":24,
			"byteOffset":30556
		},
		{
			"buffer":0,
			"byteLength":24,
			"byteOffset":30580
		},
		{
			"buffer":0,
			"byteLength":336,
			"byteOffset":30604
		},
		{
			"buffer":0,
			"byteLength":24,
			"byteOffset":30940
		},
		{
			"buffer":0,
			"byteLength":24,
			"byteOffset":30964
		},
		{
			"buffer":0,
			"byteLength":336,
			"byteOffset":30988
		},
		{
			"buffer":0,
			"byteLength":24,
			"byteOffset":31324
		},
		{
			"buffer":0,
			"byteLength":24,
			"byteOffset":31348
		},
		{
			"buffer":0,
			"byteLength":336,
			"byteOffset":31372
		},
		{
			"buffer":0,
			"byteLength":24,
			"byteOffset":31708
		},
		{
			"buffer":0,
			"byteLength":24,
			"byteOffset":31732
		},
		{
			"buffer":0,
			"byteLength":336,
			"byteOffset":31756
		},
		{
			"buffer":0,
			"byteLength":24,
			"byteOffset":32092
		},
		{
			"buffer":0,
			"byteLength":24,
			"byteOffset":32116
		},
		{
			"buffer":0,
			"byteLength":336,
			"byteOffset":32140
		},
		{
			"buffer":0,
			"byteLength":24,
			"byteOffset":32476
		},
		{
			"buffer":0,
			"byteLength":24,
			"byteOffset":32500
		},
		{
			"buffer":0,
			"byteLength":336,
			"byteOffset":32524
		},
		{
			"buffer":0,
			"byteLength":24,
			"byteOffset":32860
		},
		{
			"buffer":0,
			"byteLength":24,
			"byteOffset":32884
		},
		{
			"buffer":0,
			"byteLength":336,
			"byteOffset":32908
		},
		{
			"buffer":0,
			"byteLength":24,
			"byteOffset":33244
		},
		{
			"buffer":0,
			"byteLength":24,
			"byteOffset":33268
		},
		{
			"buffer":0,
			"byteLength":336,
			"byteOffset":33292
		},
		{
			"buffer":0,
			"byteLength":24,
			"byteOffset":33628
		},
		{
			"buffer":0,
			"byteLength":24,
			"byteOffset":33652
		},
		{
			"buffer":0,
			"byteLength":336,
			"byteOffset":33676
		},
		{
			"buffer":0,
			"byteLength":24,
			"byteOffset":34012
		},
		{
			"buffer":0,
			"byteLength":24,
			"byteOffset":34036
		},
		{
			"buffer":0,
			"byteLength":336,
			"byteOffset":34060
		},
		{
			"buffer":0,
			"byteLength":24,
			"byteOffset":34396
		},
		{
			"buffer":0,
			"byteLength":24,
			"byteOffset":34420
		},
		{
			"buffer":0,
			"byteLength":336,
			"byteOffset":34444
		},
		{
			"buffer":0,
			"byteLength":24,
			"byteOffset":34780
		}
	],
	"samplers":[
		{
			"magFilter":9729,
			"minFilter":9987
		}
	],
	"buffers":[
		{
			"byteLength":34804,
			"uri":"sizukuSpecialImaginary.bin"
		}
	]
}
