# Blender 4.4.1
# www.blender.org
mtllib gate.mtl
o Cube
v -2.661394 -2.027262 -1.000000
v -1.874227 -3.865840 -1.000000
v -2.661394 -2.027262 1.000000
v -1.874227 -3.865840 1.000000
v -4.499972 -2.814430 -1.000000
v -3.712804 -4.653007 -1.000000
v -4.499972 -2.814430 1.000000
v -3.712804 -4.653007 1.000000
v -4.042121 -2.455587 0.808834
v -4.042121 -0.837920 0.808834
v -4.042121 -2.455587 -0.808834
v -4.042121 -0.837920 -0.808834
v -2.424454 -2.455587 0.808834
v -2.424454 -0.837920 0.808834
v -2.424454 -2.455587 -0.808834
v -2.424454 -0.837920 -0.808834
v -4.595362 -0.571990 1.000000
v -3.956782 1.323325 1.000000
v -4.595362 -0.571990 -1.000000
v -3.956782 1.323325 -1.000000
v -2.700047 -1.210569 1.000000
v -2.061468 0.684746 1.000000
v -2.700047 -1.210569 -1.000000
v -2.061468 0.684746 -1.000000
v -3.719398 0.442520 0.871267
v -4.314679 2.080221 0.871267
v -3.719398 0.442520 -0.871267
v -4.314679 2.080221 -0.871267
v -2.081697 1.037801 0.871267
v -2.676978 2.675502 0.871267
v -2.081697 1.037801 -0.871267
v -2.676978 2.675502 -0.871267
v -4.028254 2.215184 0.766946
v -4.028254 3.749077 0.766946
v -4.028254 2.215184 -0.766946
v -4.028254 3.749077 -0.766946
v -2.494360 2.215184 0.766946
v -2.494360 3.749077 0.766946
v -2.494360 2.215184 -0.766946
v -2.494360 3.749077 -0.766946
v -4.282277 2.873822 1.082966
v -4.570471 5.027696 1.064739
v -4.254864 2.859102 -1.089957
v -4.543058 5.012976 -1.108184
v -2.128500 3.162217 1.108184
v -2.416694 5.316091 1.089957
v -2.101087 3.147497 -1.064739
v -2.389282 5.301371 -1.082966
v -3.159458 3.520560 0.866354
v -2.471813 5.110975 0.866354
v -3.159458 3.520560 -0.866354
v -2.471813 5.110975 -0.866354
v -1.569043 2.832915 0.866354
v -0.881398 4.423330 0.866354
v -1.569043 2.832915 -0.866354
v -0.881398 4.423330 -0.866354
v -1.219815 3.293285 0.763863
v -1.616093 4.768722 0.763863
v -1.219815 3.293285 -0.763863
v -1.616093 4.768722 -0.763863
v 0.255622 3.689563 0.763863
v -0.140656 5.165000 0.763863
v 0.255622 3.689563 -0.763863
v -0.140656 5.165000 -0.763863
v -0.724824 3.395659 1.000000
v -0.407608 5.370342 1.000000
v -0.724824 3.395659 -1.000000
v -0.407608 5.370342 -1.000000
v 1.249859 3.078443 1.000000
v 1.567075 5.053126 1.000000
v 1.249859 3.078443 -1.000000
v 1.567075 5.053126 -1.000000
v 0.665686 3.194149 0.839931
v 0.665686 4.874012 0.839931
v 0.665686 3.194149 -0.839931
v 0.665686 4.874012 -0.839931
v 2.345549 3.194149 0.839931
v 2.345549 4.874012 0.839931
v 2.345549 3.194149 -0.839931
v 2.345549 4.874012 -0.839931
v 2.524379 3.489469 0.763954
v 1.744247 4.803203 0.763954
v 2.524379 3.489469 -0.763954
v 1.744247 4.803203 -0.763954
v 3.838113 4.269600 0.763954
v 3.057981 5.583334 0.763954
v 3.838113 4.269600 -0.763954
v 3.057981 5.583334 -0.763954
v 2.637023 1.935844 1.045372
v 2.637023 3.935844 1.045372
v 2.637023 1.935844 -0.954628
v 2.637023 3.935844 -0.954628
v 4.637023 1.935844 1.045372
v 4.637023 3.935844 1.045372
v 4.637023 1.935844 -0.954628
v 4.637023 3.935844 -0.954628
v 1.655724 1.295586 0.870996
v 2.796542 2.612048 0.870996
v 1.655724 1.295586 -0.870996
v 2.796542 2.612048 -0.870996
v 2.972187 0.154768 0.870996
v 4.113004 1.471231 0.870996
v 2.972187 0.154768 -0.870996
v 4.113004 1.471231 -0.870996
v 2.698253 -0.266361 0.723461
v 2.698253 1.180561 0.723461
v 2.698253 -0.266361 -0.723461
v 2.698253 1.180561 -0.723461
v 4.145175 -0.266361 0.723461
v 4.145175 1.180561 0.723461
v 4.145175 -0.266361 -0.723461
v 4.145175 1.180561 -0.723461
v 2.729908 -1.804137 1.017903
v 2.269810 0.085725 1.017903
v 2.729908 -1.804137 -0.927159
v 2.269810 0.085725 -0.927159
v 4.619770 -1.344040 1.017903
v 4.159672 0.545822 1.017903
v 4.619770 -1.344040 -0.927159
v 4.159672 0.545822 -0.927159
v 2.464224 -2.719069 0.666970
v 2.464224 -1.385130 0.666970
v 2.464224 -2.719069 -0.666970
v 2.464224 -1.385130 -0.666970
v 3.798163 -2.719069 0.666970
v 3.798163 -1.385130 0.666970
v 3.798163 -2.719069 -0.666970
v 3.798163 -1.385130 -0.666970
v 2.001212 -3.884163 1.000000
v 2.804319 -2.052492 1.000000
v 2.001212 -3.884163 -1.000000
v 2.804319 -2.052492 -1.000000
v 3.832882 -4.687271 1.000000
v 4.635990 -2.855600 1.000000
v 3.832882 -4.687271 -1.000000
v 4.635990 -2.855600 -1.000000
vn -0.3936 0.9193 -0.0000
vn -0.0000 -0.0000 1.0000
vn -0.9193 -0.3936 -0.0000
vn 0.3936 -0.9193 -0.0000
vn 0.9193 0.3936 -0.0000
vn -0.0000 -0.0000 -1.0000
vn -1.0000 -0.0000 -0.0000
vn 1.0000 -0.0000 -0.0000
vn -0.0000 -1.0000 -0.0000
vn -0.0000 1.0000 -0.0000
vn -0.9477 0.3193 -0.0000
vn 0.9477 -0.3193 -0.0000
vn -0.3193 -0.9477 -0.0000
vn 0.3193 0.9477 -0.0000
vn -0.9398 -0.3416 -0.0000
vn 0.9398 0.3416 -0.0000
vn 0.3416 -0.9398 -0.0000
vn -0.3416 0.9398 -0.0000
vn -0.9911 -0.1327 -0.0116
vn 0.0126 -0.0068 -0.9999
vn 0.9911 0.1327 0.0116
vn -0.0126 0.0068 0.9999
vn 0.1326 -0.9911 0.0084
vn -0.1326 0.9911 -0.0084
vn -0.9179 0.3969 -0.0000
vn 0.9179 -0.3969 -0.0000
vn -0.3969 -0.9179 -0.0000
vn 0.3969 0.9179 -0.0000
vn -0.9658 -0.2594 -0.0000
vn 0.9658 0.2594 -0.0000
vn 0.2594 -0.9658 -0.0000
vn -0.2594 0.9658 -0.0000
vn -0.9873 0.1586 -0.0000
vn 0.9873 -0.1586 -0.0000
vn -0.1586 -0.9873 -0.0000
vn 0.1586 0.9873 -0.0000
vn -0.8598 -0.5106 -0.0000
vn 0.8598 0.5106 -0.0000
vn 0.5106 -0.8598 -0.0000
vn -0.5106 0.8598 -0.0000
vn -0.7557 0.6549 -0.0000
vn 0.7557 -0.6549 -0.0000
vn -0.6549 -0.7557 -0.0000
vn 0.6549 0.7557 -0.0000
vn -0.9716 -0.2365 -0.0000
vn 0.9716 0.2365 -0.0000
vn 0.2365 -0.9716 -0.0000
vn -0.2365 0.9716 -0.0000
vn -0.9158 0.4016 -0.0000
vn 0.9158 -0.4016 -0.0000
vn -0.4016 -0.9158 -0.0000
vn 0.4016 0.9158 -0.0000
vt 0.875000 0.500000
vt 0.625000 0.750000
vt 0.625000 0.500000
vt 0.375000 1.000000
vt 0.375000 0.750000
vt 0.625000 0.000000
vt 0.375000 0.250000
vt 0.375000 0.000000
vt 0.375000 0.500000
vt 0.125000 0.750000
vt 0.125000 0.500000
vt 0.625000 0.250000
vt 0.625000 1.000000
vt 0.875000 0.750000
s 0
usemtl Material
f 5/1/1 3/2/1 1/3/1
f 3/2/2 8/4/2 4/5/2
f 7/6/3 6/7/3 8/8/3
f 2/9/4 8/10/4 6/11/4
f 1/3/5 4/5/5 2/9/5
f 6/7/6 1/3/6 2/9/6
f 10/6/7 11/7/7 9/8/7
f 12/12/6 15/9/6 11/7/6
f 16/3/8 13/5/8 15/9/8
f 14/2/2 9/4/2 13/5/2
f 15/9/9 9/10/9 11/11/9
f 12/1/10 14/2/10 16/3/10
f 18/6/11 19/7/11 17/8/11
f 20/12/6 23/9/6 19/7/6
f 24/3/12 21/5/12 23/9/12
f 21/5/2 18/13/2 17/4/2
f 23/9/13 17/10/13 19/11/13
f 20/1/14 22/2/14 24/3/14
f 26/6/15 27/7/15 25/8/15
f 28/12/6 31/9/6 27/7/6
f 32/3/16 29/5/16 31/9/16
f 29/5/2 26/13/2 25/4/2
f 31/9/17 25/10/17 27/11/17
f 28/1/18 30/2/18 32/3/18
f 34/6/7 35/7/7 33/8/7
f 36/12/6 39/9/6 35/7/6
f 40/3/8 37/5/8 39/9/8
f 38/2/2 33/4/2 37/5/2
f 39/9/9 33/10/9 35/11/9
f 36/1/10 38/2/10 40/3/10
f 41/8/19 44/12/19 43/7/19
f 44/12/20 47/9/20 43/7/20
f 47/9/21 46/2/21 45/5/21
f 46/2/22 41/4/22 45/5/22
f 47/9/23 41/10/23 43/11/23
f 48/3/24 42/14/24 46/2/24
f 50/6/25 51/7/25 49/8/25
f 51/7/6 56/3/6 55/9/6
f 56/3/26 53/5/26 55/9/26
f 54/2/2 49/4/2 53/5/2
f 55/9/27 49/10/27 51/11/27
f 52/1/28 54/2/28 56/3/28
f 58/6/29 59/7/29 57/8/29
f 60/12/6 63/9/6 59/7/6
f 64/3/30 61/5/30 63/9/30
f 62/2/2 57/4/2 61/5/2
f 63/9/31 57/10/31 59/11/31
f 60/1/32 62/2/32 64/3/32
f 66/6/33 67/7/33 65/8/33
f 68/12/6 71/9/6 67/7/6
f 72/3/34 69/5/34 71/9/34
f 69/5/2 66/13/2 65/4/2
f 71/9/35 65/10/35 67/11/35
f 68/1/36 70/2/36 72/3/36
f 74/6/7 75/7/7 73/8/7
f 76/12/6 79/9/6 75/7/6
f 80/3/8 77/5/8 79/9/8
f 78/2/2 73/4/2 77/5/2
f 79/9/9 73/10/9 75/11/9
f 76/1/10 78/2/10 80/3/10
f 82/6/37 83/7/37 81/8/37
f 84/12/6 87/9/6 83/7/6
f 88/3/38 85/5/38 87/9/38
f 85/5/2 82/13/2 81/4/2
f 87/9/39 81/10/39 83/11/39
f 84/1/40 86/2/40 88/3/40
f 90/6/7 91/7/7 89/8/7
f 92/12/6 95/9/6 91/7/6
f 96/3/8 93/5/8 95/9/8
f 94/2/2 89/4/2 93/5/2
f 95/9/9 89/10/9 91/11/9
f 92/1/10 94/2/10 96/3/10
f 98/6/41 99/7/41 97/8/41
f 99/7/6 104/3/6 103/9/6
f 104/3/42 101/5/42 103/9/42
f 102/2/2 97/4/2 101/5/2
f 103/9/43 97/10/43 99/11/43
f 100/1/44 102/2/44 104/3/44
f 106/6/7 107/7/7 105/8/7
f 108/12/6 111/9/6 107/7/6
f 112/3/8 109/5/8 111/9/8
f 110/2/2 105/4/2 109/5/2
f 111/9/9 105/10/9 107/11/9
f 108/1/10 110/2/10 112/3/10
f 114/6/45 115/7/45 113/8/45
f 115/7/6 120/3/6 119/9/6
f 120/3/46 117/5/46 119/9/46
f 118/2/2 113/4/2 117/5/2
f 119/9/47 113/10/47 115/11/47
f 116/1/48 118/2/48 120/3/48
f 122/6/7 123/7/7 121/8/7
f 124/12/6 127/9/6 123/7/6
f 128/3/8 125/5/8 127/9/8
f 126/2/2 121/4/2 125/5/2
f 127/9/9 121/10/9 123/11/9
f 124/1/10 126/2/10 128/3/10
f 130/6/49 131/7/49 129/8/49
f 131/7/6 136/3/6 135/9/6
f 136/3/50 133/5/50 135/9/50
f 134/2/2 129/4/2 133/5/2
f 135/9/51 129/10/51 131/11/51
f 132/1/52 134/2/52 136/3/52
f 5/1/1 7/14/1 3/2/1
f 3/2/2 7/13/2 8/4/2
f 7/6/3 5/12/3 6/7/3
f 2/9/4 4/5/4 8/10/4
f 1/3/5 3/2/5 4/5/5
f 6/7/6 5/12/6 1/3/6
f 10/6/7 12/12/7 11/7/7
f 12/12/6 16/3/6 15/9/6
f 16/3/8 14/2/8 13/5/8
f 14/2/2 10/13/2 9/4/2
f 15/9/9 13/5/9 9/10/9
f 12/1/10 10/14/10 14/2/10
f 18/6/11 20/12/11 19/7/11
f 20/12/6 24/3/6 23/9/6
f 24/3/12 22/2/12 21/5/12
f 21/5/2 22/2/2 18/13/2
f 23/9/13 21/5/13 17/10/13
f 20/1/14 18/14/14 22/2/14
f 26/6/15 28/12/15 27/7/15
f 28/12/6 32/3/6 31/9/6
f 32/3/16 30/2/16 29/5/16
f 29/5/2 30/2/2 26/13/2
f 31/9/17 29/5/17 25/10/17
f 28/1/18 26/14/18 30/2/18
f 34/6/7 36/12/7 35/7/7
f 36/12/6 40/3/6 39/9/6
f 40/3/8 38/2/8 37/5/8
f 38/2/2 34/13/2 33/4/2
f 39/9/9 37/5/9 33/10/9
f 36/1/10 34/14/10 38/2/10
f 41/8/19 42/6/19 44/12/19
f 44/12/20 48/3/20 47/9/20
f 47/9/21 48/3/21 46/2/21
f 46/2/22 42/13/22 41/4/22
f 47/9/23 45/5/23 41/10/23
f 48/3/24 44/1/24 42/14/24
f 50/6/25 52/12/25 51/7/25
f 51/7/6 52/12/6 56/3/6
f 56/3/26 54/2/26 53/5/26
f 54/2/2 50/13/2 49/4/2
f 55/9/27 53/5/27 49/10/27
f 52/1/28 50/14/28 54/2/28
f 58/6/29 60/12/29 59/7/29
f 60/12/6 64/3/6 63/9/6
f 64/3/30 62/2/30 61/5/30
f 62/2/2 58/13/2 57/4/2
f 63/9/31 61/5/31 57/10/31
f 60/1/32 58/14/32 62/2/32
f 66/6/33 68/12/33 67/7/33
f 68/12/6 72/3/6 71/9/6
f 72/3/34 70/2/34 69/5/34
f 69/5/2 70/2/2 66/13/2
f 71/9/35 69/5/35 65/10/35
f 68/1/36 66/14/36 70/2/36
f 74/6/7 76/12/7 75/7/7
f 76/12/6 80/3/6 79/9/6
f 80/3/8 78/2/8 77/5/8
f 78/2/2 74/13/2 73/4/2
f 79/9/9 77/5/9 73/10/9
f 76/1/10 74/14/10 78/2/10
f 82/6/37 84/12/37 83/7/37
f 84/12/6 88/3/6 87/9/6
f 88/3/38 86/2/38 85/5/38
f 85/5/2 86/2/2 82/13/2
f 87/9/39 85/5/39 81/10/39
f 84/1/40 82/14/40 86/2/40
f 90/6/7 92/12/7 91/7/7
f 92/12/6 96/3/6 95/9/6
f 96/3/8 94/2/8 93/5/8
f 94/2/2 90/13/2 89/4/2
f 95/9/9 93/5/9 89/10/9
f 92/1/10 90/14/10 94/2/10
f 98/6/41 100/12/41 99/7/41
f 99/7/6 100/12/6 104/3/6
f 104/3/42 102/2/42 101/5/42
f 102/2/2 98/13/2 97/4/2
f 103/9/43 101/5/43 97/10/43
f 100/1/44 98/14/44 102/2/44
f 106/6/7 108/12/7 107/7/7
f 108/12/6 112/3/6 111/9/6
f 112/3/8 110/2/8 109/5/8
f 110/2/2 106/13/2 105/4/2
f 111/9/9 109/5/9 105/10/9
f 108/1/10 106/14/10 110/2/10
f 114/6/45 116/12/45 115/7/45
f 115/7/6 116/12/6 120/3/6
f 120/3/46 118/2/46 117/5/46
f 118/2/2 114/13/2 113/4/2
f 119/9/47 117/5/47 113/10/47
f 116/1/48 114/14/48 118/2/48
f 122/6/7 124/12/7 123/7/7
f 124/12/6 128/3/6 127/9/6
f 128/3/8 126/2/8 125/5/8
f 126/2/2 122/13/2 121/4/2
f 127/9/9 125/5/9 121/10/9
f 124/1/10 122/14/10 126/2/10
f 130/6/49 132/12/49 131/7/49
f 131/7/6 132/12/6 136/3/6
f 136/3/50 134/2/50 133/5/50
f 134/2/2 130/13/2 129/4/2
f 135/9/51 133/5/51 129/10/51
f 132/1/52 130/14/52 134/2/52
